  0
SECTION
  2
HEADER
  9
$ACADVER
  1
AC1014
  9
$HANDSEED
  5
FFFF
  9
$MEASUREMENT
 70
     1
  0
ENDSEC
  0
SECTION
  2
TABLES
  0
TABLE
  2
VPORT
  5
8
330
0
100
AcDbSymbolTable
 70
     4
  0
VPORT
  5
2E
330
8
100
AcDbSymbolTableRecord
100
AcDbViewportTableRecord
  2
*ACTIVE
 70
     0
 10
0.0
 20
0.0
 11
1.0
 21
1.0
 12
210.0
 22
148.5
 13
0.0
 23
0.0
 14
10.0
 24
10.0
 15
10.0
 25
10.0
 16
0.0
 26
0.0
 36
1.0
 17
0.0
 27
0.0
 37
0.0
 40
341.0
 41
1.24
 42
50.0
 43
0.0
 44
0.0
 50
0.0
 51
0.0
 71
     0
 72
   100
 73
     1
 74
     3
 75
     0
 76
     0
 77
     0
 78
     0
  0
ENDTAB
  0
TABLE
  2
LTYPE
  5
5
330
0
100
AcDbSymbolTable
 70
     1
  0
LTYPE
  5
14
330
5
100
AcDbSymbolTableRecord
100
AcDbLinetypeTableRecord
  2
BYBLOCK
 70
     0
  3

 72
    65
 73
     0
 40
0.0
  0
LTYPE
  5
15
330
5
100
AcDbSymbolTableRecord
100
AcDbLinetypeTableRecord
  2
BYLAYER
 70
     0
  3

 72
    65
 73
     0
 40
0.0
  0
LTYPE
  5
16
330
5
100
AcDbSymbolTableRecord
100
AcDbLinetypeTableRecord
  2
CONTINUOUS
 70
     0
  3
Solid line
 72
    65
 73
     0
 40
0.0
  0
ENDTAB
  0
TABLE
  2
LAYER
  5
2
100
AcDbSymbolTable
 70
3
  0
LAYER
  5
50
100
AcDbSymbolTableRecord
100
AcDbLayerTableRecord
  2
0
 70
0
  6
CONTINUOUS
  0
LAYER
  5
51
100
AcDbSymbolTableRecord
100
AcDbLayerTableRecord
  2
SilkS
 70
0
  6
CONTINUOUS
  0
LAYER
  5
52
100
AcDbSymbolTableRecord
100
AcDbLayerTableRecord
  2
Edge.Cuts
 70
0
  6
CONTINUOUS
  0
ENDTAB
  0
TABLE
  2
STYLE
  5
3
330
0
100
AcDbSymbolTable
 70
     1
  0
STYLE
  5
11
330
3
100
AcDbSymbolTableRecord
100
AcDbTextStyleTableRecord
  2
STANDARD
 70
     0
 40
0.0
 41
1.0
 50
0.0
 71
     0
 42
2.5
  3
txt
  4

  0
ENDTAB
  0
TABLE
  2
VIEW
  5
6
330
0
100
AcDbSymbolTable
 70
     0
  0
ENDTAB
  0
TABLE
  2
UCS
  5
7
330
0
100
AcDbSymbolTable
 70
     0
  0
ENDTAB
  0
TABLE
  2
APPID
  5
9
330
0
100
AcDbSymbolTable
 70
     2
  0
APPID
  5
12
330
9
100
AcDbSymbolTableRecord
100
AcDbRegAppTableRecord
  2
ACAD
 70
     0
  0
ENDTAB
  0
TABLE
  2
DIMSTYLE
  5
A
330
0
100
AcDbSymbolTable
 70
     1
  0
DIMSTYLE
105
27
330
A
100
AcDbSymbolTableRecord
100
AcDbDimStyleTableRecord
  2
ISO-25
 70
     0
  3

  4

  5

  6

  7

 40
1.0
 41
2.5
 42
0.625
 43
3.75
 44
1.25
 45
0.0
 46
0.0
 47
0.0
 48
0.0
140
2.5
141
2.5
142
0.0
143
0.03937007874016
144
1.0
145
0.0
146
1.0
147
0.625
 71
     0
 72
     0
 73
     0
 74
     0
 75
     0
 76
     0
 77
     1
 78
     8
170
     0
171
     3
172
     1
173
     0
174
     0
175
     0
176
     0
177
     0
178
     0
270
     2
271
     2
272
     2
273
     2
274
     3
340
11
275
     0
280
     0
281
     0
282
     0
283
     0
284
     8
285
     0
286
     0
287
     3
288
     0
  0
ENDTAB
  0
TABLE
  2
BLOCK_RECORD
  5
1
330
0
100
AcDbSymbolTable
 70
     1
  0
BLOCK_RECORD
  5
1F
330
1
100
AcDbSymbolTableRecord
100
AcDbBlockTableRecord
  2
*MODEL_SPACE
  0
BLOCK_RECORD
  5
1B
330
1
100
AcDbSymbolTableRecord
100
AcDbBlockTableRecord
  2
*PAPER_SPACE
  0
ENDTAB
  0
ENDSEC
  0
SECTION
  2
BLOCKS
  0
BLOCK
  5
20
330
1F
100
AcDbEntity
  8
0
100
AcDbBlockBegin
  2
*MODEL_SPACE
 70
     0
 10
0.0
 20
0.0
 30
0.0
  3
*MODEL_SPACE
  1

  0
ENDBLK
  5
21
330
1F
100
AcDbEntity
  8
0
100
AcDbBlockEnd
  0
BLOCK
  5
1C
330
1B
100
AcDbEntity
 67
     1
  8
0
100
AcDbBlockBegin
  2
*PAPER_SPACE
  1

  0
ENDBLK
  5
1D
330
1B
100
AcDbEntity
 67
     1
  8
0
100
AcDbBlockEnd
  0
ENDSEC
  0
SECTION
  2
ENTITIES
  0
LWPOLYLINE
  5
100
100
AcDbEntity
  8
SilkS
 62
7
100
AcDbPolyline
 90
116
 70
1
 10
68.859000
 20
93.284985
 30
0.0
 10
86.926102
 20
93.350235
 30
0.0
 10
118.071150
 20
93.454665
 30
0.0
 10
120.491422
 20
93.500490
 30
0.0
 10
129.302055
 20
93.689227
 30
0.0
 10
136.435477
 20
93.834802
 30
0.0
 10
137.836687
 20
93.955935
 30
0.0
 10
138.352830
 20
94.114357
 30
0.0
 10
138.866722
 20
94.460122
 30
0.0
 10
138.660637
 20
96.726172
 30
0.0
 10
137.990115
 20
99.655973
 30
0.0
 10
137.625870
 20
101.184562
 30
0.0
 10
136.917068
 20
104.156820
 30
0.0
 10
136.562872
 20
105.841972
 30
0.0
 10
133.079437
 20
113.541030
 30
0.0
 10
130.170165
 20
113.604330
 30
0.0
 10
126.648277
 20
113.583030
 30
0.0
 10
125.594805
 20
113.587530
 30
0.0
 10
124.501440
 20
113.632080
 30
0.0
 10
124.488540
 20
118.417417
 30
0.0
 10
124.588920
 20
118.538947
 30
0.0
 10
124.654995
 20
118.369102
 30
0.0
 10
124.922497
 20
118.274730
 30
0.0
 10
125.174857
 20
118.223805
 30
0.0
 10
125.228632
 20
118.213155
 30
0.0
 10
125.264707
 20
126.622110
 30
0.0
 10
125.224207
 20
129.466987
 30
0.0
 10
123.681158
 20
135.641220
 30
0.0
 10
122.338080
 20
141.139905
 30
0.0
 10
121.727475
 20
143.645092
 30
0.0
 10
121.311330
 20
145.385992
 30
0.0
 10
121.043452
 20
146.489970
 30
0.0
 10
121.048702
 20
147.105652
 30
0.0
 10
121.102252
 20
148.358250
 30
0.0
 10
121.318357
 20
151.394205
 30
0.0
 10
121.702147
 20
156.468277
 30
0.0
 10
121.785757
 20
157.593487
 30
0.0
 10
121.871175
 20
158.867317
 30
0.0
 10
121.965900
 20
164.981677
 30
0.0
 10
121.658617
 20
172.263720
 30
0.0
 10
121.488855
 20
176.552265
 30
0.0
 10
121.424730
 20
178.080855
 30
0.0
 10
121.275585
 20
181.732492
 30
0.0
 10
121.086750
 20
186.445650
 30
0.0
 10
120.981345
 20
189.035760
 30
0.0
 10
120.810307
 20
193.260622
 30
0.0
 10
120.745807
 20
194.874135
 30
0.0
 10
120.681232
 20
196.466415
 30
0.0
 10
120.597510
 20
198.738075
 30
0.0
 10
120.513112
 20
200.946037
 30
0.0
 10
120.275812
 20
205.898235
 30
0.0
 10
118.569397
 20
207.771675
 30
0.0
 10
116.733330
 20
207.919162
 30
0.0
 10
76.268108
 20
207.941287
 30
0.0
 10
65.780272
 20
207.890362
 30
0.0
 10
36.503505
 20
207.695640
 30
0.0
 10
32.285767
 20
207.375337
 30
0.0
 10
31.264215
 20
206.480820
 30
0.0
 10
30.837547
 20
205.250602
 30
0.0
 10
30.588517
 20
192.630780
 30
0.0
 10
30.151822
 20
181.453110
 30
0.0
 10
30.110947
 20
180.416265
 30
0.0
 10
29.965147
 20
176.743402
 30
0.0
 10
29.920222
 20
175.405882
 30
0.0
 10
29.835225
 20
172.858230
 30
0.0
 10
29.732025
 20
169.546282
 30
0.0
 10
29.589787
 20
163.113465
 30
0.0
 10
29.638237
 20
160.502115
 30
0.0
 10
29.753797
 20
159.207060
 30
0.0
 10
29.836867
 20
158.357842
 30
0.0
 10
29.899942
 20
157.699702
 30
0.0
 10
30.158250
 20
155.130817
 30
0.0
 10
30.326962
 20
153.517305
 30
0.0
 10
30.517470
 20
151.712715
 30
0.0
 10
30.771277
 20
149.186295
 30
0.0
 10
30.956452
 20
148.199475
 30
0.0
 10
31.036057
 20
148.010490
 30
0.0
 10
30.971482
 20
148.039890
 30
0.0
 10
30.926257
 20
147.848820
 30
0.0
 10
31.056030
 20
147.138997
 30
0.0
 10
31.235520
 20
146.129152
 30
0.0
 10
31.470255
 20
143.724405
 30
0.0
 10
32.676990
 20
142.108762
 30
0.0
 10
33.105487
 20
141.711442
 30
0.0
 10
33.234375
 20
141.567172
 30
0.0
 10
33.382575
 20
141.381720
 30
0.0
 10
32.975640
 20
140.460360
 30
0.0
 10
32.355960
 20
139.147365
 30
0.0
 10
32.017140
 20
138.425527
 30
0.0
 10
31.570207
 20
137.467132
 30
0.0
 10
31.101045
 20
136.448070
 30
0.0
 10
30.870525
 20
135.938542
 30
0.0
 10
29.376810
 20
132.817672
 30
0.0
 10
28.258012
 20
130.503555
 30
0.0
 10
27.764325
 20
129.484492
 30
0.0
 10
27.629130
 20
129.250957
 30
0.0
 10
27.629580
 20
128.146973
 30
0.0
 10
27.713857
 20
123.900885
 30
0.0
 10
27.759232
 20
122.032605
 30
0.0
 10
27.894682
 20
118.056015
 30
0.0
 10
28.420102
 20
118.078740
 30
0.0
 10
28.572405
 20
116.003145
 30
0.0
 10
28.570155
 20
113.320957
 30
0.0
 10
24.706215
 20
113.260432
 30
0.0
 10
20.495497
 20
113.148143
 30
0.0
 10
19.108027
 20
112.387162
 30
0.0
 10
16.165177
 20
103.625812
 30
0.0
 10
14.484660
 20
98.196270
 30
0.0
 10
13.997910
 20
96.349222
 30
0.0
 10
13.850092
 20
95.345947
 30
0.0
 10
13.877842
 20
93.955965
 30
0.0
 10
14.971425
 20
93.624630
 30
0.0
 10
17.969077
 20
93.434978
 30
0.0
 10
22.427467
 20
93.391777
 30
0.0
 10
34.953427
 20
93.223530
 30
0.0
 10
68.858430
 20
93.284730
 30
0.0
  0
LWPOLYLINE
  5
101
100
AcDbEntity
  8
SilkS
 62
7
100
AcDbPolyline
 90
23
 70
1
 10
38.181022
 20
93.519218
 30
0.0
 10
30.941445
 20
93.578843
 30
0.0
 10
20.071462
 20
93.732780
 30
0.0
 10
14.735497
 20
93.945742
 30
0.0
 10
14.020785
 20
94.243020
 30
0.0
 10
14.267047
 20
94.226220
 30
0.0
 10
15.804142
 20
93.948517
 30
0.0
 10
18.373027
 20
93.882217
 30
0.0
 10
20.941905
 20
93.837292
 30
0.0
 10
63.975997
 20
93.647820
 30
0.0
 10
101.065582
 20
93.796350
 30
0.0
 10
130.618342
 20
94.072530
 30
0.0
 10
133.229685
 20
94.134780
 30
0.0
 10
135.119190
 20
94.177980
 30
0.0
 10
136.966237
 20
94.219305
 30
0.0
 10
137.136082
 20
94.200405
 30
0.0
 10
133.781677
 20
94.028520
 30
0.0
 10
129.535590
 20
93.944265
 30
0.0
 10
112.041720
 20
93.648952
 30
0.0
 10
108.305160
 20
93.628402
 30
0.0
 10
72.255870
 20
93.540952
 30
0.0
 10
48.796237
 20
93.504202
 30
0.0
 10
38.181022
 20
93.519052
 30
0.0
  0
LWPOLYLINE
  5
102
100
AcDbEntity
  8
SilkS
 62
7
100
AcDbPolyline
 90
5
 70
1
 10
138.070140
 20
94.389622
 30
0.0
 10
138.426525
 20
94.473270
 30
0.0
 10
138.384150
 20
94.434945
 30
0.0
 10
137.841975
 20
94.286902
 30
0.0
 10
138.070147
 20
94.389592
 30
0.0
  0
LWPOLYLINE
  5
103
100
AcDbEntity
  8
SilkS
 62
7
100
AcDbPolyline
 90
57
 70
0
 10
40.102432
 20
98.221770
 30
0.0
 10
39.926400
 20
98.310510
 30
0.0
 10
39.915150
 20
98.925915
 30
0.0
 10
39.928650
 20
99.134167
 30
0.0
 10
39.953775
 20
100.012365
 30
0.0
 10
39.987000
 20
100.161202
 30
0.0
 10
39.789112
 20
101.108917
 30
0.0
 10
39.671160
 20
101.423662
 30
0.0
 10
38.387145
 20
101.483737
 30
0.0
 10
36.791280
 20
101.501212
 30
0.0
 10
35.615977
 20
101.194590
 30
0.0
 10
35.335710
 20
99.859987
 30
0.0
 10
35.226540
 20
99.504480
 30
0.0
 10
35.166315
 20
99.240232
 30
0.0
 10
35.058007
 20
98.374890
 30
0.0
 10
34.705132
 20
98.272815
 30
0.0
 10
34.631707
 20
98.625945
 30
0.0
 10
34.729620
 20
99.443512
 30
0.0
 10
34.735620
 20
100.271505
 30
0.0
 10
34.457482
 20
101.204805
 30
0.0
 10
34.264072
 20
101.478405
 30
0.0
 10
33.266407
 20
101.467605
 30
0.0
 10
31.748482
 20
101.458530
 30
0.0
 10
30.823027
 20
101.502105
 30
0.0
 10
30.009885
 20
99.847005
 30
0.0
 10
29.896110
 20
99.337477
 30
0.0
 10
29.801347
 20
98.744445
 30
0.0
 10
29.751697
 20
98.342490
 30
0.0
 10
29.613367
 20
98.302815
 30
0.0
 10
29.369797
 20
98.311065
 30
0.0
 10
29.355922
 20
99.217155
 30
0.0
 10
29.223952
 20
100.743187
 30
0.0
 10
28.913902
 20
101.373630
 30
0.0
 10
28.302420
 20
101.373630
 30
0.0
 10
26.469082
 20
101.311905
 30
0.0
 10
25.138477
 20
101.311905
 30
0.0
 10
25.060492
 20
101.215673
 30
0.0
 10
24.913005
 20
100.812293
 30
0.0
 10
23.586465
 20
100.306553
 30
0.0
 10
22.098337
 20
99.868237
 30
0.0
 10
21.886027
 20
98.987632
 30
0.0
 10
21.770220
 20
98.404252
 30
0.0
 10
21.627757
 20
98.403787
 30
0.0
 10
21.503955
 20
98.562555
 30
0.0
 10
21.846112
 20
100.087102
 30
0.0
 10
22.213575
 20
101.870460
 30
0.0
 10
22.493842
 20
103.103947
 30
0.0
 10
22.422517
 20
103.970220
 30
0.0
 10
21.990360
 20
104.007495
 30
0.0
 10
21.451777
 20
104.187390
 30
0.0
 10
21.688065
 20
105.027210
 30
0.0
 10
21.962047
 20
105.961350
 30
0.0
 10
22.188292
 20
106.810567
 30
0.0
 10
22.449960
 20
106.983855
 30
0.0
 10
22.731112
 20
107.238150
 30
0.0
 10
24.096690
 20
107.578807
 30
0.0
 10
25.218367
 20
107.559007
 30
0.0
  0
SPLINE
  5
104
100
AcDbEntity
  8
SilkS
 62
7
100
AcDbSpline
 70
0
 71
3
 72
10
 73
6
 74
4
 40
0.000000
 40
0.000000
 40
0.000000
 40
0.000000
 40
0.653075
 40
0.824078
 40
1.436814
 40
1.436814
 40
1.436814
 40
1.436814
 10
25.218367
 20
107.559007
 30
0.0
 10
25.328431
 20
107.727591
 30
0.0
 10
25.467314
 20
107.940318
 30
0.0
 10
25.701786
 20
108.475880
 30
0.0
 10
25.720850
 20
108.025463
 30
0.0
 10
25.735755
 20
107.673322
 30
0.0
 11
25.218367
 21
107.559007
 31
0.0
 11
25.545793
 21
108.124073
 31
0.0
 11
25.624519
 21
108.275877
 31
0.0
 11
25.735755
 21
107.673322
 31
0.0
  0
LWPOLYLINE
  5
105
100
AcDbEntity
  8
SilkS
 62
7
100
AcDbPolyline
 90
11
 70
0
 10
25.735755
 20
107.673322
 30
0.0
 10
25.825297
 20
107.611597
 30
0.0
 10
25.928182
 20
107.599072
 30
0.0
 10
26.342175
 20
107.561197
 30
0.0
 10
27.172672
 20
107.534272
 30
0.0
 10
27.771772
 20
107.613675
 30
0.0
 10
28.003710
 20
107.631600
 30
0.0
 10
28.725315
 20
107.955510
 30
0.0
 10
28.224337
 20
108.084315
 30
0.0
 10
27.517732
 20
108.040740
 30
0.0
 10
26.978730
 20
107.993865
 30
0.0
  0
SPLINE
  5
106
100
AcDbEntity
  8
SilkS
 62
7
100
AcDbSpline
 70
0
 71
3
 72
10
 73
6
 74
4
 40
0.000000
 40
0.000000
 40
0.000000
 40
0.000000
 40
0.225375
 40
0.303306
 40
0.513518
 40
0.513518
 40
0.513518
 40
0.513518
 10
26.978730
 20
107.993865
 30
0.0
 10
26.899527
 20
107.990272
 30
0.0
 10
26.792937
 20
107.985437
 30
0.0
 10
26.663338
 20
108.145486
 30
0.0
 10
26.792551
 20
108.186647
 30
0.0
 10
26.886817
 20
108.216675
 30
0.0
 11
26.978730
 21
107.993865
 31
0.0
 11
26.757709
 21
108.037951
 31
0.0
 11
26.711493
 21
108.100699
 31
0.0
 11
26.886817
 21
108.216675
 31
0.0
  0
LWPOLYLINE
  5
107
100
AcDbEntity
  8
SilkS
 62
7
100
AcDbPolyline
 90
160
 70
0
 10
26.886817
 20
108.216675
 30
0.0
 10
26.995860
 20
108.228375
 30
0.0
 10
27.168675
 20
108.292050
 30
0.0
 10
27.388710
 20
108.385762
 30
0.0
 10
28.861252
 20
108.442237
 30
0.0
 10
29.232420
 20
108.076890
 30
0.0
 10
29.277570
 20
107.700202
 30
0.0
 10
29.626890
 20
107.489850
 30
0.0
 10
29.940540
 20
107.148495
 30
0.0
 10
30.146062
 20
106.903597
 30
0.0
 10
30.344767
 20
107.126160
 30
0.0
 10
30.533310
 20
107.484570
 30
0.0
 10
30.653362
 20
107.607382
 30
0.0
 10
30.724163
 20
107.487510
 30
0.0
 10
30.868410
 20
107.345445
 30
0.0
 10
32.151488
 20
107.235082
 30
0.0
 10
32.799983
 20
107.320005
 30
0.0
 10
33.089498
 20
107.404927
 30
0.0
 10
33.117323
 20
107.549085
 30
0.0
 10
32.950005
 20
107.506410
 30
0.0
 10
32.703953
 20
107.574360
 30
0.0
 10
32.680778
 20
107.755612
 30
0.0
 10
32.797545
 20
107.856037
 30
0.0
 10
32.832720
 20
108.111577
 30
0.0
 10
32.845470
 20
108.288435
 30
0.0
 10
34.261185
 20
108.332910
 30
0.0
 10
34.431158
 20
107.736525
 30
0.0
 10
34.777163
 20
107.425042
 30
0.0
 10
35.091315
 20
107.043975
 30
0.0
 10
35.399243
 20
106.937002
 30
0.0
 10
35.486715
 20
107.159385
 30
0.0
 10
35.805180
 20
107.501700
 30
0.0
 10
35.873730
 20
107.585602
 30
0.0
 10
36.006495
 20
107.644627
 30
0.0
 10
36.240030
 20
107.696377
 30
0.0
 10
36.872798
 20
107.772330
 30
0.0
 10
37.170030
 20
107.750205
 30
0.0
 10
37.222230
 20
107.711805
 30
0.0
 10
37.079078
 20
107.500440
 30
0.0
 10
36.891848
 20
107.356508
 30
0.0
 10
36.198638
 20
107.426333
 30
0.0
 10
35.907878
 20
107.364008
 30
0.0
 10
37.871760
 20
107.248575
 30
0.0
 10
37.970085
 20
107.450220
 30
0.0
 10
37.948260
 20
107.685885
 30
0.0
 10
37.593053
 20
107.744535
 30
0.0
 10
37.718093
 20
107.798760
 30
0.0
 10
38.347305
 20
107.993280
 30
0.0
 10
38.670263
 20
108.169147
 30
0.0
 10
38.755050
 20
108.212197
 30
0.0
 10
39.001710
 20
108.245497
 30
0.0
 10
39.283470
 20
108.255547
 30
0.0
 10
39.538230
 20
107.898022
 30
0.0
 10
39.899303
 20
107.428170
 30
0.0
 10
40.139273
 20
107.126085
 30
0.0
 10
40.323803
 20
106.875727
 30
0.0
 10
40.628400
 20
107.126062
 30
0.0
 10
40.765148
 20
107.419860
 30
0.0
 10
40.877085
 20
107.619412
 30
0.0
 10
41.711737
 20
107.776980
 30
0.0
 10
42.266325
 20
107.730555
 30
0.0
 10
42.239550
 20
107.562945
 30
0.0
 10
42.266775
 20
107.330212
 30
0.0
 10
42.066352
 20
107.294662
 30
0.0
 10
41.576940
 20
107.368237
 30
0.0
 10
41.216025
 20
107.397562
 30
0.0
 10
41.090032
 20
107.382937
 30
0.0
 10
41.194485
 20
107.323912
 30
0.0
 10
42.087832
 20
107.244180
 30
0.0
 10
43.013055
 20
107.293980
 30
0.0
 10
43.149390
 20
107.543850
 30
0.0
 10
43.291192
 20
107.836365
 30
0.0
 10
43.556572
 20
107.969647
 30
0.0
 10
43.786298
 20
108.034372
 30
0.0
 10
44.093153
 20
108.105247
 30
0.0
 10
44.320838
 20
108.175147
 30
0.0
 10
44.702055
 20
107.744437
 30
0.0
 10
44.940638
 20
107.425050
 30
0.0
 10
45.295800
 20
107.077372
 30
0.0
 10
45.543225
 20
106.852755
 30
0.0
 10
45.759780
 20
107.134132
 30
0.0
 10
45.890340
 20
107.407762
 30
0.0
 10
45.994268
 20
107.623305
 30
0.0
 10
46.117845
 20
107.913562
 30
0.0
 10
46.311930
 20
107.741340
 30
0.0
 10
46.493865
 20
107.608507
 30
0.0
 10
46.611472
 20
107.627182
 30
0.0
 10
46.939065
 20
107.715000
 30
0.0
 10
47.474295
 20
107.756025
 30
0.0
 10
47.659267
 20
107.669130
 30
0.0
 10
47.501775
 20
107.617155
 30
0.0
 10
47.369872
 20
107.437267
 30
0.0
 10
47.395447
 20
107.309362
 30
0.0
 10
47.172540
 20
107.330962
 30
0.0
 10
46.641915
 20
107.408535
 30
0.0
 10
46.284705
 20
107.415285
 30
0.0
 10
47.206935
 20
107.261437
 30
0.0
 10
48.107490
 20
107.280637
 30
0.0
 10
48.248903
 20
107.545230
 30
0.0
 10
48.202253
 20
107.676825
 30
0.0
 10
48.253178
 20
107.710800
 30
0.0
 10
48.456990
 20
107.699025
 30
0.0
 10
48.566918
 20
107.868870
 30
0.0
 10
48.917850
 20
107.890020
 30
0.0
 10
49.085813
 20
107.925345
 30
0.0
 10
49.149488
 20
108.076462
 30
0.0
 10
49.800270
 20
107.994690
 30
0.0
 10
49.884450
 20
107.736945
 30
0.0
 10
50.013795
 20
107.487292
 30
0.0
 10
50.138783
 20
107.387122
 30
0.0
 10
50.222842
 20
107.348647
 30
0.0
 10
50.346720
 20
107.219947
 30
0.0
 10
50.410170
 20
107.045467
 30
0.0
 10
50.221222
 20
107.061892
 30
0.0
 10
50.076247
 20
107.040592
 30
0.0
 10
49.298303
 20
107.028592
 30
0.0
 10
48.344700
 20
106.856737
 30
0.0
 10
48.155025
 20
106.028752
 30
0.0
 10
47.971305
 20
105.272010
 30
0.0
 10
47.582610
 20
105.264510
 30
0.0
 10
47.449980
 20
105.444382
 30
0.0
 10
47.406180
 20
105.600412
 30
0.0
 10
47.400930
 20
105.444052
 30
0.0
 10
46.779877
 20
105.193485
 30
0.0
 10
45.345562
 20
105.198735
 30
0.0
 10
44.262810
 20
105.168435
 30
0.0
 10
44.074260
 20
104.794297
 30
0.0
 10
43.828845
 20
103.239008
 30
0.0
 10
43.407892
 20
103.047360
 30
0.0
 10
41.714137
 20
103.131907
 30
0.0
 10
41.451690
 20
102.829537
 30
0.0
 10
41.521965
 20
102.649080
 30
0.0
 10
41.669685
 20
102.579630
 30
0.0
 10
41.773110
 20
102.579630
 30
0.0
 10
41.941335
 20
102.649080
 30
0.0
 10
42.109140
 20
102.691530
 30
0.0
 10
42.217800
 20
102.733980
 30
0.0
 10
42.316140
 20
102.572880
 30
0.0
 10
42.392745
 20
102.387892
 30
0.0
 10
42.393465
 20
102.208507
 30
0.0
 10
42.369240
 20
102.064417
 30
0.0
 10
43.047893
 20
101.987010
 30
0.0
 10
43.815728
 20
102.142417
 30
0.0
 10
44.165685
 20
102.499552
 30
0.0
 10
44.210910
 20
102.712747
 30
0.0
 10
44.257335
 20
102.818895
 30
0.0
 10
44.367480
 20
102.900143
 30
0.0
 10
44.565195
 20
102.968243
 30
0.0
 10
44.986148
 20
102.811035
 30
0.0
 10
45.118545
 20
102.858660
 30
0.0
 10
45.269948
 20
102.922335
 30
0.0
 10
45.552270
 20
102.144135
 30
0.0
 10
45.908820
 20
101.672423
 30
0.0
 10
46.126860
 20
101.427420
 30
0.0
 10
44.989545
 20
101.332238
 30
0.0
 10
41.705708
 20
101.348888
 30
0.0
 10
40.870613
 20
100.740795
 30
0.0
 10
40.801763
 20
100.263870
 30
0.0
 10
40.926405
 20
100.139220
 30
0.0
 10
41.304075
 20
99.976545
 30
0.0
  0
LWPOLYLINE
  5
108
100
AcDbEntity
  8
SilkS
 62
7
100
AcDbPolyline
 90
277
 70
0
 10
64.188735
 20
99.866070
 30
0.0
 10
78.540503
 20
99.741330
 30
0.0
 10
80.706008
 20
99.800505
 30
0.0
 10
81.462143
 20
99.853380
 30
0.0
 10
81.793673
 20
99.848130
 30
0.0
 10
81.854198
 20
99.993060
 30
0.0
 10
81.866723
 20
101.141752
 30
0.0
 10
79.488915
 20
101.177152
 30
0.0
 10
74.506703
 20
101.210753
 30
0.0
 10
69.290655
 20
101.240228
 30
0.0
 10
66.602160
 20
101.312228
 30
0.0
 10
66.432128
 20
101.327078
 30
0.0
 10
61.364085
 20
101.355052
 30
0.0
 10
61.116953
 20
101.352053
 30
0.0
 10
58.506983
 20
101.306003
 30
0.0
 10
56.014995
 20
101.325202
 30
0.0
 10
53.955645
 20
101.314853
 30
0.0
 10
51.503528
 20
101.321603
 30
0.0
 10
51.047078
 20
101.440448
 30
0.0
 10
51.281423
 20
101.647920
 30
0.0
 10
51.452715
 20
101.785883
 30
0.0
 10
51.599715
 20
102.333990
 30
0.0
 10
51.840240
 20
103.017188
 30
0.0
 10
51.858165
 20
102.719190
 30
0.0
 10
52.063463
 20
102.330450
 30
0.0
 10
52.214175
 20
102.268200
 30
0.0
 10
52.448258
 20
102.220575
 30
0.0
 10
52.692908
 20
102.258525
 30
0.0
 10
52.940978
 20
102.087502
 30
0.0
 10
53.688645
 20
101.911642
 30
0.0
 10
54.126495
 20
102.098557
 30
0.0
 10
54.486375
 20
102.621457
 30
0.0
 10
54.395940
 20
102.748417
 30
0.0
 10
54.329715
 20
102.835185
 30
0.0
 10
54.066825
 20
102.983152
 30
0.0
 10
53.862045
 20
103.005127
 30
0.0
 10
53.843070
 20
103.323142
 30
0.0
 10
53.560950
 20
104.637720
 30
0.0
 10
53.112938
 20
105.253905
 30
0.0
 10
52.751085
 20
105.586710
 30
0.0
 10
52.290300
 20
106.948057
 30
0.0
 10
51.492878
 20
107.030565
 30
0.0
 10
50.902935
 20
107.184120
 30
0.0
 10
51.030698
 20
107.450092
 30
0.0
 10
51.131955
 20
107.654565
 30
0.0
 10
51.175380
 20
107.789310
 30
0.0
 10
51.516878
 20
107.596417
 30
0.0
 10
51.644588
 20
107.469037
 30
0.0
 10
51.515655
 20
107.455687
 30
0.0
 10
51.503505
 20
107.299365
 30
0.0
 10
53.417468
 20
107.316840
 30
0.0
 10
53.531010
 20
107.720032
 30
0.0
 10
53.637157
 20
107.909085
 30
0.0
 10
54.104228
 20
108.005992
 30
0.0
 10
54.461648
 20
108.036892
 30
0.0
 10
54.932123
 20
107.760630
 30
0.0
 10
55.233923
 20
107.447782
 30
0.0
 10
55.532783
 20
107.068777
 30
0.0
 10
55.762373
 20
106.725945
 30
0.0
 10
55.991040
 20
107.041200
 30
0.0
 10
56.166023
 20
107.408242
 30
0.0
 10
56.312198
 20
107.660632
 30
0.0
 10
56.401658
 20
107.872395
 30
0.0
 10
56.440208
 20
107.798070
 30
0.0
 10
56.481383
 20
107.660070
 30
0.0
 10
56.603768
 20
107.647095
 30
0.0
 10
56.849213
 20
107.553322
 30
0.0
 10
57.012795
 20
107.408835
 30
0.0
 10
56.780775
 20
107.407335
 30
0.0
 10
56.611748
 20
107.342610
 30
0.0
 10
58.530765
 20
107.311110
 30
0.0
 10
58.605090
 20
107.518372
 30
0.0
 10
58.717313
 20
107.596710
 30
0.0
 10
59.056215
 20
107.565510
 30
0.0
 10
59.133975
 20
107.735055
 30
0.0
 10
59.380485
 20
107.950567
 30
0.0
 10
59.545523
 20
107.969767
 30
0.0
 10
59.779058
 20
107.936392
 30
0.0
 10
59.951730
 20
107.872942
 30
0.0
 10
60.091223
 20
107.581102
 30
0.0
 10
60.393900
 20
107.382885
 30
0.0
 10
60.700485
 20
107.002230
 30
0.0
 10
60.922313
 20
106.832385
 30
0.0
 10
61.117170
 20
107.010870
 30
0.0
 10
61.328093
 20
107.460105
 30
0.0
 10
61.454760
 20
107.725485
 30
0.0
 10
61.532760
 20
107.915137
 30
0.0
 10
61.683458
 20
107.516647
 30
0.0
 10
61.832123
 20
107.294520
 30
0.0
 10
63.360713
 20
107.223645
 30
0.0
 10
63.551783
 20
107.301922
 30
0.0
 10
63.381938
 20
107.351797
 30
0.0
 10
63.541170
 20
107.429010
 30
0.0
 10
63.700395
 20
107.622877
 30
0.0
 10
63.957203
 20
107.765842
 30
0.0
 10
64.105260
 20
107.788942
 30
0.0
 10
64.268318
 20
107.814067
 30
0.0
 10
64.487948
 20
107.942752
 30
0.0
 10
64.657605
 20
108.025912
 30
0.0
 10
64.894905
 20
107.923177
 30
0.0
 10
65.171520
 20
107.699235
 30
0.0
 10
65.436360
 20
107.449650
 30
0.0
 10
65.826840
 20
107.030325
 30
0.0
 10
66.026213
 20
106.819207
 30
0.0
 10
66.205260
 20
106.989052
 30
0.0
 10
66.464370
 20
107.493345
 30
0.0
 10
66.612098
 20
107.725777
 30
0.0
 10
66.746498
 20
107.773852
 30
0.0
 10
67.182188
 20
107.622412
 30
0.0
 10
67.264605
 20
107.660362
 30
0.0
 10
67.373265
 20
107.702812
 30
0.0
 10
67.665623
 20
107.616465
 30
0.0
 10
67.839450
 20
107.531542
 30
0.0
 10
67.946483
 20
107.479792
 30
0.0
 10
67.723568
 20
107.393227
 30
0.0
 10
67.234088
 20
107.447827
 30
0.0
 10
66.901568
 20
107.352570
 30
0.0
 10
67.340565
 20
107.254260
 30
0.0
 10
68.965545
 20
107.268660
 30
0.0
 10
68.997420
 20
107.317935
 30
0.0
 10
68.923095
 20
107.469240
 30
0.0
 10
68.920095
 20
107.649697
 30
0.0
 10
69.121785
 20
107.759460
 30
0.0
 10
69.398535
 20
107.875245
 30
0.0
 10
69.919538
 20
107.970990
 30
0.0
 10
70.112700
 20
107.870017
 30
0.0
 10
70.241385
 20
107.765662
 30
0.0
 10
70.345440
 20
107.642070
 30
0.0
 10
70.210493
 20
107.473027
 30
0.0
 10
70.128075
 20
107.315212
 30
0.0
 10
70.343175
 20
107.360962
 30
0.0
 10
70.628258
 20
107.399812
 30
0.0
 10
70.895970
 20
107.129557
 30
0.0
 10
71.190383
 20
106.863735
 30
0.0
 10
71.431778
 20
107.185327
 30
0.0
 10
71.605740
 20
107.469210
 30
0.0
 10
71.769473
 20
107.685735
 30
0.0
 10
71.902748
 20
107.556120
 30
0.0
 10
72.447255
 20
107.249962
 30
0.0
 10
74.682007
 20
107.325007
 30
0.0
 10
75.102375
 20
107.320507
 30
0.0
 10
75.507698
 20
107.387557
 30
0.0
 10
75.787928
 20
107.462482
 30
0.0
 10
76.069740
 20
107.202757
 30
0.0
 10
76.230382
 20
106.981065
 30
0.0
 10
76.565962
 20
107.319217
 30
0.0
 10
76.708942
 20
107.522317
 30
0.0
 10
76.885065
 20
107.787825
 30
0.0
 10
76.951365
 20
107.809050
 30
0.0
 10
76.987515
 20
107.583742
 30
0.0
 10
77.170957
 20
107.365185
 30
0.0
 10
79.623075
 20
107.304210
 30
0.0
 10
80.323792
 20
107.343510
 30
0.0
 10
80.621017
 20
107.381385
 30
0.0
 10
81.068025
 20
107.382885
 30
0.0
 10
81.194340
 20
107.096272
 30
0.0
 10
81.384915
 20
106.874902
 30
0.0
 10
81.620512
 20
107.186737
 30
0.0
 10
81.791542
 20
107.505195
 30
0.0
 10
81.978555
 20
107.724120
 30
0.0
 10
82.042005
 20
107.672745
 30
0.0
 10
82.361812
 20
107.298067
 30
0.0
 10
84.654697
 20
107.240392
 30
0.0
 10
85.376535
 20
107.298592
 30
0.0
 10
85.810942
 20
107.382727
 30
0.0
 10
86.250187
 20
107.129317
 30
0.0
 10
86.435782
 20
106.903440
 30
0.0
 10
86.776837
 20
107.097435
 30
0.0
 10
87.365272
 20
107.422470
 30
0.0
 10
90.132157
 20
107.273602
 30
0.0
 10
90.984112
 20
107.411602
 30
0.0
 10
91.138635
 20
107.490592
 30
0.0
 10
91.445955
 20
107.172540
 30
0.0
 10
91.632090
 20
106.976895
 30
0.0
 10
91.900335
 20
107.214592
 30
0.0
 10
92.120535
 20
107.506020
 30
0.0
 10
92.374725
 20
107.500770
 30
0.0
 10
93.574598
 20
107.237505
 30
0.0
 10
94.657350
 20
107.238255
 30
0.0
 10
95.567152
 20
107.303505
 30
0.0
 10
96.106807
 20
107.409397
 30
0.0
 10
96.434910
 20
107.331045
 30
0.0
 10
96.766620
 20
106.989037
 30
0.0
 10
96.991620
 20
107.229420
 30
0.0
 10
97.197390
 20
107.577337
 30
0.0
 10
97.329278
 20
107.758672
 30
0.0
 10
97.390478
 20
107.870340
 30
0.0
 10
97.477680
 20
107.758770
 30
0.0
 10
97.747132
 20
107.370330
 30
0.0
 10
99.983100
 20
107.236553
 30
0.0
 10
100.900342
 20
107.314988
 30
0.0
 10
101.292570
 20
107.399692
 30
0.0
 10
101.576002
 20
107.212830
 30
0.0
 10
101.659297
 20
107.018512
 30
0.0
 10
101.857140
 20
107.031487
 30
0.0
 10
102.189870
 20
107.370952
 30
0.0
 10
102.395287
 20
107.656005
 30
0.0
 10
102.530752
 20
107.741925
 30
0.0
 10
102.562027
 20
107.626725
 30
0.0
 10
103.118985
 20
107.275020
 30
0.0
 10
105.460590
 20
107.227920
 30
0.0
 10
106.306237
 20
107.244495
 30
0.0
 10
106.561005
 20
106.951763
 30
0.0
 10
106.713187
 20
106.715445
 30
0.0
 10
106.867395
 20
106.938300
 30
0.0
 10
107.008620
 20
106.836863
 30
0.0
 10
107.156632
 20
104.562518
 30
0.0
 10
107.158882
 20
104.161163
 30
0.0
 10
106.904122
 20
104.111213
 30
0.0
 10
105.171577
 20
104.038313
 30
0.0
 10
103.485450
 20
103.636035
 30
0.0
 10
103.614525
 20
101.502668
 30
0.0
 10
103.702260
 20
98.518050
 30
0.0
 10
103.524937
 20
99.062325
 30
0.0
 10
103.291297
 20
100.972598
 30
0.0
 10
103.164532
 20
102.140273
 30
0.0
 10
103.016392
 20
103.359533
 30
0.0
 10
102.666442
 20
103.577145
 30
0.0
 10
102.373200
 20
103.411223
 30
0.0
 10
102.055455
 20
103.572750
 30
0.0
 10
101.849160
 20
103.439183
 30
0.0
 10
101.810910
 20
103.162725
 30
0.0
 10
99.804862
 20
103.077878
 30
0.0
 10
99.054285
 20
102.880830
 30
0.0
 10
99.074235
 20
102.358470
 30
0.0
 10
99.383100
 20
101.760360
 30
0.0
 10
101.447932
 20
101.675865
 30
0.0
 10
102.953317
 20
101.679615
 30
0.0
 10
102.959317
 20
101.552933
 30
0.0
 10
100.555987
 20
101.439285
 30
0.0
 10
99.103755
 20
101.403660
 30
0.0
 10
98.815957
 20
100.381568
 30
0.0
 10
98.731485
 20
99.171435
 30
0.0
 10
98.631975
 20
98.394773
 30
0.0
 10
98.321715
 20
98.423048
 30
0.0
 10
98.286990
 20
99.006885
 30
0.0
 10
98.227815
 20
99.741420
 30
0.0
 10
98.136525
 20
100.590638
 30
0.0
 10
98.058315
 20
101.354933
 30
0.0
 10
98.023290
 20
101.482313
 30
0.0
 10
97.995615
 20
101.344313
 30
0.0
 10
97.831282
 20
101.331413
 30
0.0
 10
96.874282
 20
101.465033
 30
0.0
 10
94.681402
 20
101.465453
 30
0.0
 10
93.788520
 20
101.325173
 30
0.0
 10
93.464977
 20
99.135698
 30
0.0
 10
93.418252
 20
98.495093
 30
0.0
 10
93.108517
 20
98.357910
 30
0.0
 10
92.955750
 20
99.295770
 30
0.0
 10
92.781870
 20
100.611308
 30
0.0
 10
92.625465
 20
101.054100
 30
0.0
 10
92.436907
 20
101.432708
 30
0.0
 10
91.384755
 20
101.461283
 30
0.0
 10
89.610382
 20
101.457533
 30
0.0
 10
88.480642
 20
101.325323
 30
0.0
 10
88.347060
 20
100.745880
 30
0.0
 10
88.209750
 20
100.108965
 30
0.0
 10
88.152675
 20
99.210998
 30
0.0
 10
88.103625
 20
98.388315
 30
0.0
 10
87.776175
 20
98.360190
 30
0.0
 10
87.714600
 20
99.365078
 30
0.0
 10
87.694500
 20
99.526808
 30
0.0
 10
87.647775
 20
99.763920
 30
0.0
 10
87.569745
 20
100.175408
 30
0.0
 10
87.391147
 20
100.845743
 30
0.0
 10
87.189832
 20
101.413628
 30
0.0
 10
87.089077
 20
101.514450
 30
0.0
 10
86.359980
 20
101.477325
 30
0.0
 10
84.144750
 20
101.476905
 30
0.0
 10
83.282820
 20
101.434455
 30
0.0
 10
83.105280
 20
100.399868
 30
0.0
 10
83.019540
 20
99.210968
 30
0.0
 10
82.934812
 20
98.483055
 30
0.0
 10
82.860337
 20
98.295488
 30
0.0
 10
54.273555
 20
98.202765
 30
0.0
 10
40.102297
 20
98.222640
 30
0.0
 10
40.102432
 20
98.221890
 30
0.0
  0
LWPOLYLINE
  5
109
100
AcDbEntity
  8
SilkS
 62
7
100
AcDbPolyline
 90
4
 70
1
 10
82.315792
 20
99.581768
 30
0.0
 10
82.210327
 20
100.036605
 30
0.0
 10
82.301490
 20
99.210233
 30
0.0
 10
82.315815
 20
99.581768
 30
0.0
  0
LWPOLYLINE
  5
10a
100
AcDbEntity
  8
SilkS
 62
7
100
AcDbPolyline
 90
5
 70
1
 10
82.352692
 20
101.588048
 30
0.0
 10
82.130715
 20
102.180375
 30
0.0
 10
82.258852
 20
100.950263
 30
0.0
 10
82.345402
 20
101.099745
 30
0.0
 10
82.352902
 20
101.588048
 30
0.0
  0
LWPOLYLINE
  5
10b
100
AcDbEntity
  8
SilkS
 62
7
100
AcDbPolyline
 90
5
 70
1
 10
87.585862
 20
101.471280
 30
0.0
 10
87.455820
 20
101.876408
 30
0.0
 10
87.470745
 20
101.664098
 30
0.0
 10
87.540870
 20
101.322668
 30
0.0
 10
87.585795
 20
101.471280
 30
0.0
  0
LWPOLYLINE
  5
10c
100
AcDbEntity
  8
SilkS
 62
7
100
AcDbPolyline
 90
5
 70
1
 10
56.018482
 20
101.958660
 30
0.0
 10
55.974007
 20
101.927760
 30
0.0
 10
56.004532
 20
101.715458
 30
0.0
 10
56.049007
 20
101.746358
 30
0.0
 10
56.018482
 20
101.958660
 30
0.0
  0
LWPOLYLINE
  5
10d
100
AcDbEntity
  8
SilkS
 62
7
100
AcDbPolyline
 90
23
 70
1
 10
86.119320
 20
101.760315
 30
0.0
 10
86.741077
 20
101.799540
 30
0.0
 10
87.138015
 20
102.281535
 30
0.0
 10
87.026317
 20
103.074203
 30
0.0
 10
86.968567
 20
102.996525
 30
0.0
 10
86.873025
 20
102.922200
 30
0.0
 10
86.777490
 20
102.861900
 30
0.0
 10
86.883645
 20
102.797550
 30
0.0
 10
87.002167
 20
102.519105
 30
0.0
 10
86.925360
 20
102.160628
 30
0.0
 10
86.709112
 20
102.089603
 30
0.0
 10
86.517570
 20
102.034853
 30
0.0
 10
86.153265
 20
102.012728
 30
0.0
 10
86.160765
 20
102.202328
 30
0.0
 10
86.247067
 20
102.576428
 30
0.0
 10
86.247067
 20
102.858668
 30
0.0
 10
86.418195
 20
102.904718
 30
0.0
 10
86.568412
 20
102.984623
 30
0.0
 10
83.720647
 20
103.093508
 30
0.0
 10
83.423422
 20
103.095758
 30
0.0
 10
83.411497
 20
102.553965
 30
0.0
 10
83.443222
 20
101.930708
 30
0.0
 10
86.119657
 20
101.760623
 30
0.0
  0
LWPOLYLINE
  5
10e
100
AcDbEntity
  8
SilkS
 62
7
100
AcDbPolyline
 90
5
 70
1
 10
85.991940
 20
101.970233
 30
0.0
 10
86.058165
 20
102.012683
 30
0.0
 10
86.098140
 20
101.970233
 30
0.0
 10
86.031915
 20
101.927783
 30
0.0
 10
85.991940
 20
101.970233
 30
0.0
  0
LWPOLYLINE
  5
10f
100
AcDbEntity
  8
SilkS
 62
7
100
AcDbPolyline
 90
4
 70
1
 10
86.080215
 20
102.546990
 30
0.0
 10
86.105865
 20
102.572640
 30
0.0
 10
86.102115
 20
102.491258
 30
0.0
 10
86.079840
 20
102.546983
 30
0.0
  0
LWPOLYLINE
  5
110
100
AcDbEntity
  8
SilkS
 62
7
100
AcDbPolyline
 90
13
 70
1
 10
96.522240
 20
101.721428
 30
0.0
 10
97.277872
 20
101.777152
 30
0.0
 10
97.637017
 20
101.836627
 30
0.0
 10
97.650217
 20
102.745455
 30
0.0
 10
97.548532
 20
103.066110
 30
0.0
 10
96.585960
 20
103.071360
 30
0.0
 10
94.951215
 20
103.081710
 30
0.0
 10
94.087335
 20
103.124985
 30
0.0
 10
93.926835
 20
103.070010
 30
0.0
 10
93.899010
 20
102.514733
 30
0.0
 10
94.013227
 20
101.910315
 30
0.0
 10
94.781347
 20
101.719358
 30
0.0
 10
96.522240
 20
101.721608
 30
0.0
  0
LWPOLYLINE
  5
111
100
AcDbEntity
  8
SilkS
 62
7
100
AcDbPolyline
 90
23
 70
1
 10
33.174105
 20
101.796428
 30
0.0
 10
33.223680
 20
101.840152
 30
0.0
 10
33.170580
 20
101.949000
 30
0.0
 10
33.380377
 20
102.055155
 30
0.0
 10
33.616417
 20
102.097605
 30
0.0
 10
33.832590
 20
102.140055
 30
0.0
 10
34.343137
 20
102.377955
 30
0.0
 10
33.790927
 20
102.608903
 30
0.0
 10
33.298125
 20
102.649703
 30
0.0
 10
33.492180
 20
102.668228
 30
0.0
 10
33.637650
 20
102.712328
 30
0.0
 10
33.446572
 20
102.792390
 30
0.0
 10
33.435922
 20
102.941400
 30
0.0
 10
33.361597
 20
102.968475
 30
0.0
 10
33.140452
 20
102.922650
 30
0.0
 10
32.885685
 20
102.962925
 30
0.0
 10
31.254367
 20
103.117035
 30
0.0
 10
31.013512
 20
103.063260
 30
0.0
 10
30.894690
 20
102.621375
 30
0.0
 10
30.896190
 20
102.117503
 30
0.0
 10
30.919290
 20
101.969580
 30
0.0
 10
31.368270
 20
101.764328
 30
0.0
 10
33.174322
 20
101.796503
 30
0.0
  0
LWPOLYLINE
  5
112
100
AcDbEntity
  8
SilkS
 62
7
100
AcDbPolyline
 90
9
 70
1
 10
53.840265
 20
101.777453
 30
0.0
 10
53.459190
 20
101.820652
 30
0.0
 10
52.851232
 20
101.866402
 30
0.0
 10
52.438320
 20
101.897452
 30
0.0
 10
52.234695
 20
102.032850
 30
0.0
 10
52.186470
 20
102.097575
 30
0.0
 10
51.938295
 20
101.889330
 30
0.0
 10
52.490287
 20
101.758890
 30
0.0
 10
53.840235
 20
101.777415
 30
0.0
  0
LWPOLYLINE
  5
113
100
AcDbEntity
  8
SilkS
 62
7
100
AcDbPolyline
 90
7
 70
1
 10
69.283590
 20
101.753752
 30
0.0
 10
69.495892
 20
101.784577
 30
0.0
 10
69.241125
 20
101.815627
 30
0.0
 10
68.752822
 20
101.885302
 30
0.0
 10
67.733767
 20
101.931277
 30
0.0
 10
68.246077
 20
101.765017
 30
0.0
 10
69.283590
 20
101.753767
 30
0.0
  0
LWPOLYLINE
  5
114
100
AcDbEntity
  8
SilkS
 62
7
100
AcDbPolyline
 90
14
 70
1
 10
74.626755
 20
101.742352
 30
0.0
 10
74.578080
 20
101.843332
 30
0.0
 10
74.224447
 20
101.869357
 30
0.0
 10
74.150122
 20
101.975040
 30
0.0
 10
74.230260
 20
102.118875
 30
0.0
 10
74.613262
 20
102.123375
 30
0.0
 10
75.122790
 20
102.083775
 30
0.0
 10
75.641512
 20
102.553357
 30
0.0
 10
75.642262
 20
103.022220
 30
0.0
 10
75.148717
 20
103.064745
 30
0.0
 10
74.336325
 20
103.082445
 30
0.0
 10
72.920182
 20
103.103070
 30
0.0
 10
73.058002
 20
101.863582
 30
0.0
 10
74.626642
 20
101.742375
 30
0.0
  0
LWPOLYLINE
  5
115
100
AcDbEntity
  8
SilkS
 62
7
100
AcDbPolyline
 90
17
 70
1
 10
80.384280
 20
101.779102
 30
0.0
 10
80.925652
 20
101.827327
 30
0.0
 10
80.981527
 20
101.948962
 30
0.0
 10
80.939077
 20
102.057622
 30
0.0
 10
80.888152
 20
102.140032
 30
0.0
 10
80.888152
 20
102.190957
 30
0.0
 10
80.678332
 20
102.607072
 30
0.0
 10
80.412180
 20
102.740662
 30
0.0
 10
80.512455
 20
102.776887
 30
0.0
 10
80.564355
 20
102.961267
 30
0.0
 10
79.622820
 20
103.113120
 30
0.0
 10
78.660525
 20
103.118370
 30
0.0
 10
78.193455
 20
103.102470
 30
0.0
 10
78.143580
 20
102.580515
 30
0.0
 10
78.417727
 20
101.841007
 30
0.0
 10
79.771410
 20
101.741347
 30
0.0
 10
80.384265
 20
101.778922
 30
0.0
  0
LWPOLYLINE
  5
116
100
AcDbEntity
  8
SilkS
 62
7
100
AcDbPolyline
 90
10
 70
1
 10
91.214632
 20
101.760127
 30
0.0
 10
91.955220
 20
101.822302
 30
0.0
 10
92.337375
 20
101.887102
 30
0.0
 10
92.309625
 20
103.063710
 30
0.0
 10
91.854187
 20
103.098360
 30
0.0
 10
89.410020
 20
103.117785
 30
0.0
 10
88.691212
 20
103.092360
 30
0.0
 10
88.624462
 20
102.585592
 30
0.0
 10
88.808055
 20
101.865022
 30
0.0
 10
91.214580
 20
101.760112
 30
0.0
  0
LWPOLYLINE
  5
117
100
AcDbEntity
  8
SilkS
 62
7
100
AcDbPolyline
 90
14
 70
1
 10
38.195820
 20
101.785327
 30
0.0
 10
38.319000
 20
101.892045
 30
0.0
 10
38.253900
 20
101.915820
 30
0.0
 10
38.419095
 20
102.089482
 30
0.0
 10
38.592937
 20
102.408315
 30
0.0
 10
38.626837
 20
102.770797
 30
0.0
 10
38.434897
 20
102.862717
 30
0.0
 10
37.088265
 20
103.087462
 30
0.0
 10
36.232582
 20
103.057987
 30
0.0
 10
36.079650
 20
102.314565
 30
0.0
 10
36.112950
 20
101.982135
 30
0.0
 10
36.169425
 20
101.934885
 30
0.0
 10
36.397627
 20
101.814952
 30
0.0
 10
38.195805
 20
101.785252
 30
0.0
  0
LWPOLYLINE
  5
118
100
AcDbEntity
  8
SilkS
 62
7
100
AcDbPolyline
 90
4
 70
1
 10
37.157100
 20
101.934255
 30
0.0
 10
37.346055
 20
101.930505
 30
0.0
 10
37.202280
 20
101.889180
 30
0.0
 10
37.013325
 20
101.892930
 30
0.0
  0
LWPOLYLINE
  5
119
100
AcDbEntity
  8
SilkS
 62
7
100
AcDbPolyline
 90
5
 70
1
 10
36.291487
 20
102.012630
 30
0.0
 10
36.378915
 20
102.055080
 30
0.0
 10
36.440115
 20
102.012630
 30
0.0
 10
36.352687
 20
101.970180
 30
0.0
 10
36.291487
 20
102.012630
 30
0.0
  0
LWPOLYLINE
  5
11a
100
AcDbEntity
  8
SilkS
 62
7
100
AcDbPolyline
 90
5
 70
1
 10
37.140472
 20
102.097815
 30
0.0
 10
37.092922
 20
102.212535
 30
0.0
 10
37.228845
 20
102.127350
 30
0.0
 10
37.276395
 20
102.012630
 30
0.0
 10
37.140472
 20
102.097815
 30
0.0
  0
LWPOLYLINE
  5
11b
100
AcDbEntity
  8
SilkS
 62
7
100
AcDbPolyline
 90
25
 70
1
 10
59.050515
 20
101.800327
 30
0.0
 10
58.883182
 20
101.842777
 30
0.0
 10
58.689600
 20
101.886052
 30
0.0
 10
58.792470
 20
101.903527
 30
0.0
 10
59.590567
 20
102.042292
 30
0.0
 10
59.666197
 20
102.339720
 30
0.0
 10
59.553847
 20
102.672825
 30
0.0
 10
59.441497
 20
102.776947
 30
0.0
 10
59.596312
 20
102.776947
 30
0.0
 10
59.751120
 20
102.856672
 30
0.0
 10
58.919227
 20
103.055452
 30
0.0
 10
57.868882
 20
103.118527
 30
0.0
 10
57.230505
 20
103.040835
 30
0.0
 10
57.181830
 20
102.677317
 30
0.0
 10
57.244155
 20
102.415455
 30
0.0
 10
57.439050
 20
102.376080
 30
0.0
 10
57.543120
 20
102.333555
 30
0.0
 10
57.690960
 20
102.267855
 30
0.0
 10
57.881850
 20
102.203055
 30
0.0
 10
57.972832
 20
102.124477
 30
0.0
 10
58.073685
 20
102.039600
 30
0.0
 10
58.162672
 20
101.896132
 30
0.0
 10
57.727132
 20
101.922007
 30
0.0
 10
57.298455
 20
101.851957
 30
0.0
 10
59.050485
 20
101.800282
 30
0.0
  0
LWPOLYLINE
  5
11c
100
AcDbEntity
  8
SilkS
 62
7
100
AcDbPolyline
 90
5
 70
1
 10
64.064662
 20
101.794327
 30
0.0
 10
63.520777
 20
101.861152
 30
0.0
 10
62.789625
 20
101.931352
 30
0.0
 10
62.560455
 20
101.858452
 30
0.0
 10
64.064662
 20
101.794327
 30
0.0
  0
LWPOLYLINE
  5
11d
100
AcDbEntity
  8
SilkS
 62
7
100
AcDbPolyline
 90
5
 70
1
 10
75.458107
 20
101.826877
 30
0.0
 10
75.171495
 20
101.842852
 30
0.0
 10
74.867190
 20
101.797027
 30
0.0
 10
75.153802
 20
101.781052
 30
0.0
 10
75.458107
 20
101.826877
 30
0.0
  0
LWPOLYLINE
  5
11e
100
AcDbEntity
  8
SilkS
 62
7
100
AcDbPolyline
 90
4
 70
1
 10
34.393995
 20
101.896477
 30
0.0
 10
34.237312
 20
101.931952
 30
0.0
 10
34.209412
 20
101.845327
 30
0.0
 10
34.393980
 20
101.896477
 30
0.0
  0
LWPOLYLINE
  5
11f
100
AcDbEntity
  8
SilkS
 62
7
100
AcDbPolyline
 90
4
 70
1
 10
42.267855
 20
101.828602
 30
0.0
 10
42.161707
 20
101.828602
 30
0.0
 10
42.214807
 20
101.807227
 30
0.0
 10
42.267907
 20
101.828602
 30
0.0
  0
LWPOLYLINE
  5
120
100
AcDbEntity
  8
SilkS
 62
7
100
AcDbPolyline
 90
4
 70
1
 10
71.258017
 20
101.929357
 30
0.0
 10
71.130637
 20
101.970307
 30
0.0
 10
71.056312
 20
101.830972
 30
0.0
 10
71.257995
 20
101.929335
 30
0.0
  0
LWPOLYLINE
  5
121
100
AcDbEntity
  8
SilkS
 62
7
100
AcDbPolyline
 90
7
 70
1
 10
81.830775
 20
102.053272
 30
0.0
 10
81.856575
 20
102.285307
 30
0.0
 10
81.835350
 20
102.352507
 30
0.0
 10
81.788325
 20
102.249382
 30
0.0
 10
81.551820
 20
101.987047
 30
0.0
 10
81.565395
 20
101.852250
 30
0.0
 10
81.830775
 20
102.053302
 30
0.0
  0
LWPOLYLINE
  5
122
100
AcDbEntity
  8
SilkS
 62
7
100
AcDbPolyline
 90
4
 70
1
 10
39.659265
 20
101.938485
 30
0.0
 10
39.574702
 20
102.012135
 30
0.0
 10
39.389700
 20
101.887717
 30
0.0
 10
39.659265
 20
101.938492
 30
0.0
  0
LWPOLYLINE
  5
123
100
AcDbEntity
  8
SilkS
 62
7
100
AcDbPolyline
 90
4
 70
1
 10
41.917552
 20
101.885385
 30
0.0
 10
41.492947
 20
101.885385
 30
0.0
 10
41.790172
 20
101.847810
 30
0.0
 10
41.917552
 20
101.885385
 30
0.0
  0
LWPOLYLINE
  5
124
100
AcDbEntity
  8
SilkS
 62
7
100
AcDbPolyline
 90
5
 70
1
 10
55.420110
 20
101.885385
 30
0.0
 10
55.335187
 20
101.927835
 30
0.0
 10
55.250272
 20
101.885385
 30
0.0
 10
55.335187
 20
101.842935
 30
0.0
 10
55.420110
 20
101.885385
 30
0.0
  0
LWPOLYLINE
  5
125
100
AcDbEntity
  8
SilkS
 62
7
100
AcDbPolyline
 90
4
 70
1
 10
65.982277
 20
101.917260
 30
0.0
 10
65.914027
 20
101.970360
 30
0.0
 10
65.811525
 20
101.868660
 30
0.0
 10
65.982307
 20
101.917260
 30
0.0
  0
LWPOLYLINE
  5
126
100
AcDbEntity
  8
SilkS
 62
7
100
AcDbPolyline
 90
4
 70
1
 10
76.516020
 20
101.963685
 30
0.0
 10
76.431105
 20
102.032835
 30
0.0
 10
76.389180
 20
101.851170
 30
0.0
 10
76.516027
 20
101.963715
 30
0.0
  0
LWPOLYLINE
  5
127
100
AcDbEntity
  8
SilkS
 62
7
100
AcDbPolyline
 90
5
 70
1
 10
81.278782
 20
101.885422
 30
0.0
 10
81.215107
 20
101.927872
 30
0.0
 10
81.151432
 20
101.885422
 30
0.0
 10
81.215107
 20
101.842972
 30
0.0
 10
81.278782
 20
101.885422
 30
0.0
  0
LWPOLYLINE
  5
128
100
AcDbEntity
  8
SilkS
 62
7
100
AcDbPolyline
 90
5
 70
1
 10
44.889817
 20
101.927872
 30
0.0
 10
44.828617
 20
101.970322
 30
0.0
 10
44.741190
 20
101.927872
 30
0.0
 10
44.802390
 20
101.885422
 30
0.0
 10
44.889817
 20
101.927872
 30
0.0
  0
LWPOLYLINE
  5
129
100
AcDbEntity
  8
SilkS
 62
7
100
AcDbPolyline
 90
16
 70
1
 10
63.864922
 20
102.017310
 30
0.0
 10
64.004572
 20
102.071460
 30
0.0
 10
64.133010
 20
102.047985
 30
0.0
 10
64.422090
 20
101.995410
 30
0.0
 10
64.928662
 20
102.050235
 30
0.0
 10
64.979362
 20
102.614212
 30
0.0
 10
64.624042
 20
102.743115
 30
0.0
 10
64.294447
 20
102.831997
 30
0.0
 10
64.198747
 20
102.979552
 30
0.0
 10
63.290692
 20
103.099372
 30
0.0
 10
62.368537
 20
102.701850
 30
0.0
 10
62.718532
 20
102.337492
 30
0.0
 10
63.004440
 20
102.297892
 30
0.0
 10
63.134535
 20
102.267592
 30
0.0
 10
63.392835
 20
102.099202
 30
0.0
 10
63.864930
 20
102.017340
 30
0.0
  0
LWPOLYLINE
  5
12a
100
AcDbEntity
  8
SilkS
 62
7
100
AcDbPolyline
 90
5
 70
1
 10
64.171170
 20
102.623520
 30
0.0
 10
64.186545
 20
102.706860
 30
0.0
 10
64.295272
 20
102.648135
 30
0.0
 10
64.279897
 20
102.564795
 30
0.0
 10
64.171170
 20
102.623520
 30
0.0
  0
LWPOLYLINE
  5
12b
100
AcDbEntity
  8
SilkS
 62
7
100
AcDbPolyline
 90
15
 70
1
 10
69.050055
 20
101.975595
 30
0.0
 10
69.316582
 20
101.948070
 30
0.0
 10
69.688852
 20
101.992395
 30
0.0
 10
69.956805
 20
102.016095
 30
0.0
 10
70.424790
 20
102.453765
 30
0.0
 10
70.329127
 20
102.738922
 30
0.0
 10
70.246657
 20
102.913650
 30
0.0
 10
69.729427
 20
103.036612
 30
0.0
 10
68.129910
 20
103.141882
 30
0.0
 10
67.626502
 20
102.714622
 30
0.0
 10
67.718872
 20
102.215145
 30
0.0
 10
67.989225
 20
102.069945
 30
0.0
 10
68.579205
 20
101.977147
 30
0.0
 10
68.812740
 20
101.945647
 30
0.0
 10
69.050055
 20
101.975572
 30
0.0
  0
LWPOLYLINE
  5
12c
100
AcDbEntity
  8
SilkS
 62
7
100
AcDbPolyline
 90
20
 70
1
 10
25.971375
 20
102.102997
 30
0.0
 10
26.266485
 20
102.104497
 30
0.0
 10
26.824927
 20
102.101497
 30
0.0
 10
26.926672
 20
102.089422
 30
0.0
 10
27.114285
 20
102.111547
 30
0.0
 10
27.317400
 20
102.182872
 30
0.0
 10
27.506355
 20
102.271800
 30
0.0
 10
27.778087
 20
102.227025
 30
0.0
 10
28.055475
 20
102.230025
 30
0.0
 10
28.208415
 20
102.377205
 30
0.0
 10
28.318455
 20
102.493515
 30
0.0
 10
27.311017
 20
102.511440
 30
0.0
 10
26.674102
 20
102.480765
 30
0.0
 10
26.278102
 20
102.409065
 30
0.0
 10
26.050852
 20
102.417765
 30
0.0
 10
25.855605
 20
102.465015
 30
0.0
 10
25.573327
 20
102.482640
 30
0.0
 10
25.060590
 20
102.339727
 30
0.0
 10
25.213747
 20
102.050550
 30
0.0
 10
25.971375
 20
102.103650
 30
0.0
  0
LWPOLYLINE
  5
12d
100
AcDbEntity
  8
SilkS
 62
7
100
AcDbPolyline
 90
4
 70
1
 10
75.960772
 20
102.299265
 30
0.0
 10
75.797947
 20
102.284565
 30
0.0
 10
75.842497
 20
102.231465
 30
0.0
 10
75.960772
 20
102.299265
 30
0.0
  0
LWPOLYLINE
  5
12e
100
AcDbEntity
  8
SilkS
 62
7
100
AcDbPolyline
 90
6
 70
1
 10
71.339587
 20
102.723870
 30
0.0
 10
71.314537
 20
102.946792
 30
0.0
 10
71.231617
 20
102.746452
 30
0.0
 10
71.246017
 20
102.527077
 30
0.0
 10
71.332290
 20
102.440797
 30
0.0
 10
71.339790
 20
102.723870
 30
0.0
  0
LWPOLYLINE
  5
12f
100
AcDbEntity
  8
SilkS
 62
7
100
AcDbPolyline
 90
5
 70
1
 10
76.607437
 20
102.726120
 30
0.0
 10
76.463970
 20
103.060290
 30
0.0
 10
76.417845
 20
102.852412
 30
0.0
 10
76.570545
 20
102.461280
 30
0.0
 10
76.607445
 20
102.726120
 30
0.0
  0
LWPOLYLINE
  5
130
100
AcDbEntity
  8
SilkS
 62
7
100
AcDbPolyline
 90
5
 70
1
 10
81.660930
 20
102.628080
 30
0.0
 10
81.618480
 20
102.691755
 30
0.0
 10
81.576030
 20
102.628080
 30
0.0
 10
81.618480
 20
102.564405
 30
0.0
 10
81.660930
 20
102.628080
 30
0.0
  0
LWPOLYLINE
  5
131
100
AcDbEntity
  8
SilkS
 62
7
100
AcDbPolyline
 90
6
 70
1
 10
81.864945
 20
102.808537
 30
0.0
 10
81.788310
 20
103.010227
 30
0.0
 10
81.763410
 20
102.755460
 30
0.0
 10
81.785160
 20
102.638692
 30
0.0
 10
81.833085
 20
102.606817
 30
0.0
 10
81.864960
 20
102.808507
 30
0.0
  0
LWPOLYLINE
  5
132
100
AcDbEntity
  8
SilkS
 62
7
100
AcDbPolyline
 90
6
 70
1
 10
76.310857
 20
102.967770
 30
0.0
 10
76.194090
 20
103.030845
 30
0.0
 10
76.077322
 20
103.030207
 30
0.0
 10
76.183477
 20
102.971332
 30
0.0
 10
76.300245
 20
102.908257
 30
0.0
 10
76.310895
 20
102.967807
 30
0.0
  0
LWPOLYLINE
  5
133
100
AcDbEntity
  8
SilkS
 62
7
100
AcDbPolyline
 90
4
 70
1
 10
80.153167
 20
103.328032
 30
0.0
 10
79.866960
 20
103.540830
 30
0.0
 10
79.929510
 20
103.352325
 30
0.0
 10
80.153190
 20
103.328025
 30
0.0
  0
LWPOLYLINE
  5
134
100
AcDbEntity
  8
SilkS
 62
7
100
AcDbPolyline
 90
13
 70
1
 10
101.052997
 20
103.565857
 30
0.0
 10
101.533192
 20
103.647780
 30
0.0
 10
101.533192
 20
104.227695
 30
0.0
 10
101.359485
 20
104.912857
 30
0.0
 10
100.501057
 20
104.897632
 30
0.0
 10
96.975045
 20
104.988502
 30
0.0
 10
96.534990
 20
104.961727
 30
0.0
 10
96.427612
 20
104.891377
 30
0.0
 10
96.457162
 20
104.396602
 30
0.0
 10
96.604080
 20
103.781797
 30
0.0
 10
97.184415
 20
103.602817
 30
0.0
 10
97.838475
 20
103.526580
 30
0.0
 10
101.052937
 20
103.565805
 30
0.0
  0
LWPOLYLINE
  5
135
100
AcDbEntity
  8
SilkS
 62
7
100
AcDbPolyline
 90
5
 70
1
 10
101.235405
 20
104.134462
 30
0.0
 10
101.167155
 20
104.255902
 30
0.0
 10
101.269162
 20
104.308627
 30
0.0
 10
101.372040
 20
104.093595
 30
0.0
 10
101.235412
 20
104.134470
 30
0.0
  0
LWPOLYLINE
  5
136
100
AcDbEntity
  8
SilkS
 62
7
100
AcDbPolyline
 90
6
 70
1
 10
99.189675
 20
104.349300
 30
0.0
 10
98.644755
 20
104.420925
 30
0.0
 10
98.263140
 20
104.482575
 30
0.0
 10
99.355785
 20
104.452275
 30
0.0
 10
99.383085
 20
104.370607
 30
0.0
 10
99.189660
 20
104.349382
 30
0.0
  0
LWPOLYLINE
  5
137
100
AcDbEntity
  8
SilkS
 62
7
100
AcDbPolyline
 90
4
 70
1
 10
101.001870
 20
104.475817
 30
0.0
 10
100.959420
 20
104.518117
 30
0.0
 10
101.233740
 20
104.498392
 30
0.0
 10
101.001885
 20
104.475892
 30
0.0
  0
LWPOLYLINE
  5
138
100
AcDbEntity
  8
SilkS
 62
7
100
AcDbPolyline
 90
10
 70
1
 10
93.804750
 20
103.634355
 30
0.0
 10
94.505355
 20
103.685505
 30
0.0
 10
94.866270
 20
103.901587
 30
0.0
 10
94.909470
 20
104.158477
 30
0.0
 10
94.836270
 20
104.881162
 30
0.0
 10
93.642457
 20
104.914762
 30
0.0
 10
91.921425
 20
104.941537
 30
0.0
 10
91.194630
 20
104.417737
 30
0.0
 10
92.374747
 20
103.583077
 30
0.0
 10
93.804765
 20
103.634302
 30
0.0
  0
LWPOLYLINE
  5
139
100
AcDbEntity
  8
SilkS
 62
7
100
AcDbPolyline
 90
4
 70
1
 10
94.314277
 20
103.904377
 30
0.0
 10
94.357402
 20
103.943902
 30
0.0
 10
94.376152
 20
103.877677
 30
0.0
 10
94.314277
 20
103.904377
 30
0.0
  0
LWPOLYLINE
  5
13a
100
AcDbEntity
  8
SilkS
 62
7
100
AcDbPolyline
 90
5
 70
1
 10
94.384252
 20
104.079562
 30
0.0
 10
94.434352
 20
104.319900
 30
0.0
 10
94.663552
 20
104.260800
 30
0.0
 10
94.684777
 20
104.115997
 30
0.0
 10
94.384237
 20
104.079547
 30
0.0
  0
LWPOLYLINE
  5
13b
100
AcDbEntity
  8
SilkS
 62
7
100
AcDbPolyline
 90
23
 70
1
 10
61.644060
 20
103.620292
 30
0.0
 10
61.450477
 20
103.684492
 30
0.0
 10
61.279687
 20
103.734592
 30
0.0
 10
61.392045
 20
103.861470
 30
0.0
 10
61.959067
 20
103.880670
 30
0.0
 10
62.221380
 20
103.795747
 30
0.0
 10
62.431987
 20
103.912515
 30
0.0
 10
62.494237
 20
104.493825
 30
0.0
 10
62.342985
 20
104.602500
 30
0.0
 10
62.227027
 20
104.740500
 30
0.0
 10
62.128897
 20
104.860297
 30
0.0
 10
61.937820
 20
104.842447
 30
0.0
 10
60.366765
 20
104.966347
 30
0.0
 10
60.096945
 20
104.949547
 30
0.0
 10
59.978700
 20
104.647597
 30
0.0
 10
60.025575
 20
104.256832
 30
0.0
 10
60.133200
 20
104.048752
 30
0.0
 10
60.310575
 20
103.949520
 30
0.0
 10
60.489855
 20
104.032830
 30
0.0
 10
60.818925
 20
103.918102
 30
0.0
 10
60.292432
 20
103.779547
 30
0.0
 10
60.165045
 20
103.688242
 30
0.0
 10
61.644007
 20
103.620292
 30
0.0
  0
LWPOLYLINE
  5
13c
100
AcDbEntity
  8
SilkS
 62
7
100
AcDbPolyline
 90
6
 70
1
 10
67.115940
 20
103.673467
 30
0.0
 10
66.776250
 20
103.711192
 30
0.0
 10
66.014077
 20
103.760392
 30
0.0
 10
65.487285
 20
103.813117
 30
0.0
 10
65.385982
 20
103.689270
 30
0.0
 10
67.115940
 20
103.673520
 30
0.0
  0
LWPOLYLINE
  5
13d
100
AcDbEntity
  8
SilkS
 62
7
100
AcDbPolyline
 90
19
 70
1
 10
72.502957
 20
103.615117
 30
0.0
 10
72.163800
 20
103.700190
 30
0.0
 10
71.699242
 20
103.784085
 30
0.0
 10
72.362850
 20
103.799160
 30
0.0
 10
72.777142
 20
104.069302
 30
0.0
 10
72.753442
 20
104.135377
 30
0.0
 10
72.877102
 20
104.419477
 30
0.0
 10
72.929752
 20
104.602440
 30
0.0
 10
73.011082
 20
104.655540
 30
0.0
 10
73.119367
 20
104.656050
 30
0.0
 10
73.315987
 20
104.644350
 30
0.0
 10
73.363312
 20
104.838450
 30
0.0
 10
73.168387
 20
104.870025
 30
0.0
 10
70.873792
 20
104.968297
 30
0.0
 10
70.444410
 20
104.929147
 30
0.0
 10
70.370610
 20
104.283967
 30
0.0
 10
70.448122
 20
103.931595
 30
0.0
 10
70.525252
 20
103.704772
 30
0.0
 10
72.503055
 20
103.615042
 30
0.0
  0
LWPOLYLINE
  5
13e
100
AcDbEntity
  8
SilkS
 62
7
100
AcDbPolyline
 90
9
 70
1
 10
70.918305
 20
103.796010
 30
0.0
 10
70.652925
 20
103.834260
 30
0.0
 10
70.558192
 20
103.966537
 30
0.0
 10
70.706970
 20
103.943737
 30
0.0
 10
70.897020
 20
103.915612
 30
0.0
 10
71.344290
 20
103.835925
 30
0.0
 10
71.449072
 20
103.755405
 30
0.0
 10
71.236762
 20
103.758405
 30
0.0
 10
70.918305
 20
103.795680
 30
0.0
  0
LWPOLYLINE
  5
13f
100
AcDbEntity
  8
SilkS
 62
7
100
AcDbPolyline
 90
18
 70
1
 10
77.988427
 20
103.665915
 30
0.0
 10
78.115425
 20
103.703790
 30
0.0
 10
77.966812
 20
103.708290
 30
0.0
 10
77.799472
 20
103.795560
 30
0.0
 10
77.990542
 20
103.857435
 30
0.0
 10
77.813865
 20
104.096355
 30
0.0
 10
77.733277
 20
104.153280
 30
0.0
 10
77.699902
 20
104.432572
 30
0.0
 10
77.622307
 20
104.509140
 30
0.0
 10
77.772420
 20
104.643705
 30
0.0
 10
77.881852
 20
104.776635
 30
0.0
 10
76.968945
 20
104.920575
 30
0.0
 10
76.161615
 20
104.970300
 30
0.0
 10
75.618270
 20
104.431305
 30
0.0
 10
75.690420
 20
103.864680
 30
0.0
 10
75.767272
 20
103.706917
 30
0.0
 10
76.225890
 20
103.645642
 30
0.0
 10
77.988405
 20
103.666192
 30
0.0
  0
LWPOLYLINE
  5
140
100
AcDbEntity
  8
SilkS
 62
7
100
AcDbPolyline
 90
28
 70
1
 10
83.401807
 20
103.649940
 30
0.0
 10
84.102405
 20
103.707990
 30
0.0
 10
84.367785
 20
103.705740
 30
0.0
 10
84.326835
 20
104.008237
 30
0.0
 10
84.307710
 20
103.947412
 30
0.0
 10
84.195487
 20
103.859325
 30
0.0
 10
83.985607
 20
103.811175
 30
0.0
 10
83.911282
 20
103.873500
 30
0.0
 10
83.844907
 20
103.982212
 30
0.0
 10
83.803132
 20
104.047537
 30
0.0
 10
83.784607
 20
104.114062
 30
0.0
 10
83.741482
 20
104.266980
 30
0.0
 10
83.645947
 20
104.431620
 30
0.0
 10
83.624722
 20
104.472720
 30
0.0
 10
83.699047
 20
104.617207
 30
0.0
 10
83.798497
 20
104.804317
 30
0.0
 10
83.957722
 20
104.811067
 30
0.0
 10
84.135840
 20
104.797492
 30
0.0
 10
84.326910
 20
104.649232
 30
0.0
 10
84.431497
 20
104.475675
 30
0.0
 10
84.414922
 20
104.882310
 30
0.0
 10
83.356215
 20
104.904210
 30
0.0
 10
81.618742
 20
104.943585
 30
0.0
 10
80.830395
 20
104.940585
 30
0.0
 10
80.769270
 20
104.383485
 30
0.0
 10
80.880600
 20
103.773952
 30
0.0
 10
82.234170
 20
103.591095
 30
0.0
 10
83.401845
 20
103.650195
 30
0.0
  0
LWPOLYLINE
  5
141
100
AcDbEntity
  8
SilkS
 62
7
100
AcDbPolyline
 90
5
 70
1
 10
83.507955
 20
103.880932
 30
0.0
 10
83.550405
 20
103.923382
 30
0.0
 10
83.592855
 20
103.880932
 30
0.0
 10
83.550405
 20
103.838482
 30
0.0
 10
83.507955
 20
103.880932
 30
0.0
  0
LWPOLYLINE
  5
142
100
AcDbEntity
  8
SilkS
 62
7
100
AcDbPolyline
 90
16
 70
1
 10
88.624492
 20
103.630102
 30
0.0
 10
89.315797
 20
103.687702
 30
0.0
 10
89.673037
 20
103.726402
 30
0.0
 10
89.713762
 20
104.285647
 30
0.0
 10
89.492220
 20
104.821545
 30
0.0
 10
89.473620
 20
104.632935
 30
0.0
 10
89.625855
 20
104.402445
 30
0.0
 10
89.456707
 20
104.442720
 30
0.0
 10
89.199900
 20
104.769592
 30
0.0
 10
89.072002
 20
104.863815
 30
0.0
 10
86.418577
 20
104.957895
 30
0.0
 10
86.059680
 20
104.963895
 30
0.0
 10
86.022255
 20
104.794050
 30
0.0
 10
86.010480
 20
104.265660
 30
0.0
 10
86.266065
 20
103.700917
 30
0.0
 10
88.624477
 20
103.630342
 30
0.0
  0
LWPOLYLINE
  5
143
100
AcDbEntity
  8
SilkS
 62
7
100
AcDbPolyline
 90
33
 70
1
 10
29.561422
 20
103.672852
 30
0.0
 10
29.521822
 20
103.711102
 30
0.0
 10
29.485597
 20
103.829235
 30
0.0
 10
29.641987
 20
103.929907
 30
0.0
 10
29.816242
 20
103.880632
 30
0.0
 10
30.283312
 20
103.834507
 30
0.0
 10
30.401250
 20
103.880932
 30
0.0
 10
30.616425
 20
103.949032
 30
0.0
 10
30.870022
 20
104.011057
 30
0.0
 10
31.697107
 20
104.062357
 30
0.0
 10
31.811910
 20
104.283277
 30
0.0
 10
31.661385
 20
104.470477
 30
0.0
 10
31.311082
 20
104.461252
 30
0.0
 10
30.866182
 20
104.425702
 30
0.0
 10
30.560032
 20
104.558910
 30
0.0
 10
30.525607
 20
104.703532
 30
0.0
 10
30.496732
 20
104.730157
 30
0.0
 10
30.355567
 20
104.464777
 30
0.0
 10
30.326092
 20
104.348010
 30
0.0
 10
30.294892
 20
104.430187
 30
0.0
 10
30.256342
 20
104.535412
 30
0.0
 10
30.218992
 20
104.654917
 30
0.0
 10
30.209392
 20
104.795730
 30
0.0
 10
29.242987
 20
104.965762
 30
0.0
 10
28.762522
 20
104.571397
 30
0.0
 10
29.080725
 20
103.879432
 30
0.0
 10
29.264220
 20
103.817257
 30
0.0
 10
29.274870
 20
103.755082
 30
0.0
 10
29.179357
 20
103.785457
 30
0.0
 10
29.020132
 20
103.809757
 30
0.0
 10
28.783035
 20
103.799107
 30
0.0
 10
28.722660
 20
103.742932
 30
0.0
 10
29.561512
 20
103.672807
 30
0.0
  0
SPLINE
  5
144
100
AcDbEntity
  8
SilkS
 62
7
100
AcDbSpline
 70
0
 71
3
 72
10
 73
6
 74
4
 40
0.000000
 40
0.000000
 40
0.000000
 40
0.000000
 40
7.628318
 40
15.256624
 40
22.884941
 40
22.884941
 40
22.884941
 40
22.884941
 10
41.304075
 20
99.976545
 30
0.0
 10
43.846790
 20
99.959344
 30
0.0
 10
48.932218
 20
99.924941
 30
0.0
 10
56.560472
 20
99.893470
 30
0.0
 10
61.645979
 20
99.875203
 30
0.0
 10
64.188735
 20
99.866070
 30
0.0
 11
41.304075
 21
99.976545
 31
0.0
 11
48.932240
 21
99.928297
 31
0.0
 11
56.560470
 21
99.894148
 31
0.0
 11
64.188735
 21
99.866070
 31
0.0
  0
LWPOLYLINE
  5
145
100
AcDbEntity
  8
SilkS
 62
7
100
AcDbPolyline
 90
7
 70
0
 10
35.821447
 20
103.662802
 30
0.0
 10
36.175290
 20
103.744702
 30
0.0
 10
36.273772
 20
103.796002
 30
0.0
 10
36.255322
 20
104.121817
 30
0.0
 10
35.912587
 20
104.711092
 30
0.0
 10
35.869612
 20
104.847750
 30
0.0
 10
35.241450
 20
104.903925
 30
0.0
  0
SPLINE
  5
146
100
AcDbEntity
  8
SilkS
 62
7
100
AcDbSpline
 70
0
 71
3
 72
10
 73
6
 74
4
 40
0.000000
 40
0.000000
 40
0.000000
 40
0.000000
 40
0.422232
 40
0.827631
 40
1.241582
 40
1.241582
 40
1.241582
 40
1.241582
 10
35.241450
 20
104.903925
 30
0.0
 10
35.101814
 20
104.921388
 30
0.0
 10
34.828108
 20
104.955618
 30
0.0
 10
34.411298
 20
104.955720
 30
0.0
 10
34.144197
 20
104.895201
 30
0.0
 10
34.009252
 20
104.864625
 30
0.0
 11
35.241450
 21
104.903925
 31
0.0
 11
34.821465
 21
104.947423
 31
0.0
 11
34.416118
 21
104.940887
 31
0.0
 11
34.009252
 21
104.864625
 31
0.0
  0
LWPOLYLINE
  5
147
100
AcDbEntity
  8
SilkS
 62
7
100
AcDbPolyline
 90
3
 70
0
 10
34.009252
 20
104.864625
 30
0.0
 10
33.934927
 20
104.564317
 30
0.0
 10
33.934927
 20
104.390407
 30
0.0
  0
LWPOLYLINE
  5
148
100
AcDbEntity
  8
SilkS
 62
7
100
AcDbPolyline
 90
5
 70
0
 10
33.977377
 20
103.750957
 30
0.0
 10
34.072912
 20
103.692307
 30
0.0
 10
34.253370
 20
103.653982
 30
0.0
 10
35.821470
 20
103.662832
 30
0.0
 10
35.821410
 20
103.662780
 30
0.0
  0
LWPOLYLINE
  5
149
100
AcDbEntity
  8
SilkS
 62
7
100
AcDbPolyline
 90
5
 70
1
 10
55.653585
 20
103.712805
 30
0.0
 10
54.908407
 20
103.734855
 30
0.0
 10
55.653585
 20
103.635795
 30
0.0
 10
56.163120
 20
103.633545
 30
0.0
 10
55.653585
 20
103.712475
 30
0.0
  0
LWPOLYLINE
  5
14a
100
AcDbEntity
  8
SilkS
 62
7
100
AcDbPolyline
 90
5
 70
1
 10
32.061397
 20
103.706805
 30
0.0
 10
32.010997
 20
103.837635
 30
0.0
 10
31.896735
 20
103.795185
 30
0.0
 10
31.896735
 20
103.711567
 30
0.0
 10
32.061405
 20
103.707067
 30
0.0
  0
LWPOLYLINE
  5
14b
100
AcDbEntity
  8
SilkS
 62
7
100
AcDbPolyline
 90
4
 70
1
 10
37.366245
 20
103.763955
 30
0.0
 10
37.303020
 20
103.837605
 30
0.0
 10
37.139242
 20
103.713187
 30
0.0
 10
37.366282
 20
103.763962
 30
0.0
  0
LWPOLYLINE
  5
14c
100
AcDbEntity
  8
SilkS
 62
7
100
AcDbPolyline
 90
5
 70
1
 10
39.497227
 20
103.736730
 30
0.0
 10
39.243652
 20
103.772730
 30
0.0
 10
39.497227
 20
103.673287
 30
0.0
 10
39.688297
 20
103.677037
 30
0.0
 10
39.497227
 20
103.736962
 30
0.0
  0
LWPOLYLINE
  5
14d
100
AcDbEntity
  8
SilkS
 62
7
100
AcDbPolyline
 90
4
 70
1
 10
58.259362
 20
103.725405
 30
0.0
 10
58.100265
 20
103.799880
 30
0.0
 10
58.156065
 20
103.668405
 30
0.0
 10
58.259340
 20
103.725405
 30
0.0
  0
LWPOLYLINE
  5
14e
100
AcDbEntity
  8
SilkS
 62
7
100
AcDbPolyline
 90
4
 70
1
 10
63.487620
 20
103.732155
 30
0.0
 10
63.429120
 20
103.795830
 30
0.0
 10
63.346080
 20
103.696755
 30
0.0
 10
63.487612
 20
103.732155
 30
0.0
  0
LWPOLYLINE
  5
14f
100
AcDbEntity
  8
SilkS
 62
7
100
AcDbPolyline
 90
4
 70
1
 10
68.742172
 20
103.742805
 30
0.0
 10
68.650147
 20
103.795905
 30
0.0
 10
68.570235
 20
103.695360
 30
0.0
 10
68.742172
 20
103.742835
 30
0.0
  0
LWPOLYLINE
  5
150
100
AcDbEntity
  8
SilkS
 62
7
100
AcDbPolyline
 90
4
 70
1
 10
73.967520
 20
103.764030
 30
0.0
 10
73.858260
 20
103.838355
 30
0.0
 10
73.727955
 20
103.723447
 30
0.0
 10
73.967520
 20
103.764023
 30
0.0
  0
LWPOLYLINE
  5
151
100
AcDbEntity
  8
SilkS
 62
7
100
AcDbPolyline
 90
6
 70
1
 10
79.187047
 20
103.721580
 30
0.0
 10
79.251622
 20
103.923270
 30
0.0
 10
79.274422
 20
104.071882
 30
0.0
 10
79.102672
 20
103.908412
 30
0.0
 10
78.990247
 20
103.707375
 30
0.0
 10
79.187100
 20
103.721550
 30
0.0
  0
LWPOLYLINE
  5
152
100
AcDbEntity
  8
SilkS
 62
7
100
AcDbPolyline
 90
16
 70
1
 10
67.277182
 20
103.798080
 30
0.0
 10
67.582905
 20
104.334735
 30
0.0
 10
67.618005
 20
104.585955
 30
0.0
 10
67.648830
 20
104.574330
 30
0.0
 10
67.823355
 20
104.636205
 30
0.0
 10
67.287915
 20
104.855655
 30
0.0
 10
65.745135
 20
104.985030
 30
0.0
 10
65.219460
 20
104.886607
 30
0.0
 10
65.186760
 20
104.568705
 30
0.0
 10
65.333760
 20
104.149192
 30
0.0
 10
65.593507
 20
104.070622
 30
0.0
 10
65.932432
 20
104.072872
 30
0.0
 10
66.245910
 20
104.028997
 30
0.0
 10
66.332557
 20
103.996522
 30
0.0
 10
66.629782
 20
103.784887
 30
0.0
 10
67.277242
 20
103.798237
 30
0.0
  0
LWPOLYLINE
  5
153
100
AcDbEntity
  8
SilkS
 62
7
100
AcDbPolyline
 90
16
 70
1
 10
41.229870
 20
103.821855
 30
0.0
 10
41.535345
 20
104.222167
 30
0.0
 10
41.641500
 20
104.390355
 30
0.0
 10
41.760622
 20
104.527957
 30
0.0
 10
41.013097
 20
104.833387
 30
0.0
 10
40.282755
 20
104.814337
 30
0.0
 10
39.551415
 20
104.899170
 30
0.0
 10
39.141577
 20
104.766952
 30
0.0
 10
39.435937
 20
104.408467
 30
0.0
 10
39.668437
 20
104.290837
 30
0.0
 10
39.788220
 20
104.405595
 30
0.0
 10
39.978615
 20
104.493262
 30
0.0
 10
40.004565
 20
104.362665
 30
0.0
 10
40.009065
 20
104.123895
 30
0.0
 10
40.712947
 20
103.796850
 30
0.0
 10
41.230155
 20
103.821825
 30
0.0
  0
LWPOLYLINE
  5
154
100
AcDbEntity
  8
SilkS
 62
7
100
AcDbPolyline
 90
15
 70
1
 10
56.918347
 20
103.823355
 30
0.0
 10
57.291105
 20
103.972673
 30
0.0
 10
57.202957
 20
104.483708
 30
0.0
 10
56.815860
 20
104.585093
 30
0.0
 10
56.564272
 20
104.643968
 30
0.0
 10
56.425552
 20
104.830823
 30
0.0
 10
55.950810
 20
104.879873
 30
0.0
 10
55.333417
 20
104.947298
 30
0.0
 10
54.788107
 20
104.784683
 30
0.0
 10
54.791857
 20
104.495730
 30
0.0
 10
54.993705
 20
104.321970
 30
0.0
 10
55.156470
 20
104.267670
 30
0.0
 10
55.320000
 20
104.220720
 30
0.0
 10
55.649010
 20
104.031840
 30
0.0
 10
56.918107
 20
103.823348
 30
0.0
  0
LWPOLYLINE
  5
155
100
AcDbEntity
  8
SilkS
 62
7
100
AcDbPolyline
 90
20
 70
1
 10
25.406685
 20
103.947930
 30
0.0
 10
25.648725
 20
103.968630
 30
0.0
 10
26.464717
 20
104.031330
 30
0.0
 10
26.375767
 20
104.178098
 30
0.0
 10
26.207295
 20
104.283405
 30
0.0
 10
26.167245
 20
104.388705
 30
0.0
 10
25.365555
 20
104.387205
 30
0.0
 10
24.368025
 20
104.435130
 30
0.0
 10
24.010410
 20
104.469030
 30
0.0
 10
23.864767
 20
104.591797
 30
0.0
 10
23.768932
 20
104.704207
 30
0.0
 10
23.743132
 20
104.497110
 30
0.0
 10
23.759182
 20
104.286667
 30
0.0
 10
23.846835
 20
104.027775
 30
0.0
 10
24.539017
 20
104.018775
 30
0.0
 10
24.690630
 20
104.008125
 30
0.0
 10
25.002540
 20
104.040000
 30
0.0
 10
25.127490
 20
104.071875
 30
0.0
 10
25.258860
 20
103.880805
 30
0.0
 10
25.406632
 20
103.947855
 30
0.0
  0
LWPOLYLINE
  5
156
100
AcDbEntity
  8
SilkS
 62
7
100
AcDbPolyline
 90
16
 70
1
 10
106.894087
 20
104.215935
 30
0.0
 10
106.817100
 20
105.632527
 30
0.0
 10
106.720545
 20
105.727245
 30
0.0
 10
105.916957
 20
105.592792
 30
0.0
 10
105.592117
 20
105.577867
 30
0.0
 10
105.177825
 20
105.630892
 30
0.0
 10
104.869192
 20
105.657142
 30
0.0
 10
104.603812
 20
105.688193
 30
0.0
 10
104.377447
 20
105.598335
 30
0.0
 10
104.330497
 20
105.395438
 30
0.0
 10
104.331247
 20
104.852910
 30
0.0
 10
104.282947
 20
104.340870
 30
0.0
 10
104.250247
 20
104.247525
 30
0.0
 10
105.459060
 20
104.199900
 30
0.0
 10
106.625460
 20
104.152125
 30
0.0
 10
106.893997
 20
104.215950
 30
0.0
  0
LWPOLYLINE
  5
157
100
AcDbEntity
  8
SilkS
 62
7
100
AcDbPolyline
 90
4
 70
1
 10
79.325520
 20
104.411670
 30
0.0
 10
79.261020
 20
104.560283
 30
0.0
 10
79.224420
 20
104.443515
 30
0.0
 10
79.325512
 20
104.411640
 30
0.0
  0
LWPOLYLINE
  5
158
100
AcDbEntity
  8
SilkS
 62
7
100
AcDbPolyline
 90
4
 70
1
 10
74.060377
 20
104.623973
 30
0.0
 10
74.021677
 20
104.815050
 30
0.0
 10
74.012452
 20
104.443515
 30
0.0
 10
74.060377
 20
104.623973
 30
0.0
  0
LWPOLYLINE
  5
159
100
AcDbEntity
  8
SilkS
 62
7
100
AcDbPolyline
 90
8
 70
1
 10
62.721405
 20
104.577923
 30
0.0
 10
62.862952
 20
104.703158
 30
0.0
 10
62.893327
 20
104.793585
 30
0.0
 10
62.777115
 20
104.838360
 30
0.0
 10
62.638252
 20
104.857560
 30
0.0
 10
62.492715
 20
104.833185
 30
0.0
 10
62.521590
 20
104.582618
 30
0.0
 10
62.721367
 20
104.578118
 30
0.0
  0
LWPOLYLINE
  5
15a
100
AcDbEntity
  8
SilkS
 62
7
100
AcDbPolyline
 90
7
 70
1
 10
24.367005
 20
104.623973
 30
0.0
 10
24.327105
 20
104.687648
 30
0.0
 10
24.310005
 20
104.747198
 30
0.0
 10
24.017182
 20
104.827575
 30
0.0
 10
23.945932
 20
104.704433
 30
0.0
 10
24.147622
 20
104.623560
 30
0.0
 10
24.367005
 20
104.623988
 30
0.0
  0
LWPOLYLINE
  5
15b
100
AcDbEntity
  8
SilkS
 62
7
100
AcDbPolyline
 90
6
 70
1
 10
70.854577
 20
105.404760
 30
0.0
 10
70.727197
 20
105.467085
 30
0.0
 10
69.941670
 20
105.548385
 30
0.0
 10
69.358357
 20
105.549068
 30
0.0
 10
70.005360
 20
105.414188
 30
0.0
 10
70.854577
 20
105.404738
 30
0.0
  0
LWPOLYLINE
  5
15c
100
AcDbEntity
  8
SilkS
 62
7
100
AcDbPolyline
 90
9
 70
1
 10
103.725277
 20
105.427635
 30
0.0
 10
103.990657
 20
105.470310
 30
0.0
 10
103.935982
 20
106.714305
 30
0.0
 10
102.624922
 20
106.746030
 30
0.0
 10
100.865632
 20
106.808355
 30
0.0
 10
100.258965
 20
106.391498
 30
0.0
 10
100.419015
 20
105.624360
 30
0.0
 10
101.383942
 20
105.394605
 30
0.0
 10
103.725262
 20
105.427605
 30
0.0
  0
LWPOLYLINE
  5
15d
100
AcDbEntity
  8
SilkS
 62
7
100
AcDbPolyline
 90
5
 70
1
 10
44.868525
 20
105.454335
 30
0.0
 10
44.316532
 20
105.486360
 30
0.0
 10
44.082997
 20
105.451935
 30
0.0
 10
44.634990
 20
105.419910
 30
0.0
 10
44.868525
 20
105.454335
 30
0.0
  0
LWPOLYLINE
  5
15e
100
AcDbEntity
  8
SilkS
 62
7
100
AcDbPolyline
 90
18
 70
1
 10
61.215960
 20
105.466635
 30
0.0
 10
61.665952
 20
105.579412
 30
0.0
 10
61.738177
 20
105.990518
 30
0.0
 10
61.789177
 20
106.151670
 30
0.0
 10
61.898340
 20
106.329255
 30
0.0
 10
62.174340
 20
106.411740
 30
0.0
 10
62.241390
 20
106.573898
 30
0.0
 10
61.943797
 20
106.642523
 30
0.0
 10
61.495312
 20
106.640273
 30
0.0
 10
61.198777
 20
106.664723
 30
0.0
 10
60.738352
 20
106.679048
 30
0.0
 10
59.658922
 20
106.745573
 30
0.0
 10
58.859347
 20
106.381605
 30
0.0
 10
59.039805
 20
105.947145
 30
0.0
 10
59.751022
 20
105.605325
 30
0.0
 10
59.442067
 20
105.597375
 30
0.0
 10
59.028630
 20
105.516060
 30
0.0
 10
61.215922
 20
105.466710
 30
0.0
  0
LWPOLYLINE
  5
15f
100
AcDbEntity
  8
SilkS
 62
7
100
AcDbPolyline
 90
6
 70
1
 10
60.939967
 20
105.536010
 30
0.0
 10
60.905317
 20
105.572910
 30
0.0
 10
61.279612
 20
105.745575
 30
0.0
 10
61.442535
 20
105.808650
 30
0.0
 10
61.417635
 20
105.564390
 30
0.0
 10
60.939952
 20
105.535965
 30
0.0
  0
LWPOLYLINE
  5
160
100
AcDbEntity
  8
SilkS
 62
7
100
AcDbPolyline
 90
6
 70
1
 10
65.780505
 20
105.448117
 30
0.0
 10
65.408970
 20
105.511043
 30
0.0
 10
64.594740
 20
105.578168
 30
0.0
 10
64.130497
 20
105.599392
 30
0.0
 10
64.427985
 20
105.453082
 30
0.0
 10
65.780505
 20
105.447832
 30
0.0
  0
LWPOLYLINE
  5
161
100
AcDbEntity
  8
SilkS
 62
7
100
AcDbPolyline
 90
20
 70
1
 10
76.384942
 20
105.540225
 30
0.0
 10
75.864000
 20
105.587325
 30
0.0
 10
76.238407
 20
105.632850
 30
0.0
 10
77.072730
 20
106.102410
 30
0.0
 10
77.096355
 20
106.278465
 30
0.0
 10
77.308665
 20
106.291740
 30
0.0
 10
77.584657
 20
106.330815
 30
0.0
 10
77.725185
 20
106.347015
 30
0.0
 10
77.863185
 20
106.388115
 30
0.0
 10
77.983072
 20
106.390365
 30
0.0
 10
78.094185
 20
106.575592
 30
0.0
 10
77.723235
 20
106.747747
 30
0.0
 10
75.472312
 20
106.772722
 30
0.0
 10
74.469315
 20
106.773150
 30
0.0
 10
74.427765
 20
106.149397
 30
0.0
 10
74.513287
 20
105.719482
 30
0.0
 10
74.680417
 20
105.535755
 30
0.0
 10
76.544355
 20
105.473205
 30
0.0
 10
76.884037
 20
105.515355
 30
0.0
 10
76.384957
 20
105.540630
 30
0.0
  0
LWPOLYLINE
  5
162
100
AcDbEntity
  8
SilkS
 62
7
100
AcDbPolyline
 90
4
 70
1
 10
77.733667
 20
106.514145
 30
0.0
 10
77.799892
 20
106.532895
 30
0.0
 10
77.773192
 20
106.471020
 30
0.0
 10
77.733667
 20
106.514145
 30
0.0
  0
LWPOLYLINE
  5
163
100
AcDbEntity
  8
SilkS
 62
7
100
AcDbPolyline
 90
12
 70
1
 10
82.127940
 20
105.475987
 30
0.0
 10
82.877362
 20
105.515212
 30
0.0
 10
83.138482
 20
105.488587
 30
0.0
 10
83.181382
 20
105.629512
 30
0.0
 10
83.230957
 20
106.685115
 30
0.0
 10
82.881502
 20
106.743840
 30
0.0
 10
80.477092
 20
106.771290
 30
0.0
 10
79.630860
 20
106.752165
 30
0.0
 10
79.562010
 20
106.167630
 30
0.0
 10
79.559010
 20
105.648945
 30
0.0
 10
79.686397
 20
105.574320
 30
0.0
 10
82.127895
 20
105.476092
 30
0.0
  0
LWPOLYLINE
  5
164
100
AcDbEntity
  8
SilkS
 62
7
100
AcDbPolyline
 90
10
 70
1
 10
82.356270
 20
106.027132
 30
0.0
 10
82.363770
 20
106.234477
 30
0.0
 10
82.533075
 20
106.343610
 30
0.0
 10
82.699770
 20
106.370010
 30
0.0
 10
82.756320
 20
106.338135
 30
0.0
 10
82.822320
 20
106.286385
 30
0.0
 10
82.976955
 20
106.216635
 30
0.0
 10
82.941105
 20
106.057492
 30
0.0
 10
82.624972
 20
105.951712
 30
0.0
 10
82.356660
 20
106.026990
 30
0.0
  0
LWPOLYLINE
  5
165
100
AcDbEntity
  8
SilkS
 62
7
100
AcDbPolyline
 90
9
 70
1
 10
87.286935
 20
105.457252
 30
0.0
 10
88.002367
 20
105.513877
 30
0.0
 10
88.373250
 20
105.583627
 30
0.0
 10
88.344075
 20
106.710367
 30
0.0
 10
87.571995
 20
106.736542
 30
0.0
 10
85.871325
 20
106.764967
 30
0.0
 10
84.698662
 20
106.235362
 30
0.0
 10
84.899430
 20
105.562582
 30
0.0
 10
87.286965
 20
105.457290
 30
0.0
  0
LWPOLYLINE
  5
166
100
AcDbEntity
  8
SilkS
 62
7
100
AcDbPolyline
 90
4
 70
1
 10
87.974580
 20
106.122165
 30
0.0
 10
88.061850
 20
106.286295
 30
0.0
 10
88.221075
 20
106.173765
 30
0.0
 10
87.974580
 20
106.122165
 30
0.0
  0
LWPOLYLINE
  5
167
100
AcDbEntity
  8
SilkS
 62
7
100
AcDbPolyline
 90
9
 70
1
 10
92.596312
 20
105.476692
 30
0.0
 10
93.261127
 20
105.523492
 30
0.0
 10
93.584257
 20
106.119502
 30
0.0
 10
93.005512
 20
106.783380
 30
0.0
 10
90.699097
 20
106.787880
 30
0.0
 10
89.855827
 20
106.183770
 30
0.0
 10
89.969287
 20
105.640200
 30
0.0
 10
90.612427
 20
105.452782
 30
0.0
 10
92.596312
 20
105.476932
 30
0.0
  0
LWPOLYLINE
  5
168
100
AcDbEntity
  8
SilkS
 62
7
100
AcDbPolyline
 90
6
 70
1
 10
93.284542
 20
105.782415
 30
0.0
 10
93.167775
 20
106.008562
 30
0.0
 10
93.309930
 20
106.254120
 30
0.0
 10
93.473527
 20
105.906892
 30
0.0
 10
93.416452
 20
105.783195
 30
0.0
 10
93.284497
 20
105.782445
 30
0.0
  0
LWPOLYLINE
  5
169
100
AcDbEntity
  8
SilkS
 62
7
100
AcDbPolyline
 90
4
 70
1
 10
93.113310
 20
106.349482
 30
0.0
 10
93.170235
 20
106.470990
 30
0.0
 10
93.219660
 20
106.357485
 30
0.0
 10
93.113272
 20
106.349460
 30
0.0
  0
LWPOLYLINE
  5
16a
100
AcDbEntity
  8
SilkS
 62
7
100
AcDbPolyline
 90
11
 70
1
 10
97.809652
 20
105.471277
 30
0.0
 10
98.493562
 20
105.509452
 30
0.0
 10
98.729062
 20
105.597682
 30
0.0
 10
98.726812
 20
106.711770
 30
0.0
 10
97.930672
 20
106.735845
 30
0.0
 10
96.186195
 20
106.765095
 30
0.0
 10
95.124675
 20
106.747995
 30
0.0
 10
95.056950
 20
106.236757
 30
0.0
 10
95.188335
 20
105.661867
 30
0.0
 10
95.804017
 20
105.477720
 30
0.0
 10
97.809322
 20
105.470970
 30
0.0
  0
LWPOLYLINE
  5
16b
100
AcDbEntity
  8
SilkS
 62
7
100
AcDbPolyline
 90
12
 70
1
 10
34.741612
 20
105.491602
 30
0.0
 10
35.478780
 20
105.775995
 30
0.0
 10
35.331360
 20
106.324845
 30
0.0
 10
35.224335
 20
106.450590
 30
0.0
 10
35.174685
 20
106.590322
 30
0.0
 10
34.152922
 20
106.742190
 30
0.0
 10
33.149092
 20
106.768065
 30
0.0
 10
33.123667
 20
106.162770
 30
0.0
 10
33.045390
 20
105.707257
 30
0.0
 10
33.005640
 20
105.636832
 30
0.0
 10
33.629715
 20
105.496560
 30
0.0
 10
34.741560
 20
105.491310
 30
0.0
  0
LWPOLYLINE
  5
16c
100
AcDbEntity
  8
SilkS
 62
7
100
AcDbPolyline
 90
4
 70
1
 10
33.455715
 20
105.792555
 30
0.0
 10
33.536190
 20
105.830205
 30
0.0
 10
33.490515
 20
105.706732
 30
0.0
 10
33.455715
 20
105.792555
 30
0.0
  0
LWPOLYLINE
  5
16d
100
AcDbEntity
  8
SilkS
 62
7
100
AcDbPolyline
 90
22
 70
1
 10
39.773220
 20
105.520177
 30
0.0
 10
39.858142
 20
105.567277
 30
0.0
 10
40.109257
 20
105.512677
 30
0.0
 10
40.159807
 20
105.529702
 30
0.0
 10
40.228357
 20
105.579352
 30
0.0
 10
40.679152
 20
105.851145
 30
0.0
 10
40.871767
 20
106.420582
 30
0.0
 10
40.850542
 20
106.488907
 30
0.0
 10
40.834792
 20
106.598437
 30
0.0
 10
40.771117
 20
106.549387
 30
0.0
 10
40.685580
 20
106.577737
 30
0.0
 10
39.825750
 20
106.687657
 30
0.0
 10
38.668582
 20
106.749907
 30
0.0
 10
38.151562
 20
106.348590
 30
0.0
 10
38.241405
 20
106.005247
 30
0.0
 10
38.472885
 20
105.961522
 30
0.0
 10
38.752597
 20
105.722070
 30
0.0
 10
38.780122
 20
105.588780
 30
0.0
 10
38.496157
 20
105.611580
 30
0.0
 10
38.231737
 20
105.575055
 30
0.0
 10
39.284970
 20
105.462210
 30
0.0
 10
39.773272
 20
105.520260
 30
0.0
  0
LWPOLYLINE
  5
16e
100
AcDbEntity
  8
SilkS
 62
7
100
AcDbPolyline
 90
6
 70
1
 10
54.949447
 20
105.469027
 30
0.0
 10
54.549607
 20
105.535777
 30
0.0
 10
53.981407
 20
105.609802
 30
0.0
 10
53.814907
 20
105.574852
 30
0.0
 10
54.149565
 20
105.491430
 30
0.0
 10
54.949447
 20
105.469005
 30
0.0
  0
LWPOLYLINE
  5
16f
100
AcDbEntity
  8
SilkS
 62
7
100
AcDbPolyline
 90
4
 70
1
 10
43.807005
 20
105.536902
 30
0.0
 10
43.467315
 20
105.536902
 30
0.0
 10
43.713975
 20
105.499477
 30
0.0
 10
43.807005
 20
105.536902
 30
0.0
  0
LWPOLYLINE
  5
170
100
AcDbEntity
  8
SilkS
 62
7
100
AcDbPolyline
 90
4
 70
1
 10
46.733332
 20
105.520252
 30
0.0
 10
46.694332
 20
105.621862
 30
0.0
 10
46.616490
 20
105.522787
 30
0.0
 10
46.733317
 20
105.520537
 30
0.0
  0
LWPOLYLINE
  5
171
100
AcDbEntity
  8
SilkS
 62
7
100
AcDbPolyline
 90
4
 70
1
 10
57.203407
 20
105.561277
 30
0.0
 10
57.132607
 20
105.614377
 30
0.0
 10
57.114907
 20
105.494497
 30
0.0
 10
57.203370
 20
105.561322
 30
0.0
  0
LWPOLYLINE
  5
172
100
AcDbEntity
  8
SilkS
 62
7
100
AcDbPolyline
 90
4
 70
1
 10
62.362402
 20
105.576427
 30
0.0
 10
62.319952
 20
105.649477
 30
0.0
 10
62.191087
 20
105.539340
 30
0.0
 10
62.362417
 20
105.576465
 30
0.0
  0
LWPOLYLINE
  5
173
100
AcDbEntity
  8
SilkS
 62
7
100
AcDbPolyline
 90
4
 70
1
 10
67.595917
 20
105.568778
 30
0.0
 10
67.506217
 20
105.621878
 30
0.0
 10
67.382805
 20
105.519863
 30
0.0
 10
67.595917
 20
105.568763
 30
0.0
  0
LWPOLYLINE
  5
174
100
AcDbEntity
  8
SilkS
 62
7
100
AcDbPolyline
 90
4
 70
1
 10
72.744090
 20
105.561128
 30
0.0
 10
72.651877
 20
105.614228
 30
0.0
 10
72.634402
 20
105.494505
 30
0.0
 10
72.744090
 20
105.561180
 30
0.0
  0
LWPOLYLINE
  5
175
100
AcDbEntity
  8
SilkS
 62
7
100
AcDbPolyline
 90
5
 70
1
 10
41.535345
 20
105.579353
 30
0.0
 10
41.471670
 20
105.621803
 30
0.0
 10
41.407995
 20
105.579353
 30
0.0
 10
41.471670
 20
105.536903
 30
0.0
 10
41.535345
 20
105.579353
 30
0.0
  0
LWPOLYLINE
  5
176
100
AcDbEntity
  8
SilkS
 62
7
100
AcDbPolyline
 90
4
 70
1
 10
78.009232
 20
105.616478
 30
0.0
 10
77.874412
 20
105.668453
 30
0.0
 10
77.857087
 20
105.536903
 30
0.0
 10
78.009240
 20
105.616463
 30
0.0
  0
LWPOLYLINE
  5
177
100
AcDbEntity
  8
SilkS
 62
7
100
AcDbPolyline
 90
16
 70
1
 10
66.281122
 20
105.667553
 30
0.0
 10
66.530197
 20
106.110465
 30
0.0
 10
66.464947
 20
106.381058
 30
0.0
 10
66.438622
 20
106.513515
 30
0.0
 10
66.502297
 20
106.554315
 30
0.0
 10
66.056460
 20
106.676010
 30
0.0
 10
65.042092
 20
106.724535
 30
0.0
 10
64.107952
 20
106.726035
 30
0.0
 10
64.060777
 20
106.375568
 30
0.0
 10
64.060777
 20
106.072208
 30
0.0
 10
64.273080
 20
105.995663
 30
0.0
 10
64.593660
 20
105.918945
 30
0.0
 10
64.742272
 20
105.880845
 30
0.0
 10
65.037375
 20
105.706793
 30
0.0
 10
65.724307
 20
105.597240
 30
0.0
 10
66.281062
 20
105.667290
 30
0.0
  0
LWPOLYLINE
  5
178
100
AcDbEntity
  8
SilkS
 62
7
100
AcDbPolyline
 90
16
 70
1
 10
45.505440
 20
105.660803
 30
0.0
 10
45.593010
 20
105.870233
 30
0.0
 10
45.845130
 20
106.167765
 30
0.0
 10
46.397115
 20
106.281270
 30
0.0
 10
46.810365
 20
106.393215
 30
0.0
 10
46.840065
 20
106.665450
 30
0.0
 10
46.209022
 20
106.705800
 30
0.0
 10
45.486712
 20
106.460408
 30
0.0
 10
45.011692
 20
106.386083
 30
0.0
 10
44.337735
 20
106.322333
 30
0.0
 10
44.130855
 20
106.257308
 30
0.0
 10
44.056005
 20
106.195958
 30
0.0
 10
44.252820
 20
105.850395
 30
0.0
 10
44.337742
 20
105.706635
 30
0.0
 10
44.921580
 20
105.624698
 30
0.0
 10
45.505417
 20
105.660773
 30
0.0
  0
LWPOLYLINE
  5
179
100
AcDbEntity
  8
SilkS
 62
7
100
AcDbPolyline
 90
16
 70
1
 10
55.553880
 20
105.696053
 30
0.0
 10
55.664722
 20
105.884978
 30
0.0
 10
55.895850
 20
106.048365
 30
0.0
 10
56.184345
 20
106.285088
 30
0.0
 10
55.961430
 20
106.389023
 30
0.0
 10
55.596360
 20
106.555883
 30
0.0
 10
55.563960
 20
106.680263
 30
0.0
 10
55.175347
 20
106.703738
 30
0.0
 10
54.333262
 20
106.744613
 30
0.0
 10
53.791882
 20
106.679813
 30
0.0
 10
53.722282
 20
106.472138
 30
0.0
 10
54.144195
 20
106.231305
 30
0.0
 10
54.636480
 20
106.135770
 30
0.0
 10
54.864780
 20
106.046363
 30
0.0
 10
55.165305
 20
105.790620
 30
0.0
 10
55.553895
 20
105.696060
 30
0.0
  0
LWPOLYLINE
  5
17a
100
AcDbEntity
  8
SilkS
 62
7
100
AcDbPolyline
 90
4
 70
1
 10
54.902557
 20
106.457505
 30
0.0
 10
54.983947
 20
106.454505
 30
0.0
 10
54.928222
 20
106.432230
 30
0.0
 10
54.902572
 20
106.457880
 30
0.0
  0
LWPOLYLINE
  5
17b
100
AcDbEntity
  8
SilkS
 62
7
100
AcDbPolyline
 90
16
 70
1
 10
71.152185
 20
105.749130
 30
0.0
 10
71.235367
 20
105.973785
 30
0.0
 10
71.297842
 20
106.069185
 30
0.0
 10
71.470267
 20
106.135785
 30
0.0
 10
71.438392
 20
106.168710
 30
0.0
 10
71.235472
 20
106.482090
 30
0.0
 10
71.300422
 20
106.602983
 30
0.0
 10
70.005367
 20
106.734848
 30
0.0
 10
69.241072
 20
106.746923
 30
0.0
 10
69.214447
 20
106.513388
 30
0.0
 10
69.425475
 20
106.044900
 30
0.0
 10
69.729360
 20
106.002825
 30
0.0
 10
70.486530
 20
105.950850
 30
0.0
 10
70.683997
 20
105.759645
 30
0.0
 10
70.931865
 20
105.632483
 30
0.0
 10
71.152177
 20
105.749093
 30
0.0
  0
LWPOLYLINE
  5
17c
100
AcDbEntity
  8
SilkS
 62
7
100
AcDbPolyline
 90
13
 70
1
 10
26.674042
 20
105.802080
 30
0.0
 10
27.162345
 20
105.773655
 30
0.0
 10
27.671872
 20
105.782805
 30
0.0
 10
27.812317
 20
105.996225
 30
0.0
 10
27.706170
 20
106.220040
 30
0.0
 10
27.110715
 20
106.190790
 30
0.0
 10
26.929057
 20
106.121265
 30
0.0
 10
26.619315
 20
106.222883
 30
0.0
 10
26.270662
 20
106.240958
 30
0.0
 10
25.902307
 20
106.012455
 30
0.0
 10
25.994670
 20
105.901110
 30
0.0
 10
26.325052
 20
105.783765
 30
0.0
 10
26.674042
 20
105.802065
 30
0.0
  0
LWPOLYLINE
  5
17d
100
AcDbEntity
  8
SilkS
 62
7
100
AcDbPolyline
 90
4
 70
1
 10
72.871470
 20
106.515983
 30
0.0
 10
72.830895
 20
106.578308
 30
0.0
 10
72.814170
 20
106.490880
 30
0.0
 10
72.871470
 20
106.516005
 30
0.0
  0
LWPOLYLINE
  5
17e
100
AcDbEntity
  8
SilkS
 62
7
100
AcDbPolyline
 90
6
 70
1
 10
43.700850
 20
106.555958
 30
0.0
 10
43.830742
 20
106.640880
 30
0.0
 10
43.849492
 20
106.683330
 30
0.0
 10
43.655910
 20
106.725780
 30
0.0
 10
43.488570
 20
106.626705
 30
0.0
 10
43.700880
 20
106.555905
 30
0.0
  0
LWPOLYLINE
  5
17f
100
AcDbEntity
  8
SilkS
 62
7
100
AcDbPolyline
 90
5
 70
1
 10
66.757102
 20
106.488758
 30
0.0
 10
66.782902
 20
106.573680
 30
0.0
 10
66.700485
 20
106.640880
 30
0.0
 10
66.618240
 20
106.517400
 30
0.0
 10
66.757132
 20
106.488825
 30
0.0
  0
LWPOLYLINE
  5
180
100
AcDbEntity
  8
SilkS
 62
7
100
AcDbPolyline
 90
4
 70
1
 10
67.390882
 20
106.658295
 30
0.0
 10
67.234792
 20
106.737120
 30
0.0
 10
67.171117
 20
106.627650
 30
0.0
 10
67.390897
 20
106.658325
 30
0.0
  0
LWPOLYLINE
  5
181
100
AcDbEntity
  8
SilkS
 62
7
100
AcDbPolyline
 90
4
 70
1
 10
67.674435
 20
106.714245
 30
0.0
 10
67.631085
 20
106.635120
 30
0.0
 10
67.682235
 20
106.635120
 30
0.0
 10
67.674435
 20
106.714410
 30
0.0
  0
LWPOLYLINE
  5
182
100
AcDbEntity
  8
SilkS
 62
7
100
AcDbPolyline
 90
4
 70
1
 10
44.497012
 20
107.352045
 30
0.0
 10
44.404995
 20
107.405145
 30
0.0
 10
44.325075
 20
107.304600
 30
0.0
 10
44.497012
 20
107.352075
 30
0.0
  0
LWPOLYLINE
  5
183
100
AcDbEntity
  8
SilkS
 62
7
100
AcDbPolyline
 90
4
 70
1
 10
54.777570
 20
107.334720
 30
0.0
 10
54.669907
 20
107.447588
 30
0.0
 10
54.703657
 20
107.281088
 30
0.0
 10
54.777607
 20
107.334713
 30
0.0
  0
LWPOLYLINE
  5
184
100
AcDbEntity
  8
SilkS
 62
7
100
AcDbPolyline
 90
4
 70
1
 10
59.972482
 20
107.412990
 30
0.0
 10
59.834805
 20
107.404515
 30
0.0
 10
59.796105
 20
107.318625
 30
0.0
 10
59.972475
 20
107.413013
 30
0.0
  0
LWPOLYLINE
  5
185
100
AcDbEntity
  8
SilkS
 62
7
100
AcDbPolyline
 90
4
 70
1
 10
65.119327
 20
107.344440
 30
0.0
 10
65.027145
 20
107.469660
 30
0.0
 10
64.869277
 20
107.334930
 30
0.0
 10
65.119327
 20
107.344455
 30
0.0
  0
LWPOLYLINE
  5
186
100
AcDbEntity
  8
SilkS
 62
7
100
AcDbPolyline
 90
5
 70
1
 10
26.458740
 20
107.361765
 30
0.0
 10
25.750522
 20
107.489685
 30
0.0
 10
25.654980
 20
107.429310
 30
0.0
 10
26.185740
 20
107.327273
 30
0.0
 10
26.458740
 20
107.361773
 30
0.0
  0
LWPOLYLINE
  5
187
100
AcDbEntity
  8
SilkS
 62
7
100
AcDbPolyline
 90
4
 70
1
 10
49.677435
 20
107.394465
 30
0.0
 10
49.587727
 20
107.447565
 30
0.0
 10
49.464322
 20
107.345543
 30
0.0
 10
49.677435
 20
107.394518
 30
0.0
  0
LWPOLYLINE
  5
188
100
AcDbEntity
  8
SilkS
 62
7
100
AcDbPolyline
 90
5
 70
1
 10
29.042640
 20
107.483033
 30
0.0
 10
28.964370
 20
107.525483
 30
0.0
 10
28.848757
 20
107.454683
 30
0.0
 10
28.927027
 20
107.412233
 30
0.0
 10
29.042640
 20
107.483033
 30
0.0
  0
LWPOLYLINE
  5
189
100
AcDbEntity
  8
SilkS
 62
7
100
AcDbPolyline
 90
4
 70
1
 10
64.803907
 20
107.617455
 30
0.0
 10
64.612830
 20
107.659905
 30
0.0
 10
64.721490
 20
107.532518
 30
0.0
 10
64.803907
 20
107.617440
 30
0.0
  0
LWPOLYLINE
  5
18a
100
AcDbEntity
  8
SilkS
 62
7
100
AcDbPolyline
 90
141
 70
1
 10
109.816357
 20
98.520218
 30
0.0
 10
109.558882
 20
100.292955
 30
0.0
 10
109.428472
 20
101.715398
 30
0.0
 10
109.347502
 20
102.713228
 30
0.0
 10
109.112842
 20
105.621795
 30
0.0
 10
109.068667
 20
106.910085
 30
0.0
 10
109.293652
 20
107.005643
 30
0.0
 10
109.499160
 20
107.071718
 30
0.0
 10
109.665195
 20
106.774605
 30
0.0
 10
109.853557
 20
107.065493
 30
0.0
 10
110.005597
 20
107.522145
 30
0.0
 10
110.063047
 20
107.660348
 30
0.0
 10
110.271637
 20
107.578125
 30
0.0
 10
112.536555
 20
107.468835
 30
0.0
 10
113.400390
 20
107.556900
 30
0.0
 10
113.748765
 20
107.626875
 30
0.0
 10
114.106200
 20
107.352240
 30
0.0
 10
114.394575
 20
107.098328
 30
0.0
 10
114.601147
 20
107.356590
 30
0.0
 10
114.826095
 20
107.608133
 30
0.0
 10
115.064497
 20
107.667083
 30
0.0
 10
115.351995
 20
107.622683
 30
0.0
 10
117.529702
 20
107.489280
 30
0.0
 10
118.474455
 20
107.562105
 30
0.0
 10
118.845630
 20
107.626080
 30
0.0
 10
119.197597
 20
107.418600
 30
0.0
 10
119.445637
 20
107.151030
 30
0.0
 10
119.686275
 20
107.341883
 30
0.0
 10
119.978092
 20
107.659913
 30
0.0
 10
120.217485
 20
107.738025
 30
0.0
 10
120.495292
 20
107.714775
 30
0.0
 10
121.148092
 20
107.575095
 30
0.0
 10
123.145155
 20
107.624895
 30
0.0
 10
123.704010
 20
107.664570
 30
0.0
 10
123.962055
 20
107.741888
 30
0.0
 10
124.154730
 20
107.690738
 30
0.0
 10
124.353705
 20
107.394540
 30
0.0
 10
124.570327
 20
107.235308
 30
0.0
 10
124.782405
 20
107.394540
 30
0.0
 10
125.056530
 20
107.786760
 30
0.0
 10
125.310585
 20
108.222525
 30
0.0
 10
125.369160
 20
108.339293
 30
0.0
 10
125.494950
 20
108.135165
 30
0.0
 10
125.719237
 20
107.914688
 30
0.0
 10
125.775412
 20
107.807790
 30
0.0
 10
125.844187
 20
107.648168
 30
0.0
 10
128.281545
 20
107.640593
 30
0.0
 10
128.989522
 20
107.702018
 30
0.0
 10
129.276135
 20
107.531655
 30
0.0
 10
129.345960
 20
107.096430
 30
0.0
 10
129.408135
 20
106.555913
 30
0.0
 10
129.470310
 20
106.151490
 30
0.0
 10
129.115897
 20
105.949800
 30
0.0
 10
128.574525
 20
105.875925
 30
0.0
 10
128.325352
 20
105.830025
 30
0.0
 10
128.580120
 20
105.817950
 30
0.0
 10
129.210765
 20
105.853275
 30
0.0
 10
129.579337
 20
105.746475
 30
0.0
 10
129.656640
 20
105.258173
 30
0.0
 10
129.723315
 20
104.759273
 30
0.0
 10
129.769065
 20
104.413778
 30
0.0
 10
129.769065
 20
104.187818
 30
0.0
 10
129.503685
 20
104.141618
 30
0.0
 10
127.985707
 20
104.005088
 30
0.0
 10
127.009102
 20
104.050313
 30
0.0
 10
126.329730
 20
104.056313
 30
0.0
 10
128.367855
 20
103.929570
 30
0.0
 10
129.399577
 20
103.986945
 30
0.0
 10
129.815617
 20
104.003220
 30
0.0
 10
129.898335
 20
103.867568
 30
0.0
 10
129.946860
 20
103.455915
 30
0.0
 10
129.948360
 20
103.090628
 30
0.0
 10
130.059637
 20
102.421688
 30
0.0
 10
126.802080
 20
102.251738
 30
0.0
 10
126.593175
 20
102.219863
 30
0.0
 10
127.908112
 20
102.070995
 30
0.0
 10
129.054555
 20
102.096795
 30
0.0
 10
129.722542
 20
102.156570
 30
0.0
 10
130.121685
 20
102.161820
 30
0.0
 10
130.174860
 20
102.033908
 30
0.0
 10
130.241010
 20
101.623478
 30
0.0
 10
130.034617
 20
101.533365
 30
0.0
 10
128.979037
 20
101.348190
 30
0.0
 10
128.843227
 20
101.290290
 30
0.0
 10
128.639295
 20
101.183475
 30
0.0
 10
128.454645
 20
101.098688
 30
0.0
 10
128.146665
 20
101.131163
 30
0.0
 10
127.915132
 20
101.177813
 30
0.0
 10
127.317127
 20
101.330843
 30
0.0
 10
127.136662
 20
101.290268
 30
0.0
 10
127.062337
 20
101.244443
 30
0.0
 10
127.041112
 20
101.219693
 30
0.0
 10
126.966787
 20
101.105573
 30
0.0
 10
126.839400
 20
100.893158
 30
0.0
 10
126.892500
 20
100.664693
 30
0.0
 10
127.577295
 20
100.525980
 30
0.0
 10
127.925145
 20
100.482405
 30
0.0
 10
128.141452
 20
100.505430
 30
0.0
 10
128.311672
 20
100.503180
 30
0.0
 10
128.490892
 20
100.464255
 30
0.0
 10
128.665245
 20
100.483155
 30
0.0
 10
129.726765
 20
100.531980
 30
0.0
 10
129.998392
 20
100.805963
 30
0.0
 10
130.071817
 20
100.973528
 30
0.0
 10
130.221795
 20
101.009378
 30
0.0
 10
130.354050
 20
100.854675
 30
0.0
 10
130.431127
 20
100.501890
 30
0.0
 10
130.456852
 20
100.329480
 30
0.0
 10
129.932565
 20
100.274280
 30
0.0
 10
127.497540
 20
100.253955
 30
0.0
 10
126.970290
 20
100.290405
 30
0.0
 10
129.493200
 20
100.143848
 30
0.0
 10
130.157812
 20
100.211498
 30
0.0
 10
130.482735
 20
100.234373
 30
0.0
 10
130.565962
 20
100.008525
 30
0.0
 10
130.676632
 20
99.718973
 30
0.0
 10
130.535902
 20
100.950338
 30
0.0
 10
130.343235
 20
102.054323
 30
0.0
 10
130.191037
 20
102.945998
 30
0.0
 10
130.043347
 20
103.816448
 30
0.0
 10
129.878850
 20
104.793045
 30
0.0
 10
129.723360
 20
105.642263
 30
0.0
 10
129.576262
 20
106.552193
 30
0.0
 10
129.502012
 20
107.178488
 30
0.0
 10
129.804997
 20
107.160263
 30
0.0
 10
130.004880
 20
106.024433
 30
0.0
 10
130.110675
 20
105.429983
 30
0.0
 10
130.258575
 20
104.559533
 30
0.0
 10
130.408237
 20
103.625393
 30
0.0
 10
130.555402
 20
102.712485
 30
0.0
 10
130.683420
 20
101.905733
 30
0.0
 10
130.895460
 20
100.546980
 30
0.0
 10
130.963635
 20
100.101143
 30
0.0
 10
131.170155
 20
98.906820
 30
0.0
 10
131.110305
 20
98.745323
 30
0.0
 10
125.756700
 20
98.574863
 30
0.0
 10
120.529290
 20
98.593088
 30
0.0
 10
120.410092
 20
98.591588
 30
0.0
 10
117.851827
 20
98.482380
 30
0.0
 10
112.630387
 20
98.450505
 30
0.0
 10
109.816575
 20
98.519730
 30
0.0
  0
LWPOLYLINE
  5
18b
100
AcDbEntity
  8
SilkS
 62
7
100
AcDbPolyline
 90
5
 70
1
 10
120.470107
 20
99.074708
 30
0.0
 10
120.409882
 20
99.403710
 30
0.0
 10
120.334882
 20
99.287355
 30
0.0
 10
120.404707
 20
98.987288
 30
0.0
 10
120.470032
 20
99.074708
 30
0.0
  0
LWPOLYLINE
  5
18c
100
AcDbEntity
  8
SilkS
 62
7
100
AcDbPolyline
 90
21
 70
1
 10
110.360835
 20
99.326970
 30
0.0
 10
110.535247
 20
100.375313
 30
0.0
 10
110.470672
 20
100.745453
 30
0.0
 10
110.341455
 20
101.161950
 30
0.0
 10
110.380455
 20
101.679450
 30
0.0
 10
110.673480
 20
102.055793
 30
0.0
 10
113.145637
 20
101.931638
 30
0.0
 10
113.931165
 20
102.005888
 30
0.0
 10
114.249622
 20
102.033863
 30
0.0
 10
114.235072
 20
102.582803
 30
0.0
 10
114.181972
 20
103.233248
 30
0.0
 10
113.793135
 20
103.302773
 30
0.0
 10
110.928675
 20
103.322198
 30
0.0
 10
110.489812
 20
103.217355
 30
0.0
 10
110.387842
 20
103.116585
 30
0.0
 10
110.110207
 20
101.288145
 30
0.0
 10
110.196022
 20
101.035140
 30
0.0
 10
110.196450
 20
100.714485
 30
0.0
 10
110.152800
 20
100.123095
 30
0.0
 10
110.285332
 20
99.167723
 30
0.0
 10
110.360947
 20
99.326948
 30
0.0
  0
LWPOLYLINE
  5
18d
100
AcDbEntity
  8
SilkS
 62
7
100
AcDbPolyline
 90
7
 70
1
 10
113.875702
 20
102.392243
 30
0.0
 10
114.020587
 20
102.880275
 30
0.0
 10
114.033712
 20
102.813600
 30
0.0
 10
114.086137
 20
102.712485
 30
0.0
 10
114.090637
 20
102.520800
 30
0.0
 10
114.016312
 20
102.327615
 30
0.0
 10
113.875950
 20
102.392190
 30
0.0
  0
LWPOLYLINE
  5
18e
100
AcDbEntity
  8
SilkS
 62
7
100
AcDbPolyline
 90
5
 70
1
 10
109.847820
 20
99.592350
 30
0.0
 10
109.791195
 20
99.634800
 30
0.0
 10
109.734570
 20
99.592350
 30
0.0
 10
109.791195
 20
99.549900
 30
0.0
 10
109.847820
 20
99.592350
 30
0.0
  0
LWPOLYLINE
  5
18f
100
AcDbEntity
  8
SilkS
 62
7
100
AcDbPolyline
 90
15
 70
1
 10
115.820655
 20
100.018080
 30
0.0
 10
118.665525
 20
100.081680
 30
0.0
 10
119.281207
 20
100.204643
 30
0.0
 10
117.519082
 20
100.195643
 30
0.0
 10
115.822005
 20
100.375365
 30
0.0
 10
115.884330
 20
100.640078
 30
0.0
 10
115.760040
 20
100.961033
 30
0.0
 10
115.635757
 20
101.099700
 30
0.0
 10
115.248720
 20
101.088900
 30
0.0
 10
114.525307
 20
100.865640
 30
0.0
 10
114.541582
 20
100.266293
 30
0.0
 10
114.431715
 20
100.170653
 30
0.0
 10
111.234892
 20
100.180478
 30
0.0
 10
110.831512
 20
100.142303
 30
0.0
 10
115.820670
 20
100.018073
 30
0.0
  0
LWPOLYLINE
  5
190
100
AcDbEntity
  8
SilkS
 62
7
100
AcDbPolyline
 90
8
 70
1
 10
124.121745
 20
100.150065
 30
0.0
 10
124.712790
 20
100.202715
 30
0.0
 10
125.047035
 20
100.266465
 30
0.0
 10
124.472895
 20
100.327365
 30
0.0
 10
121.775782
 20
100.336815
 30
0.0
 10
121.574092
 20
100.297440
 30
0.0
 10
121.627192
 20
100.206503
 30
0.0
 10
124.121767
 20
100.150103
 30
0.0
  0
LWPOLYLINE
  5
191
100
AcDbEntity
  8
SilkS
 62
7
100
AcDbPolyline
 90
4
 70
1
 10
119.790735
 20
100.251833
 30
0.0
 10
119.535742
 20
100.314083
 30
0.0
 10
119.623395
 20
100.186793
 30
0.0
 10
119.790735
 20
100.251818
 30
0.0
  0
LWPOLYLINE
  5
192
100
AcDbEntity
  8
SilkS
 62
7
100
AcDbPolyline
 90
5
 70
1
 10
124.610047
 20
100.484033
 30
0.0
 10
124.591297
 20
100.526483
 30
0.0
 10
124.546297
 20
100.484033
 30
0.0
 10
124.565047
 20
100.441583
 30
0.0
 10
124.610047
 20
100.484033
 30
0.0
  0
LWPOLYLINE
  5
193
100
AcDbEntity
  8
SilkS
 62
7
100
AcDbPolyline
 90
18
 70
1
 10
123.306495
 20
100.534958
 30
0.0
 10
123.357420
 20
100.726028
 30
0.0
 10
123.443835
 20
100.866150
 30
0.0
 10
123.624292
 20
100.926975
 30
0.0
 10
123.994335
 20
100.952925
 30
0.0
 10
124.364370
 20
100.977000
 30
0.0
 10
124.522102
 20
101.036025
 30
0.0
 10
124.609125
 20
101.249070
 30
0.0
 10
124.546350
 20
101.380560
 30
0.0
 10
124.387125
 20
101.400360
 30
0.0
 10
123.876585
 20
101.342910
 30
0.0
 10
121.659015
 20
101.385510
 30
0.0
 10
121.826250
 20
101.161028
 30
0.0
 10
122.261475
 20
100.966793
 30
0.0
 10
122.699302
 20
100.920818
 30
0.0
 10
122.890380
 20
100.738155
 30
0.0
 10
123.060225
 20
100.539480
 30
0.0
 10
123.306495
 20
100.534980
 30
0.0
  0
LWPOLYLINE
  5
194
100
AcDbEntity
  8
SilkS
 62
7
100
AcDbPolyline
 90
4
 70
1
 10
124.516747
 20
100.590158
 30
0.0
 10
124.429792
 20
100.646183
 30
0.0
 10
124.360867
 20
100.591058
 30
0.0
 10
124.516785
 20
100.590308
 30
0.0
  0
LWPOLYLINE
  5
195
100
AcDbEntity
  8
SilkS
 62
7
100
AcDbPolyline
 90
31
 70
1
 10
118.453215
 20
102.016995
 30
0.0
 10
119.165737
 20
102.084345
 30
0.0
 10
119.517382
 20
102.215175
 30
0.0
 10
118.926930
 20
102.214425
 30
0.0
 10
118.861605
 20
102.182550
 30
0.0
 10
118.750042
 20
102.225675
 30
0.0
 10
118.571497
 20
102.332250
 30
0.0
 10
118.489477
 20
102.472943
 30
0.0
 10
118.559377
 20
102.614558
 30
0.0
 10
118.774702
 20
102.810638
 30
0.0
 10
118.887285
 20
102.964230
 30
0.0
 10
119.016952
 20
103.185803
 30
0.0
 10
119.019202
 20
103.242728
 30
0.0
 10
118.931190
 20
103.192328
 30
0.0
 10
118.725967
 20
103.202978
 30
0.0
 10
116.839552
 20
103.242953
 30
0.0
 10
116.425560
 20
103.259978
 30
0.0
 10
116.266335
 20
103.208753
 30
0.0
 10
116.365605
 20
103.006065
 30
0.0
 10
116.464867
 20
102.890663
 30
0.0
 10
116.556675
 20
102.982470
 30
0.0
 10
116.860785
 20
102.810840
 30
0.0
 10
116.919060
 20
102.730073
 30
0.0
 10
117.002917
 20
102.650348
 30
0.0
 10
116.920530
 20
102.267518
 30
0.0
 10
116.890530
 20
102.197018
 30
0.0
 10
116.564400
 20
102.153743
 30
0.0
 10
116.139892
 20
102.245513
 30
0.0
 10
115.934167
 20
102.239513
 30
0.0
 10
116.924490
 20
101.982645
 30
0.0
 10
118.453072
 20
102.016845
 30
0.0
  0
LWPOLYLINE
  5
196
100
AcDbEntity
  8
SilkS
 62
7
100
AcDbPolyline
 90
5
 70
1
 10
118.644292
 20
103.031655
 30
0.0
 10
118.684267
 20
103.074105
 30
0.0
 10
118.750492
 20
103.031655
 30
0.0
 10
118.710517
 20
102.989205
 30
0.0
 10
118.644292
 20
103.031655
 30
0.0
  0
LWPOLYLINE
  5
197
100
AcDbEntity
  8
SilkS
 62
7
100
AcDbPolyline
 90
25
 70
1
 10
123.760830
 20
102.094283
 30
0.0
 10
123.569752
 20
102.138008
 30
0.0
 10
123.383850
 20
102.201008
 30
0.0
 10
123.585532
 20
102.357413
 30
0.0
 10
123.589282
 20
102.838103
 30
0.0
 10
123.697282
 20
103.001903
 30
0.0
 10
123.891405
 20
103.046828
 30
0.0
 10
124.041120
 20
103.160963
 30
0.0
 10
124.151212
 20
103.260390
 30
0.0
 10
122.891572
 20
103.244790
 30
0.0
 10
122.598562
 20
103.223865
 30
0.0
 10
122.055135
 20
103.236765
 30
0.0
 10
121.848262
 20
103.263015
 30
0.0
 10
121.257502
 20
103.289940
 30
0.0
 10
121.577062
 20
102.967155
 30
0.0
 10
121.814257
 20
103.056330
 30
0.0
 10
121.962802
 20
103.102680
 30
0.0
 10
122.098117
 20
103.031580
 30
0.0
 10
122.264092
 20
102.676253
 30
0.0
 10
122.397277
 20
102.294788
 30
0.0
 10
122.625300
 20
102.200265
 30
0.0
 10
122.826337
 20
102.181965
 30
0.0
 10
121.605585
 20
102.201915
 30
0.0
 10
121.499437
 20
102.117975
 30
0.0
 10
123.760477
 20
102.094200
 30
0.0
  0
LWPOLYLINE
  5
198
100
AcDbEntity
  8
SilkS
 62
7
100
AcDbPolyline
 90
4
 70
1
 10
124.174822
 20
102.168083
 30
0.0
 10
124.068667
 20
102.168083
 30
0.0
 10
124.121767
 20
102.146633
 30
0.0
 10
124.174867
 20
102.168083
 30
0.0
  0
LWPOLYLINE
  5
199
100
AcDbEntity
  8
SilkS
 62
7
100
AcDbPolyline
 90
4
 70
1
 10
124.737480
 20
102.182483
 30
0.0
 10
124.644442
 20
102.270713
 30
0.0
 10
124.386112
 20
102.189983
 30
0.0
 10
124.737480
 20
102.182483
 30
0.0
  0
LWPOLYLINE
  5
19a
100
AcDbEntity
  8
SilkS
 62
7
100
AcDbPolyline
 90
18
 70
1
 10
129.101085
 20
102.471458
 30
0.0
 10
129.195930
 20
102.692603
 30
0.0
 10
129.294787
 20
102.881168
 30
0.0
 10
129.413985
 20
103.178558
 30
0.0
 10
128.505000
 20
103.246283
 30
0.0
 10
128.181120
 20
103.266233
 30
0.0
 10
127.937610
 20
103.290833
 30
0.0
 10
127.621462
 20
103.243958
 30
0.0
 10
127.376070
 20
103.180283
 30
0.0
 10
127.209592
 20
103.199558
 30
0.0
 10
126.858787
 20
103.311015
 30
0.0
 10
126.763245
 20
103.138620
 30
0.0
 10
126.737820
 20
102.994860
 30
0.0
 10
126.676995
 20
102.831383
 30
0.0
 10
126.844410
 20
102.776858
 30
0.0
 10
126.966592
 20
102.651983
 30
0.0
 10
128.202082
 20
102.411743
 30
0.0
 10
129.101055
 20
102.471443
 30
0.0
  0
LWPOLYLINE
  5
19b
100
AcDbEntity
  8
SilkS
 62
7
100
AcDbPolyline
 90
4
 70
1
 10
126.859155
 20
102.562418
 30
0.0
 10
126.800580
 20
102.647453
 30
0.0
 10
126.717067
 20
102.560453
 30
0.0
 10
126.859192
 20
102.562703
 30
0.0
  0
LWPOLYLINE
  5
19c
100
AcDbEntity
  8
SilkS
 62
7
100
AcDbPolyline
 90
5
 70
1
 10
119.413365
 20
103.001363
 30
0.0
 10
119.366115
 20
102.983513
 30
0.0
 10
119.397090
 20
102.887445
 30
0.0
 10
119.444340
 20
102.905295
 30
0.0
 10
119.413365
 20
103.001363
 30
0.0
  0
LWPOLYLINE
  5
19d
100
AcDbEntity
  8
SilkS
 62
7
100
AcDbPolyline
 90
18
 70
1
 10
110.192535
 20
103.435313
 30
0.0
 10
110.327182
 20
103.930185
 30
0.0
 10
110.371657
 20
104.043218
 30
0.0
 10
110.516760
 20
103.944758
 30
0.0
 10
111.075765
 20
103.810485
 30
0.0
 10
113.228377
 20
103.837935
 30
0.0
 10
113.769847
 20
103.894035
 30
0.0
 10
114.079770
 20
103.902060
 30
0.0
 10
114.093645
 20
104.071898
 30
0.0
 10
113.954670
 20
105.147953
 30
0.0
 10
113.034090
 20
105.154703
 30
0.0
 10
111.288247
 20
105.134978
 30
0.0
 10
110.296590
 20
104.881763
 30
0.0
 10
110.269665
 20
104.825363
 30
0.0
 10
110.187532
 20
104.942130
 30
0.0
 10
109.897410
 20
103.854473
 30
0.0
 10
110.009467
 20
102.988928
 30
0.0
 10
110.192587
 20
103.435088
 30
0.0
  0
LWPOLYLINE
  5
19e
100
AcDbEntity
  8
SilkS
 62
7
100
AcDbPolyline
 90
4
 70
1
 10
110.282857
 20
104.627438
 30
0.0
 10
110.308507
 20
104.653088
 30
0.0
 10
110.305507
 20
104.571705
 30
0.0
 10
110.283232
 20
104.627430
 30
0.0
  0
LWPOLYLINE
  5
19f
100
AcDbEntity
  8
SilkS
 62
7
100
AcDbPolyline
 90
5
 70
1
 10
115.883692
 20
103.233308
 30
0.0
 10
115.841842
 20
103.286408
 30
0.0
 10
115.799992
 20
103.169640
 30
0.0
 10
115.841842
 20
103.116540
 30
0.0
 10
115.883692
 20
103.233308
 30
0.0
  0
LWPOLYLINE
  5
1a0
100
AcDbEntity
  8
SilkS
 62
7
100
AcDbPolyline
 90
29
 70
1
 10
118.010077
 20
103.861313
 30
0.0
 10
118.856595
 20
103.939973
 30
0.0
 10
119.231242
 20
104.023185
 30
0.0
 10
118.800075
 20
104.029185
 30
0.0
 10
118.364850
 20
103.991310
 30
0.0
 10
118.463835
 20
104.275440
 30
0.0
 10
118.659262
 20
104.513483
 30
0.0
 10
118.698412
 20
104.644793
 30
0.0
 10
118.821855
 20
104.715443
 30
0.0
 10
119.008425
 20
104.728043
 30
0.0
 10
119.139195
 20
104.970368
 30
0.0
 10
118.884255
 20
105.117893
 30
0.0
 10
118.686487
 20
105.099893
 30
0.0
 10
118.051642
 20
105.152768
 30
0.0
 10
116.531910
 20
105.146768
 30
0.0
 10
115.544692
 20
105.159443
 30
0.0
 10
115.544692
 20
104.857275
 30
0.0
 10
115.587142
 20
104.581350
 30
0.0
 10
115.629592
 20
104.758238
 30
0.0
 10
115.703917
 20
104.878778
 30
0.0
 10
115.905600
 20
104.804678
 30
0.0
 10
116.381940
 20
104.476928
 30
0.0
 10
116.349690
 20
104.274743
 30
0.0
 10
116.434402
 20
104.124135
 30
0.0
 10
116.528437
 20
104.040765
 30
0.0
 10
115.784512
 20
104.113665
 30
0.0
 10
115.721437
 20
104.067390
 30
0.0
 10
116.605867
 20
103.842173
 30
0.0
 10
118.010130
 20
103.861223
 30
0.0
  0
LWPOLYLINE
  5
1a1
100
AcDbEntity
  8
SilkS
 62
7
100
AcDbPolyline
 90
34
 70
1
 10
123.187605
 20
103.927313
 30
0.0
 10
124.031167
 20
103.987763
 30
0.0
 10
124.477335
 20
104.094270
 30
0.0
 10
123.993915
 20
104.091270
 30
0.0
 10
123.461947
 20
104.068770
 30
0.0
 10
123.371280
 20
104.091495
 30
0.0
 10
123.479602
 20
104.325953
 30
0.0
 10
123.684997
 20
104.560410
 30
0.0
 10
123.782055
 20
104.602860
 30
0.0
 10
124.036822
 20
104.645310
 30
0.0
 10
124.291590
 20
104.645310
 30
0.0
 10
124.291590
 20
104.776695
 30
0.0
 10
124.206667
 20
104.930265
 30
0.0
 10
124.121745
 20
105.001515
 30
0.0
 10
123.612210
 20
105.202890
 30
0.0
 10
122.380845
 20
105.201390
 30
0.0
 10
121.207890
 20
105.220515
 30
0.0
 10
121.065412
 20
105.090188
 30
0.0
 10
121.101637
 20
104.957123
 30
0.0
 10
120.992092
 20
104.899898
 30
0.0
 10
120.948292
 20
104.846798
 30
0.0
 10
121.100452
 20
104.794148
 30
0.0
 10
121.234402
 20
104.741048
 30
0.0
 10
121.335360
 20
104.687573
 30
0.0
 10
121.487077
 20
104.626373
 30
0.0
 10
121.592947
 20
104.586323
 30
0.0
 10
121.671420
 20
104.546573
 30
0.0
 10
121.804282
 20
104.506598
 30
0.0
 10
121.932832
 20
104.226488
 30
0.0
 10
121.940407
 20
104.041493
 30
0.0
 10
121.491877
 20
104.070968
 30
0.0
 10
121.107045
 20
104.035193
 30
0.0
 10
121.765185
 20
103.931535
 30
0.0
 10
123.187627
 20
103.927035
 30
0.0
  0
LWPOLYLINE
  5
1a2
100
AcDbEntity
  8
SilkS
 62
7
100
AcDbPolyline
 90
19
 70
1
 10
128.686290
 20
104.309925
 30
0.0
 10
129.576015
 20
104.436938
 30
0.0
 10
129.526065
 20
104.846843
 30
0.0
 10
129.261997
 20
104.904443
 30
0.0
 10
129.068422
 20
104.908943
 30
0.0
 10
129.259492
 20
104.951993
 30
0.0
 10
129.359377
 20
105.029393
 30
0.0
 10
129.240105
 20
105.109163
 30
0.0
 10
128.212417
 20
105.103163
 30
0.0
 10
127.969552
 20
104.970263
 30
0.0
 10
127.878577
 20
104.915663
 30
0.0
 10
127.638532
 20
104.942438
 30
0.0
 10
127.446637
 20
105.024840
 30
0.0
 10
126.624127
 20
105.177945
 30
0.0
 10
126.171202
 20
104.988548
 30
0.0
 10
126.091290
 20
104.818755
 30
0.0
 10
126.033465
 20
104.558475
 30
0.0
 10
126.581415
 20
104.337600
 30
0.0
 10
128.686297
 20
104.310000
 30
0.0
  0
LWPOLYLINE
  5
1a3
100
AcDbEntity
  8
SilkS
 62
7
100
AcDbPolyline
 90
5
 70
1
 10
127.200157
 20
104.560230
 30
0.0
 10
127.240132
 20
104.602680
 30
0.0
 10
127.306357
 20
104.560230
 30
0.0
 10
127.266382
 20
104.517780
 30
0.0
 10
127.200157
 20
104.560230
 30
0.0
  0
LWPOLYLINE
  5
1a4
100
AcDbEntity
  8
SilkS
 62
7
100
AcDbPolyline
 90
5
 70
1
 10
120.979642
 20
104.347928
 30
0.0
 10
120.937192
 20
104.390378
 30
0.0
 10
120.894742
 20
104.347928
 30
0.0
 10
120.937192
 20
104.305478
 30
0.0
 10
120.979642
 20
104.347928
 30
0.0
  0
LWPOLYLINE
  5
1a5
100
AcDbEntity
  8
SilkS
 62
7
100
AcDbPolyline
 90
15
 70
1
 10
109.913340
 20
105.080378
 30
0.0
 10
110.023890
 20
105.510368
 30
0.0
 10
110.112607
 20
105.797093
 30
0.0
 10
110.278155
 20
105.785843
 30
0.0
 10
113.018235
 20
105.671565
 30
0.0
 10
113.527762
 20
105.729315
 30
0.0
 10
113.788192
 20
105.744015
 30
0.0
 10
113.841367
 20
106.443540
 30
0.0
 10
113.743042
 20
106.974465
 30
0.0
 10
113.116860
 20
106.986390
 30
0.0
 10
110.704147
 20
106.979640
 30
0.0
 10
109.994520
 20
106.815248
 30
0.0
 10
109.726732
 20
105.159825
 30
0.0
 10
109.813290
 20
104.857778
 30
0.0
 10
109.913370
 20
105.080700
 30
0.0
  0
LWPOLYLINE
  5
1a6
100
AcDbEntity
  8
SilkS
 62
7
100
AcDbPolyline
 90
15
 70
1
 10
118.049842
 20
105.747645
 30
0.0
 10
118.856595
 20
105.825848
 30
0.0
 10
119.068897
 20
105.983580
 30
0.0
 10
118.707187
 20
106.154918
 30
0.0
 10
118.487550
 20
106.142468
 30
0.0
 10
118.600837
 20
106.358738
 30
0.0
 10
118.866397
 20
106.505655
 30
0.0
 10
118.969657
 20
106.733325
 30
0.0
 10
118.431990
 20
107.059058
 30
0.0
 10
115.578052
 20
107.025608
 30
0.0
 10
115.358377
 20
106.731495
 30
0.0
 10
115.395202
 20
106.364865
 30
0.0
 10
115.533607
 20
105.899528
 30
0.0
 10
116.374335
 20
105.709815
 30
0.0
 10
118.049865
 20
105.747690
 30
0.0
  0
LWPOLYLINE
  5
1a7
100
AcDbEntity
  8
SilkS
 62
7
100
AcDbPolyline
 90
13
 70
1
 10
115.730947
 20
105.993285
 30
0.0
 10
115.676722
 20
106.152510
 30
0.0
 10
115.670722
 20
106.364820
 30
0.0
 10
115.864260
 20
106.482525
 30
0.0
 10
116.348895
 20
106.337213
 30
0.0
 10
116.492655
 20
106.224690
 30
0.0
 10
116.379735
 20
106.120043
 30
0.0
 10
116.266822
 20
105.967185
 30
0.0
 10
116.203147
 20
105.918960
 30
0.0
 10
116.150047
 20
105.972060
 30
0.0
 10
116.033280
 20
106.025160
 30
0.0
 10
115.916512
 20
105.972060
 30
0.0
 10
115.731270
 20
105.993285
 30
0.0
  0
LWPOLYLINE
  5
1a8
100
AcDbEntity
  8
SilkS
 62
7
100
AcDbPolyline
 90
22
 70
1
 10
123.506062
 20
105.788708
 30
0.0
 10
123.962512
 20
105.834458
 30
0.0
 10
124.164202
 20
105.899408
 30
0.0
 10
123.989602
 20
105.939458
 30
0.0
 10
123.304372
 20
105.916058
 30
0.0
 10
123.230047
 20
105.976208
 30
0.0
 10
123.145132
 20
106.110173
 30
0.0
 10
123.128032
 20
106.560608
 30
0.0
 10
123.073732
 20
106.725855
 30
0.0
 10
123.060232
 20
106.789530
 30
0.0
 10
123.449220
 20
106.807080
 30
0.0
 10
123.615840
 20
106.847280
 30
0.0
 10
123.664890
 20
106.950953
 30
0.0
 10
122.941110
 20
106.963778
 30
0.0
 10
122.176815
 20
106.869720
 30
0.0
 10
121.924890
 20
106.681703
 30
0.0
 10
121.722390
 20
106.141155
 30
0.0
 10
121.752090
 20
105.863595
 30
0.0
 10
121.259715
 20
105.892995
 30
0.0
 10
120.767340
 20
105.881220
 30
0.0
 10
121.361797
 20
105.734888
 30
0.0
 10
123.506070
 20
105.788663
 30
0.0
  0
LWPOLYLINE
  5
1a9
100
AcDbEntity
  8
SilkS
 62
7
100
AcDbPolyline
 90
4
 70
1
 10
128.113065
 20
105.791708
 30
0.0
 10
127.476150
 20
105.825983
 30
0.0
 10
127.072777
 20
105.791708
 30
0.0
 10
128.113065
 20
105.791708
 30
0.0
  0
LWPOLYLINE
  5
1aa
100
AcDbEntity
  8
SilkS
 62
7
100
AcDbPolyline
 90
4
 70
1
 10
126.584475
 20
105.876630
 30
0.0
 10
126.159862
 20
105.876630
 30
0.0
 10
126.457095
 20
105.839055
 30
0.0
 10
126.584475
 20
105.876630
 30
0.0
  0
LWPOLYLINE
  5
1ab
100
AcDbEntity
  8
SilkS
 62
7
100
AcDbPolyline
 90
15
 70
1
 10
128.151945
 20
106.085925
 30
0.0
 10
128.590267
 20
106.366268
 30
0.0
 10
128.493847
 20
106.514273
 30
0.0
 10
128.438272
 20
106.632585
 30
0.0
 10
128.586765
 20
106.691460
 30
0.0
 10
128.660190
 20
106.760235
 30
0.0
 10
128.543812
 20
106.813335
 30
0.0
 10
128.350665
 20
106.853910
 30
0.0
 10
127.794577
 20
106.932428
 30
0.0
 10
126.708697
 20
106.986878
 30
0.0
 10
125.905072
 20
106.916903
 30
0.0
 10
126.127215
 20
106.792455
 30
0.0
 10
126.383955
 20
106.350795
 30
0.0
 10
126.435780
 20
106.138508
 30
0.0
 10
128.151907
 20
106.085933
 30
0.0
  0
LWPOLYLINE
  5
1ac
100
AcDbEntity
  8
SilkS
 62
7
100
AcDbPolyline
 90
8
 70
1
 10
128.283712
 20
106.450823
 30
0.0
 10
128.267662
 20
106.488773
 30
0.0
 10
128.197987
 20
106.530248
 30
0.0
 10
128.325367
 20
106.534748
 30
0.0
 10
128.434215
 20
106.471073
 30
0.0
 10
128.516445
 20
106.428623
 30
0.0
 10
128.386372
 20
106.386173
 30
0.0
 10
128.283712
 20
106.450823
 30
0.0
  0
LWPOLYLINE
  5
1ad
100
AcDbEntity
  8
SilkS
 62
7
100
AcDbPolyline
 90
4
 70
1
 10
120.639952
 20
106.298730
 30
0.0
 10
120.537892
 20
106.350330
 30
0.0
 10
120.604567
 20
106.258793
 30
0.0
 10
120.639967
 20
106.298768
 30
0.0
  0
LWPOLYLINE
  5
1ae
100
AcDbEntity
  8
SilkS
 62
7
100
AcDbPolyline
 90
5
 70
1
 10
81.575947
 20
100.271730
 30
0.0
 10
81.618397
 20
100.314180
 30
0.0
 10
81.660847
 20
100.271730
 30
0.0
 10
81.618397
 20
100.229280
 30
0.0
 10
81.575947
 20
100.271730
 30
0.0
  0
LWPOLYLINE
  5
1af
100
AcDbEntity
  8
SilkS
 62
7
100
AcDbPolyline
 90
5
 70
1
 10
127.858297
 20
101.036025
 30
0.0
 10
127.943220
 20
101.078475
 30
0.0
 10
128.028142
 20
101.036025
 30
0.0
 10
127.943220
 20
100.993575
 30
0.0
 10
127.858297
 20
101.036025
 30
0.0
  0
LWPOLYLINE
  5
1b0
100
AcDbEntity
  8
SilkS
 62
7
100
AcDbPolyline
 90
4
 70
1
 10
130.236112
 20
101.203365
 30
0.0
 10
130.293412
 20
101.228415
 30
0.0
 10
130.276762
 20
101.140995
 30
0.0
 10
130.236187
 20
101.203320
 30
0.0
  0
LWPOLYLINE
  5
1b1
100
AcDbEntity
  8
SilkS
 62
7
100
AcDbPolyline
 90
5
 70
1
 10
43.955617
 20
102.647033
 30
0.0
 10
43.998067
 20
102.734460
 30
0.0
 10
44.040517
 20
102.673260
 30
0.0
 10
43.998067
 20
102.585833
 30
0.0
 10
43.955617
 20
102.647033
 30
0.0
  0
LWPOLYLINE
  5
1b2
100
AcDbEntity
  8
SilkS
 62
7
100
AcDbPolyline
 90
7
 70
1
 10
62.532247
 20
107.363850
 30
0.0
 10
62.035200
 20
107.463053
 30
0.0
 10
61.875975
 20
107.512478
 30
0.0
 10
61.831650
 20
107.592923
 30
0.0
 10
62.400615
 20
107.725193
 30
0.0
 10
62.847937
 20
107.569680
 30
0.0
 10
62.532255
 20
107.363865
 30
0.0
  0
LWPOLYLINE
  5
1b3
100
AcDbEntity
  8
SilkS
 62
7
100
AcDbPolyline
 90
4
 70
1
 10
51.900555
 20
107.408625
 30
0.0
 10
51.885255
 20
107.490105
 30
0.0
 10
52.211505
 20
107.400735
 30
0.0
 10
51.900555
 20
107.408610
 30
0.0
  0
LWPOLYLINE
  5
1b4
100
AcDbEntity
  8
SilkS
 62
7
100
AcDbPolyline
 90
5
 70
1
 10
52.320412
 20
107.404875
 30
0.0
 10
52.384087
 20
107.447325
 30
0.0
 10
52.447762
 20
107.404875
 30
0.0
 10
52.384087
 20
107.362425
 30
0.0
 10
52.320412
 20
107.404875
 30
0.0
  0
LWPOLYLINE
  5
1b5
100
AcDbEntity
  8
SilkS
 62
7
100
AcDbPolyline
 90
4
 70
1
 10
57.110527
 20
107.433900
 30
0.0
 10
57.191910
 20
107.430900
 30
0.0
 10
57.136185
 20
107.408625
 30
0.0
 10
57.110535
 20
107.434275
 30
0.0
  0
LWPOLYLINE
  5
1b6
100
AcDbEntity
  8
SilkS
 62
7
100
AcDbPolyline
 90
5
 70
1
 10
74.102835
 20
107.530785
 30
0.0
 10
74.183212
 20
107.659665
 30
0.0
 10
74.290365
 20
107.589915
 30
0.0
 10
74.198370
 20
107.451630
 30
0.0
 10
74.102835
 20
107.530800
 30
0.0
  0
LWPOLYLINE
  5
1b7
100
AcDbEntity
  8
SilkS
 62
7
100
AcDbPolyline
 90
5
 70
1
 10
74.506215
 20
107.478435
 30
0.0
 10
74.358247
 20
107.631555
 30
0.0
 10
74.730135
 20
107.597205
 30
0.0
 10
74.714985
 20
107.517135
 30
0.0
 10
74.506222
 20
107.478435
 30
0.0
  0
LWPOLYLINE
  5
1b8
100
AcDbEntity
  8
SilkS
 62
7
100
AcDbPolyline
 90
4
 70
1
 10
74.891115
 20
107.655263
 30
0.0
 10
74.934540
 20
107.718938
 30
0.0
 10
75.009870
 20
107.680913
 30
0.0
 10
74.891115
 20
107.655263
 30
0.0
  0
LWPOLYLINE
  5
1b9
100
AcDbEntity
  8
SilkS
 62
7
100
AcDbPolyline
 90
22
 70
1
 10
126.733087
 20
107.704613
 30
0.0
 10
126.007702
 20
107.856855
 30
0.0
 10
126.032452
 20
107.941688
 30
0.0
 10
126.068752
 20
107.939438
 30
0.0
 10
126.083827
 20
108.028163
 30
0.0
 10
126.111202
 20
108.109290
 30
0.0
 10
126.159802
 20
107.999693
 30
0.0
 10
126.243270
 20
107.893650
 30
0.0
 10
128.189527
 20
107.890650
 30
0.0
 10
128.265315
 20
108.312698
 30
0.0
 10
128.244540
 20
108.485183
 30
0.0
 10
128.282790
 20
108.513533
 30
0.0
 10
128.309415
 20
108.538958
 30
0.0
 10
128.457930
 20
108.575408
 30
0.0
 10
128.682150
 20
108.571658
 30
0.0
 10
128.812132
 20
108.549383
 30
0.0
 10
128.882257
 20
108.594158
 30
0.0
 10
128.899807
 20
108.553808
 30
0.0
 10
128.956507
 20
108.469785
 30
0.0
 10
129.132007
 20
107.998170
 30
0.0
 10
128.994007
 20
107.810640
 30
0.0
 10
126.732967
 20
107.704890
 30
0.0
  0
LWPOLYLINE
  5
1ba
100
AcDbEntity
  8
SilkS
 62
7
100
AcDbPolyline
 90
8
 70
1
 10
120.487402
 20
108.158835
 30
0.0
 10
120.447052
 20
108.371138
 30
0.0
 10
120.682440
 20
108.403013
 30
0.0
 10
120.687690
 20
108.339338
 30
0.0
 10
120.692940
 20
108.253065
 30
0.0
 10
120.830730
 20
108.187665
 30
0.0
 10
120.851955
 20
108.083513
 30
0.0
 10
120.487305
 20
108.158850
 30
0.0
  0
LWPOLYLINE
  5
1bb
100
AcDbEntity
  8
SilkS
 62
7
100
AcDbPolyline
 90
6
 70
1
 10
126.666705
 20
108.363780
 30
0.0
 10
126.671955
 20
108.468578
 30
0.0
 10
126.747157
 20
108.464828
 30
0.0
 10
126.796282
 20
108.445028
 30
0.0
 10
126.808957
 20
108.381578
 30
0.0
 10
126.666562
 20
108.363503
 30
0.0
  0
LWPOLYLINE
  5
1bc
100
AcDbEntity
  8
SilkS
 62
7
100
AcDbPolyline
 90
4
 70
1
 10
127.128502
 20
108.495705
 30
0.0
 10
127.209892
 20
108.492705
 30
0.0
 10
127.154167
 20
108.470430
 30
0.0
 10
127.128517
 20
108.496080
 30
0.0
  0
LWPOLYLINE
  5
1bd
100
AcDbEntity
  8
SilkS
 62
7
100
AcDbPolyline
 90
4
 70
1
 10
127.826452
 20
108.538455
 30
0.0
 10
127.975065
 20
108.538455
 30
0.0
 10
127.900740
 20
108.519030
 30
0.0
 10
127.826415
 20
108.538455
 30
0.0
  0
LWPOLYLINE
  5
1be
100
AcDbEntity
  8
SilkS
 62
7
100
AcDbPolyline
 90
4
 70
1
 10
127.888552
 20
108.641348
 30
0.0
 10
128.056275
 20
108.644348
 30
0.0
 10
128.009025
 20
108.597098
 30
0.0
 10
127.888537
 20
108.640973
 30
0.0
  0
LWPOLYLINE
  5
1bf
100
AcDbEntity
  8
SilkS
 62
7
100
AcDbPolyline
 90
42
 70
1
 10
45.795360
 20
109.301738
 30
0.0
 10
45.733635
 20
110.121495
 30
0.0
 10
46.124640
 20
110.419905
 30
0.0
 10
46.353480
 20
110.536433
 30
0.0
 10
46.519530
 20
110.723678
 30
0.0
 10
48.371557
 20
110.568518
 30
0.0
 10
49.497652
 20
110.605793
 30
0.0
 10
50.008072
 20
110.643068
 30
0.0
 10
50.145180
 20
110.527703
 30
0.0
 10
50.285647
 20
110.341793
 30
0.0
 10
50.309797
 20
110.335043
 30
0.0
 10
50.525100
 20
110.736090
 30
0.0
 10
50.780520
 20
110.589975
 30
0.0
 10
51.140940
 20
110.419965
 30
0.0
 10
51.374940
 20
110.589810
 30
0.0
 10
51.588585
 20
110.720835
 30
0.0
 10
54.233070
 20
110.589938
 30
0.0
 10
55.033807
 20
110.645888
 30
0.0
 10
55.212390
 20
110.484548
 30
0.0
 10
55.390972
 20
110.323208
 30
0.0
 10
55.494772
 20
110.498963
 30
0.0
 10
55.908397
 20
110.547338
 30
0.0
 10
56.216985
 20
110.419958
 30
0.0
 10
56.470245
 20
110.589803
 30
0.0
 10
56.562367
 20
110.759588
 30
0.0
 10
56.948692
 20
110.693888
 30
0.0
 10
59.352270
 20
110.632538
 30
0.0
 10
60.345862
 20
110.239298
 30
0.0
 10
60.660442
 20
110.083493
 30
0.0
 10
60.821505
 20
110.421743
 30
0.0
 10
61.041232
 20
110.481218
 30
0.0
 10
61.241490
 20
110.419943
 30
0.0
 10
61.400377
 20
109.907423
 30
0.0
 10
61.116630
 20
109.315958
 30
0.0
 10
60.843502
 20
109.400880
 30
0.0
 10
60.561202
 20
109.426830
 30
0.0
 10
58.152922
 20
109.348200
 30
0.0
 10
55.738755
 20
109.369350
 30
0.0
 10
55.426200
 20
109.364100
 30
0.0
 10
52.957365
 20
109.318275
 30
0.0
 10
46.015012
 20
109.297800
 30
0.0
 10
45.795405
 20
109.302300
 30
0.0
  0
LWPOLYLINE
  5
1c0
100
AcDbEntity
  8
SilkS
 62
7
100
AcDbPolyline
 90
6
 70
1
 10
35.649352
 20
109.356788
 30
0.0
 10
35.569552
 20
109.910175
 30
0.0
 10
35.890882
 20
110.377463
 30
0.0
 10
36.086040
 20
110.311088
 30
0.0
 10
35.965957
 20
109.379715
 30
0.0
 10
35.649352
 20
109.356840
 30
0.0
  0
LWPOLYLINE
  5
1c1
100
AcDbEntity
  8
SilkS
 62
7
100
AcDbPolyline
 90
7
 70
1
 10
40.686127
 20
109.357508
 30
0.0
 10
40.702477
 20
110.178698
 30
0.0
 10
40.911082
 20
110.396595
 30
0.0
 10
41.178202
 20
110.186310
 30
0.0
 10
41.107102
 20
109.754573
 30
0.0
 10
41.016937
 20
109.369013
 30
0.0
 10
40.686135
 20
109.357538
 30
0.0
  0
LWPOLYLINE
  5
1c2
100
AcDbEntity
  8
SilkS
 62
7
100
AcDbPolyline
 90
7
 70
1
 10
30.566287
 20
109.386683
 30
0.0
 10
30.607612
 20
109.953570
 30
0.0
 10
30.921787
 20
110.389305
 30
0.0
 10
30.988162
 20
110.169533
 30
0.0
 10
30.935212
 20
109.719293
 30
0.0
 10
30.866812
 20
109.411455
 30
0.0
 10
30.566272
 20
109.386705
 30
0.0
  0
LWPOLYLINE
  5
1c3
100
AcDbEntity
  8
SilkS
 62
7
100
AcDbPolyline
 90
6
 70
1
 10
66.104640
 20
109.422608
 30
0.0
 10
66.119040
 20
109.899173
 30
0.0
 10
66.386317
 20
110.371403
 30
0.0
 10
66.441142
 20
109.959968
 30
0.0
 10
66.246832
 20
109.358415
 30
0.0
 10
66.104662
 20
109.422615
 30
0.0
  0
LWPOLYLINE
  5
1c4
100
AcDbEntity
  8
SilkS
 62
7
100
AcDbPolyline
 90
7
 70
1
 10
71.201347
 20
109.386683
 30
0.0
 10
71.208097
 20
110.228828
 30
0.0
 10
71.386110
 20
110.398665
 30
0.0
 10
71.533995
 20
110.398665
 30
0.0
 10
71.522895
 20
109.986150
 30
0.0
 10
71.329830
 20
109.358378
 30
0.0
 10
71.201400
 20
109.386653
 30
0.0
  0
LWPOLYLINE
  5
1c5
100
AcDbEntity
  8
SilkS
 62
7
100
AcDbPolyline
 90
6
 70
1
 10
22.950930
 20
109.446833
 30
0.0
 10
22.965780
 20
109.733445
 30
0.0
 10
23.386087
 20
110.462355
 30
0.0
 10
23.431612
 20
110.303130
 30
0.0
 10
23.190877
 20
109.441598
 30
0.0
 10
22.950862
 20
109.446848
 30
0.0
  0
LWPOLYLINE
  5
1c6
100
AcDbEntity
  8
SilkS
 62
7
100
AcDbPolyline
 90
47
 70
1
 10
76.235527
 20
109.479383
 30
0.0
 10
76.290352
 20
110.421233
 30
0.0
 10
76.721130
 20
110.417483
 30
0.0
 10
76.905225
 20
110.570363
 30
0.0
 10
77.469907
 20
110.679653
 30
0.0
 10
79.580265
 20
110.637653
 30
0.0
 10
80.640240
 20
110.527838
 30
0.0
 10
80.808382
 20
110.363648
 30
0.0
 10
80.851432
 20
110.476830
 30
0.0
 10
81.119677
 20
110.207363
 30
0.0
 10
81.135652
 20
109.974330
 30
0.0
 10
81.143527
 20
110.218485
 30
0.0
 10
81.151402
 20
110.462633
 30
0.0
 10
81.379740
 20
110.462633
 30
0.0
 10
81.744600
 20
110.730983
 30
0.0
 10
82.044600
 20
110.822100
 30
0.0
 10
82.413090
 20
110.670255
 30
0.0
 10
84.748740
 20
110.632680
 30
0.0
 10
85.669050
 20
110.618055
 30
0.0
 10
85.800510
 20
110.463758
 30
0.0
 10
85.949482
 20
110.433308
 30
0.0
 10
86.008057
 20
110.568945
 30
0.0
 10
86.176410
 20
110.577045
 30
0.0
 10
86.479995
 20
110.505120
 30
0.0
 10
86.673780
 20
110.505120
 30
0.0
 10
86.784262
 20
110.759888
 30
0.0
 10
86.937532
 20
111.014655
 30
0.0
 10
87.164565
 20
110.844810
 30
0.0
 10
87.466545
 20
110.671718
 30
0.0
 10
87.669180
 20
110.650193
 30
0.0
 10
89.990047
 20
110.629868
 30
0.0
 10
90.697260
 20
110.636618
 30
0.0
 10
90.899362
 20
110.292210
 30
0.0
 10
91.062600
 20
110.008290
 30
0.0
 10
91.121400
 20
110.244893
 30
0.0
 10
91.558155
 20
110.547480
 30
0.0
 10
91.811895
 20
110.660985
 30
0.0
 10
91.918702
 20
110.710860
 30
0.0
 10
91.955152
 20
109.720590
 30
0.0
 10
91.339710
 20
109.502168
 30
0.0
 10
91.086135
 20
109.528118
 30
0.0
 10
86.202997
 20
109.502243
 30
0.0
 10
85.905765
 20
109.491068
 30
0.0
 10
81.203497
 20
109.478468
 30
0.0
 10
80.902125
 20
109.488893
 30
0.0
 10
78.542917
 20
109.435793
 30
0.0
 10
76.235647
 20
109.479518
 30
0.0
  0
LWPOLYLINE
  5
1c7
100
AcDbEntity
  8
SilkS
 62
7
100
AcDbPolyline
 90
7
 70
1
 10
96.497107
 20
109.534508
 30
0.0
 10
96.445057
 20
110.050988
 30
0.0
 10
96.484732
 20
110.551313
 30
0.0
 10
96.854077
 20
110.535563
 30
0.0
 10
96.897427
 20
109.676925
 30
0.0
 10
96.685372
 20
109.494135
 30
0.0
 10
96.497122
 20
109.534560
 30
0.0
  0
LWPOLYLINE
  5
1c8
100
AcDbEntity
  8
SilkS
 62
7
100
AcDbPolyline
 90
7
 70
1
 10
101.610232
 20
109.527758
 30
0.0
 10
101.513790
 20
109.857285
 30
0.0
 10
101.470140
 20
110.314455
 30
0.0
 10
101.487465
 20
110.542748
 30
0.0
 10
101.952877
 20
110.573498
 30
0.0
 10
101.977102
 20
109.573598
 30
0.0
 10
101.610255
 20
109.527773
 30
0.0
  0
LWPOLYLINE
  5
1c9
100
AcDbEntity
  8
SilkS
 62
7
100
AcDbPolyline
 90
57
 70
1
 10
108.936720
 20
109.574108
 30
0.0
 10
108.755655
 20
109.670888
 30
0.0
 10
108.653602
 20
110.488223
 30
0.0
 10
109.022092
 20
110.631968
 30
0.0
 10
109.261027
 20
110.300895
 30
0.0
 10
109.348327
 20
109.995060
 30
0.0
 10
109.580902
 20
110.533748
 30
0.0
 10
109.721745
 20
110.824013
 30
0.0
 10
110.130892
 20
110.837288
 30
0.0
 10
112.606462
 20
110.878463
 30
0.0
 10
113.095950
 20
110.889413
 30
0.0
 10
113.406907
 20
110.313450
 30
0.0
 10
113.582940
 20
110.405535
 30
0.0
 10
113.647740
 20
110.668200
 30
0.0
 10
113.908942
 20
110.724750
 30
0.0
 10
114.118095
 20
110.738100
 30
0.0
 10
114.162720
 20
110.950403
 30
0.0
 10
114.381900
 20
111.175478
 30
0.0
 10
114.685072
 20
111.080025
 30
0.0
 10
115.380885
 20
110.908433
 30
0.0
 10
117.461197
 20
110.894483
 30
0.0
 10
118.364535
 20
110.575065
 30
0.0
 10
118.643677
 20
110.512665
 30
0.0
 10
118.939035
 20
110.745713
 30
0.0
 10
119.218792
 20
110.975378
 30
0.0
 10
119.359275
 20
111.202973
 30
0.0
 10
119.795610
 20
111.073403
 30
0.0
 10
120.522210
 20
110.941590
 30
0.0
 10
122.772877
 20
110.955990
 30
0.0
 10
123.271012
 20
110.983440
 30
0.0
 10
123.375375
 20
110.758193
 30
0.0
 10
123.724687
 20
110.334750
 30
0.0
 10
123.728437
 20
110.536440
 30
0.0
 10
123.718162
 20
110.738130
 30
0.0
 10
123.930150
 20
110.759355
 30
0.0
 10
124.197000
 20
110.907968
 30
0.0
 10
124.506720
 20
111.260295
 30
0.0
 10
124.810462
 20
111.167918
 30
0.0
 10
125.631832
 20
110.989193
 30
0.0
 10
127.110112
 20
110.970743
 30
0.0
 10
128.304712
 20
110.964743
 30
0.0
 10
128.466300
 20
110.583023
 30
0.0
 10
128.654212
 20
110.094728
 30
0.0
 10
128.609512
 20
109.766235
 30
0.0
 10
127.560877
 20
109.738785
 30
0.0
 10
125.291520
 20
109.700235
 30
0.0
 10
123.884910
 20
109.724760
 30
0.0
 10
123.691537
 20
109.743060
 30
0.0
 10
121.255440
 20
109.662683
 30
0.0
 10
118.840635
 20
109.679333
 30
0.0
 10
118.649565
 20
109.691408
 30
0.0
 10
113.782117
 20
109.633058
 30
0.0
 10
113.596995
 20
109.648883
 30
0.0
 10
109.495515
 20
109.606358
 30
0.0
 10
109.199452
 20
109.587608
 30
0.0
 10
109.091580
 20
109.531583
 30
0.0
 10
108.936525
 20
109.573883
 30
0.0
  0
LWPOLYLINE
  5
1ca
100
AcDbEntity
  8
SilkS
 62
7
100
AcDbPolyline
 90
7
 70
1
 10
128.940202
 20
109.826595
 30
0.0
 10
128.889877
 20
110.293665
 30
0.0
 10
128.866627
 20
110.716890
 30
0.0
 10
128.972932
 20
110.716890
 30
0.0
 10
129.235815
 20
110.290290
 30
0.0
 10
129.093187
 20
109.782750
 30
0.0
 10
128.940165
 20
109.826625
 30
0.0
  0
LWPOLYLINE
  5
1cb
100
AcDbEntity
  8
SilkS
 62
7
100
AcDbPolyline
 90
77
 70
1
 10
54.582472
 20
113.691833
 30
0.0
 10
54.136627
 20
113.755133
 30
0.0
 10
53.084707
 20
113.729858
 30
0.0
 10
52.316377
 20
113.713733
 30
0.0
 10
51.595147
 20
113.750408
 30
0.0
 10
51.071062
 20
113.748158
 30
0.0
 10
50.667075
 20
113.712383
 30
0.0
 10
49.936380
 20
113.797358
 30
0.0
 10
49.473397
 20
113.758133
 30
0.0
 10
48.307860
 20
113.770883
 30
0.0
 10
47.586022
 20
113.828933
 30
0.0
 10
45.866355
 20
113.850158
 30
0.0
 10
45.208215
 20
113.856908
 30
0.0
 10
44.231610
 20
113.835608
 30
0.0
 10
41.959957
 20
113.879558
 30
0.0
 10
40.188660
 20
113.951933
 30
0.0
 10
40.039035
 20
113.953433
 30
0.0
 10
39.203992
 20
114.068340
 30
0.0
 10
38.881545
 20
114.232905
 30
0.0
 10
38.455830
 20
114.485700
 30
0.0
 10
38.120692
 20
114.671768
 30
0.0
 10
38.006550
 20
114.751020
 30
0.0
 10
37.798792
 20
115.243770
 30
0.0
 10
37.716975
 20
115.486838
 30
0.0
 10
37.586805
 20
116.693603
 30
0.0
 10
37.546755
 20
116.958983
 30
0.0
 10
37.539180
 20
117.519615
 30
0.0
 10
37.540680
 20
117.847883
 30
0.0
 10
37.571430
 20
118.281833
 30
0.0
 10
37.606530
 20
118.603853
 30
0.0
 10
37.580355
 20
118.933418
 30
0.0
 10
37.646205
 20
121.905675
 30
0.0
 10
37.686555
 20
123.306885
 30
0.0
 10
37.757580
 20
124.389638
 30
0.0
 10
38.070622
 20
125.803380
 30
0.0
 10
39.039022
 20
125.854530
 30
0.0
 10
39.982972
 20
125.769608
 30
0.0
 10
40.089412
 20
125.748383
 30
0.0
 10
52.881555
 20
125.819108
 30
0.0
 10
65.971650
 20
125.846033
 30
0.0
 10
71.380732
 20
125.874683
 30
0.0
 10
76.560960
 20
125.801183
 30
0.0
 10
76.718115
 20
125.627588
 30
0.0
 10
76.793760
 20
122.383425
 30
0.0
 10
76.909170
 20
114.871178
 30
0.0
 10
76.639950
 20
114.703245
 30
0.0
 10
76.395795
 20
114.613935
 30
0.0
 10
76.339470
 20
114.581160
 30
0.0
 10
76.098532
 20
114.315450
 30
0.0
 10
75.756480
 20
114.114090
 30
0.0
 10
75.577890
 20
114.088815
 30
0.0
 10
74.757705
 20
114.044940
 30
0.0
 10
73.918522
 20
113.998965
 30
0.0
 10
72.682897
 20
113.957565
 30
0.0
 10
70.169602
 20
113.886165
 30
0.0
 10
69.706920
 20
113.892915
 30
0.0
 10
69.218617
 20
113.871315
 30
0.0
 10
68.752807
 20
113.846865
 30
0.0
 10
67.861125
 20
113.868915
 30
0.0
 10
66.637140
 20
113.862915
 30
0.0
 10
65.711505
 20
113.815365
 30
0.0
 10
65.417902
 20
113.817615
 30
0.0
 10
65.154630
 20
113.834940
 30
0.0
 10
64.719022
 20
113.798190
 30
0.0
 10
64.443030
 20
113.769990
 30
0.0
 10
62.738962
 20
113.795190
 30
0.0
 10
62.027932
 20
113.751915
 30
0.0
 10
61.761202
 20
113.708415
 30
0.0
 10
60.303090
 20
113.709098
 30
0.0
 10
58.944345
 20
113.715848
 30
0.0
 10
57.797902
 20
113.744948
 30
0.0
 10
57.172522
 20
113.711873
 30
0.0
 10
56.591250
 20
113.728673
 30
0.0
 10
56.302492
 20
113.695748
 30
0.0
 10
55.553715
 20
113.735348
 30
0.0
 10
55.129102
 20
113.720798
 30
0.0
 10
54.582510
 20
113.691773
 30
0.0
  0
SPLINE
  5
1cc
100
AcDbEntity
  8
SilkS
 62
7
100
AcDbSpline
 70
0
 71
3
 72
10
 73
6
 74
4
 40
0.000000
 40
0.000000
 40
0.000000
 40
0.000000
 40
0.681304
 40
0.980486
 40
1.710069
 40
1.710069
 40
1.710069
 40
1.710069
 10
33.934927
 20
104.390407
 30
0.0
 10
34.188788
 20
104.389344
 30
0.0
 10
34.554126
 20
104.387812
 30
0.0
 10
34.804072
 20
103.711633
 30
0.0
 10
34.320394
 20
103.734641
 30
0.0
 10
33.977377
 20
103.750957
 30
0.0
 11
33.934927
 21
104.390407
 31
0.0
 11
34.589305
 21
104.200762
 31
0.0
 11
34.687540
 21
103.918167
 31
0.0
 11
33.977377
 21
103.750957
 31
0.0
  0
LWPOLYLINE
  5
1cd
100
AcDbEntity
  8
SilkS
 62
7
100
AcDbPolyline
 90
9
 70
0
 10
124.532137
 20
127.339688
 30
0.0
 10
124.377060
 20
128.931608
 30
0.0
 10
121.234372
 20
129.040485
 30
0.0
 10
119.578402
 20
129.076935
 30
0.0
 10
117.115672
 20
129.088860
 30
0.0
 10
116.384977
 20
129.106335
 30
0.0
 10
115.631295
 20
129.151335
 30
0.0
 10
114.992632
 20
129.196785
 30
0.0
 10
114.727252
 20
129.206985
 30
0.0
  0
LWPOLYLINE
  5
1ce
100
AcDbEntity
  8
SilkS
 62
7
100
AcDbPolyline
 90
5
 70
0
 10
122.981985
 20
129.340710
 30
0.0
 10
124.584885
 20
129.278985
 30
0.0
 10
124.628760
 20
127.905120
 30
0.0
 10
124.532100
 20
127.339725
 30
0.0
 10
124.532137
 20
127.339688
 30
0.0
  0
LWPOLYLINE
  5
1cf
100
AcDbEntity
  8
SilkS
 62
7
100
AcDbPolyline
 90
36
 70
1
 10
28.274625
 20
127.213178
 30
0.0
 10
28.245075
 20
128.954175
 30
0.0
 10
28.382272
 20
129.097815
 30
0.0
 10
43.594642
 20
129.165090
 30
0.0
 10
59.326395
 20
129.209115
 30
0.0
 10
95.035995
 20
129.233865
 30
0.0
 10
95.041245
 20
129.191790
 30
0.0
 10
93.987502
 20
129.150765
 30
0.0
 10
92.950665
 20
129.121065
 30
0.0
 10
92.849565
 20
129.144915
 30
0.0
 10
92.718450
 20
129.154365
 30
0.0
 10
92.528467
 20
129.158865
 30
0.0
 10
92.191447
 20
129.152865
 30
0.0
 10
91.895880
 20
129.143640
 30
0.0
 10
91.442355
 20
129.158190
 30
0.0
 10
90.386467
 20
129.143640
 30
0.0
 10
89.643405
 20
129.122190
 30
0.0
 10
88.242187
 20
129.096015
 30
0.0
 10
82.752555
 20
129.047865
 30
0.0
 10
81.845685
 20
129.069765
 30
0.0
 10
81.609277
 20
129.079815
 30
0.0
 10
80.499262
 20
129.034215
 30
0.0
 10
79.516477
 20
129.015165
 30
0.0
 10
78.752182
 20
129.013665
 30
0.0
 10
77.584507
 20
128.993640
 30
0.0
 10
73.571955
 20
128.908658
 30
0.0
 10
60.026940
 20
128.830313
 30
0.0
 10
47.500980
 20
128.783288
 30
0.0
 10
39.815565
 20
128.739563
 30
0.0
 10
29.700375
 20
128.590553
 30
0.0
 10
28.897740
 20
128.593553
 30
0.0
 10
28.485150
 20
128.595053
 30
0.0
 10
28.404652
 20
128.051678
 30
0.0
 10
28.336702
 20
127.255140
 30
0.0
 10
28.305202
 20
126.957915
 30
0.0
 10
28.274527
 20
127.212683
 30
0.0
  0
LWPOLYLINE
  5
1d0
100
AcDbEntity
  8
SilkS
 62
7
100
AcDbPolyline
 90
4
 70
1
 10
95.322630
 20
129.217575
 30
0.0
 10
95.513707
 20
129.217575
 30
0.0
 10
95.418172
 20
129.199200
 30
0.0
 10
95.322630
 20
129.217575
 30
0.0
  0
LWPOLYLINE
  5
1d1
100
AcDbEntity
  8
SilkS
 62
7
100
AcDbPolyline
 90
4
 70
1
 10
95.676472
 20
129.202950
 30
0.0
 10
96.309847
 20
129.230400
 30
0.0
 10
95.984310
 20
129.187650
 30
0.0
 10
95.676472
 20
129.203025
 30
0.0
  0
LWPOLYLINE
  5
1d2
100
AcDbEntity
  8
SilkS
 62
7
100
AcDbPolyline
 90
4
 70
1
 10
97.084762
 20
129.218025
 30
0.0
 10
97.318297
 20
129.218025
 30
0.0
 10
97.201530
 20
129.200325
 30
0.0
 10
97.084762
 20
129.218025
 30
0.0
  0
LWPOLYLINE
  5
1d3
100
AcDbEntity
  8
SilkS
 62
7
100
AcDbPolyline
 90
5
 70
1
 10
103.252207
 20
129.230100
 30
0.0
 10
103.297207
 20
129.272550
 30
0.0
 10
103.315957
 20
129.230100
 30
0.0
 10
103.270957
 20
129.187650
 30
0.0
 10
103.252207
 20
129.230100
 30
0.0
  0
LWPOLYLINE
  5
1d4
100
AcDbEntity
  8
SilkS
 62
7
100
AcDbPolyline
 90
4
 70
1
 10
104.199615
 20
129.259125
 30
0.0
 10
104.280997
 20
129.256125
 30
0.0
 10
104.225272
 20
129.233850
 30
0.0
 10
104.199622
 20
129.259500
 30
0.0
  0
LWPOLYLINE
  5
1d5
100
AcDbEntity
  8
SilkS
 62
7
100
AcDbPolyline
 90
4
 70
1
 10
113.028817
 20
129.258375
 30
0.0
 10
113.134972
 20
129.258375
 30
0.0
 10
113.081872
 20
129.237000
 30
0.0
 10
113.028772
 20
129.258375
 30
0.0
  0
LWPOLYLINE
  5
1d6
100
AcDbEntity
  8
SilkS
 62
7
100
AcDbPolyline
 90
4
 70
1
 10
113.495887
 20
129.259875
 30
0.0
 10
113.686965
 20
129.259875
 30
0.0
 10
113.591422
 20
129.241500
 30
0.0
 10
113.495887
 20
129.259875
 30
0.0
  0
SPLINE
  5
1d7
100
AcDbEntity
  8
SilkS
 62
7
100
AcDbSpline
 70
0
 71
3
 72
10
 73
6
 74
4
 40
0.000000
 40
0.000000
 40
0.000000
 40
0.000000
 40
1.838921
 40
5.413083
 40
8.255887
 40
8.255887
 40
8.255887
 40
8.255887
 10
114.727252
 20
129.206985
 30
0.0
 10
115.340046
 20
129.221956
 30
0.0
 10
117.143876
 20
129.266025
 30
0.0
 10
119.895612
 20
129.304840
 30
0.0
 10
122.034450
 20
129.329698
 30
0.0
 10
122.981985
 20
129.340710
 30
0.0
 11
114.727252
 21
129.206985
 31
0.0
 11
116.565677
 21
129.249749
 31
0.0
 11
120.139386
 21
129.306631
 31
0.0
 11
122.981985
 21
129.340710
 31
0.0
  0
SPLINE
  5
1d8
100
AcDbEntity
  8
SilkS
 62
7
100
AcDbSpline
 70
0
 71
3
 72
10
 73
6
 74
4
 40
0.000000
 40
0.000000
 40
0.000000
 40
0.000000
 40
0.266859
 40
0.533717
 40
0.800578
 40
0.800578
 40
0.800578
 40
0.800578
 10
38.817802
 20
137.253540
 30
0.0
 10
38.838624
 20
137.340022
 30
0.0
 10
38.880267
 20
137.512985
 30
0.0
 10
38.941769
 20
137.772662
 30
0.0
 10
38.982679
 20
137.945800
 30
0.0
 10
39.003135
 20
138.032370
 30
0.0
 11
38.817802
 21
137.253540
 31
0.0
 11
38.880107
 21
137.513024
 31
0.0
 11
38.941746
 21
137.772666
 31
0.0
 11
39.003135
 21
138.032370
 31
0.0
  0
SPLINE
  5
1d9
100
AcDbEntity
  8
SilkS
 62
7
100
AcDbSpline
 70
0
 71
3
 72
10
 73
6
 74
4
 40
0.000000
 40
0.000000
 40
0.000000
 40
0.000000
 40
0.326984
 40
0.505754
 40
0.774449
 40
0.774449
 40
0.774449
 40
0.774449
 10
39.003135
 20
138.032370
 30
0.0
 10
38.955605
 20
138.134810
 30
0.0
 10
38.882089
 20
138.293256
 30
0.0
 10
38.935179
 20
138.553578
 30
0.0
 10
38.994509
 20
138.689965
 30
0.0
 10
39.030135
 20
138.771863
 30
0.0
 11
39.003135
 21
138.032370
 31
0.0
 11
38.905767
 21
138.344520
 31
0.0
 11
38.933588
 21
138.521112
 31
0.0
 11
39.030135
 21
138.771863
 31
0.0
  0
LWPOLYLINE
  5
1da
100
AcDbEntity
  8
SilkS
 62
7
100
AcDbPolyline
 90
25
 70
0
 10
47.380725
 20
132.526418
 30
0.0
 10
46.485562
 20
132.560093
 30
0.0
 10
45.564930
 20
132.608093
 30
0.0
 10
43.811152
 20
132.651818
 30
0.0
 10
43.103895
 20
132.866828
 30
0.0
 10
42.994320
 20
132.892178
 30
0.0
 10
42.926895
 20
132.830078
 30
0.0
 10
42.748305
 20
132.773378
 30
0.0
 10
42.598695
 20
132.731753
 30
0.0
 10
42.550845
 20
132.611723
 30
0.0
 10
42.198345
 20
132.590498
 30
0.0
 10
41.740425
 20
132.696000
 30
0.0
 10
41.450415
 20
132.813945
 30
0.0
 10
40.703430
 20
133.200503
 30
0.0
 10
40.221547
 20
133.624590
 30
0.0
 10
39.834390
 20
133.953660
 30
0.0
 10
39.615210
 20
134.112885
 30
0.0
 10
39.373650
 20
134.346420
 30
0.0
 10
39.155340
 20
134.579955
 30
0.0
 10
39.078967
 20
134.707343
 30
0.0
 10
38.999017
 20
134.834723
 30
0.0
 10
38.695702
 20
135.429173
 30
0.0
 10
38.645377
 20
135.790095
 30
0.0
 10
38.775877
 20
137.086080
 30
0.0
 10
38.817802
 20
137.253540
 30
0.0
  0
SPLINE
  5
1db
100
AcDbEntity
  8
SilkS
 62
7
100
AcDbSpline
 70
0
 71
3
 72
10
 73
6
 74
4
 40
0.000000
 40
0.000000
 40
0.000000
 40
0.000000
 40
0.118918
 40
0.177898
 40
0.308966
 40
0.308966
 40
0.308966
 40
0.308966
 10
39.030135
 20
138.771863
 30
0.0
 10
39.078922
 20
138.793251
 30
0.0
 10
39.151907
 20
138.825247
 30
0.0
 10
39.070783
 20
138.920070
 30
0.0
 10
39.012281
 20
138.939800
 30
0.0
 10
38.971935
 20
138.953408
 30
0.0
 11
39.030135
 21
138.771863
 31
0.0
 11
39.123013
 21
138.846126
 31
0.0
 11
39.088882
 21
138.894229
 31
0.0
 11
38.971935
 21
138.953408
 31
0.0
  0
SPLINE
  5
1dc
100
AcDbEntity
  8
SilkS
 62
7
100
AcDbSpline
 70
0
 71
3
 72
10
 73
6
 74
4
 40
0.000000
 40
0.000000
 40
0.000000
 40
0.000000
 40
0.140664
 40
0.445401
 40
0.706758
 40
0.706758
 40
0.706758
 40
0.706758
 10
38.282475
 20
139.029420
 30
0.0
 10
38.279152
 20
139.076904
 30
0.0
 10
38.268630
 20
139.227259
 30
0.0
 10
38.012761
 20
139.401751
 30
0.0
 10
38.137240
 20
139.581594
 30
0.0
 10
38.194710
 20
139.664625
 30
0.0
 11
38.282475
 21
139.029420
 31
0.0
 11
38.257473
 21
139.167844
 31
0.0
 11
38.092517
 21
139.424076
 31
0.0
 11
38.194710
 21
139.664625
 31
0.0
  0
LWPOLYLINE
  5
1dd
100
AcDbEntity
  8
SilkS
 62
7
100
AcDbPolyline
 90
7
 70
0
 10
38.971935
 20
138.953408
 30
0.0
 10
38.756632
 20
138.991883
 30
0.0
 10
38.637360
 20
139.009433
 30
0.0
 10
38.596785
 20
139.027658
 30
0.0
 10
38.569785
 20
139.167968
 30
0.0
 10
38.416537
 20
139.209893
 30
0.0
 10
38.282475
 20
139.029420
 30
0.0
  0
SPLINE
  5
1de
100
AcDbEntity
  8
SilkS
 62
7
100
AcDbSpline
 70
0
 71
3
 72
10
 73
6
 74
4
 40
0.000000
 40
0.000000
 40
0.000000
 40
0.000000
 40
0.831605
 40
1.184965
 40
2.096923
 40
2.096923
 40
2.096923
 40
2.096923
 10
38.194710
 20
139.664625
 30
0.0
 10
37.933842
 20
139.724161
 30
0.0
 10
37.562127
 20
139.808995
 30
0.0
 10
36.783183
 20
139.887536
 30
0.0
 10
36.875662
 20
140.424845
 30
0.0
 10
36.942315
 20
140.812103
 30
0.0
 11
38.194710
 21
139.664625
 31
0.0
 11
37.378385
 21
139.823311
 31
0.0
 11
37.034555
 21
139.904822
 31
0.0
 11
36.942315
 21
140.812103
 31
0.0
  0
LWPOLYLINE
  5
1df
100
AcDbEntity
  8
SilkS
 62
7
100
AcDbPolyline
 90
42
 70
0
 10
36.942315
 20
140.812103
 30
0.0
 10
37.057740
 20
140.952495
 30
0.0
 10
38.483640
 20
141.228435
 30
0.0
 10
39.875467
 20
141.285585
 30
0.0
 10
42.270037
 20
141.339285
 30
0.0
 10
54.316305
 20
141.413610
 30
0.0
 10
59.644410
 20
141.482610
 30
0.0
 10
61.758712
 20
141.529560
 30
0.0
 10
68.477010
 20
141.667425
 30
0.0
 10
73.657237
 20
141.692475
 30
0.0
 10
76.990410
 20
141.669150
 30
0.0
 10
77.733480
 20
141.633975
 30
0.0
 10
78.276000
 20
141.632475
 30
0.0
 10
78.810030
 20
141.667950
 30
0.0
 10
79.053037
 20
141.652125
 30
0.0
 10
79.410682
 20
141.624900
 30
0.0
 10
81.830955
 20
141.613650
 30
0.0
 10
82.828785
 20
141.627600
 30
0.0
 10
83.353927
 20
141.648525
 30
0.0
 10
104.398912
 20
141.668925
 30
0.0
 10
108.942225
 20
141.576030
 30
0.0
 10
104.887215
 20
141.518730
 30
0.0
 10
97.180567
 20
141.439358
 30
0.0
 10
90.238215
 20
141.378158
 30
0.0
 10
85.949655
 20
141.353033
 30
0.0
 10
81.257730
 20
141.311633
 30
0.0
 10
71.406810
 20
141.225015
 30
0.0
 10
66.545040
 20
141.182115
 30
0.0
 10
62.298952
 20
141.141015
 30
0.0
 10
50.623905
 20
141.052478
 30
0.0
 10
46.547212
 20
141.013853
 30
0.0
 10
44.677237
 20
140.988428
 30
0.0
 10
42.745717
 20
140.926778
 30
0.0
 10
42.547800
 20
140.351745
 30
0.0
 10
42.570000
 20
139.784280
 30
0.0
 10
42.557925
 20
139.317210
 30
0.0
 10
42.650527
 20
138.741450
 30
0.0
 10
42.698302
 20
138.529140
 30
0.0
 10
42.748552
 20
138.242138
 30
0.0
 10
42.723277
 20
138.039428
 30
0.0
 10
42.697852
 20
137.947110
 30
0.0
 10
42.604080
 20
137.867925
 30
0.0
  0
SPLINE
  5
1e0
100
AcDbEntity
  8
SilkS
 62
7
100
AcDbSpline
 70
0
 71
3
 72
10
 73
6
 74
4
 40
0.000000
 40
0.000000
 40
0.000000
 40
0.000000
 40
0.661266
 40
1.072307
 40
1.456694
 40
1.456694
 40
1.456694
 40
1.456694
 10
42.604080
 20
137.867925
 30
0.0
 10
42.533472
 20
137.673735
 30
0.0
 10
42.418974
 20
137.358838
 30
0.0
 10
42.425810
 20
136.725921
 30
0.0
 10
42.741114
 20
136.787758
 30
0.0
 10
42.893482
 20
136.817640
 30
0.0
 11
42.604080
 21
137.867925
 31
0.0
 11
42.437712
 21
137.227929
 31
0.0
 11
42.509136
 21
136.823141
 31
0.0
 11
42.893482
 21
136.817640
 31
0.0
  0
LWPOLYLINE
  5
1e1
100
AcDbEntity
  8
SilkS
 62
7
100
AcDbPolyline
 90
5
 70
0
 10
42.893482
 20
136.817640
 30
0.0
 10
43.096792
 20
136.841940
 30
0.0
 10
43.165042
 20
136.850115
 30
0.0
 10
43.272945
 20
136.828890
 30
0.0
 10
43.478527
 20
136.873215
 30
0.0
  0
SPLINE
  5
1e2
100
AcDbEntity
  8
SilkS
 62
7
100
AcDbSpline
 70
0
 71
3
 72
10
 73
6
 74
4
 40
0.000000
 40
0.000000
 40
0.000000
 40
0.000000
 40
2.070153
 40
4.357921
 40
7.109114
 40
7.109114
 40
7.109114
 40
7.109114
 10
43.478527
 20
136.873215
 30
0.0
 10
44.151946
 20
137.077729
 30
0.0
 10
45.569573
 20
137.508257
 30
0.0
 10
47.929074
 20
136.823772
 30
0.0
 10
49.606073
 20
137.063970
 30
0.0
 10
50.521687
 20
137.195115
 30
0.0
 11
43.478527
 21
136.873215
 31
0.0
 11
45.505272
 21
137.294924
 31
0.0
 11
47.776208
 21
137.017911
 31
0.0
 11
50.521687
 21
137.195115
 31
0.0
  0
LWPOLYLINE
  5
1e3
100
AcDbEntity
  8
SilkS
 62
7
100
AcDbPolyline
 90
4
 70
0
 10
50.521687
 20
137.195115
 30
0.0
 10
50.680912
 20
137.207040
 30
0.0
 10
50.792017
 20
137.120775
 30
0.0
 10
50.940630
 20
137.085150
 30
0.0
  0
SPLINE
  5
1e4
100
AcDbEntity
  8
SilkS
 62
7
100
AcDbSpline
 70
0
 71
3
 72
10
 73
6
 74
4
 40
0.000000
 40
0.000000
 40
0.000000
 40
0.000000
 40
0.146338
 40
0.285812
 40
0.427054
 40
0.427054
 40
0.427054
 40
0.427054
 10
50.940630
 20
137.085150
 30
0.0
 10
50.987111
 20
137.070017
 30
0.0
 10
51.077892
 20
137.040462
 30
0.0
 10
51.220321
 20
137.024422
 30
0.0
 10
51.313879
 20
137.027451
 30
0.0
 10
51.360952
 20
137.028975
 30
0.0
 11
50.940630
 21
137.085150
 31
0.0
 11
51.081262
 21
137.044686
 31
0.0
 11
51.219715
 21
137.027839
 31
0.0
 11
51.360952
 21
137.028975
 31
0.0
  0
LWPOLYLINE
  5
1e5
100
AcDbEntity
  8
SilkS
 62
7
100
AcDbPolyline
 90
4
 70
0
 10
51.360952
 20
137.028975
 30
0.0
 10
51.428902
 20
137.083950
 30
0.0
 10
51.471352
 20
137.191275
 30
0.0
 10
51.513802
 20
137.172675
 30
0.0
  0
SPLINE
  5
1e6
100
AcDbEntity
  8
SilkS
 62
7
100
AcDbSpline
 70
0
 71
3
 72
10
 73
6
 74
4
 40
0.000000
 40
0.000000
 40
0.000000
 40
0.000000
 40
2.629688
 40
5.100858
 40
7.348423
 40
7.348423
 40
7.348423
 40
7.348423
 10
51.513802
 20
137.172675
 30
0.0
 10
52.392533
 20
137.202384
 30
0.0
 10
54.097023
 20
137.260012
 30
0.0
 10
56.515944
 20
136.662776
 30
0.0
 10
58.084474
 20
136.908851
 30
0.0
 10
58.831575
 20
137.026058
 30
0.0
 11
51.513802
 21
137.172675
 31
0.0
 11
54.143239
 21
137.136303
 31
0.0
 11
56.593728
 21
136.817269
 31
0.0
 11
58.831575
 21
137.026058
 31
0.0
  0
LWPOLYLINE
  5
1e7
100
AcDbEntity
  8
SilkS
 62
7
100
AcDbPolyline
 90
4
 70
0
 10
58.831575
 20
137.026058
 30
0.0
 10
58.911577
 20
137.035283
 30
0.0
 10
58.946677
 20
137.150895
 30
0.0
 10
59.109810
 20
137.133570
 30
0.0
  0
SPLINE
  5
1e8
100
AcDbEntity
  8
SilkS
 62
7
100
AcDbSpline
 70
0
 71
3
 72
10
 73
6
 74
4
 40
0.000000
 40
0.000000
 40
0.000000
 40
0.000000
 40
1.916126
 40
3.986046
 40
6.053677
 40
6.053677
 40
6.053677
 40
6.053677
 10
59.109810
 20
137.133570
 30
0.0
 10
59.748090
 20
137.109000
 30
0.0
 10
61.075882
 20
137.057888
 30
0.0
 10
63.083677
 20
136.807001
 30
0.0
 10
64.463972
 20
136.871080
 30
0.0
 10
65.153737
 20
136.903103
 30
0.0
 11
59.109810
 21
137.133570
 31
0.0
 11
61.023321
 21
137.033498
 31
0.0
 11
63.086442
 21
136.865860
 31
0.0
 11
65.153737
 21
136.903103
 31
0.0
  0
SPLINE
  5
1e9
100
AcDbEntity
  8
SilkS
 62
7
100
AcDbSpline
 70
0
 71
3
 72
10
 73
6
 74
4
 40
0.000000
 40
0.000000
 40
0.000000
 40
0.000000
 40
2.793199
 40
5.542759
 40
7.716545
 40
7.716545
 40
7.716545
 40
7.716545
 10
65.925030
 20
137.074635
 30
0.0
 10
66.850873
 20
136.914822
 30
0.0
 10
68.688093
 20
136.597692
 30
0.0
 10
71.246711
 20
137.172932
 30
0.0
 10
72.885571
 20
136.989526
 30
0.0
 10
73.609170
 20
136.908548
 30
0.0
 11
65.925030
 21
137.074635
 31
0.0
 11
68.702716
 21
136.780662
 31
0.0
 11
71.439619
 21
137.044181
 31
0.0
 11
73.609170
 21
136.908548
 31
0.0
  0
LWPOLYLINE
  5
1ea
100
AcDbEntity
  8
SilkS
 62
7
100
AcDbPolyline
 90
5
 70
0
 10
65.153737
 20
136.903103
 30
0.0
 10
65.377207
 20
136.961453
 30
0.0
 10
65.758582
 20
137.127690
 30
0.0
 10
65.835997
 20
137.180790
 30
0.0
 10
65.925030
 20
137.074635
 30
0.0
  0
SPLINE
  5
1eb
100
AcDbEntity
  8
SilkS
 62
7
100
AcDbSpline
 70
0
 71
3
 72
10
 73
6
 74
4
 40
0.000000
 40
0.000000
 40
0.000000
 40
0.000000
 40
4.223937
 40
8.356253
 40
12.554911
 40
12.554911
 40
12.554911
 40
12.554911
 10
73.609170
 20
136.908548
 30
0.0
 10
75.016438
 20
136.852093
 30
0.0
 10
77.800448
 20
136.740409
 30
0.0
 10
81.985554
 20
136.853273
 30
0.0
 10
84.762502
 20
136.851078
 30
0.0
 10
86.162032
 20
136.849973
 30
0.0
 11
73.609170
 21
136.908548
 31
0.0
 11
77.831356
 21
136.786915
 31
0.0
 11
81.963407
 21
136.833710
 31
0.0
 11
86.162032
 21
136.849973
 31
0.0
  0
LWPOLYLINE
  5
1ec
100
AcDbEntity
  8
SilkS
 62
7
100
AcDbPolyline
 90
5
 70
0
 10
86.162032
 20
136.849973
 30
0.0
 10
86.427412
 20
136.817198
 30
0.0
 10
86.484487
 20
136.702343
 30
0.0
 10
86.573130
 20
136.782540
 30
0.0
 10
86.685922
 20
136.866495
 30
0.0
  0
SPLINE
  5
1ed
100
AcDbEntity
  8
SilkS
 62
7
100
AcDbSpline
 70
0
 71
3
 72
10
 73
6
 74
4
 40
0.000000
 40
0.000000
 40
0.000000
 40
0.000000
 40
0.548075
 40
1.064315
 40
1.603751
 40
1.603751
 40
1.603751
 40
1.603751
 10
86.685922
 20
136.866495
 30
0.0
 10
86.868005
 20
136.851243
 30
0.0
 10
87.221592
 20
136.821625
 30
0.0
 10
87.758029
 20
136.831972
 30
0.0
 10
88.105228
 20
136.891799
 30
0.0
 10
88.282642
 20
136.922370
 30
0.0
 11
86.685922
 21
136.866495
 31
0.0
 11
87.232809
 21
136.830414
 31
0.0
 11
87.748856
 21
136.844501
 31
0.0
 11
88.282642
 21
136.922370
 31
0.0
  0
LWPOLYLINE
  5
1ee
100
AcDbEntity
  8
SilkS
 62
7
100
AcDbPolyline
 90
3
 70
0
 10
88.282642
 20
136.922370
 30
0.0
 10
88.568025
 20
137.021100
 30
0.0
 10
88.823572
 20
136.954350
 30
0.0
  0
SPLINE
  5
1ef
100
AcDbEntity
  8
SilkS
 62
7
100
AcDbSpline
 70
0
 71
3
 72
10
 73
6
 74
4
 40
0.000000
 40
0.000000
 40
0.000000
 40
0.000000
 40
1.985213
 40
3.959039
 40
5.968382
 40
5.968382
 40
5.968382
 40
5.968382
 10
88.823572
 20
136.954350
 30
0.0
 10
89.484386
 20
136.918199
 30
0.0
 10
90.802222
 20
136.846105
 30
0.0
 10
92.794439
 20
136.873959
 30
0.0
 10
94.115329
 20
137.013673
 30
0.0
 10
94.781662
 20
137.084153
 30
0.0
 11
88.823572
 21
136.954350
 31
0.0
 11
90.806936
 21
136.868671
 31
0.0
 11
92.780454
 21
136.903537
 31
0.0
 11
94.781662
 21
137.084153
 31
0.0
  0
LWPOLYLINE
  5
1f0
100
AcDbEntity
  8
SilkS
 62
7
100
AcDbPolyline
 90
2
 70
0
 10
94.781662
 20
137.084153
 30
0.0
 10
95.715802
 20
136.978920
 30
0.0
  0
SPLINE
  5
1f1
100
AcDbEntity
  8
SilkS
 62
7
100
AcDbSpline
 70
0
 71
3
 72
10
 73
6
 74
4
 40
0.000000
 40
0.000000
 40
0.000000
 40
0.000000
 40
1.311105
 40
2.675080
 40
3.905101
 40
3.905101
 40
3.905101
 40
3.905101
 10
95.715802
 20
136.978920
 30
0.0
 10
96.151119
 20
137.041080
 30
0.0
 10
97.039305
 20
137.167908
 30
0.0
 10
98.334744
 20
136.938450
 30
0.0
 10
99.200190
 20
136.966920
 30
0.0
 10
99.610567
 20
136.980420
 30
0.0
 11
95.715802
 21
136.978920
 31
0.0
 11
97.021563
 21
137.097177
 31
0.0
 11
98.380547
 21
136.980593
 31
0.0
 11
99.610567
 21
136.980420
 31
0.0
  0
LWPOLYLINE
  5
1f2
100
AcDbEntity
  8
SilkS
 62
7
100
AcDbPolyline
 90
6
 70
0
 10
99.610567
 20
136.980420
 30
0.0
 10
99.796522
 20
136.975170
 30
0.0
 10
99.886860
 20
136.966020
 30
0.0
 10
99.977992
 20
136.962270
 30
0.0
 10
100.243762
 20
136.905420
 30
0.0
 10
100.567102
 20
136.853670
 30
0.0
  0
SPLINE
  5
1f3
100
AcDbEntity
  8
SilkS
 62
7
100
AcDbSpline
 70
0
 71
3
 72
10
 73
6
 74
4
 40
0.000000
 40
0.000000
 40
0.000000
 40
0.000000
 40
0.831081
 40
1.409287
 40
2.160851
 40
2.160851
 40
2.160851
 40
2.160851
 10
100.567102
 20
136.853670
 30
0.0
 10
100.842175
 20
136.870753
 30
0.0
 10
101.308623
 20
136.899721
 30
0.0
 10
102.040279
 20
136.980452
 30
0.0
 10
102.450787
 20
136.787184
 30
0.0
 10
102.682800
 20
136.677953
 30
0.0
 11
100.567102
 21
136.853670
 31
0.0
 11
101.396052
 21
136.913155
 31
0.0
 11
101.974066
 21
136.928042
 31
0.0
 11
102.682800
 21
136.677953
 31
0.0
  0
LWPOLYLINE
  5
1f4
100
AcDbEntity
  8
SilkS
 62
7
100
AcDbPolyline
 90
9
 70
0
 10
102.682800
 20
136.677953
 30
0.0
 10
102.957180
 20
136.680953
 30
0.0
 10
103.268145
 20
136.717253
 30
0.0
 10
103.418385
 20
136.751153
 30
0.0
 10
104.170522
 20
136.927845
 30
0.0
 10
104.705482
 20
136.834965
 30
0.0
 10
104.558220
 20
136.725623
 30
0.0
 10
104.495145
 20
136.702223
 30
0.0
 10
104.904855
 20
136.769573
 30
0.0
  0
SPLINE
  5
1f5
100
AcDbEntity
  8
SilkS
 62
7
100
AcDbSpline
 70
0
 71
3
 72
10
 73
6
 74
4
 40
0.000000
 40
0.000000
 40
0.000000
 40
0.000000
 40
1.316459
 40
1.740883
 40
2.518350
 40
2.518350
 40
2.518350
 40
2.518350
 10
104.904855
 20
136.769573
 30
0.0
 10
105.325320
 20
136.903503
 30
0.0
 10
105.881343
 20
137.080613
 30
0.0
 10
106.741822
 20
137.059946
 30
0.0
 10
107.078443
 20
136.820134
 30
0.0
 10
107.296192
 20
136.665008
 30
0.0
 11
104.904855
 21
136.769573
 31
0.0
 11
106.188443
 21
137.061916
 31
0.0
 11
106.611959
 21
137.034169
 31
0.0
 11
107.296192
 21
136.665008
 31
0.0
  0
SPLINE
  5
1f6
100
AcDbEntity
  8
SilkS
 62
7
100
AcDbSpline
 70
0
 71
3
 72
10
 73
6
 74
4
 40
0.000000
 40
0.000000
 40
0.000000
 40
0.000000
 40
5.476694
 40
11.133379
 40
16.783479
 40
16.783479
 40
16.783479
 40
16.783479
 10
111.324217
 20
133.986195
 30
0.0
 10
109.506464
 20
133.811590
 30
0.0
 10
105.811218
 20
133.456641
 30
0.0
 10
100.216450
 20
133.304730
 30
0.0
 10
96.451007
 20
133.148610
 30
0.0
 10
94.569382
 20
133.070595
 30
0.0
 11
111.324217
 21
133.986195
 31
0.0
 11
105.867071
 21
133.523886
 31
0.0
 11
100.215174
 21
133.291209
 31
0.0
 11
94.569382
 21
133.070595
 31
0.0
  0
LWPOLYLINE
  5
1f7
100
AcDbEntity
  8
SilkS
 62
7
100
AcDbPolyline
 90
49
 70
0
 10
107.296192
 20
136.665008
 30
0.0
 10
107.364067
 20
136.560450
 30
0.0
 10
107.478487
 20
136.578150
 30
0.0
 10
108.156795
 20
136.532250
 30
0.0
 10
107.942902
 20
136.479600
 30
0.0
 10
107.868277
 20
136.444875
 30
0.0
 10
107.976277
 20
136.385325
 30
0.0
 10
108.094305
 20
136.355550
 30
0.0
 10
108.243532
 20
136.349550
 30
0.0
 10
108.460275
 20
136.305000
 30
0.0
 10
108.635595
 20
136.236675
 30
0.0
 10
108.869535
 20
136.130520
 30
0.0
 10
109.318515
 20
136.053765
 30
0.0
 10
109.442167
 20
136.097565
 30
0.0
 10
109.593030
 20
136.168590
 30
0.0
 10
110.044027
 20
139.612350
 30
0.0
 10
110.132355
 20
141.101445
 30
0.0
 10
110.156505
 20
141.486548
 30
0.0
 10
109.825432
 20
141.536948
 30
0.0
 10
109.332630
 20
141.587048
 30
0.0
 10
109.197135
 20
141.629198
 30
0.0
 10
109.337640
 20
141.673073
 30
0.0
 10
109.685437
 20
141.756608
 30
0.0
 10
111.220192
 20
141.840143
 30
0.0
 10
112.521412
 20
141.841643
 30
0.0
 10
112.632015
 20
141.630120
 30
0.0
 10
112.742617
 20
141.297015
 30
0.0
 10
112.822695
 20
141.102960
 30
0.0
 10
113.105325
 20
140.406390
 30
0.0
 10
113.449860
 20
139.411043
 30
0.0
 10
113.591835
 20
139.001640
 30
0.0
 10
113.972325
 20
137.829090
 30
0.0
 10
114.115297
 20
137.121743
 30
0.0
 10
114.182722
 20
136.710548
 30
0.0
 10
114.121672
 20
136.045733
 30
0.0
 10
114.016845
 20
135.696930
 30
0.0
 10
113.942145
 20
135.520118
 30
0.0
 10
113.672977
 20
135.064740
 30
0.0
 10
113.479515
 20
134.837333
 30
0.0
 10
113.316082
 20
134.666505
 30
0.0
 10
113.126422
 20
134.564798
 30
0.0
 10
112.935570
 20
134.459355
 30
0.0
 10
112.804545
 20
134.392080
 30
0.0
 10
112.569562
 20
134.339355
 30
0.0
 10
112.349002
 20
134.298930
 30
0.0
 10
112.184722
 20
134.257080
 30
0.0
 10
111.855442
 20
134.167995
 30
0.0
 10
111.527265
 20
134.065583
 30
0.0
 10
111.324217
 20
133.986195
 30
0.0
  0
LWPOLYLINE
  5
1f8
100
AcDbEntity
  8
SilkS
 62
7
100
AcDbPolyline
 90
8
 70
0
 10
73.636162
 20
132.775680
 30
0.0
 10
69.368850
 20
132.729480
 30
0.0
 10
66.991035
 20
132.724980
 30
0.0
 10
65.717212
 20
132.697230
 30
0.0
 10
57.097657
 20
132.604778
 30
0.0
 10
47.826997
 20
132.529778
 30
0.0
 10
47.381152
 20
132.526028
 30
0.0
 10
47.380770
 20
132.526208
 30
0.0
  0
LWPOLYLINE
  5
1f9
100
AcDbEntity
  8
SilkS
 62
7
100
AcDbPolyline
 90
5
 70
1
 10
95.269605
 20
137.000063
 30
0.0
 10
95.150332
 20
137.038313
 30
0.0
 10
95.163457
 20
137.000063
 30
0.0
 10
95.282730
 20
136.961813
 30
0.0
 10
95.269605
 20
137.000063
 30
0.0
  0
LWPOLYLINE
  5
1fa
100
AcDbEntity
  8
SilkS
 62
7
100
AcDbPolyline
 90
4
 70
1
 10
75.864975
 20
142.010445
 30
0.0
 10
76.140975
 20
142.010445
 30
0.0
 10
76.021702
 20
141.968595
 30
0.0
 10
75.864975
 20
142.010445
 30
0.0
  0
LWPOLYLINE
  5
1fb
100
AcDbEntity
  8
SilkS
 62
7
100
AcDbPolyline
 90
5
 70
1
 10
30.983835
 20
148.549553
 30
0.0
 10
31.002585
 20
148.592003
 30
0.0
 10
31.047585
 20
148.549553
 30
0.0
 10
31.028835
 20
148.507103
 30
0.0
 10
30.983835
 20
148.549553
 30
0.0
  0
SPLINE
  5
1fc
100
AcDbEntity
  8
SilkS
 62
7
100
AcDbSpline
 70
0
 71
3
 72
10
 73
6
 74
4
 40
0.000000
 40
0.000000
 40
0.000000
 40
0.000000
 40
7.204309
 40
14.324986
 40
20.935387
 40
20.935387
 40
20.935387
 40
20.935387
 10
94.569382
 20
133.070595
 30
0.0
 10
92.168061
 20
133.046930
 30
0.0
 10
87.393294
 20
132.999875
 30
0.0
 10
80.415503
 20
132.900899
 30
0.0
 10
75.839255
 20
132.816373
 30
0.0
 10
73.636162
 20
132.775680
 30
0.0
 11
94.569382
 21
133.070595
 31
0.0
 11
87.365476
 21
132.994372
 31
0.0
 11
80.245519
 21
132.893213
 31
0.0
 11
73.636162
 21
132.775680
 31
0.0
  0
LWPOLYLINE
  5
1fd
100
AcDbEntity
  8
SilkS
 62
7
100
AcDbPolyline
 90
41
 70
0
 10
44.345970
 20
151.649783
 30
0.0
 10
41.802045
 20
153.283943
 30
0.0
 10
41.215267
 20
156.225173
 30
0.0
 10
41.087962
 20
162.434258
 30
0.0
 10
40.896502
 20
185.320673
 30
0.0
 10
40.940527
 20
195.082208
 30
0.0
 10
40.987777
 20
195.523590
 30
0.0
 10
40.837822
 20
195.647198
 30
0.0
 10
40.622692
 20
195.906420
 30
0.0
 10
40.340827
 20
196.275570
 30
0.0
 10
39.836925
 20
196.999748
 30
0.0
 10
39.647692
 20
197.259098
 30
0.0
 10
39.392925
 20
197.594408
 30
0.0
 10
39.259035
 20
197.849753
 30
0.0
 10
39.133267
 20
198.002288
 30
0.0
 10
39.050152
 20
198.105315
 30
0.0
 10
38.970765
 20
198.186315
 30
0.0
 10
38.780437
 20
198.397200
 30
0.0
 10
38.539747
 20
198.689925
 30
0.0
 10
38.435715
 20
198.813840
 30
0.0
 10
38.340180
 20
198.918555
 30
0.0
 10
38.077267
 20
199.267485
 30
0.0
 10
37.809015
 20
199.619873
 30
0.0
 10
37.560052
 20
199.965818
 30
0.0
 10
36.959887
 20
200.977365
 30
0.0
 10
36.647940
 20
201.631733
 30
0.0
 10
36.550027
 20
201.954435
 30
0.0
 10
35.272380
 20
201.962835
 30
0.0
 10
34.511250
 20
201.970935
 30
0.0
 10
34.265647
 20
201.349635
 30
0.0
 10
34.055295
 20
201.222255
 30
0.0
 10
33.935272
 20
203.421713
 30
0.0
 10
34.206360
 20
204.460860
 30
0.0
 10
34.580055
 20
204.614093
 30
0.0
 10
38.117257
 20
204.659543
 30
0.0
 10
45.271920
 20
204.722543
 30
0.0
 10
73.678237
 20
204.899663
 30
0.0
 10
116.339767
 20
204.853613
 30
0.0
 10
117.170887
 20
204.472133
 30
0.0
 10
117.264330
 20
204.321900
 30
0.0
 10
117.266580
 20
198.844448
 30
0.0
  0
LWPOLYLINE
  5
1fe
100
AcDbEntity
  8
SilkS
 62
7
100
AcDbPolyline
 90
68
 70
0
 10
117.034252
 20
196.763865
 30
0.0
 10
117.000952
 20
198.483533
 30
0.0
 10
116.857395
 20
201.026715
 30
0.0
 10
116.590815
 20
201.560295
 30
0.0
 10
115.836630
 20
201.764820
 30
0.0
 10
115.674480
 20
200.203193
 30
0.0
 10
115.447830
 20
198.985238
 30
0.0
 10
115.275712
 20
198.812603
 30
0.0
 10
115.148325
 20
198.653888
 30
0.0
 10
114.925920
 20
198.753248
 30
0.0
 10
114.589665
 20
198.878610
 30
0.0
 10
114.401580
 20
198.943560
 30
0.0
 10
113.876197
 20
199.205400
 30
0.0
 10
113.718772
 20
199.311555
 30
0.0
 10
113.411662
 20
199.417703
 30
0.0
 10
112.898917
 20
199.465478
 30
0.0
 10
112.115745
 20
199.460228
 30
0.0
 10
111.584985
 20
199.450028
 30
0.0
 10
111.221625
 20
199.484603
 30
0.0
 10
110.890042
 20
199.510703
 30
0.0
 10
110.640285
 20
199.502378
 30
0.0
 10
110.526442
 20
199.506878
 30
0.0
 10
110.306587
 20
199.527278
 30
0.0
 10
109.927320
 20
199.528778
 30
0.0
 10
109.680375
 20
199.556753
 30
0.0
 10
109.512840
 20
199.911060
 30
0.0
 10
109.344630
 20
200.510385
 30
0.0
 10
109.216320
 20
201.944303
 30
0.0
 10
109.170270
 20
202.114148
 30
0.0
 10
108.200377
 20
202.128473
 30
0.0
 10
107.065717
 20
201.887558
 30
0.0
 10
107.150572
 20
201.489368
 30
0.0
 10
107.017290
 20
200.755425
 30
0.0
 10
106.672740
 20
200.233658
 30
0.0
 10
106.537087
 20
200.051700
 30
0.0
 10
106.457992
 20
199.954575
 30
0.0
 10
106.351837
 20
199.800053
 30
0.0
 10
106.245690
 20
199.644038
 30
0.0
 10
106.209240
 20
199.587713
 30
0.0
 10
105.783855
 20
198.997928
 30
0.0
 10
105.629467
 20
198.780960
 30
0.0
 10
105.461437
 20
198.532020
 30
0.0
 10
105.266572
 20
198.256020
 30
0.0
 10
104.886937
 20
197.775413
 30
0.0
 10
104.738325
 20
197.567993
 30
0.0
 10
104.589712
 20
197.334960
 30
0.0
 10
104.486430
 20
197.203485
 30
0.0
 10
104.330385
 20
197.023935
 30
0.0
 10
104.093977
 20
196.706790
 30
0.0
 10
103.910340
 20
196.440083
 30
0.0
 10
103.846665
 20
196.333583
 30
0.0
 10
103.782990
 20
196.248660
 30
0.0
 10
103.724715
 20
196.165815
 30
0.0
 10
103.551225
 20
195.931778
 30
0.0
 10
103.291057
 20
195.499995
 30
0.0
 10
103.146090
 20
195.230708
 30
0.0
 10
103.033192
 20
195.107580
 30
0.0
 10
102.920302
 20
195.033630
 30
0.0
 10
102.948127
 20
189.105120
 30
0.0
 10
103.019902
 20
177.295778
 30
0.0
 10
103.021402
 20
155.262585
 30
0.0
 10
102.888292
 20
154.608368
 30
0.0
 10
100.237972
 20
152.106480
 30
0.0
 10
88.730977
 20
151.907550
 30
0.0
 10
80.812027
 20
151.842600
 30
0.0
 10
48.478072
 20
151.631648
 30
0.0
 10
44.346330
 20
151.650023
 30
0.0
 10
44.345970
 20
151.649783
 30
0.0
  0
SPLINE
  5
1ff
100
AcDbEntity
  8
SilkS
 62
7
100
AcDbSpline
 70
0
 71
3
 72
10
 73
6
 74
4
 40
0.000000
 40
0.000000
 40
0.000000
 40
0.000000
 40
12.385482
 40
12.714403
 40
22.707222
 40
22.707222
 40
22.707222
 40
22.707222
 10
117.266580
 20
198.844448
 30
0.0
 10
117.909823
 20
190.786315
 30
0.0
 10
118.570149
 20
182.514183
 30
0.0
 10
116.251049
 20
189.928476
 30
0.0
 10
116.648991
 20
193.401508
 30
0.0
 10
117.034252
 20
196.763865
 30
0.0
 11
117.266580
 21
198.844448
 31
0.0
 11
117.337495
 21
186.459169
 31
0.0
 11
117.239502
 21
186.773154
 31
0.0
 11
117.034252
 21
196.763865
 31
0.0
  0
SPLINE
  5
200
100
AcDbEntity
  8
Edge.Cuts
 62
1
100
AcDbSpline
 70
0
 71
3
 72
10
 73
6
 74
4
 40
0.000000
 40
0.000000
 40
0.000000
 40
0.000000
 40
5.714302
 40
12.205118
 40
18.067243
 40
18.067243
 40
18.067243
 40
18.067243
 10
68.859008
 20
93.284985
 30
0.0
 10
70.763741
 20
93.296375
 30
0.0
 10
74.832042
 20
93.320703
 30
0.0
 10
80.854426
 20
93.342287
 30
0.0
 10
84.972070
 20
93.347677
 30
0.0
 10
86.926110
 20
93.350235
 30
0.0
 11
68.859008
 21
93.284985
 31
0.0
 11
74.573219
 21
93.317018
 31
0.0
 11
81.063993
 21
93.340452
 31
0.0
 11
86.926110
 21
93.350235
 31
0.0
  0
SPLINE
  5
201
100
AcDbEntity
  8
Edge.Cuts
 62
1
100
AcDbSpline
 70
0
 71
3
 72
43
 73
39
 74
37
 40
0.000000
 40
0.000000
 40
0.000000
 40
0.000000
 40
12.184830
 40
24.662509
 40
31.145266
 40
31.788470
 40
32.658131
 40
33.565978
 40
35.875511
 40
39.082993
 40
42.378647
 40
44.935004
 40
47.573652
 40
49.513572
 40
50.264814
 40
50.646687
 40
50.926104
 40
51.123222
 40
51.317191
 40
51.466070
 40
51.719083
 40
51.922105
 40
52.104538
 40
52.417963
 40
53.104240
 40
54.390731
 40
54.842115
 40
55.668655
 40
57.396834
 40
58.108766
 40
58.673303
 40
58.968231
 40
59.701500
 40
60.866294
 40
62.023872
 40
62.893233
 40
63.452381
 40
63.747228
 40
63.747228
 40
63.747228
 40
63.747228
 10
86.926110
 20
93.350235
 30
0.0
 10
90.987756
 20
93.353391
 30
0.0
 10
99.208665
 20
93.359778
 30
0.0
 10
109.589867
 20
93.423206
 30
0.0
 10
116.125173
 20
93.407892
 30
0.0
 10
118.789651
 20
93.471242
 30
0.0
 10
119.596422
 20
93.485972
 30
0.0
 10
120.958597
 20
93.507667
 30
0.0
 10
123.099832
 20
93.548381
 30
0.0
 10
126.036731
 20
93.611547
 30
0.0
 10
129.055629
 20
93.683776
 30
0.0
 10
131.885295
 20
93.749444
 30
0.0
 10
134.262424
 20
93.798114
 30
0.0
 10
136.040338
 20
93.829600
 30
0.0
 10
137.062408
 20
93.843755
 30
0.0
 10
137.535922
 20
93.862785
 30
0.0
 10
137.811046
 20
93.946734
 30
0.0
 10
138.022933
 20
94.017022
 30
0.0
 10
138.194986
 20
94.070357
 30
0.0
 10
138.386287
 20
94.123026
 30
0.0
 10
138.580223
 20
94.182372
 30
0.0
 10
138.762157
 20
94.298575
 30
0.0
 10
138.906842
 20
94.491549
 30
0.0
 10
138.922589
 20
94.901496
 30
0.0
 10
138.825796
 20
95.648732
 30
0.0
 10
138.710813
 20
96.452629
 30
0.0
 10
138.560729
 20
97.293900
 30
0.0
 10
138.323603
 20
98.268107
 30
0.0
 10
138.069734
 20
99.326678
 30
0.0
 10
137.834653
 20
100.300286
 30
0.0
 10
137.712361
 20
100.809610
 30
0.0
 10
137.592917
 20
101.326912
 30
0.0
 10
137.430536
 20
102.039659
 30
0.0
 10
137.192951
 20
103.030070
 30
0.0
 10
136.938527
 20
104.063343
 30
0.0
 10
136.738308
 20
104.901217
 30
0.0
 10
136.604568
 20
105.461051
 30
0.0
 10
136.573573
 20
105.744210
 30
0.0
 10
136.562873
 20
105.841972
 30
0.0
 11
86.926110
 21
93.350235
 31
0.0
 11
99.110923
 21
93.370403
 31
0.0
 11
111.588532
 21
93.412277
 31
0.0
 11
118.071150
 21
93.454665
 31
0.0
 11
118.714196
 21
93.468946
 31
0.0
 11
119.583701
 21
93.485409
 31
0.0
 11
120.491423
 21
93.500490
 31
0.0
 11
122.800556
 21
93.543494
 31
0.0
 11
126.007302
 21
93.612189
 31
0.0
 11
129.302055
 21
93.689228
 31
0.0
 11
131.857744
 21
93.747659
 31
0.0
 11
134.495843
 21
93.801491
 31
0.0
 11
136.435478
 21
93.834802
 31
0.0
 11
137.186568
 21
93.849872
 31
0.0
 11
137.567023
 21
93.882760
 31
0.0
 11
137.836688
 21
93.955935
 31
0.0
 11
138.024189
 21
94.016751
 31
0.0
 11
138.209619
 21
94.073672
 31
0.0
 11
138.352830
 21
94.114357
 31
0.0
 11
138.591246
 21
94.199054
 31
0.0
 11
138.759691
 21
94.312386
 31
0.0
 11
138.866723
 21
94.460122
 31
0.0
 11
138.912153
 21
94.770237
 31
0.0
 11
138.849992
 21
95.453693
 31
0.0
 11
138.660638
 21
96.726172
 31
0.0
 11
138.579440
 21
97.170194
 31
0.0
 11
138.395038
 21
97.975901
 31
0.0
 11
137.990115
 21
99.655972
 31
0.0
 11
137.823286
 21
100.348082
 31
0.0
 11
137.692429
 21
100.897243
 31
0.0
 11
137.625870
 21
101.184562
 31
0.0
 11
137.461438
 21
101.899158
 31
0.0
 11
137.191244
 21
103.032180
 31
0.0
 11
136.917068
 21
104.156820
 31
0.0
 11
136.714194
 21
105.002178
 31
0.0
 11
136.599181
 21
105.549369
 31
0.0
 11
136.562873
 21
105.841972
 31
0.0
  0
SPLINE
  5
202
100
AcDbEntity
  8
Edge.Cuts
 62
1
100
AcDbSpline
 70
0
 71
3
 72
10
 73
6
 74
4
 40
0.000000
 40
0.000000
 40
0.000000
 40
0.000000
 40
3.255087
 40
6.615553
 40
8.562588
 40
8.562588
 40
8.562588
 40
8.562588
 10
136.562873
 20
105.841972
 30
0.0
 10
136.264549
 20
106.879166
 30
0.0
 10
135.658245
 20
108.987132
 30
0.0
 10
134.771746
 20
111.782585
 30
0.0
 10
133.533639
 20
113.069083
 30
0.0
 10
133.079445
 20
113.541030
 30
0.0
 11
136.562873
 21
105.841972
 31
0.0
 11
135.648870
 21
108.966103
 31
0.0
 11
134.349358
 21
112.065135
 31
0.0
 11
133.079445
 21
113.541030
 31
0.0
  0
SPLINE
  5
203
100
AcDbEntity
  8
Edge.Cuts
 62
1
100
AcDbSpline
 70
0
 71
3
 72
10
 73
6
 74
4
 40
0.000000
 40
0.000000
 40
0.000000
 40
0.000000
 40
0.425852
 40
1.302283
 40
2.911295
 40
2.911295
 40
2.911295
 40
2.911295
 10
133.079445
 20
113.541030
 30
0.0
 10
132.938195
 20
113.555748
 30
0.0
 10
132.506242
 20
113.600757
 30
0.0
 10
131.534460
 20
113.597685
 30
0.0
 10
130.706301
 20
113.601719
 30
0.0
 10
130.170173
 20
113.604330
 30
0.0
 11
133.079445
 21
113.541030
 31
0.0
 11
132.655401
 21
113.580224
 31
0.0
 11
131.779177
 21
113.599286
 31
0.0
 11
130.170173
 21
113.604330
 31
0.0
  0
LWPOLYLINE
  5
204
100
AcDbEntity
  8
SilkS
 62
7
100
AcDbPolyline
 90
5
 70
1
 10
28.202692
 20
117.850350
 30
0.0
 10
28.136467
 20
117.892800
 30
0.0
 10
28.096492
 20
117.850350
 30
0.0
 10
28.162717
 20
117.807900
 30
0.0
 10
28.202692
 20
117.850350
 30
0.0
  0
SPLINE
  5
205
100
AcDbEntity
  8
Edge.Cuts
 62
1
100
AcDbSpline
 70
0
 71
3
 72
10
 73
6
 74
4
 40
0.000000
 40
0.000000
 40
0.000000
 40
0.000000
 40
1.143087
 40
2.475231
 40
3.521998
 40
3.521998
 40
3.521998
 40
3.521998
 10
130.170173
 20
113.604330
 30
0.0
 10
129.789175
 20
113.599443
 30
0.0
 10
128.964165
 20
113.588859
 30
0.0
 10
127.790171
 20
113.581740
 30
0.0
 10
126.997200
 20
113.582636
 30
0.0
 10
126.648278
 20
113.583030
 30
0.0
 11
130.170173
 21
113.604330
 31
0.0
 11
129.027165
 21
113.590858
 31
0.0
 11
127.695045
 21
113.582952
 31
0.0
 11
126.648278
 21
113.583030
 31
0.0
  0
LWPOLYLINE
  5
206
100
AcDbEntity
  8
Edge.Cuts
 62
1
100
AcDbPolyline
 90
2
 70
0
 10
126.648278
 20
113.583030
 30
0.0
 10
125.594805
 20
113.587530
 30
0.0
  0
SPLINE
  5
207
100
AcDbEntity
  8
Edge.Cuts
 62
1
100
AcDbSpline
 70
0
 71
3
 72
46
 73
42
 74
40
 40
0.000000
 40
0.000000
 40
0.000000
 40
0.000000
 40
0.542354
 40
0.932201
 40
1.095083
 40
2.285100
 40
4.508226
 40
5.881133
 40
6.036012
 40
6.102883
 40
6.185698
 40
6.237465
 40
6.302934
 40
6.369681
 40
6.450952
 40
6.537455
 40
6.666483
 40
6.775140
 40
6.867631
 40
6.926745
 40
6.959682
 40
6.979363
 40
6.995103
 40
8.607479
 40
12.037267
 40
15.404140
 40
16.970213
 40
17.896939
 40
18.250082
 40
19.726707
 40
22.505102
 40
24.614318
 40
25.662477
 40
27.400771
 40
30.274687
 40
31.333739
 40
32.260098
 40
32.853223
 40
33.338288
 40
33.981343
 40
34.643173
 40
34.643173
 40
34.643173
 40
34.643173
 10
125.594805
 20
113.587530
 30
0.0
 10
125.412870
 20
113.589292
 30
0.0
 10
125.100160
 20
113.592321
 30
0.0
 10
124.744984
 20
113.604950
 30
0.0
 10
124.126578
 20
113.648261
 30
0.0
 10
124.751883
 20
115.441325
 30
0.0
 10
124.403292
 20
116.668314
 30
0.0
 10
124.460602
 20
118.062434
 30
0.0
 10
124.497023
 20
118.528811
 30
0.0
 10
124.580086
 20
118.654858
 30
0.0
 10
124.587204
 20
118.542561
 30
0.0
 10
124.596703
 20
118.484803
 30
0.0
 10
124.620984
 20
118.425416
 30
0.0
 10
124.655189
 20
118.364022
 30
0.0
 10
124.709386
 20
118.303621
 30
0.0
 10
124.807760
 20
118.274932
 30
0.0
 10
124.915585
 20
118.276164
 30
0.0
 10
125.026045
 20
118.270293
 30
0.0
 10
125.110790
 20
118.255636
 30
0.0
 10
125.170660
 20
118.231130
 30
0.0
 10
125.194267
 20
118.204965
 30
0.0
 10
125.221469
 20
118.194924
 30
0.0
 10
125.453308
 20
118.782304
 30
0.0
 10
125.019971
 20
120.393916
 30
0.0
 10
125.329832
 20
123.247312
 30
0.0
 10
125.258390
 20
126.020226
 30
0.0
 10
125.263668
 20
127.975351
 30
0.0
 10
125.264198
 20
128.923500
 30
0.0
 10
125.207487
 20
129.842757
 30
0.0
 10
124.680420
 20
131.305006
 30
0.0
 10
124.247511
 20
133.377609
 30
0.0
 10
123.758933
 20
135.296268
 30
0.0
 10
123.389186
 20
136.885606
 30
0.0
 10
122.936057
 20
138.717270
 30
0.0
 10
122.482894
 20
140.552535
 30
0.0
 10
122.095079
 20
142.125203
 30
0.0
 10
121.891068
 20
142.960154
 30
0.0
 10
121.735340
 20
143.609939
 30
0.0
 10
121.604414
 20
144.168551
 30
0.0
 10
121.465306
 20
144.748760
 30
0.0
 10
121.363145
 20
145.171554
 30
0.0
 10
121.311330
 20
145.385992
 30
0.0
 11
125.594805
 21
113.587530
 31
0.0
 11
125.052508
 21
113.595430
 31
0.0
 11
124.662982
 21
113.611230
 31
0.0
 11
124.501440
 21
113.632080
 31
0.0
 11
124.468462
 21
114.821640
 31
0.0
 11
124.462468
 21
117.044758
 31
0.0
 11
124.488540
 21
118.417417
 31
0.0
 11
124.526064
 21
118.567682
 31
0.0
 11
124.568646
 21
118.619243
 31
0.0
 11
124.588920
 21
118.538947
 31
0.0
 11
124.597984
 21
118.487980
 31
0.0
 11
124.621731
 21
118.426970
 31
0.0
 11
124.654995
 21
118.369102
 31
0.0
 11
124.712128
 21
118.311302
 31
0.0
 11
124.793705
 21
118.282530
 31
0.0
 11
124.922498
 21
118.274730
 31
0.0
 11
125.030929
 21
118.267744
 31
0.0
 11
125.121591
 21
118.249441
 31
0.0
 11
125.174858
 21
118.223805
 31
0.0
 11
125.200916
 21
118.203661
 31
0.0
 11
125.220224
 21
118.199849
 31
0.0
 11
125.228633
 21
118.213155
 31
0.0
 11
125.238852
 21
119.825499
 31
0.0
 11
125.253588
 21
123.255256
 31
0.0
 11
125.264708
 21
126.622110
 31
0.0
 11
125.263541
 21
128.188182
 31
0.0
 11
125.250374
 21
129.114815
 31
0.0
 11
125.224208
 21
129.466987
 31
0.0
 11
124.853066
 21
130.896209
 31
0.0
 11
124.179424
 21
133.591703
 31
0.0
 11
123.681158
 21
135.641220
 31
0.0
 11
123.439524
 21
136.661147
 31
0.0
 11
123.027064
 21
138.349798
 31
0.0
 11
122.338080
 21
141.139905
 31
0.0
 11
122.084878
 21
142.168243
 31
0.0
 11
121.865512
 21
143.068254
 31
0.0
 11
121.727475
 21
143.645092
 31
0.0
 11
121.616087
 21
144.117195
 31
0.0
 11
121.466583
 21
144.742630
 31
0.0
 11
121.311330
 21
145.385992
 31
0.0
  0
SPLINE
  5
208
100
AcDbEntity
  8
Edge.Cuts
 62
1
100
AcDbSpline
 70
0
 71
3
 72
88
 73
84
 74
82
 40
0.000000
 40
0.000000
 40
0.000000
 40
0.000000
 40
0.397512
 40
0.847932
 40
1.253886
 40
2.222331
 40
3.330201
 40
4.297527
 40
6.162278
 40
8.045290
 40
9.386151
 40
9.712739
 40
10.118094
 40
10.514488
 40
10.931221
 40
11.389885
 40
11.791182
 40
13.838862
 40
16.042804
 40
17.908688
 40
19.708539
 40
22.322300
 40
25.197238
 40
27.081258
 40
28.452531
 40
29.489145
 40
30.041640
 40
30.591282
 40
31.019080
 40
31.738052
 40
33.051030
 40
34.673762
 40
36.442064
 40
38.136669
 40
39.390701
 40
40.353573
 40
41.284865
 40
41.982958
 40
43.689345
 40
45.017017
 40
46.211304
 40
46.892129
 40
47.472260
 40
47.826125
 40
48.177081
 40
48.749593
 40
49.419732
 40
50.183006
 40
50.999676
 40
51.692937
 40
52.377477
 40
53.171286
 40
53.902512
 40
57.136628
 40
58.467248
 40
58.862075
 40
59.740997
 40
60.600500
 40
61.488802
 40
61.765543
 40
62.257411
 40
63.337268
 40
72.966916
 40
90.331270
 40
103.802586
 40
107.224904
 40
110.992802
 40
114.290554
 40
125.928784
 40
135.981359
 40
143.568022
 40
146.163650
 40
147.260851
 40
147.824014
 40
148.264540
 40
148.755799
 40
149.191835
 40
149.582784
 40
150.053982
 40
150.500639
 40
151.925479
 40
155.955475
 40
163.124233
 40
163.124233
 40
163.124233
 40
163.124233
 10
121.048703
 20
147.105652
 30
0.0
 10
121.051329
 20
147.238134
 30
0.0
 10
121.056931
 20
147.520728
 30
0.0
 10
121.075111
 20
147.938343
 30
0.0
 10
121.113481
 20
148.545421
 30
0.0
 10
121.178065
 20
149.370338
 30
0.0
 10
121.248879
 20
150.382413
 30
0.0
 10
121.338623
 20
151.692658
 30
0.0
 10
121.448534
 20
153.260506
 30
0.0
 10
121.574934
 20
154.952019
 30
0.0
 10
121.673287
 20
156.131417
 30
0.0
 10
121.732175
 20
156.819842
 30
0.0
 10
121.759637
 20
157.194960
 30
0.0
 10
121.786412
 20
157.600238
 30
0.0
 10
121.812992
 20
158.023334
 30
0.0
 10
121.841320
 20
158.447957
 30
0.0
 10
121.911462
 20
159.414636
 30
0.0
 10
121.983297
 20
160.964286
 30
0.0
 10
122.019437
 20
163.003538
 30
0.0
 10
121.976364
 20
164.960108
 30
0.0
 10
121.864302
 20
167.050355
 30
0.0
 10
121.769127
 20
169.478039
 30
0.0
 10
121.670537
 20
171.933625
 30
0.0
 10
121.593261
 20
173.975576
 30
0.0
 10
121.537037
 20
175.405107
 30
0.0
 10
121.495853
 20
176.391042
 30
0.0
 10
121.465267
 20
177.103303
 30
0.0
 10
121.443867
 20
177.612832
 30
0.0
 10
121.420735
 20
178.177829
 30
0.0
 10
121.387570
 20
178.997074
 30
0.0
 10
121.337751
 20
180.214282
 30
0.0
 10
121.273514
 20
181.780970
 30
0.0
 10
121.204612
 20
183.474782
 30
0.0
 10
121.141484
 20
185.045828
 30
0.0
 10
121.090498
 20
186.348667
 30
0.0
 10
121.049672
 20
187.397272
 30
0.0
 10
121.014689
 20
188.260649
 30
0.0
 10
120.967127
 20
189.371556
 30
0.0
 10
120.911002
 20
190.614341
 30
0.0
 10
120.853254
 20
192.022614
 30
0.0
 10
120.816355
 20
193.089575
 30
0.0
 10
120.787643
 20
193.907482
 30
0.0
 10
120.767235
 20
194.445379
 30
0.0
 10
120.745899
 20
194.873167
 30
0.0
 10
120.724377
 20
195.298404
 30
0.0
 10
120.703966
 20
195.829225
 30
0.0
 10
120.679979
 20
196.497433
 30
0.0
 10
120.654076
 20
197.247014
 30
0.0
 10
120.626105
 20
198.004233
 30
0.0
 10
120.597725
 20
198.735173
 30
0.0
 10
120.569005
 20
199.458472
 30
0.0
 10
120.540834
 20
200.194463
 30
0.0
 10
120.483042
 20
201.779763
 30
0.0
 10
120.406044
 20
203.543851
 30
0.0
 10
120.364854
 20
205.195886
 30
0.0
 10
120.271855
 20
206.061887
 30
0.0
 10
119.963088
 20
206.724459
 30
0.0
 10
119.368613
 20
207.381882
 30
0.0
 10
118.767311
 20
207.718273
 30
0.0
 10
118.235344
 20
207.875630
 30
0.0
 10
117.614715
 20
207.889727
 30
0.0
 10
113.892030
 20
208.021406
 30
0.0
 10
104.518615
 20
207.903514
 30
0.0
 10
91.038903
 20
207.985504
 30
0.0
 10
79.617603
 20
207.961986
 30
0.0
 10
72.730662
 20
207.921257
 30
0.0
 10
69.234675
 20
207.904629
 30
0.0
 10
63.000237
 20
207.878671
 30
0.0
 10
54.669082
 20
207.847939
 30
0.0
 10
44.916095
 20
207.768244
 30
0.0
 10
38.158289
 20
207.742399
 30
0.0
 10
34.415353
 20
207.647406
 30
0.0
 10
32.979958
 20
207.654500
 30
0.0
 10
32.312895
 20
207.410919
 30
0.0
 10
31.894071
 20
207.136518
 30
0.0
 10
31.552505
 20
206.834110
 30
0.0
 10
31.255319
 20
206.504577
 30
0.0
 10
31.070239
 20
206.109544
 30
0.0
 10
30.926217
 20
205.697604
 30
0.0
 10
30.760716
 20
204.931662
 30
0.0
 10
30.771191
 20
202.953621
 30
0.0
 10
30.588894
 20
198.757634
 30
0.0
 10
30.588660
 20
195.022063
 30
0.0
 10
30.588510
 20
192.630778
 30
0.0
 11
121.048703
 21
147.105652
 31
0.0
 11
121.058053
 21
147.503055
 31
0.0
 11
121.077303
 21
147.953062
 31
0.0
 11
121.102253
 21
148.358250
 31
0.0
 11
121.173195
 21
149.324092
 31
0.0
 11
121.251860
 21
150.429166
 31
0.0
 11
121.318358
 21
151.394203
 31
0.0
 11
121.449527
 21
153.254335
 31
0.0
 11
121.591548
 21
155.131984
 31
0.0
 11
121.702148
 21
156.468276
 31
0.0
 11
121.729344
 21
156.793730
 31
0.0
 11
121.759371
 21
157.197972
 31
0.0
 11
121.785758
 21
157.593486
 31
0.0
 11
121.812371
 21
158.009368
 31
0.0
 11
121.843066
 21
158.467004
 31
0.0
 11
121.871175
 21
158.867316
 31
0.0
 11
121.971485
 21
160.912537
 31
0.0
 11
122.005625
 21
163.116215
 31
0.0
 11
121.965900
 21
164.981676
 31
0.0
 11
121.882341
 21
166.779586
 31
0.0
 11
121.772147
 21
169.391023
 31
0.0
 11
121.658618
 21
172.263718
 31
0.0
 11
121.586258
 21
174.146348
 31
0.0
 11
121.532019
 21
175.516548
 31
0.0
 11
121.488855
 21
176.552263
 31
0.0
 11
121.465313
 21
177.104256
 31
0.0
 11
121.442272
 21
177.653416
 31
0.0
 11
121.424730
 21
178.080853
 31
0.0
 11
121.395541
 21
178.799233
 31
0.0
 11
121.341959
 21
180.111117
 31
0.0
 11
121.275585
 21
181.732491
 31
0.0
 11
121.203763
 21
183.499334
 31
0.0
 11
121.135927
 21
185.192580
 31
0.0
 11
121.086750
 21
186.445648
 31
0.0
 11
121.049004
 21
187.407780
 31
0.0
 11
121.011136
 21
188.338302
 31
0.0
 11
120.981345
 21
189.035758
 31
0.0
 11
120.906632
 21
190.740510
 31
0.0
 11
120.852926
 21
192.067095
 31
0.0
 11
120.810308
 21
193.260621
 31
0.0
 11
120.786119
 21
193.941016
 31
0.0
 11
120.762946
 21
194.520684
 31
0.0
 11
120.745808
 21
194.874133
 31
0.0
 11
120.728649
 21
195.224670
 31
0.0
 11
120.705441
 21
195.796712
 31
0.0
 11
120.681233
 21
196.466413
 31
0.0
 11
120.654398
 21
197.229216
 31
0.0
 11
120.624309
 21
198.045331
 31
0.0
 11
120.597510
 21
198.738073
 31
0.0
 11
120.570601
 21
199.422085
 31
0.0
 11
120.540287
 21
200.215315
 31
0.0
 11
120.513113
 21
200.946036
 31
0.0
 11
120.392653
 21
204.177907
 31
0.0
 11
120.328962
 21
205.507002
 31
0.0
 11
120.275798
 21
205.898233
 31
0.0
 11
119.924027
 21
206.703690
 31
0.0
 11
119.345253
 21
207.339117
 31
0.0
 11
118.569383
 21
207.771673
 31
0.0
 11
118.302948
 21
207.846496
 31
0.0
 11
117.812659
 21
207.885878
 31
0.0
 11
116.733315
 21
207.919161
 31
0.0
 11
107.103743
 21
207.957380
 31
0.0
 11
89.739392
 21
207.966867
 31
0.0
 11
76.268100
 21
207.941286
 31
0.0
 11
72.845833
 21
207.922567
 31
0.0
 11
69.077979
 21
207.904280
 31
0.0
 11
65.780258
 21
207.890361
 31
0.0
 11
54.142151
 21
207.836671
 31
0.0
 11
44.089799
 21
207.769809
 31
0.0
 11
36.503498
 21
207.695638
 31
0.0
 11
33.908217
 21
207.653192
 31
0.0
 11
32.814166
 21
207.570117
 31
0.0
 11
32.285760
 21
207.375336
 31
0.0
 11
31.914625
 21
207.138012
 31
0.0
 11
31.545033
 21
206.814382
 31
0.0
 11
31.264208
 21
206.480818
 31
0.0
 11
31.087447
 21
206.132112
 31
0.0
 11
30.933046
 21
205.686928
 31
0.0
 11
30.837540
 21
205.250601
 31
0.0
 11
30.760532
 21
203.827843
 31
0.0
 11
30.655133
 21
199.799226
 31
0.0
 11
30.588510
 21
192.630778
 31
0.0
  0
SPLINE
  5
209
100
AcDbEntity
  8
Edge.Cuts
 62
1
100
AcDbSpline
 70
0
 71
3
 72
10
 73
6
 74
4
 40
0.000000
 40
0.000000
 40
0.000000
 40
0.000000
 40
4.780661
 40
8.022307
 40
11.187001
 40
11.187001
 40
11.187001
 40
11.187001
 10
30.588510
 20
192.630778
 30
0.0
 10
30.550848
 20
191.037654
 30
0.0
 10
30.487649
 20
188.364272
 30
0.0
 10
30.339720
 20
184.637973
 30
0.0
 10
30.213946
 20
182.506195
 30
0.0
 10
30.151815
 20
181.453108
 30
0.0
 11
30.588510
 21
192.630778
 31
0.0
 11
30.460296
 21
187.851837
 31
0.0
 11
30.328189
 21
184.612885
 31
0.0
 11
30.151815
 21
181.453108
 31
0.0
  0
LWPOLYLINE
  5
20a
100
AcDbEntity
  8
Edge.Cuts
 62
1
100
AcDbPolyline
 90
3
 70
0
 10
121.311330
 20
145.385992
 30
0.0
 10
121.043453
 20
146.489970
 30
0.0
 10
121.048703
 20
147.105652
 30
0.0
  0
SPLINE
  5
20b
100
AcDbEntity
  8
Edge.Cuts
 62
1
100
AcDbSpline
 70
0
 71
3
 72
109
 73
105
 74
103
 40
0.000000
 40
0.000000
 40
0.000000
 40
0.000000
 40
0.413749
 40
0.786358
 40
1.037714
 40
1.783297
 40
3.141459
 40
4.713667
 40
5.216329
 40
5.697116
 40
6.051955
 40
6.572716
 40
7.488493
 40
8.601034
 40
9.818340
 40
11.008766
 40
11.914590
 40
14.675382
 40
16.609400
 40
18.349258
 40
19.523067
 40
20.403346
 40
20.961499
 40
21.358510
 40
21.825619
 40
22.261699
 40
22.636526
 40
22.943072
 40
23.114992
 40
23.260582
 40
23.498110
 40
23.776177
 40
24.307085
 40
25.112531
 40
26.358051
 40
26.729098
 40
27.311928
 40
27.980361
 40
28.675148
 40
29.327065
 40
29.794979
 40
30.433161
 40
31.234048
 40
32.334127
 40
32.956205
 40
33.260365
 40
33.353435
 40
33.410892
 40
33.488018
 40
33.585988
 40
33.630028
 40
33.650787
 40
33.720189
 40
33.774598
 40
33.832365
 40
34.013121
 40
34.416312
 40
34.657279
 40
34.756811
 40
34.873034
 40
35.190476
 40
35.812741
 40
36.891983
 40
37.736634
 40
38.231976
 40
38.901051
 40
39.609445
 40
40.271981
 40
40.578220
 40
40.780009
 40
40.863251
 40
40.896214
 40
40.965724
 40
41.060230
 40
41.160445
 40
41.245731
 40
41.301522
 40
41.464191
 40
41.826046
 40
42.309220
 40
42.853373
 40
43.374976
 40
43.761110
 40
44.057561
 40
44.344034
 40
44.558523
 40
44.808653
 40
45.188561
 40
45.616018
 40
46.052301
 40
46.455345
 40
46.737893
 40
46.943333
 40
47.144248
 40
47.297152
 40
48.111524
 40
49.308204
 40
50.757297
 40
51.735511
 40
52.658943
 40
53.327738
 40
53.799489
 40
54.206294
 40
54.460248
 40
54.460248
 40
54.460248
 40
54.460248
 10
30.151815
 20
181.453108
 30
0.0
 10
30.144065
 20
181.315391
 30
0.0
 10
30.129335
 20
181.053650
 30
0.0
 10
30.126516
 20
180.707649
 30
0.0
 10
30.102589
 20
180.251712
 30
0.0
 10
30.050908
 20
179.468361
 30
0.0
 10
30.010761
 20
178.243515
 30
0.0
 10
29.974836
 20
177.099788
 30
0.0
 10
29.951302
 20
176.248224
 30
0.0
 10
29.936853
 20
175.802356
 30
0.0
 10
29.917643
 20
175.350632
 30
0.0
 10
29.895040
 20
174.753933
 30
0.0
 10
29.867507
 20
173.904683
 30
0.0
 10
29.834006
 20
172.823328
 30
0.0
 10
29.798531
 20
171.650440
 30
0.0
 10
29.764189
 20
170.546455
 30
0.0
 10
29.712247
 20
168.928274
 30
0.0
 10
29.650679
 20
167.062411
 30
0.0
 10
29.599868
 20
164.918054
 30
0.0
 10
29.587919
 20
163.302151
 30
0.0
 10
29.590459
 20
162.037483
 30
0.0
 10
29.602536
 20
161.166808
 30
0.0
 10
29.630024
 20
160.555351
 30
0.0
 10
29.676586
 20
160.083477
 30
0.0
 10
29.714013
 20
159.651710
 30
0.0
 10
29.751774
 20
159.227376
 30
0.0
 10
29.785773
 20
158.856451
 30
0.0
 10
29.812492
 20
158.573265
 30
0.0
 10
29.835780
 20
158.366551
 30
0.0
 10
29.857074
 20
158.182764
 30
0.0
 10
29.877251
 20
157.963276
 30
0.0
 10
29.906973
 20
157.615717
 30
0.0
 10
29.955247
 20
157.079734
 30
0.0
 10
30.043250
 20
156.223608
 30
0.0
 10
30.127774
 20
155.420711
 30
0.0
 10
30.204417
 20
154.691595
 30
0.0
 10
30.260604
 20
154.153753
 30
0.0
 10
30.327805
 20
153.508559
 30
0.0
 10
30.397763
 20
152.840501
 30
0.0
 10
30.461036
 20
152.238943
 30
0.0
 10
30.523678
 20
151.656305
 30
0.0
 10
30.590199
 20
151.024088
 30
0.0
 10
30.677406
 20
150.182465
 30
0.0
 10
30.743879
 20
149.342729
 30
0.0
 10
30.839935
 20
148.675979
 30
0.0
 10
30.847660
 20
148.331984
 30
0.0
 10
30.939358
 20
148.194464
 30
0.0
 10
31.024454
 20
148.188047
 30
0.0
 10
31.046880
 20
148.094696
 30
0.0
 10
31.038158
 20
148.040963
 30
0.0
 10
31.031773
 20
147.959511
 30
0.0
 10
30.982788
 20
147.987415
 30
0.0
 10
30.980643
 20
148.028573
 30
0.0
 10
30.936196
 20
148.113165
 30
0.0
 10
30.922379
 20
147.962946
 30
0.0
 10
30.927019
 20
147.796242
 30
0.0
 10
30.945359
 20
147.505198
 30
0.0
 10
30.940747
 20
147.236818
 30
0.0
 10
31.059235
 20
147.133923
 30
0.0
 10
31.210546
 20
147.029061
 30
0.0
 10
31.186033
 20
146.627499
 30
0.0
 10
31.258219
 20
145.990552
 30
0.0
 10
31.278009
 20
145.124976
 30
0.0
 10
31.357247
 20
144.327815
 30
0.0
 10
31.454467
 20
143.658937
 30
0.0
 10
31.760065
 20
143.103209
 30
0.0
 10
32.157864
 20
142.550492
 30
0.0
 10
32.581575
 20
142.176886
 30
0.0
 10
32.891238
 20
141.945182
 30
0.0
 10
33.053403
 20
141.824233
 30
0.0
 10
33.102146
 20
141.728248
 30
0.0
 10
33.116994
 20
141.667117
 30
0.0
 10
33.169548
 20
141.622229
 30
0.0
 10
33.235466
 20
141.566179
 30
0.0
 10
33.307311
 20
141.505454
 30
0.0
 10
33.359749
 20
141.444626
 30
0.0
 10
33.402781
 20
141.347392
 30
0.0
 10
33.278408
 20
141.166288
 30
0.0
 10
33.176389
 20
140.860965
 30
0.0
 10
32.963453
 20
140.441648
 30
0.0
 10
32.745335
 20
139.976194
 30
0.0
 10
32.537451
 20
139.538507
 30
0.0
 10
32.368338
 20
139.174591
 30
0.0
 10
32.233176
 20
138.881188
 30
0.0
 10
32.120513
 20
138.640440
 30
0.0
 10
32.011852
 20
138.414884
 30
0.0
 10
31.890735
 20
138.160759
 30
0.0
 10
31.742223
 20
137.841068
 30
0.0
 10
31.568848
 20
137.464516
 30
0.0
 10
31.392974
 20
137.080624
 30
0.0
 10
31.236711
 20
136.740878
 30
0.0
 10
31.111767
 20
136.471426
 30
0.0
 10
31.015514
 20
136.262938
 30
0.0
 10
30.938403
 20
136.093209
 30
0.0
 10
30.782184
 20
135.736518
 30
0.0
 10
30.481802
 20
135.080646
 30
0.0
 10
29.981532
 20
134.041360
 30
0.0
 10
29.446264
 20
132.958426
 30
0.0
 10
28.951697
 20
131.956977
 30
0.0
 10
28.577867
 20
131.185999
 30
0.0
 10
28.285124
 20
130.563370
 30
0.0
 10
28.068926
 20
130.095114
 30
0.0
 10
27.906465
 20
129.754258
 30
0.0
 10
27.803782
 20
129.559388
 30
0.0
 10
27.764318
 20
129.484492
 30
0.0
 11
30.151815
 21
181.453108
 31
0.0
 11
30.132051
 21
181.039832
 31
0.0
 11
30.122904
 21
180.667335
 31
0.0
 11
30.110940
 21
180.416263
 31
0.0
 11
30.067263
 21
179.671962
 31
0.0
 11
30.013387
 21
178.314868
 31
0.0
 11
29.965140
 21
176.743401
 31
0.0
 11
29.950693
 21
176.240947
 31
0.0
 11
29.934562
 21
175.760430
 31
0.0
 11
29.920215
 21
175.405881
 31
0.0
 11
29.900367
 21
174.885498
 31
0.0
 11
29.869831
 21
173.970231
 31
0.0
 11
29.835218
 21
172.858228
 31
0.0
 11
29.798084
 21
171.641489
 31
0.0
 11
29.761016
 21
170.451641
 31
0.0
 11
29.732018
 21
169.546281
 31
0.0
 11
29.646618
 21
166.786810
 31
0.0
 11
29.603865
 21
164.853264
 31
0.0
 11
29.589780
 21
163.113463
 31
0.0
 11
29.593308
 21
161.939660
 31
0.0
 11
29.609602
 21
161.059532
 31
0.0
 11
29.638230
 21
160.502113
 31
0.0
 11
29.673570
 21
160.106678
 31
0.0
 11
29.715090
 21
159.641418
 31
0.0
 11
29.753790
 21
159.207058
 31
0.0
 11
29.788033
 21
158.833799
 31
0.0
 11
29.817887
 21
158.528710
 31
0.0
 11
29.836860
 21
158.357841
 31
0.0
 11
29.853113
 21
158.213160
 31
0.0
 11
29.875782
 21
157.976717
 31
0.0
 11
29.899935
 21
157.699701
 31
0.0
 11
29.947920
 21
157.170965
 31
0.0
 11
30.028507
 21
156.369562
 31
0.0
 11
30.158243
 21
155.130816
 31
0.0
 11
30.197006
 21
154.761800
 31
0.0
 11
30.257611
 21
154.182130
 31
0.0
 11
30.326955
 21
153.517303
 31
0.0
 11
30.399306
 21
152.826293
 31
0.0
 11
30.467742
 21
152.177978
 31
0.0
 11
30.517463
 21
151.712713
 31
0.0
 11
30.584371
 21
151.078049
 31
0.0
 11
30.664431
 21
150.281173
 31
0.0
 11
30.771270
 21
149.186295
 31
0.0
 11
30.838367
 21
148.567846
 31
0.0
 11
30.894463
 21
148.268904
 31
0.0
 11
30.956445
 21
148.199475
 31
0.0
 11
31.010298
 21
148.179446
 31
0.0
 11
31.040242
 21
148.108369
 31
0.0
 11
31.036050
 21
148.010490
 31
0.0
 11
31.021108
 21
147.969062
 31
0.0
 11
31.002217
 21
147.977668
 31
0.0
 11
30.971475
 21
148.039890
 31
0.0
 11
30.942233
 21
148.085773
 31
0.0
 11
30.928942
 21
148.029557
 31
0.0
 11
30.926250
 21
147.848820
 31
0.0
 11
30.941790
 21
147.445929
 31
0.0
 11
30.985168
 21
147.208899
 31
0.0
 11
31.056023
 21
147.138997
 31
0.0
 11
31.143882
 21
147.062914
 31
0.0
 11
31.199433
 21
146.750371
 31
0.0
 11
31.235513
 21
146.129152
 31
0.0
 11
31.294956
 21
145.051549
 31
0.0
 11
31.377014
 21
144.210893
 31
0.0
 11
31.470248
 21
143.724405
 31
0.0
 11
31.763991
 21
143.123260
 31
0.0
 11
32.187904
 21
142.555703
 31
0.0
 11
32.676983
 21
142.108762
 31
0.0
 11
32.920664
 21
141.923285
 31
0.0
 11
33.068633
 21
141.786085
 31
0.0
 11
33.105480
 21
141.711442
 31
0.0
 11
33.116054
 21
141.680221
 31
0.0
 11
33.162369
 21
141.628389
 31
0.0
 11
33.234368
 21
141.567172
 31
0.0
 11
33.309016
 21
141.500309
 31
0.0
 11
33.362259
 21
141.433684
 31
0.0
 11
33.382568
 21
141.381720
 31
0.0
 11
33.326803
 21
141.228909
 31
0.0
 11
33.180608
 21
140.897901
 31
0.0
 11
32.975633
 21
140.460360
 31
0.0
 11
32.741503
 21
139.969151
 31
0.0
 11
32.518877
 21
139.497444
 31
0.0
 11
32.355953
 21
139.147365
 31
0.0
 11
32.231512
 21
138.878297
 31
0.0
 11
32.109788
 21
138.618971
 31
0.0
 11
32.017133
 21
138.425527
 31
0.0
 11
31.909643
 21
138.199671
 31
0.0
 11
31.749085
 21
137.855359
 31
0.0
 11
31.570200
 21
137.467132
 31
0.0
 11
31.388257
 21
137.070598
 31
0.0
 11
31.219706
 21
136.704490
 31
0.0
 11
31.101038
 21
136.448070
 31
0.0
 11
31.015073
 21
136.261480
 31
0.0
 11
30.932257
 21
136.078427
 31
0.0
 11
30.870518
 21
135.938542
 31
0.0
 11
30.532968
 21
135.197420
 31
0.0
 11
30.016337
 21
134.118005
 31
0.0
 11
29.376803
 21
132.817672
 31
0.0
 11
28.944701
 21
131.940068
 31
0.0
 11
28.542762
 21
131.108700
 31
0.0
 11
28.258005
 21
130.503555
 31
0.0
 11
28.058907
 21
130.075877
 31
0.0
 11
27.881546
 21
129.709771
 31
0.0
 11
27.764318
 21
129.484492
 31
0.0
  0
LWPOLYLINE
  5
20c
100
AcDbEntity
  8
Edge.Cuts
 62
1
100
AcDbPolyline
 90
3
 70
0
 10
27.764318
 20
129.484492
 30
0.0
 10
27.629123
 20
129.250957
 30
0.0
 10
27.629573
 20
128.146972
 30
0.0
  0
SPLINE
  5
20d
100
AcDbEntity
  8
Edge.Cuts
 62
1
100
AcDbSpline
 70
0
 71
3
 72
64
 73
60
 74
58
 40
0.000000
 40
0.000000
 40
0.000000
 40
0.000000
 40
1.479565
 40
3.138056
 40
4.247098
 40
4.627908
 40
5.299303
 40
6.115963
 40
8.321820
 40
9.634190
 40
10.096083
 40
10.229372
 40
10.445683
 40
10.628923
 40
10.736339
 40
11.304368
 40
12.740702
 40
14.448658
 40
15.219344
 40
15.425239
 40
15.968114
 40
17.356447
 40
19.289845
 40
21.925924
 40
23.059864
 40
23.505213
 40
24.194715
 40
24.706843
 40
25.129506
 40
27.080379
 40
30.729912
 40
34.373716
 40
35.919853
 40
38.074387
 40
40.057405
 40
40.967343
 40
41.539541
 40
41.969817
 40
42.299156
 40
42.663482
 40
42.983960
 40
43.597089
 40
44.086612
 40
44.390271
 40
44.607085
 40
44.972176
 40
45.548638
 40
46.443966
 40
47.701682
 40
48.552988
 40
49.450329
 40
51.045081
 40
53.011707
 40
56.152458
 40
60.512282
 40
65.538814
 40
73.916172
 40
86.886081
 40
99.444015
 40
99.444015
 40
99.444015
 40
99.444015
 10
27.629573
 20
128.146972
 30
0.0
 10
27.633612
 20
127.653797
 30
0.0
 10
27.642179
 20
126.607806
 30
0.0
 10
27.668224
 20
125.192339
 30
0.0
 10
27.704589
 20
124.143363
 30
0.0
 10
27.731776
 20
123.423682
 30
0.0
 10
27.743665
 20
122.799549
 30
0.0
 10
27.777162
 20
121.578742
 30
0.0
 10
27.711573
 20
120.042850
 30
0.0
 10
27.955552
 20
118.923080
 30
0.0
 10
27.759556
 20
118.055845
 30
0.0
 10
28.058505
 20
118.025508
 30
0.0
 10
28.226519
 20
118.010953
 30
0.0
 10
28.405358
 20
118.120189
 30
0.0
 10
28.618988
 20
117.875674
 30
0.0
 10
28.451527
 20
117.124986
 30
0.0
 10
28.617814
 20
115.931576
 30
0.0
 10
28.594785
 20
114.579041
 30
0.0
 10
28.604068
 20
113.743248
 30
0.0
 10
28.593358
 20
113.163566
 30
0.0
 10
27.612513
 20
113.436545
 30
0.0
 10
26.526217
 20
113.199928
 30
0.0
 10
24.441852
 20
113.293834
 30
0.0
 10
22.575608
 20
113.228073
 30
0.0
 10
21.164554
 20
113.244314
 30
0.0
 10
20.412408
 20
113.146917
 30
0.0
 10
19.886578
 20
112.988992
 30
0.0
 10
19.386072
 20
112.752895
 30
0.0
 10
18.772765
 20
111.986294
 30
0.0
 10
18.329370
 20
109.977035
 30
0.0
 10
17.216210
 20
107.123915
 30
0.0
 10
16.369851
 20
104.293687
 30
0.0
 10
15.655627
 20
101.952917
 30
0.0
 10
15.094991
 20
100.143037
 30
0.0
 10
14.591611
 20
98.537441
 30
0.0
 10
14.246185
 20
97.435625
 30
0.0
 10
14.072608
 20
96.821368
 30
0.0
 10
14.000506
 20
96.382756
 30
0.0
 10
13.952852
 20
96.011261
 30
0.0
 10
13.903482
 20
95.676612
 30
0.0
 10
13.832994
 20
95.250538
 30
0.0
 10
13.771297
 20
94.774830
 30
0.0
 10
13.776734
 20
94.317508
 30
0.0
 10
13.828630
 20
93.956018
 30
0.0
 10
14.097819
 20
93.794168
 30
0.0
 10
14.470472
 20
93.705022
 30
0.0
 10
15.075827
 20
93.598193
 30
0.0
 10
15.983602
 20
93.534865
 30
0.0
 10
16.982610
 20
93.465911
 30
0.0
 10
17.984351
 20
93.426465
 30
0.0
 10
19.098922
 20
93.446396
 30
0.0
 10
20.585053
 20
93.420157
 30
0.0
 10
22.818788
 20
93.386335
 30
0.0
 10
25.974095
 20
93.332523
 30
0.0
 10
30.149470
 20
93.281328
 30
0.0
 10
36.070209
 20
93.199411
 30
0.0
 10
44.861670
 20
93.199048
 30
0.0
 10
56.163332
 20
93.214930
 30
0.0
 10
64.672505
 20
93.261715
 30
0.0
 10
68.858430
 20
93.284730
 30
0.0
 11
27.629573
 21
128.146972
 31
0.0
 11
27.644064
 21
126.667478
 31
0.0
 11
27.676979
 21
125.009314
 31
0.0
 11
27.713850
 21
123.900885
 31
0.0
 11
27.727264
 21
123.520311
 31
0.0
 11
27.743561
 21
122.849114
 31
0.0
 11
27.759225
 21
122.032605
 31
0.0
 11
27.803758
 21
119.827197
 31
0.0
 11
27.848442
 21
118.515588
 31
0.0
 11
27.894675
 21
118.056015
 31
0.0
 11
28.025223
 21
118.029123
 31
0.0
 11
28.241332
 21
118.038482
 31
0.0
 11
28.420095
 21
118.078740
 31
0.0
 11
28.498789
 21
118.005628
 31
0.0
 11
28.540358
 21
117.439122
 31
0.0
 11
28.572398
 21
116.003145
 31
0.0
 11
28.600264
 21
114.295416
 31
0.0
 11
28.599631
 21
113.524731
 31
0.0
 11
28.570148
 21
113.320957
 31
0.0
 11
28.027689
 21
113.299716
 31
0.0
 11
26.639526
 21
113.277974
 31
0.0
 11
24.706208
 21
113.260432
 31
0.0
 11
22.070215
 21
113.239107
 31
0.0
 11
20.936678
 21
113.208878
 31
0.0
 11
20.495490
 21
113.148142
 31
0.0
 11
19.834352
 21
112.952413
 31
0.0
 11
19.385328
 21
112.706137
 31
0.0
 11
19.108020
 21
112.387162
 31
0.0
 11
18.422614
 21
110.560656
 31
0.0
 11
17.260571
 21
107.101069
 31
0.0
 11
16.165170
 21
103.625812
 31
0.0
 11
15.713892
 21
102.147000
 31
0.0
 11
15.076851
 21
100.088797
 31
0.0
 11
14.484653
 21
98.196270
 31
0.0
 11
14.217501
 21
97.326432
 31
0.0
 11
14.071689
 21
96.773125
 31
0.0
 11
13.997903
 21
96.349222
 31
0.0
 11
13.953353
 21
96.022911
 31
0.0
 11
13.900257
 21
95.662474
 31
0.0
 11
13.850093
 21
95.345947
 31
0.0
 11
13.782037
 21
94.736607
 31
0.0
 11
13.791808
 21
94.247181
 31
0.0
 11
13.877843
 21
93.955965
 31
0.0
 11
14.054179
 21
93.829815
 31
0.0
 11
14.403584
 21
93.723950
 31
0.0
 11
14.971425
 21
93.624630
 31
0.0
 11
15.863058
 21
93.543366
 31
0.0
 11
17.118265
 21
93.463957
 31
0.0
 11
17.969078
 21
93.434977
 31
0.0
 11
18.866411
 21
93.438411
 31
0.0
 11
20.461089
 21
93.422944
 31
0.0
 11
22.427468
 21
93.391777
 31
0.0
 11
25.567817
 21
93.341553
 31
0.0
 11
29.927248
 21
93.282990
 31
0.0
 11
34.953428
 21
93.223530
 31
0.0
 11
43.330755
 21
93.200697
 31
0.0
 11
56.300643
 21
93.224113
 31
0.0
 11
68.858430
 21
93.284730
 31
0.0
  0
LWPOLYLINE
  5
20e
100
AcDbEntity
  8
Edge.Cuts
 62
1
100
AcDbPolyline
 90
2
 70
0
 10
68.858430
 20
93.284730
 30
0.0
 10
68.859008
 20
93.284985
 30
0.0
  0
SPLINE
  5
20f
100
AcDbEntity
  8
Edge.Cuts
 62
1
100
AcDbSpline
 70
0
 71
3
 72
19
 73
15
 74
13
 40
0.000000
 40
0.000000
 40
0.000000
 40
0.000000
 40
0.022502
 40
0.039175
 40
0.059105
 40
0.082508
 40
0.104736
 40
0.126980
 40
0.148505
 40
0.165178
 40
0.176287
 40
0.190547
 40
0.212775
 40
0.239363
 40
0.239363
 40
0.239363
 40
0.239363
 10
30.983865
 20
148.549620
 30
0.0
 10
30.980191
 20
148.556538
 30
0.0
 10
30.973794
 20
148.568583
 30
0.0
 10
30.982362
 20
148.589579
 30
0.0
 10
31.004211
 20
148.593717
 30
0.0
 10
31.025711
 20
148.588169
 30
0.0
 10
31.043366
 20
148.572123
 30
0.0
 10
31.049168
 20
148.549783
 30
0.0
 10
31.045842
 20
148.529753
 30
0.0
 10
31.041010
 20
148.513831
 30
0.0
 10
31.027905
 20
148.504279
 30
0.0
 10
31.012856
 20
148.514744
 30
0.0
 10
30.998264
 20
148.528612
 30
0.0
 10
30.988942
 20
148.542212
 30
0.0
 10
30.983865
 20
148.549620
 30
0.0
 11
30.983865
 21
148.549620
 31
0.0
 11
30.976826
 21
148.570992
 31
0.0
 11
30.983554
 21
148.586248
 31
0.0
 11
31.002615
 21
148.592070
 31
0.0
 11
31.025282
 21
148.586248
 31
0.0
 11
31.041448
 21
148.570992
 31
0.0
 11
31.047615
 21
148.549620
 31
0.0
 11
31.045054
 21
148.528248
 31
0.0
 11
31.038326
 21
148.512992
 31
0.0
 11
31.028865
 21
148.507170
 31
0.0
 11
31.015848
 21
148.512992
 31
0.0
 11
30.999682
 21
148.528248
 31
0.0
 11
30.983865
 21
148.549620
 31
0.0
  0
LWPOLYLINE
  5
210
100
AcDbEntity
  8
Edge.Cuts
 62
1
100
AcDbPolyline
 90
1
 70
1
 10
30.983865
 20
148.549620
 30
0.0
  0
SPLINE
  5
211
100
AcDbEntity
  8
Edge.Cuts
 62
1
100
AcDbSpline
 70
0
 71
3
 72
19
 73
15
 74
13
 40
0.000000
 40
0.000000
 40
0.000000
 40
0.000000
 40
0.023217
 40
0.051475
 40
0.085348
 40
0.115644
 40
0.136597
 40
0.158363
 40
0.186752
 40
0.215024
 40
0.239464
 40
0.260419
 40
0.281373
 40
0.303437
 40
0.303437
 40
0.303437
 40
0.303437
 10
28.202722
 20
117.850440
 30
0.0
 10
28.200481
 20
117.858136
 30
0.0
 10
28.195511
 20
117.875199
 30
0.0
 10
28.168159
 20
117.889508
 30
0.0
 10
28.137879
 20
117.894227
 30
0.0
 10
28.108996
 20
117.891340
 30
0.0
 10
28.088057
 20
117.872738
 30
0.0
 10
28.096125
 20
117.846786
 30
0.0
 10
28.114564
 20
117.828433
 30
0.0
 10
28.137150
 20
117.813231
 30
0.0
 10
28.161524
 20
117.805736
 30
0.0
 10
28.183832
 20
117.812138
 30
0.0
 10
28.199512
 20
117.828532
 30
0.0
 10
28.201634
 20
117.843013
 30
0.0
 10
28.202722
 20
117.850440
 30
0.0
 11
28.202722
 21
117.850440
 31
0.0
 11
28.193653
 21
117.871812
 31
0.0
 11
28.169867
 21
117.887068
 31
0.0
 11
28.136497
 21
117.892890
 31
0.0
 11
28.106767
 21
117.887068
 31
0.0
 11
28.092403
 21
117.871812
 31
0.0
 11
28.096522
 21
117.850440
 31
0.0
 11
28.115209
 21
117.829068
 31
0.0
 11
28.139011
 21
117.813812
 31
0.0
 11
28.162747
 21
117.807990
 31
0.0
 11
28.182878
 21
117.813812
 31
0.0
 11
28.197242
 21
117.829068
 31
0.0
 11
28.202722
 21
117.850440
 31
0.0
  0
LWPOLYLINE
  5
212
100
AcDbEntity
  8
Edge.Cuts
 62
1
100
AcDbPolyline
 90
1
 70
1
 10
28.202722
 20
117.850440
 30
0.0
  0
ENDSEC
  0
SECTION
  2
OBJECTS
  0
DICTIONARY
  5
C
330
0
100
AcDbDictionary
  3
ACAD_GROUP
350
D
  3
ACAD_MLINESTYLE
350
17
  0
DICTIONARY
  5
D
330
C
100
AcDbDictionary
  0
DICTIONARY
  5
1A
330
C
100
AcDbDictionary
  0
DICTIONARY
  5
17
330
C
100
AcDbDictionary
  3
STANDARD
350
18
  0
DICTIONARY
  5
19
330
C
100
AcDbDictionary
  0
ENDSEC
  0
EOF
