G04 #@! TF.FileFunction,Legend,Bot*
%FSLAX46Y46*%
G04 Gerber Fmt 4.6, Leading zero omitted, Abs format (unit mm)*
G04 Created by KiCad (PCBNEW 4.0.6) date 10/16/17 12:02:40*
%MOMM*%
%LPD*%
G01*
G04 APERTURE LIST*
%ADD10C,0.100000*%
%ADD11C,0.150000*%
%ADD12C,0.120000*%
%ADD13C,0.200000*%
%ADD14C,0.254000*%
%ADD15C,0.500000*%
%ADD16C,0.381000*%
%ADD17C,0.127000*%
%ADD18C,0.099060*%
%ADD19C,0.304800*%
%ADD20C,0.149860*%
G04 APERTURE END LIST*
D10*
D11*
X160050000Y-89150000D02*
X130050000Y-89150000D01*
X160050000Y-119150000D02*
X160050000Y-89150000D01*
X130050000Y-119150000D02*
X160050000Y-119150000D01*
X130050000Y-89150000D02*
X130050000Y-119150000D01*
X159650000Y-119850000D02*
X169050000Y-110450000D01*
D12*
X174300000Y-128150000D02*
X175000000Y-128150000D01*
X175000000Y-126950000D02*
X174300000Y-126950000D01*
X168000000Y-116650000D02*
X167300000Y-116650000D01*
X167300000Y-117850000D02*
X168000000Y-117850000D01*
X168000000Y-114950000D02*
X167300000Y-114950000D01*
X167300000Y-116150000D02*
X168000000Y-116150000D01*
X174000000Y-110950000D02*
X173300000Y-110950000D01*
X173300000Y-112150000D02*
X174000000Y-112150000D01*
X171000000Y-129950000D02*
X170300000Y-129950000D01*
X170300000Y-131150000D02*
X171000000Y-131150000D01*
X166300000Y-73950000D02*
X167000000Y-73950000D01*
X167000000Y-72750000D02*
X166300000Y-72750000D01*
X166700000Y-64750000D02*
X167400000Y-64750000D01*
X167400000Y-63550000D02*
X166700000Y-63550000D01*
X166700000Y-66350000D02*
X167400000Y-66350000D01*
X167400000Y-65150000D02*
X166700000Y-65150000D01*
X166700000Y-67750000D02*
X167400000Y-67750000D01*
X167400000Y-66550000D02*
X166700000Y-66550000D01*
X157850000Y-85200000D02*
X157850000Y-84500000D01*
X156650000Y-84500000D02*
X156650000Y-85200000D01*
X160550000Y-66000000D02*
X160550000Y-65300000D01*
X159350000Y-65300000D02*
X159350000Y-66000000D01*
X154400000Y-87150000D02*
X153700000Y-87150000D01*
X153700000Y-88350000D02*
X154400000Y-88350000D01*
X154200000Y-79650000D02*
X153500000Y-79650000D01*
X153500000Y-80850000D02*
X154200000Y-80850000D01*
X161550000Y-67320000D02*
X161550000Y-66180000D01*
X161550000Y-66180000D02*
X163650000Y-66180000D01*
X161550000Y-67320000D02*
X163650000Y-67320000D01*
X172255000Y-68255000D02*
X172255000Y-69355000D01*
X172255000Y-69355000D02*
X169655000Y-69355000D01*
X172255000Y-68255000D02*
X169655000Y-68255000D01*
D13*
X181300000Y-112750000D02*
X169700000Y-112750000D01*
X169700000Y-112750000D02*
X169700000Y-125250000D01*
X169700000Y-125250000D02*
X181300000Y-125250000D01*
X181300000Y-125250000D02*
X181300000Y-112750000D01*
D14*
X171112000Y-112238000D02*
G75*
G03X171112000Y-112238000I-45000J0D01*
G01*
D12*
X162710000Y-69690000D02*
X162710000Y-71490000D01*
X159490000Y-71490000D02*
X159490000Y-69040000D01*
D11*
X179100000Y-133000000D02*
G75*
G03X179100000Y-133000000I-100000J0D01*
G01*
X180000000Y-133000000D02*
G75*
G03X180000000Y-133000000I-1000000J0D01*
G01*
X177700000Y-132000000D02*
X177700000Y-134000000D01*
X180000000Y-131700000D02*
X178000000Y-131700000D01*
X180300000Y-134000000D02*
X180300000Y-132000000D01*
X178000000Y-134300000D02*
X180000000Y-134300000D01*
X177700000Y-132000000D02*
G75*
G02X178000000Y-131700000I300000J0D01*
G01*
X180000000Y-131700000D02*
G75*
G02X180300000Y-132000000I0J-300000D01*
G01*
X180300000Y-134000000D02*
G75*
G02X180000000Y-134300000I-300000J0D01*
G01*
X178000000Y-134300000D02*
G75*
G02X177700000Y-134000000I0J300000D01*
G01*
D12*
X183030000Y-119810000D02*
X183030000Y-120810000D01*
X184390000Y-120810000D02*
X184390000Y-119810000D01*
X184390000Y-124620000D02*
X184390000Y-123620000D01*
X183030000Y-123620000D02*
X183030000Y-124620000D01*
X172970000Y-131050000D02*
X172970000Y-132050000D01*
X174330000Y-132050000D02*
X174330000Y-131050000D01*
X168150000Y-118170000D02*
X167150000Y-118170000D01*
X167150000Y-119530000D02*
X168150000Y-119530000D01*
X163150000Y-65030000D02*
X164150000Y-65030000D01*
X164150000Y-63670000D02*
X163150000Y-63670000D01*
X157680000Y-70400000D02*
X157680000Y-69400000D01*
X156320000Y-69400000D02*
X156320000Y-70400000D01*
X135350000Y-67670000D02*
X134350000Y-67670000D01*
X134350000Y-69030000D02*
X135350000Y-69030000D01*
X131050000Y-67670000D02*
X130050000Y-67670000D01*
X130050000Y-69030000D02*
X131050000Y-69030000D01*
X168990000Y-131200000D02*
X162870000Y-131200000D01*
X162870000Y-131200000D02*
X162870000Y-134820000D01*
X162870000Y-134820000D02*
X168990000Y-134820000D01*
X168990000Y-134820000D02*
X168990000Y-131200000D01*
D11*
X159925000Y-88175000D02*
X159925000Y-87750000D01*
X167175000Y-88175000D02*
X167175000Y-87650000D01*
X167175000Y-80925000D02*
X167175000Y-81450000D01*
X159925000Y-80925000D02*
X159925000Y-81450000D01*
X159925000Y-88175000D02*
X160450000Y-88175000D01*
X159925000Y-80925000D02*
X160450000Y-80925000D01*
X167175000Y-80925000D02*
X166650000Y-80925000D01*
X167175000Y-88175000D02*
X166650000Y-88175000D01*
X159925000Y-87750000D02*
X158550000Y-87750000D01*
D15*
X95179981Y-75094000D02*
G75*
G03X95179981Y-75094000I-283981J0D01*
G01*
D11*
X94750000Y-94000000D02*
X94750000Y-76000000D01*
X88750000Y-76000000D02*
X114250000Y-76000000D01*
X88750000Y-94000000D02*
X114250000Y-94000000D01*
X114250000Y-94000000D02*
X114250000Y-76000000D01*
X88750000Y-94000000D02*
X88750000Y-76000000D01*
D12*
X163170000Y-71420000D02*
X163170000Y-69620000D01*
X166390000Y-69620000D02*
X166390000Y-72070000D01*
D11*
X156250000Y-81650000D02*
G75*
G02X155950000Y-81350000I0J300000D01*
G01*
X155950000Y-86350000D02*
G75*
G02X156250000Y-86050000I300000J0D01*
G01*
X156250000Y-86050000D02*
X156250000Y-81650000D01*
X155150000Y-86350000D02*
X155950000Y-86350000D01*
X155150000Y-81350000D02*
X155950000Y-81350000D01*
X154250000Y-81550000D02*
X155050000Y-81550000D01*
X154250000Y-81550000D02*
X154150000Y-81350000D01*
X155050000Y-81550000D02*
X155150000Y-81350000D01*
X153350000Y-81350000D02*
X154150000Y-81350000D01*
X153350000Y-81350000D02*
G75*
G02X153050000Y-81650000I-300000J0D01*
G01*
X153050000Y-86050000D02*
X153050000Y-81650000D01*
X153350000Y-86350000D02*
X154150000Y-86350000D01*
X153050000Y-86050000D02*
G75*
G02X153350000Y-86350000I0J-300000D01*
G01*
X154150000Y-86350000D02*
X154250000Y-86150000D01*
X155150000Y-86350000D02*
X155050000Y-86150000D01*
X154250000Y-86150000D02*
X155050000Y-86150000D01*
D12*
X108600000Y-71350000D02*
X108600000Y-70650000D01*
X107400000Y-70650000D02*
X107400000Y-71350000D01*
X162400000Y-91650000D02*
X162400000Y-92350000D01*
X163600000Y-92350000D02*
X163600000Y-91650000D01*
X170100000Y-81200000D02*
X170800000Y-81200000D01*
X170800000Y-80000000D02*
X170100000Y-80000000D01*
X165365000Y-93720000D02*
X165365000Y-92620000D01*
X165365000Y-92620000D02*
X167965000Y-92620000D01*
X165365000Y-93720000D02*
X167965000Y-93720000D01*
D16*
X141098220Y-79402220D02*
X141098220Y-71901600D01*
X133097220Y-71901600D02*
X133097220Y-79402220D01*
X133097220Y-71901600D02*
X133498540Y-71901600D01*
X133297880Y-73402740D02*
X133297880Y-71901600D01*
X133498540Y-71901600D02*
X133498540Y-73402740D01*
X140897560Y-71901600D02*
X140897560Y-73402740D01*
X140696900Y-73402740D02*
X140696900Y-71901600D01*
X140696900Y-71901600D02*
X141098220Y-71901600D01*
X137598100Y-79402220D02*
X137598100Y-78401460D01*
X137598100Y-78401460D02*
X136597340Y-78401460D01*
X136597340Y-78401460D02*
X136597340Y-79402220D01*
X139096700Y-73402740D02*
X139096700Y-77901080D01*
X139096700Y-77901080D02*
X139797740Y-77901080D01*
X139797740Y-77901080D02*
X139797740Y-73402740D01*
X135098740Y-73402740D02*
X135098740Y-77901080D01*
X135098740Y-77901080D02*
X134397700Y-77901080D01*
X134397700Y-77901080D02*
X134397700Y-73402740D01*
X141098220Y-79402220D02*
X133097220Y-79402220D01*
X133097220Y-73402740D02*
X141098220Y-73402740D01*
X138398200Y-79402220D02*
X138697920Y-79402220D01*
D17*
X151668800Y-72537000D02*
X155631200Y-72537000D01*
X155631200Y-72537000D02*
X155631200Y-77363000D01*
X155631200Y-77363000D02*
X151668800Y-77363000D01*
X151668800Y-77363000D02*
X151668800Y-72537000D01*
X151668800Y-73045000D02*
X150576600Y-73045000D01*
X151668800Y-74315000D02*
X150576600Y-74315000D01*
X151668800Y-75585000D02*
X150576600Y-75585000D01*
X150576600Y-76855000D02*
X151668800Y-76855000D01*
X155631200Y-76855000D02*
X156723400Y-76855000D01*
X156723400Y-75585000D02*
X155631200Y-75585000D01*
X156723400Y-74315000D02*
X155631200Y-74315000D01*
X156723400Y-73045000D02*
X155631200Y-73045000D01*
X155367067Y-73273600D02*
G75*
G03X155367067Y-73273600I-472467J0D01*
G01*
D12*
X118890000Y-95130000D02*
X118890000Y-94200000D01*
X118890000Y-91970000D02*
X118890000Y-92900000D01*
X118890000Y-91970000D02*
X121050000Y-91970000D01*
X118890000Y-95130000D02*
X120350000Y-95130000D01*
X118890000Y-91130000D02*
X118890000Y-90200000D01*
X118890000Y-87970000D02*
X118890000Y-88900000D01*
X118890000Y-87970000D02*
X121050000Y-87970000D01*
X118890000Y-91130000D02*
X120350000Y-91130000D01*
X170150000Y-72830000D02*
X171150000Y-72830000D01*
X171150000Y-71470000D02*
X170150000Y-71470000D01*
X98600000Y-71320000D02*
X97600000Y-71320000D01*
X97600000Y-72680000D02*
X98600000Y-72680000D01*
X172745000Y-92490000D02*
X171745000Y-92490000D01*
X171745000Y-93850000D02*
X172745000Y-93850000D01*
X155630000Y-70400000D02*
X155630000Y-69400000D01*
X154270000Y-69400000D02*
X154270000Y-70400000D01*
X121970000Y-91050000D02*
X121970000Y-92050000D01*
X123330000Y-92050000D02*
X123330000Y-91050000D01*
X125330000Y-92050000D02*
X125330000Y-91050000D01*
X123970000Y-91050000D02*
X123970000Y-92050000D01*
X106810000Y-70060000D02*
X106810000Y-63940000D01*
X106810000Y-63940000D02*
X103190000Y-63940000D01*
X103190000Y-63940000D02*
X103190000Y-70060000D01*
X103190000Y-70060000D02*
X106810000Y-70060000D01*
D11*
X172900000Y-75000000D02*
X172375000Y-75000000D01*
X168600000Y-79300000D02*
X169125000Y-79300000D01*
X168600000Y-75000000D02*
X169125000Y-75000000D01*
X172900000Y-79300000D02*
X172900000Y-78775000D01*
X168600000Y-79300000D02*
X168600000Y-78775000D01*
X168600000Y-75000000D02*
X168600000Y-75525000D01*
X172900000Y-75000000D02*
X172900000Y-75525000D01*
D12*
X181650000Y-130600000D02*
X182350000Y-130600000D01*
X182350000Y-129400000D02*
X181650000Y-129400000D01*
X181650000Y-127600000D02*
X182350000Y-127600000D01*
X182350000Y-126400000D02*
X181650000Y-126400000D01*
X178320000Y-128000000D02*
X178320000Y-129000000D01*
X179680000Y-129000000D02*
X179680000Y-128000000D01*
X167260000Y-126660000D02*
X167260000Y-124060000D01*
X167260000Y-124060000D02*
X162060000Y-124060000D01*
X162060000Y-124060000D02*
X162060000Y-129260000D01*
X162060000Y-129260000D02*
X164660000Y-129260000D01*
X164660000Y-129260000D02*
X164660000Y-126660000D01*
X164660000Y-126660000D02*
X167260000Y-126660000D01*
X167260000Y-127930000D02*
X167260000Y-129260000D01*
X167260000Y-129260000D02*
X165990000Y-129260000D01*
X137170000Y-60880000D02*
X129490000Y-60880000D01*
X129490000Y-60880000D02*
X129490000Y-58220000D01*
X129490000Y-58220000D02*
X137170000Y-58220000D01*
X137170000Y-58220000D02*
X137170000Y-60880000D01*
X138440000Y-60880000D02*
X139770000Y-60880000D01*
X139770000Y-60880000D02*
X139770000Y-59550000D01*
X173040000Y-88360000D02*
X173040000Y-87980000D01*
X177090000Y-88360000D02*
X177350000Y-88360000D01*
X173040000Y-88360000D02*
X174810000Y-88360000D01*
X173040000Y-80740000D02*
X173040000Y-81120000D01*
X174810000Y-80740000D02*
X173040000Y-80740000D01*
X177350000Y-80740000D02*
X177090000Y-80740000D01*
X161970000Y-121080000D02*
X161970000Y-122080000D01*
X163330000Y-122080000D02*
X163330000Y-121080000D01*
X163670000Y-121080000D02*
X163670000Y-122080000D01*
X165030000Y-122080000D02*
X165030000Y-121080000D01*
X128500000Y-73320000D02*
X127500000Y-73320000D01*
X127500000Y-74680000D02*
X128500000Y-74680000D01*
X128500000Y-71320000D02*
X127500000Y-71320000D01*
X127500000Y-72680000D02*
X128500000Y-72680000D01*
D11*
X174816666Y-129157143D02*
X174864285Y-129204762D01*
X175007142Y-129252381D01*
X175102380Y-129252381D01*
X175245238Y-129204762D01*
X175340476Y-129109524D01*
X175388095Y-129014286D01*
X175435714Y-128823810D01*
X175435714Y-128680952D01*
X175388095Y-128490476D01*
X175340476Y-128395238D01*
X175245238Y-128300000D01*
X175102380Y-128252381D01*
X175007142Y-128252381D01*
X174864285Y-128300000D01*
X174816666Y-128347619D01*
X173864285Y-129252381D02*
X174435714Y-129252381D01*
X174150000Y-129252381D02*
X174150000Y-128252381D01*
X174245238Y-128395238D01*
X174340476Y-128490476D01*
X174435714Y-128538095D01*
X167816666Y-116357143D02*
X167864285Y-116404762D01*
X168007142Y-116452381D01*
X168102380Y-116452381D01*
X168245238Y-116404762D01*
X168340476Y-116309524D01*
X168388095Y-116214286D01*
X168435714Y-116023810D01*
X168435714Y-115880952D01*
X168388095Y-115690476D01*
X168340476Y-115595238D01*
X168245238Y-115500000D01*
X168102380Y-115452381D01*
X168007142Y-115452381D01*
X167864285Y-115500000D01*
X167816666Y-115547619D01*
X167435714Y-115547619D02*
X167388095Y-115500000D01*
X167292857Y-115452381D01*
X167054761Y-115452381D01*
X166959523Y-115500000D01*
X166911904Y-115547619D01*
X166864285Y-115642857D01*
X166864285Y-115738095D01*
X166911904Y-115880952D01*
X167483333Y-116452381D01*
X166864285Y-116452381D01*
X167816666Y-114657143D02*
X167864285Y-114704762D01*
X168007142Y-114752381D01*
X168102380Y-114752381D01*
X168245238Y-114704762D01*
X168340476Y-114609524D01*
X168388095Y-114514286D01*
X168435714Y-114323810D01*
X168435714Y-114180952D01*
X168388095Y-113990476D01*
X168340476Y-113895238D01*
X168245238Y-113800000D01*
X168102380Y-113752381D01*
X168007142Y-113752381D01*
X167864285Y-113800000D01*
X167816666Y-113847619D01*
X167483333Y-113752381D02*
X166864285Y-113752381D01*
X167197619Y-114133333D01*
X167054761Y-114133333D01*
X166959523Y-114180952D01*
X166911904Y-114228571D01*
X166864285Y-114323810D01*
X166864285Y-114561905D01*
X166911904Y-114657143D01*
X166959523Y-114704762D01*
X167054761Y-114752381D01*
X167340476Y-114752381D01*
X167435714Y-114704762D01*
X167483333Y-114657143D01*
X171566666Y-110707143D02*
X171614285Y-110754762D01*
X171757142Y-110802381D01*
X171852380Y-110802381D01*
X171995238Y-110754762D01*
X172090476Y-110659524D01*
X172138095Y-110564286D01*
X172185714Y-110373810D01*
X172185714Y-110230952D01*
X172138095Y-110040476D01*
X172090476Y-109945238D01*
X171995238Y-109850000D01*
X171852380Y-109802381D01*
X171757142Y-109802381D01*
X171614285Y-109850000D01*
X171566666Y-109897619D01*
X170709523Y-110135714D02*
X170709523Y-110802381D01*
X170947619Y-109754762D02*
X171185714Y-110469048D01*
X170566666Y-110469048D01*
X170816666Y-129657143D02*
X170864285Y-129704762D01*
X171007142Y-129752381D01*
X171102380Y-129752381D01*
X171245238Y-129704762D01*
X171340476Y-129609524D01*
X171388095Y-129514286D01*
X171435714Y-129323810D01*
X171435714Y-129180952D01*
X171388095Y-128990476D01*
X171340476Y-128895238D01*
X171245238Y-128800000D01*
X171102380Y-128752381D01*
X171007142Y-128752381D01*
X170864285Y-128800000D01*
X170816666Y-128847619D01*
X169911904Y-128752381D02*
X170388095Y-128752381D01*
X170435714Y-129228571D01*
X170388095Y-129180952D01*
X170292857Y-129133333D01*
X170054761Y-129133333D01*
X169959523Y-129180952D01*
X169911904Y-129228571D01*
X169864285Y-129323810D01*
X169864285Y-129561905D01*
X169911904Y-129657143D01*
X169959523Y-129704762D01*
X170054761Y-129752381D01*
X170292857Y-129752381D01*
X170388095Y-129704762D01*
X170435714Y-129657143D01*
X166816666Y-74957143D02*
X166864285Y-75004762D01*
X167007142Y-75052381D01*
X167102380Y-75052381D01*
X167245238Y-75004762D01*
X167340476Y-74909524D01*
X167388095Y-74814286D01*
X167435714Y-74623810D01*
X167435714Y-74480952D01*
X167388095Y-74290476D01*
X167340476Y-74195238D01*
X167245238Y-74100000D01*
X167102380Y-74052381D01*
X167007142Y-74052381D01*
X166864285Y-74100000D01*
X166816666Y-74147619D01*
X165959523Y-74052381D02*
X166150000Y-74052381D01*
X166245238Y-74100000D01*
X166292857Y-74147619D01*
X166388095Y-74290476D01*
X166435714Y-74480952D01*
X166435714Y-74861905D01*
X166388095Y-74957143D01*
X166340476Y-75004762D01*
X166245238Y-75052381D01*
X166054761Y-75052381D01*
X165959523Y-75004762D01*
X165911904Y-74957143D01*
X165864285Y-74861905D01*
X165864285Y-74623810D01*
X165911904Y-74528571D01*
X165959523Y-74480952D01*
X166054761Y-74433333D01*
X166245238Y-74433333D01*
X166340476Y-74480952D01*
X166388095Y-74528571D01*
X166435714Y-74623810D01*
X167216666Y-65757143D02*
X167264285Y-65804762D01*
X167407142Y-65852381D01*
X167502380Y-65852381D01*
X167645238Y-65804762D01*
X167740476Y-65709524D01*
X167788095Y-65614286D01*
X167835714Y-65423810D01*
X167835714Y-65280952D01*
X167788095Y-65090476D01*
X167740476Y-64995238D01*
X167645238Y-64900000D01*
X167502380Y-64852381D01*
X167407142Y-64852381D01*
X167264285Y-64900000D01*
X167216666Y-64947619D01*
X166883333Y-64852381D02*
X166216666Y-64852381D01*
X166645238Y-65852381D01*
X167216666Y-67357143D02*
X167264285Y-67404762D01*
X167407142Y-67452381D01*
X167502380Y-67452381D01*
X167645238Y-67404762D01*
X167740476Y-67309524D01*
X167788095Y-67214286D01*
X167835714Y-67023810D01*
X167835714Y-66880952D01*
X167788095Y-66690476D01*
X167740476Y-66595238D01*
X167645238Y-66500000D01*
X167502380Y-66452381D01*
X167407142Y-66452381D01*
X167264285Y-66500000D01*
X167216666Y-66547619D01*
X166645238Y-66880952D02*
X166740476Y-66833333D01*
X166788095Y-66785714D01*
X166835714Y-66690476D01*
X166835714Y-66642857D01*
X166788095Y-66547619D01*
X166740476Y-66500000D01*
X166645238Y-66452381D01*
X166454761Y-66452381D01*
X166359523Y-66500000D01*
X166311904Y-66547619D01*
X166264285Y-66642857D01*
X166264285Y-66690476D01*
X166311904Y-66785714D01*
X166359523Y-66833333D01*
X166454761Y-66880952D01*
X166645238Y-66880952D01*
X166740476Y-66928571D01*
X166788095Y-66976190D01*
X166835714Y-67071429D01*
X166835714Y-67261905D01*
X166788095Y-67357143D01*
X166740476Y-67404762D01*
X166645238Y-67452381D01*
X166454761Y-67452381D01*
X166359523Y-67404762D01*
X166311904Y-67357143D01*
X166264285Y-67261905D01*
X166264285Y-67071429D01*
X166311904Y-66976190D01*
X166359523Y-66928571D01*
X166454761Y-66880952D01*
X167216666Y-68757143D02*
X167264285Y-68804762D01*
X167407142Y-68852381D01*
X167502380Y-68852381D01*
X167645238Y-68804762D01*
X167740476Y-68709524D01*
X167788095Y-68614286D01*
X167835714Y-68423810D01*
X167835714Y-68280952D01*
X167788095Y-68090476D01*
X167740476Y-67995238D01*
X167645238Y-67900000D01*
X167502380Y-67852381D01*
X167407142Y-67852381D01*
X167264285Y-67900000D01*
X167216666Y-67947619D01*
X166740476Y-68852381D02*
X166550000Y-68852381D01*
X166454761Y-68804762D01*
X166407142Y-68757143D01*
X166311904Y-68614286D01*
X166264285Y-68423810D01*
X166264285Y-68042857D01*
X166311904Y-67947619D01*
X166359523Y-67900000D01*
X166454761Y-67852381D01*
X166645238Y-67852381D01*
X166740476Y-67900000D01*
X166788095Y-67947619D01*
X166835714Y-68042857D01*
X166835714Y-68280952D01*
X166788095Y-68376190D01*
X166740476Y-68423810D01*
X166645238Y-68471429D01*
X166454761Y-68471429D01*
X166359523Y-68423810D01*
X166311904Y-68376190D01*
X166264285Y-68280952D01*
X158857143Y-84207143D02*
X158904762Y-84159524D01*
X158952381Y-84016667D01*
X158952381Y-83921429D01*
X158904762Y-83778571D01*
X158809524Y-83683333D01*
X158714286Y-83635714D01*
X158523810Y-83588095D01*
X158380952Y-83588095D01*
X158190476Y-83635714D01*
X158095238Y-83683333D01*
X158000000Y-83778571D01*
X157952381Y-83921429D01*
X157952381Y-84016667D01*
X158000000Y-84159524D01*
X158047619Y-84207143D01*
X158952381Y-85159524D02*
X158952381Y-84588095D01*
X158952381Y-84873809D02*
X157952381Y-84873809D01*
X158095238Y-84778571D01*
X158190476Y-84683333D01*
X158238095Y-84588095D01*
X157952381Y-85778571D02*
X157952381Y-85873810D01*
X158000000Y-85969048D01*
X158047619Y-86016667D01*
X158142857Y-86064286D01*
X158333333Y-86111905D01*
X158571429Y-86111905D01*
X158761905Y-86064286D01*
X158857143Y-86016667D01*
X158904762Y-85969048D01*
X158952381Y-85873810D01*
X158952381Y-85778571D01*
X158904762Y-85683333D01*
X158857143Y-85635714D01*
X158761905Y-85588095D01*
X158571429Y-85540476D01*
X158333333Y-85540476D01*
X158142857Y-85588095D01*
X158047619Y-85635714D01*
X158000000Y-85683333D01*
X157952381Y-85778571D01*
X161557143Y-65007143D02*
X161604762Y-64959524D01*
X161652381Y-64816667D01*
X161652381Y-64721429D01*
X161604762Y-64578571D01*
X161509524Y-64483333D01*
X161414286Y-64435714D01*
X161223810Y-64388095D01*
X161080952Y-64388095D01*
X160890476Y-64435714D01*
X160795238Y-64483333D01*
X160700000Y-64578571D01*
X160652381Y-64721429D01*
X160652381Y-64816667D01*
X160700000Y-64959524D01*
X160747619Y-65007143D01*
X161652381Y-65959524D02*
X161652381Y-65388095D01*
X161652381Y-65673809D02*
X160652381Y-65673809D01*
X160795238Y-65578571D01*
X160890476Y-65483333D01*
X160938095Y-65388095D01*
X161652381Y-66911905D02*
X161652381Y-66340476D01*
X161652381Y-66626190D02*
X160652381Y-66626190D01*
X160795238Y-66530952D01*
X160890476Y-66435714D01*
X160938095Y-66340476D01*
X154692857Y-86857143D02*
X154740476Y-86904762D01*
X154883333Y-86952381D01*
X154978571Y-86952381D01*
X155121429Y-86904762D01*
X155216667Y-86809524D01*
X155264286Y-86714286D01*
X155311905Y-86523810D01*
X155311905Y-86380952D01*
X155264286Y-86190476D01*
X155216667Y-86095238D01*
X155121429Y-86000000D01*
X154978571Y-85952381D01*
X154883333Y-85952381D01*
X154740476Y-86000000D01*
X154692857Y-86047619D01*
X153740476Y-86952381D02*
X154311905Y-86952381D01*
X154026191Y-86952381D02*
X154026191Y-85952381D01*
X154121429Y-86095238D01*
X154216667Y-86190476D01*
X154311905Y-86238095D01*
X153359524Y-86047619D02*
X153311905Y-86000000D01*
X153216667Y-85952381D01*
X152978571Y-85952381D01*
X152883333Y-86000000D01*
X152835714Y-86047619D01*
X152788095Y-86142857D01*
X152788095Y-86238095D01*
X152835714Y-86380952D01*
X153407143Y-86952381D01*
X152788095Y-86952381D01*
X154492857Y-79357143D02*
X154540476Y-79404762D01*
X154683333Y-79452381D01*
X154778571Y-79452381D01*
X154921429Y-79404762D01*
X155016667Y-79309524D01*
X155064286Y-79214286D01*
X155111905Y-79023810D01*
X155111905Y-78880952D01*
X155064286Y-78690476D01*
X155016667Y-78595238D01*
X154921429Y-78500000D01*
X154778571Y-78452381D01*
X154683333Y-78452381D01*
X154540476Y-78500000D01*
X154492857Y-78547619D01*
X153540476Y-79452381D02*
X154111905Y-79452381D01*
X153826191Y-79452381D02*
X153826191Y-78452381D01*
X153921429Y-78595238D01*
X154016667Y-78690476D01*
X154111905Y-78738095D01*
X153207143Y-78452381D02*
X152588095Y-78452381D01*
X152921429Y-78833333D01*
X152778571Y-78833333D01*
X152683333Y-78880952D01*
X152635714Y-78928571D01*
X152588095Y-79023810D01*
X152588095Y-79261905D01*
X152635714Y-79357143D01*
X152683333Y-79404762D01*
X152778571Y-79452381D01*
X153064286Y-79452381D01*
X153159524Y-79404762D01*
X153207143Y-79357143D01*
X163588095Y-68602381D02*
X163588095Y-67602381D01*
X163350000Y-67602381D01*
X163207142Y-67650000D01*
X163111904Y-67745238D01*
X163064285Y-67840476D01*
X163016666Y-68030952D01*
X163016666Y-68173810D01*
X163064285Y-68364286D01*
X163111904Y-68459524D01*
X163207142Y-68554762D01*
X163350000Y-68602381D01*
X163588095Y-68602381D01*
X162064285Y-68602381D02*
X162635714Y-68602381D01*
X162350000Y-68602381D02*
X162350000Y-67602381D01*
X162445238Y-67745238D01*
X162540476Y-67840476D01*
X162635714Y-67888095D01*
X171193095Y-67807381D02*
X171193095Y-66807381D01*
X170955000Y-66807381D01*
X170812142Y-66855000D01*
X170716904Y-66950238D01*
X170669285Y-67045476D01*
X170621666Y-67235952D01*
X170621666Y-67378810D01*
X170669285Y-67569286D01*
X170716904Y-67664524D01*
X170812142Y-67759762D01*
X170955000Y-67807381D01*
X171193095Y-67807381D01*
X170240714Y-66902619D02*
X170193095Y-66855000D01*
X170097857Y-66807381D01*
X169859761Y-66807381D01*
X169764523Y-66855000D01*
X169716904Y-66902619D01*
X169669285Y-66997857D01*
X169669285Y-67093095D01*
X169716904Y-67235952D01*
X170288333Y-67807381D01*
X169669285Y-67807381D01*
D14*
X176055824Y-117376848D02*
X174785824Y-117376848D01*
X175934871Y-118707324D02*
X175995348Y-118646848D01*
X176055824Y-118465419D01*
X176055824Y-118344467D01*
X175995348Y-118163039D01*
X175874395Y-118042086D01*
X175753443Y-117981610D01*
X175511538Y-117921134D01*
X175330110Y-117921134D01*
X175088205Y-117981610D01*
X174967252Y-118042086D01*
X174846300Y-118163039D01*
X174785824Y-118344467D01*
X174785824Y-118465419D01*
X174846300Y-118646848D01*
X174906776Y-118707324D01*
X176055824Y-119916848D02*
X176055824Y-119191134D01*
X176055824Y-119553991D02*
X174785824Y-119553991D01*
X174967252Y-119433039D01*
X175088205Y-119312086D01*
X175148681Y-119191134D01*
D11*
X158652381Y-69613810D02*
X157652381Y-69613810D01*
X158557143Y-70661429D02*
X158604762Y-70613810D01*
X158652381Y-70470953D01*
X158652381Y-70375715D01*
X158604762Y-70232857D01*
X158509524Y-70137619D01*
X158414286Y-70090000D01*
X158223810Y-70042381D01*
X158080952Y-70042381D01*
X157890476Y-70090000D01*
X157795238Y-70137619D01*
X157700000Y-70232857D01*
X157652381Y-70375715D01*
X157652381Y-70470953D01*
X157700000Y-70613810D01*
X157747619Y-70661429D01*
X157747619Y-71042381D02*
X157700000Y-71090000D01*
X157652381Y-71185238D01*
X157652381Y-71423334D01*
X157700000Y-71518572D01*
X157747619Y-71566191D01*
X157842857Y-71613810D01*
X157938095Y-71613810D01*
X158080952Y-71566191D01*
X158652381Y-70994762D01*
X158652381Y-71613810D01*
D10*
X179166666Y-134826190D02*
X179166666Y-135183333D01*
X179190476Y-135254762D01*
X179238095Y-135302381D01*
X179309523Y-135326190D01*
X179357142Y-135326190D01*
X178690476Y-134826190D02*
X178928571Y-134826190D01*
X178952381Y-135064286D01*
X178928571Y-135040476D01*
X178880952Y-135016667D01*
X178761905Y-135016667D01*
X178714286Y-135040476D01*
X178690476Y-135064286D01*
X178666667Y-135111905D01*
X178666667Y-135230952D01*
X178690476Y-135278571D01*
X178714286Y-135302381D01*
X178761905Y-135326190D01*
X178880952Y-135326190D01*
X178928571Y-135302381D01*
X178952381Y-135278571D01*
X179678571Y-130026190D02*
X179678571Y-130430952D01*
X179654762Y-130478571D01*
X179630952Y-130502381D01*
X179583333Y-130526190D01*
X179488095Y-130526190D01*
X179440476Y-130502381D01*
X179416667Y-130478571D01*
X179392857Y-130430952D01*
X179392857Y-130026190D01*
X179154761Y-130478571D02*
X179130952Y-130502381D01*
X179154761Y-130526190D01*
X179178571Y-130502381D01*
X179154761Y-130478571D01*
X179154761Y-130526190D01*
X178750000Y-130264286D02*
X178916666Y-130264286D01*
X178916666Y-130526190D02*
X178916666Y-130026190D01*
X178678571Y-130026190D01*
X178250000Y-130526190D02*
X178488095Y-130526190D01*
X178488095Y-130026190D01*
D11*
X185612381Y-120143334D02*
X185136190Y-119810000D01*
X185612381Y-119571905D02*
X184612381Y-119571905D01*
X184612381Y-119952858D01*
X184660000Y-120048096D01*
X184707619Y-120095715D01*
X184802857Y-120143334D01*
X184945714Y-120143334D01*
X185040952Y-120095715D01*
X185088571Y-120048096D01*
X185136190Y-119952858D01*
X185136190Y-119571905D01*
X185612381Y-121095715D02*
X185612381Y-120524286D01*
X185612381Y-120810000D02*
X184612381Y-120810000D01*
X184755238Y-120714762D01*
X184850476Y-120619524D01*
X184898095Y-120524286D01*
X182712381Y-123823334D02*
X182236190Y-123490000D01*
X182712381Y-123251905D02*
X181712381Y-123251905D01*
X181712381Y-123632858D01*
X181760000Y-123728096D01*
X181807619Y-123775715D01*
X181902857Y-123823334D01*
X182045714Y-123823334D01*
X182140952Y-123775715D01*
X182188571Y-123728096D01*
X182236190Y-123632858D01*
X182236190Y-123251905D01*
X181807619Y-124204286D02*
X181760000Y-124251905D01*
X181712381Y-124347143D01*
X181712381Y-124585239D01*
X181760000Y-124680477D01*
X181807619Y-124728096D01*
X181902857Y-124775715D01*
X181998095Y-124775715D01*
X182140952Y-124728096D01*
X182712381Y-124156667D01*
X182712381Y-124775715D01*
X175552381Y-131383334D02*
X175076190Y-131050000D01*
X175552381Y-130811905D02*
X174552381Y-130811905D01*
X174552381Y-131192858D01*
X174600000Y-131288096D01*
X174647619Y-131335715D01*
X174742857Y-131383334D01*
X174885714Y-131383334D01*
X174980952Y-131335715D01*
X175028571Y-131288096D01*
X175076190Y-131192858D01*
X175076190Y-130811905D01*
X174552381Y-131716667D02*
X174552381Y-132335715D01*
X174933333Y-132002381D01*
X174933333Y-132145239D01*
X174980952Y-132240477D01*
X175028571Y-132288096D01*
X175123810Y-132335715D01*
X175361905Y-132335715D01*
X175457143Y-132288096D01*
X175504762Y-132240477D01*
X175552381Y-132145239D01*
X175552381Y-131859524D01*
X175504762Y-131764286D01*
X175457143Y-131716667D01*
X167816666Y-120752381D02*
X168150000Y-120276190D01*
X168388095Y-120752381D02*
X168388095Y-119752381D01*
X168007142Y-119752381D01*
X167911904Y-119800000D01*
X167864285Y-119847619D01*
X167816666Y-119942857D01*
X167816666Y-120085714D01*
X167864285Y-120180952D01*
X167911904Y-120228571D01*
X168007142Y-120276190D01*
X168388095Y-120276190D01*
X166959523Y-120085714D02*
X166959523Y-120752381D01*
X167197619Y-119704762D02*
X167435714Y-120419048D01*
X166816666Y-120419048D01*
X163816666Y-63352381D02*
X164150000Y-62876190D01*
X164388095Y-63352381D02*
X164388095Y-62352381D01*
X164007142Y-62352381D01*
X163911904Y-62400000D01*
X163864285Y-62447619D01*
X163816666Y-62542857D01*
X163816666Y-62685714D01*
X163864285Y-62780952D01*
X163911904Y-62828571D01*
X164007142Y-62876190D01*
X164388095Y-62876190D01*
X162911904Y-62352381D02*
X163388095Y-62352381D01*
X163435714Y-62828571D01*
X163388095Y-62780952D01*
X163292857Y-62733333D01*
X163054761Y-62733333D01*
X162959523Y-62780952D01*
X162911904Y-62828571D01*
X162864285Y-62923810D01*
X162864285Y-63161905D01*
X162911904Y-63257143D01*
X162959523Y-63304762D01*
X163054761Y-63352381D01*
X163292857Y-63352381D01*
X163388095Y-63304762D01*
X163435714Y-63257143D01*
X156002381Y-69733334D02*
X155526190Y-69400000D01*
X156002381Y-69161905D02*
X155002381Y-69161905D01*
X155002381Y-69542858D01*
X155050000Y-69638096D01*
X155097619Y-69685715D01*
X155192857Y-69733334D01*
X155335714Y-69733334D01*
X155430952Y-69685715D01*
X155478571Y-69638096D01*
X155526190Y-69542858D01*
X155526190Y-69161905D01*
X155002381Y-70590477D02*
X155002381Y-70400000D01*
X155050000Y-70304762D01*
X155097619Y-70257143D01*
X155240476Y-70161905D01*
X155430952Y-70114286D01*
X155811905Y-70114286D01*
X155907143Y-70161905D01*
X155954762Y-70209524D01*
X156002381Y-70304762D01*
X156002381Y-70495239D01*
X155954762Y-70590477D01*
X155907143Y-70638096D01*
X155811905Y-70685715D01*
X155573810Y-70685715D01*
X155478571Y-70638096D01*
X155430952Y-70590477D01*
X155383333Y-70495239D01*
X155383333Y-70304762D01*
X155430952Y-70209524D01*
X155478571Y-70161905D01*
X155573810Y-70114286D01*
X135016666Y-70252381D02*
X135350000Y-69776190D01*
X135588095Y-70252381D02*
X135588095Y-69252381D01*
X135207142Y-69252381D01*
X135111904Y-69300000D01*
X135064285Y-69347619D01*
X135016666Y-69442857D01*
X135016666Y-69585714D01*
X135064285Y-69680952D01*
X135111904Y-69728571D01*
X135207142Y-69776190D01*
X135588095Y-69776190D01*
X134683333Y-69252381D02*
X134016666Y-69252381D01*
X134445238Y-70252381D01*
X130716666Y-70252381D02*
X131050000Y-69776190D01*
X131288095Y-70252381D02*
X131288095Y-69252381D01*
X130907142Y-69252381D01*
X130811904Y-69300000D01*
X130764285Y-69347619D01*
X130716666Y-69442857D01*
X130716666Y-69585714D01*
X130764285Y-69680952D01*
X130811904Y-69728571D01*
X130907142Y-69776190D01*
X131288095Y-69776190D01*
X130145238Y-69680952D02*
X130240476Y-69633333D01*
X130288095Y-69585714D01*
X130335714Y-69490476D01*
X130335714Y-69442857D01*
X130288095Y-69347619D01*
X130240476Y-69300000D01*
X130145238Y-69252381D01*
X129954761Y-69252381D01*
X129859523Y-69300000D01*
X129811904Y-69347619D01*
X129764285Y-69442857D01*
X129764285Y-69490476D01*
X129811904Y-69585714D01*
X129859523Y-69633333D01*
X129954761Y-69680952D01*
X130145238Y-69680952D01*
X130240476Y-69728571D01*
X130288095Y-69776190D01*
X130335714Y-69871429D01*
X130335714Y-70061905D01*
X130288095Y-70157143D01*
X130240476Y-70204762D01*
X130145238Y-70252381D01*
X129954761Y-70252381D01*
X129859523Y-70204762D01*
X129811904Y-70157143D01*
X129764285Y-70061905D01*
X129764285Y-69871429D01*
X129811904Y-69776190D01*
X129859523Y-69728571D01*
X129954761Y-69680952D01*
X167024303Y-133175732D02*
X166881446Y-133223351D01*
X166643350Y-133223351D01*
X166548112Y-133175732D01*
X166500493Y-133128113D01*
X166452874Y-133032875D01*
X166452874Y-132937637D01*
X166500493Y-132842399D01*
X166548112Y-132794780D01*
X166643350Y-132747160D01*
X166833827Y-132699541D01*
X166929065Y-132651922D01*
X166976684Y-132604303D01*
X167024303Y-132509065D01*
X167024303Y-132413827D01*
X166976684Y-132318589D01*
X166929065Y-132270970D01*
X166833827Y-132223351D01*
X166595731Y-132223351D01*
X166452874Y-132270970D01*
X166119541Y-132223351D02*
X165881446Y-133223351D01*
X165690969Y-132509065D01*
X165500493Y-133223351D01*
X165262398Y-132223351D01*
X164357636Y-133223351D02*
X164929065Y-133223351D01*
X164643351Y-133223351D02*
X164643351Y-132223351D01*
X164738589Y-132366208D01*
X164833827Y-132461446D01*
X164929065Y-132509065D01*
X164311905Y-90002381D02*
X164311905Y-90811905D01*
X164264286Y-90907143D01*
X164216667Y-90954762D01*
X164121429Y-91002381D01*
X163930952Y-91002381D01*
X163835714Y-90954762D01*
X163788095Y-90907143D01*
X163740476Y-90811905D01*
X163740476Y-90002381D01*
X162740476Y-91002381D02*
X163311905Y-91002381D01*
X163026191Y-91002381D02*
X163026191Y-90002381D01*
X163121429Y-90145238D01*
X163216667Y-90240476D01*
X163311905Y-90288095D01*
X91935381Y-95795095D02*
X92744905Y-95795095D01*
X92840143Y-95842714D01*
X92887762Y-95890333D01*
X92935381Y-95985571D01*
X92935381Y-96176048D01*
X92887762Y-96271286D01*
X92840143Y-96318905D01*
X92744905Y-96366524D01*
X91935381Y-96366524D01*
X91935381Y-96747476D02*
X91935381Y-97366524D01*
X92316333Y-97033190D01*
X92316333Y-97176048D01*
X92363952Y-97271286D01*
X92411571Y-97318905D01*
X92506810Y-97366524D01*
X92744905Y-97366524D01*
X92840143Y-97318905D01*
X92887762Y-97271286D01*
X92935381Y-97176048D01*
X92935381Y-96890333D01*
X92887762Y-96795095D01*
X92840143Y-96747476D01*
X108960430Y-91786571D02*
X108627096Y-91786571D01*
X108484239Y-92310381D02*
X108960430Y-92310381D01*
X108960430Y-91310381D01*
X108484239Y-91310381D01*
X108103287Y-92262762D02*
X108008049Y-92310381D01*
X107817573Y-92310381D01*
X107722334Y-92262762D01*
X107674715Y-92167524D01*
X107674715Y-92119905D01*
X107722334Y-92024667D01*
X107817573Y-91977048D01*
X107960430Y-91977048D01*
X108055668Y-91929429D01*
X108103287Y-91834190D01*
X108103287Y-91786571D01*
X108055668Y-91691333D01*
X107960430Y-91643714D01*
X107817573Y-91643714D01*
X107722334Y-91691333D01*
X107246144Y-91643714D02*
X107246144Y-92643714D01*
X107246144Y-91691333D02*
X107150906Y-91643714D01*
X106960429Y-91643714D01*
X106865191Y-91691333D01*
X106817572Y-91738952D01*
X106769953Y-91834190D01*
X106769953Y-92119905D01*
X106817572Y-92215143D01*
X106865191Y-92262762D01*
X106960429Y-92310381D01*
X107150906Y-92310381D01*
X107246144Y-92262762D01*
X106341382Y-92310381D02*
X106341382Y-91643714D01*
X106341382Y-91834190D02*
X106293763Y-91738952D01*
X106246144Y-91691333D01*
X106150906Y-91643714D01*
X106055667Y-91643714D01*
X105341381Y-92262762D02*
X105436619Y-92310381D01*
X105627096Y-92310381D01*
X105722334Y-92262762D01*
X105769953Y-92167524D01*
X105769953Y-91786571D01*
X105722334Y-91691333D01*
X105627096Y-91643714D01*
X105436619Y-91643714D01*
X105341381Y-91691333D01*
X105293762Y-91786571D01*
X105293762Y-91881810D01*
X105769953Y-91977048D01*
X104912810Y-92262762D02*
X104817572Y-92310381D01*
X104627096Y-92310381D01*
X104531857Y-92262762D01*
X104484238Y-92167524D01*
X104484238Y-92119905D01*
X104531857Y-92024667D01*
X104627096Y-91977048D01*
X104769953Y-91977048D01*
X104865191Y-91929429D01*
X104912810Y-91834190D01*
X104912810Y-91786571D01*
X104865191Y-91691333D01*
X104769953Y-91643714D01*
X104627096Y-91643714D01*
X104531857Y-91691333D01*
X104103286Y-92262762D02*
X104008048Y-92310381D01*
X103817572Y-92310381D01*
X103722333Y-92262762D01*
X103674714Y-92167524D01*
X103674714Y-92119905D01*
X103722333Y-92024667D01*
X103817572Y-91977048D01*
X103960429Y-91977048D01*
X104055667Y-91929429D01*
X104103286Y-91834190D01*
X104103286Y-91786571D01*
X104055667Y-91691333D01*
X103960429Y-91643714D01*
X103817572Y-91643714D01*
X103722333Y-91691333D01*
X103246143Y-92310381D02*
X103246143Y-91643714D01*
X103246143Y-91310381D02*
X103293762Y-91358000D01*
X103246143Y-91405619D01*
X103198524Y-91358000D01*
X103246143Y-91310381D01*
X103246143Y-91405619D01*
X102912810Y-91643714D02*
X102531858Y-91643714D01*
X102769953Y-92310381D02*
X102769953Y-91453238D01*
X102722334Y-91358000D01*
X102627096Y-91310381D01*
X102531858Y-91310381D01*
X101484238Y-92262762D02*
X101341381Y-92310381D01*
X101103285Y-92310381D01*
X101008047Y-92262762D01*
X100960428Y-92215143D01*
X100912809Y-92119905D01*
X100912809Y-92024667D01*
X100960428Y-91929429D01*
X101008047Y-91881810D01*
X101103285Y-91834190D01*
X101293762Y-91786571D01*
X101389000Y-91738952D01*
X101436619Y-91691333D01*
X101484238Y-91596095D01*
X101484238Y-91500857D01*
X101436619Y-91405619D01*
X101389000Y-91358000D01*
X101293762Y-91310381D01*
X101055666Y-91310381D01*
X100912809Y-91358000D01*
X100579476Y-91643714D02*
X100341381Y-92310381D01*
X100103285Y-91643714D02*
X100341381Y-92310381D01*
X100436619Y-92548476D01*
X100484238Y-92596095D01*
X100579476Y-92643714D01*
X99769952Y-92262762D02*
X99674714Y-92310381D01*
X99484238Y-92310381D01*
X99388999Y-92262762D01*
X99341380Y-92167524D01*
X99341380Y-92119905D01*
X99388999Y-92024667D01*
X99484238Y-91977048D01*
X99627095Y-91977048D01*
X99722333Y-91929429D01*
X99769952Y-91834190D01*
X99769952Y-91786571D01*
X99722333Y-91691333D01*
X99627095Y-91643714D01*
X99484238Y-91643714D01*
X99388999Y-91691333D01*
X99055666Y-91643714D02*
X98674714Y-91643714D01*
X98912809Y-91310381D02*
X98912809Y-92167524D01*
X98865190Y-92262762D01*
X98769952Y-92310381D01*
X98674714Y-92310381D01*
X97960427Y-92262762D02*
X98055665Y-92310381D01*
X98246142Y-92310381D01*
X98341380Y-92262762D01*
X98388999Y-92167524D01*
X98388999Y-91786571D01*
X98341380Y-91691333D01*
X98246142Y-91643714D01*
X98055665Y-91643714D01*
X97960427Y-91691333D01*
X97912808Y-91786571D01*
X97912808Y-91881810D01*
X98388999Y-91977048D01*
X97484237Y-92310381D02*
X97484237Y-91643714D01*
X97484237Y-91738952D02*
X97436618Y-91691333D01*
X97341380Y-91643714D01*
X97198522Y-91643714D01*
X97103284Y-91691333D01*
X97055665Y-91786571D01*
X97055665Y-92310381D01*
X97055665Y-91786571D02*
X97008046Y-91691333D01*
X96912808Y-91643714D01*
X96769951Y-91643714D01*
X96674713Y-91691333D01*
X96627094Y-91786571D01*
X96627094Y-92310381D01*
X96198523Y-92262762D02*
X96103285Y-92310381D01*
X95912809Y-92310381D01*
X95817570Y-92262762D01*
X95769951Y-92167524D01*
X95769951Y-92119905D01*
X95817570Y-92024667D01*
X95912809Y-91977048D01*
X96055666Y-91977048D01*
X96150904Y-91929429D01*
X96198523Y-91834190D01*
X96198523Y-91786571D01*
X96150904Y-91691333D01*
X96055666Y-91643714D01*
X95912809Y-91643714D01*
X95817570Y-91691333D01*
X106698381Y-90135571D02*
X106365047Y-90135571D01*
X106222190Y-90659381D02*
X106698381Y-90659381D01*
X106698381Y-89659381D01*
X106222190Y-89659381D01*
X105841238Y-90611762D02*
X105698381Y-90659381D01*
X105460285Y-90659381D01*
X105365047Y-90611762D01*
X105317428Y-90564143D01*
X105269809Y-90468905D01*
X105269809Y-90373667D01*
X105317428Y-90278429D01*
X105365047Y-90230810D01*
X105460285Y-90183190D01*
X105650762Y-90135571D01*
X105746000Y-90087952D01*
X105793619Y-90040333D01*
X105841238Y-89945095D01*
X105841238Y-89849857D01*
X105793619Y-89754619D01*
X105746000Y-89707000D01*
X105650762Y-89659381D01*
X105412666Y-89659381D01*
X105269809Y-89707000D01*
X104841238Y-90659381D02*
X104841238Y-89659381D01*
X104460285Y-89659381D01*
X104365047Y-89707000D01*
X104317428Y-89754619D01*
X104269809Y-89849857D01*
X104269809Y-89992714D01*
X104317428Y-90087952D01*
X104365047Y-90135571D01*
X104460285Y-90183190D01*
X104841238Y-90183190D01*
X103936476Y-89659381D02*
X103317428Y-89659381D01*
X103650762Y-90040333D01*
X103507904Y-90040333D01*
X103412666Y-90087952D01*
X103365047Y-90135571D01*
X103317428Y-90230810D01*
X103317428Y-90468905D01*
X103365047Y-90564143D01*
X103412666Y-90611762D01*
X103507904Y-90659381D01*
X103793619Y-90659381D01*
X103888857Y-90611762D01*
X103936476Y-90564143D01*
X102936476Y-89754619D02*
X102888857Y-89707000D01*
X102793619Y-89659381D01*
X102555523Y-89659381D01*
X102460285Y-89707000D01*
X102412666Y-89754619D01*
X102365047Y-89849857D01*
X102365047Y-89945095D01*
X102412666Y-90087952D01*
X102984095Y-90659381D01*
X102365047Y-90659381D01*
X101936476Y-90278429D02*
X101174571Y-90278429D01*
X100793619Y-89659381D02*
X100555524Y-90659381D01*
X100365047Y-89945095D01*
X100174571Y-90659381D01*
X99936476Y-89659381D01*
X98984095Y-90659381D02*
X99317429Y-90183190D01*
X99555524Y-90659381D02*
X99555524Y-89659381D01*
X99174571Y-89659381D01*
X99079333Y-89707000D01*
X99031714Y-89754619D01*
X98984095Y-89849857D01*
X98984095Y-89992714D01*
X99031714Y-90087952D01*
X99079333Y-90135571D01*
X99174571Y-90183190D01*
X99555524Y-90183190D01*
X98365048Y-89659381D02*
X98174571Y-89659381D01*
X98079333Y-89707000D01*
X97984095Y-89802238D01*
X97936476Y-89992714D01*
X97936476Y-90326048D01*
X97984095Y-90516524D01*
X98079333Y-90611762D01*
X98174571Y-90659381D01*
X98365048Y-90659381D01*
X98460286Y-90611762D01*
X98555524Y-90516524D01*
X98603143Y-90326048D01*
X98603143Y-89992714D01*
X98555524Y-89802238D01*
X98460286Y-89707000D01*
X98365048Y-89659381D01*
X97317429Y-89659381D02*
X97126952Y-89659381D01*
X97031714Y-89707000D01*
X96936476Y-89802238D01*
X96888857Y-89992714D01*
X96888857Y-90326048D01*
X96936476Y-90516524D01*
X97031714Y-90611762D01*
X97126952Y-90659381D01*
X97317429Y-90659381D01*
X97412667Y-90611762D01*
X97507905Y-90516524D01*
X97555524Y-90326048D01*
X97555524Y-89992714D01*
X97507905Y-89802238D01*
X97412667Y-89707000D01*
X97317429Y-89659381D01*
X96460286Y-90659381D02*
X96460286Y-89659381D01*
X96126952Y-90373667D01*
X95793619Y-89659381D01*
X95793619Y-90659381D01*
X167132381Y-69758095D02*
X167941905Y-69758095D01*
X168037143Y-69805714D01*
X168084762Y-69853333D01*
X168132381Y-69948571D01*
X168132381Y-70139048D01*
X168084762Y-70234286D01*
X168037143Y-70281905D01*
X167941905Y-70329524D01*
X167132381Y-70329524D01*
X167227619Y-70758095D02*
X167180000Y-70805714D01*
X167132381Y-70900952D01*
X167132381Y-71139048D01*
X167180000Y-71234286D01*
X167227619Y-71281905D01*
X167322857Y-71329524D01*
X167418095Y-71329524D01*
X167560952Y-71281905D01*
X168132381Y-70710476D01*
X168132381Y-71329524D01*
D18*
X156377373Y-83446987D02*
X156875213Y-83778880D01*
X156377373Y-83778880D02*
X156875213Y-83446987D01*
X156875213Y-84229307D02*
X156875213Y-83944827D01*
X156875213Y-84087067D02*
X156377373Y-84087067D01*
X156448493Y-84039653D01*
X156495907Y-83992240D01*
X156519613Y-83944827D01*
X152277373Y-81633428D02*
X152775213Y-81965321D01*
X152277373Y-81965321D02*
X152775213Y-81633428D01*
X152277373Y-82083854D02*
X152277373Y-82368334D01*
X152775213Y-82226094D02*
X152277373Y-82226094D01*
X152632973Y-82510575D02*
X152632973Y-82747641D01*
X152775213Y-82463161D02*
X152277373Y-82629108D01*
X152775213Y-82795055D01*
X152775213Y-83198068D02*
X152775213Y-82961001D01*
X152277373Y-82961001D01*
X152775213Y-83364014D02*
X152277373Y-83364014D01*
X152775213Y-83648494D01*
X152277373Y-83648494D01*
X152277373Y-83838148D02*
X152775213Y-84170041D01*
X152277373Y-84170041D02*
X152775213Y-83838148D01*
X152277373Y-84596761D02*
X152277373Y-84359694D01*
X152514440Y-84335988D01*
X152490733Y-84359694D01*
X152467027Y-84407108D01*
X152467027Y-84525641D01*
X152490733Y-84573054D01*
X152514440Y-84596761D01*
X152561853Y-84620468D01*
X152680387Y-84620468D01*
X152727800Y-84596761D01*
X152751507Y-84573054D01*
X152775213Y-84525641D01*
X152775213Y-84407108D01*
X152751507Y-84359694D01*
X152727800Y-84335988D01*
X152277373Y-84928654D02*
X152277373Y-84976067D01*
X152301080Y-85023481D01*
X152324787Y-85047187D01*
X152372200Y-85070894D01*
X152467027Y-85094601D01*
X152585560Y-85094601D01*
X152680387Y-85070894D01*
X152727800Y-85047187D01*
X152751507Y-85023481D01*
X152775213Y-84976067D01*
X152775213Y-84928654D01*
X152751507Y-84881241D01*
X152727800Y-84857534D01*
X152680387Y-84833827D01*
X152585560Y-84810121D01*
X152467027Y-84810121D01*
X152372200Y-84833827D01*
X152324787Y-84857534D01*
X152301080Y-84881241D01*
X152277373Y-84928654D01*
X152277373Y-85260547D02*
X152277373Y-85568734D01*
X152467027Y-85402787D01*
X152467027Y-85473907D01*
X152490733Y-85521320D01*
X152514440Y-85545027D01*
X152561853Y-85568734D01*
X152680387Y-85568734D01*
X152727800Y-85545027D01*
X152751507Y-85521320D01*
X152775213Y-85473907D01*
X152775213Y-85331667D01*
X152751507Y-85284254D01*
X152727800Y-85260547D01*
X152324787Y-85758387D02*
X152301080Y-85782093D01*
X152277373Y-85829507D01*
X152277373Y-85948040D01*
X152301080Y-85995453D01*
X152324787Y-86019160D01*
X152372200Y-86042867D01*
X152419613Y-86042867D01*
X152490733Y-86019160D01*
X152775213Y-85734680D01*
X152775213Y-86042867D01*
D11*
X109607143Y-70357143D02*
X109654762Y-70309524D01*
X109702381Y-70166667D01*
X109702381Y-70071429D01*
X109654762Y-69928571D01*
X109559524Y-69833333D01*
X109464286Y-69785714D01*
X109273810Y-69738095D01*
X109130952Y-69738095D01*
X108940476Y-69785714D01*
X108845238Y-69833333D01*
X108750000Y-69928571D01*
X108702381Y-70071429D01*
X108702381Y-70166667D01*
X108750000Y-70309524D01*
X108797619Y-70357143D01*
X109702381Y-71309524D02*
X109702381Y-70738095D01*
X109702381Y-71023809D02*
X108702381Y-71023809D01*
X108845238Y-70928571D01*
X108940476Y-70833333D01*
X108988095Y-70738095D01*
X109035714Y-72166667D02*
X109702381Y-72166667D01*
X108654762Y-71928571D02*
X109369048Y-71690476D01*
X109369048Y-72309524D01*
X162107143Y-91357143D02*
X162154762Y-91309524D01*
X162202381Y-91166667D01*
X162202381Y-91071429D01*
X162154762Y-90928571D01*
X162059524Y-90833333D01*
X161964286Y-90785714D01*
X161773810Y-90738095D01*
X161630952Y-90738095D01*
X161440476Y-90785714D01*
X161345238Y-90833333D01*
X161250000Y-90928571D01*
X161202381Y-91071429D01*
X161202381Y-91166667D01*
X161250000Y-91309524D01*
X161297619Y-91357143D01*
X162202381Y-92309524D02*
X162202381Y-91738095D01*
X162202381Y-92023809D02*
X161202381Y-92023809D01*
X161345238Y-91928571D01*
X161440476Y-91833333D01*
X161488095Y-91738095D01*
X161202381Y-93214286D02*
X161202381Y-92738095D01*
X161678571Y-92690476D01*
X161630952Y-92738095D01*
X161583333Y-92833333D01*
X161583333Y-93071429D01*
X161630952Y-93166667D01*
X161678571Y-93214286D01*
X161773810Y-93261905D01*
X162011905Y-93261905D01*
X162107143Y-93214286D01*
X162154762Y-93166667D01*
X162202381Y-93071429D01*
X162202381Y-92833333D01*
X162154762Y-92738095D01*
X162107143Y-92690476D01*
X171092857Y-82207143D02*
X171140476Y-82254762D01*
X171283333Y-82302381D01*
X171378571Y-82302381D01*
X171521429Y-82254762D01*
X171616667Y-82159524D01*
X171664286Y-82064286D01*
X171711905Y-81873810D01*
X171711905Y-81730952D01*
X171664286Y-81540476D01*
X171616667Y-81445238D01*
X171521429Y-81350000D01*
X171378571Y-81302381D01*
X171283333Y-81302381D01*
X171140476Y-81350000D01*
X171092857Y-81397619D01*
X170140476Y-82302381D02*
X170711905Y-82302381D01*
X170426191Y-82302381D02*
X170426191Y-81302381D01*
X170521429Y-81445238D01*
X170616667Y-81540476D01*
X170711905Y-81588095D01*
X169283333Y-81302381D02*
X169473810Y-81302381D01*
X169569048Y-81350000D01*
X169616667Y-81397619D01*
X169711905Y-81540476D01*
X169759524Y-81730952D01*
X169759524Y-82111905D01*
X169711905Y-82207143D01*
X169664286Y-82254762D01*
X169569048Y-82302381D01*
X169378571Y-82302381D01*
X169283333Y-82254762D01*
X169235714Y-82207143D01*
X169188095Y-82111905D01*
X169188095Y-81873810D01*
X169235714Y-81778571D01*
X169283333Y-81730952D01*
X169378571Y-81683333D01*
X169569048Y-81683333D01*
X169664286Y-81730952D01*
X169711905Y-81778571D01*
X169759524Y-81873810D01*
X167903095Y-95072381D02*
X167903095Y-94072381D01*
X167665000Y-94072381D01*
X167522142Y-94120000D01*
X167426904Y-94215238D01*
X167379285Y-94310476D01*
X167331666Y-94500952D01*
X167331666Y-94643810D01*
X167379285Y-94834286D01*
X167426904Y-94929524D01*
X167522142Y-95024762D01*
X167665000Y-95072381D01*
X167903095Y-95072381D01*
X166998333Y-94072381D02*
X166379285Y-94072381D01*
X166712619Y-94453333D01*
X166569761Y-94453333D01*
X166474523Y-94500952D01*
X166426904Y-94548571D01*
X166379285Y-94643810D01*
X166379285Y-94881905D01*
X166426904Y-94977143D01*
X166474523Y-95024762D01*
X166569761Y-95072381D01*
X166855476Y-95072381D01*
X166950714Y-95024762D01*
X166998333Y-94977143D01*
D19*
X137605720Y-68768329D02*
X137605720Y-69856900D01*
X137678292Y-70074614D01*
X137823435Y-70219757D01*
X138041149Y-70292329D01*
X138186292Y-70292329D01*
X137025149Y-68768329D02*
X136081720Y-68768329D01*
X136589720Y-69348900D01*
X136372006Y-69348900D01*
X136226863Y-69421471D01*
X136154292Y-69494043D01*
X136081720Y-69639186D01*
X136081720Y-70002043D01*
X136154292Y-70147186D01*
X136226863Y-70219757D01*
X136372006Y-70292329D01*
X136807434Y-70292329D01*
X136952577Y-70219757D01*
X137025149Y-70147186D01*
X142794578Y-81747366D02*
X142867149Y-81819937D01*
X143084863Y-81892509D01*
X143230006Y-81892509D01*
X143447721Y-81819937D01*
X143592863Y-81674794D01*
X143665435Y-81529651D01*
X143738006Y-81239366D01*
X143738006Y-81021651D01*
X143665435Y-80731366D01*
X143592863Y-80586223D01*
X143447721Y-80441080D01*
X143230006Y-80368509D01*
X143084863Y-80368509D01*
X142867149Y-80441080D01*
X142794578Y-80513651D01*
X141923721Y-81892509D02*
X142068863Y-81819937D01*
X142141435Y-81747366D01*
X142214006Y-81602223D01*
X142214006Y-81166794D01*
X142141435Y-81021651D01*
X142068863Y-80949080D01*
X141923721Y-80876509D01*
X141706006Y-80876509D01*
X141560863Y-80949080D01*
X141488292Y-81021651D01*
X141415721Y-81166794D01*
X141415721Y-81602223D01*
X141488292Y-81747366D01*
X141560863Y-81819937D01*
X141706006Y-81892509D01*
X141923721Y-81892509D01*
X140762578Y-80876509D02*
X140762578Y-81892509D01*
X140762578Y-81021651D02*
X140690006Y-80949080D01*
X140544864Y-80876509D01*
X140327149Y-80876509D01*
X140182006Y-80949080D01*
X140109435Y-81094223D01*
X140109435Y-81892509D01*
X139383721Y-80876509D02*
X139383721Y-81892509D01*
X139383721Y-81021651D02*
X139311149Y-80949080D01*
X139166007Y-80876509D01*
X138948292Y-80876509D01*
X138803149Y-80949080D01*
X138730578Y-81094223D01*
X138730578Y-81892509D01*
X138367721Y-82037651D02*
X137206578Y-82037651D01*
X136553435Y-80368509D02*
X136408292Y-80368509D01*
X136263149Y-80441080D01*
X136190578Y-80513651D01*
X136118007Y-80658794D01*
X136045435Y-80949080D01*
X136045435Y-81311937D01*
X136118007Y-81602223D01*
X136190578Y-81747366D01*
X136263149Y-81819937D01*
X136408292Y-81892509D01*
X136553435Y-81892509D01*
X136698578Y-81819937D01*
X136771149Y-81747366D01*
X136843721Y-81602223D01*
X136916292Y-81311937D01*
X136916292Y-80949080D01*
X136843721Y-80658794D01*
X136771149Y-80513651D01*
X136698578Y-80441080D01*
X136553435Y-80368509D01*
X134594006Y-81892509D02*
X135464863Y-81892509D01*
X135029435Y-81892509D02*
X135029435Y-80368509D01*
X135174578Y-80586223D01*
X135319720Y-80731366D01*
X135464863Y-80803937D01*
X134086006Y-81892509D02*
X133287720Y-80876509D01*
X134086006Y-80876509D02*
X133287720Y-81892509D01*
X132416863Y-80368509D02*
X132271720Y-80368509D01*
X132126577Y-80441080D01*
X132054006Y-80513651D01*
X131981435Y-80658794D01*
X131908863Y-80949080D01*
X131908863Y-81311937D01*
X131981435Y-81602223D01*
X132054006Y-81747366D01*
X132126577Y-81819937D01*
X132271720Y-81892509D01*
X132416863Y-81892509D01*
X132562006Y-81819937D01*
X132634577Y-81747366D01*
X132707149Y-81602223D01*
X132779720Y-81311937D01*
X132779720Y-80949080D01*
X132707149Y-80658794D01*
X132634577Y-80513651D01*
X132562006Y-80441080D01*
X132416863Y-80368509D01*
X131328291Y-80513651D02*
X131255720Y-80441080D01*
X131110577Y-80368509D01*
X130747720Y-80368509D01*
X130602577Y-80441080D01*
X130530006Y-80513651D01*
X130457434Y-80658794D01*
X130457434Y-80803937D01*
X130530006Y-81021651D01*
X131400863Y-81892509D01*
X130457434Y-81892509D01*
D20*
X152972969Y-74343424D02*
X152223669Y-74343424D01*
X152758883Y-74593190D01*
X152223669Y-74842957D01*
X152972969Y-74842957D01*
X152972969Y-75592257D02*
X152972969Y-75164086D01*
X152972969Y-75378172D02*
X152223669Y-75378172D01*
X152330712Y-75306810D01*
X152402074Y-75235448D01*
X152437755Y-75164086D01*
X154969288Y-68795036D02*
X155004969Y-68902079D01*
X155004969Y-69080483D01*
X154969288Y-69151845D01*
X154933607Y-69187526D01*
X154862245Y-69223207D01*
X154790883Y-69223207D01*
X154719521Y-69187526D01*
X154683840Y-69151845D01*
X154648160Y-69080483D01*
X154612479Y-68937760D01*
X154576798Y-68866398D01*
X154541117Y-68830717D01*
X154469755Y-68795036D01*
X154398393Y-68795036D01*
X154327031Y-68830717D01*
X154291350Y-68866398D01*
X154255669Y-68937760D01*
X154255669Y-69116164D01*
X154291350Y-69223207D01*
X155004969Y-69544336D02*
X154255669Y-69544336D01*
X154255669Y-69829783D01*
X154291350Y-69901145D01*
X154327031Y-69936826D01*
X154398393Y-69972507D01*
X154505436Y-69972507D01*
X154576798Y-69936826D01*
X154612479Y-69901145D01*
X154648160Y-69829783D01*
X154648160Y-69544336D01*
X155004969Y-70293636D02*
X154255669Y-70293636D01*
X155076331Y-70472041D02*
X155076331Y-71042936D01*
X154612479Y-71471107D02*
X154612479Y-71221341D01*
X155004969Y-71221341D02*
X154255669Y-71221341D01*
X154255669Y-71578150D01*
X155004969Y-72220407D02*
X155004969Y-71863598D01*
X154255669Y-71863598D01*
X154790883Y-72434493D02*
X154790883Y-72791302D01*
X155004969Y-72363131D02*
X154255669Y-72612898D01*
X155004969Y-72862664D01*
X154969288Y-73076750D02*
X155004969Y-73183793D01*
X155004969Y-73362197D01*
X154969288Y-73433559D01*
X154933607Y-73469240D01*
X154862245Y-73504921D01*
X154790883Y-73504921D01*
X154719521Y-73469240D01*
X154683840Y-73433559D01*
X154648160Y-73362197D01*
X154612479Y-73219474D01*
X154576798Y-73148112D01*
X154541117Y-73112431D01*
X154469755Y-73076750D01*
X154398393Y-73076750D01*
X154327031Y-73112431D01*
X154291350Y-73148112D01*
X154255669Y-73219474D01*
X154255669Y-73397878D01*
X154291350Y-73504921D01*
X155004969Y-73826050D02*
X154255669Y-73826050D01*
X154612479Y-73826050D02*
X154612479Y-74254221D01*
X155004969Y-74254221D02*
X154255669Y-74254221D01*
X154719521Y-74611031D02*
X154719521Y-75181926D01*
X154255669Y-75467374D02*
X155004969Y-75966907D01*
X154255669Y-75966907D02*
X155004969Y-75467374D01*
X154327031Y-76216674D02*
X154291350Y-76252355D01*
X154255669Y-76323717D01*
X154255669Y-76502121D01*
X154291350Y-76573483D01*
X154327031Y-76609164D01*
X154398393Y-76644845D01*
X154469755Y-76644845D01*
X154576798Y-76609164D01*
X155004969Y-76180993D01*
X155004969Y-76644845D01*
X154255669Y-77322783D02*
X154255669Y-76965974D01*
X154612479Y-76930293D01*
X154576798Y-76965974D01*
X154541117Y-77037336D01*
X154541117Y-77215740D01*
X154576798Y-77287102D01*
X154612479Y-77322783D01*
X154683840Y-77358464D01*
X154862245Y-77358464D01*
X154933607Y-77322783D01*
X154969288Y-77287102D01*
X155004969Y-77215740D01*
X155004969Y-77037336D01*
X154969288Y-76965974D01*
X154933607Y-76930293D01*
X154255669Y-77608231D02*
X155004969Y-78107764D01*
X154255669Y-78107764D02*
X155004969Y-77608231D01*
X154255669Y-78321850D02*
X155004969Y-78821383D01*
X154255669Y-78821383D02*
X155004969Y-78321850D01*
X154969288Y-79071150D02*
X155004969Y-79178193D01*
X155004969Y-79356597D01*
X154969288Y-79427959D01*
X154933607Y-79463640D01*
X154862245Y-79499321D01*
X154790883Y-79499321D01*
X154719521Y-79463640D01*
X154683840Y-79427959D01*
X154648160Y-79356597D01*
X154612479Y-79213874D01*
X154576798Y-79142512D01*
X154541117Y-79106831D01*
X154469755Y-79071150D01*
X154398393Y-79071150D01*
X154327031Y-79106831D01*
X154291350Y-79142512D01*
X154255669Y-79213874D01*
X154255669Y-79392278D01*
X154291350Y-79499321D01*
X155004969Y-79820450D02*
X154255669Y-79820450D01*
X154790883Y-80070216D01*
X154255669Y-80319983D01*
X155004969Y-80319983D01*
X155004969Y-80676793D02*
X154255669Y-80676793D01*
X154255669Y-80855198D01*
X154291350Y-80962240D01*
X154362712Y-81033602D01*
X154434074Y-81069283D01*
X154576798Y-81104964D01*
X154683840Y-81104964D01*
X154826564Y-81069283D01*
X154897926Y-81033602D01*
X154969288Y-80962240D01*
X155004969Y-80855198D01*
X155004969Y-80676793D01*
D11*
X119745238Y-91597619D02*
X119840476Y-91550000D01*
X119935714Y-91454762D01*
X120078571Y-91311905D01*
X120173810Y-91264286D01*
X120269048Y-91264286D01*
X120221429Y-91502381D02*
X120316667Y-91454762D01*
X120411905Y-91359524D01*
X120459524Y-91169048D01*
X120459524Y-90835714D01*
X120411905Y-90645238D01*
X120316667Y-90550000D01*
X120221429Y-90502381D01*
X120030952Y-90502381D01*
X119935714Y-90550000D01*
X119840476Y-90645238D01*
X119792857Y-90835714D01*
X119792857Y-91169048D01*
X119840476Y-91359524D01*
X119935714Y-91454762D01*
X120030952Y-91502381D01*
X120221429Y-91502381D01*
X118840476Y-91502381D02*
X119411905Y-91502381D01*
X119126191Y-91502381D02*
X119126191Y-90502381D01*
X119221429Y-90645238D01*
X119316667Y-90740476D01*
X119411905Y-90788095D01*
X119745238Y-87597619D02*
X119840476Y-87550000D01*
X119935714Y-87454762D01*
X120078571Y-87311905D01*
X120173810Y-87264286D01*
X120269048Y-87264286D01*
X120221429Y-87502381D02*
X120316667Y-87454762D01*
X120411905Y-87359524D01*
X120459524Y-87169048D01*
X120459524Y-86835714D01*
X120411905Y-86645238D01*
X120316667Y-86550000D01*
X120221429Y-86502381D01*
X120030952Y-86502381D01*
X119935714Y-86550000D01*
X119840476Y-86645238D01*
X119792857Y-86835714D01*
X119792857Y-87169048D01*
X119840476Y-87359524D01*
X119935714Y-87454762D01*
X120030952Y-87502381D01*
X120221429Y-87502381D01*
X119411905Y-86597619D02*
X119364286Y-86550000D01*
X119269048Y-86502381D01*
X119030952Y-86502381D01*
X118935714Y-86550000D01*
X118888095Y-86597619D01*
X118840476Y-86692857D01*
X118840476Y-86788095D01*
X118888095Y-86930952D01*
X119459524Y-87502381D01*
X118840476Y-87502381D01*
X170816666Y-71152381D02*
X171150000Y-70676190D01*
X171388095Y-71152381D02*
X171388095Y-70152381D01*
X171007142Y-70152381D01*
X170911904Y-70200000D01*
X170864285Y-70247619D01*
X170816666Y-70342857D01*
X170816666Y-70485714D01*
X170864285Y-70580952D01*
X170911904Y-70628571D01*
X171007142Y-70676190D01*
X171388095Y-70676190D01*
X170340476Y-71152381D02*
X170150000Y-71152381D01*
X170054761Y-71104762D01*
X170007142Y-71057143D01*
X169911904Y-70914286D01*
X169864285Y-70723810D01*
X169864285Y-70342857D01*
X169911904Y-70247619D01*
X169959523Y-70200000D01*
X170054761Y-70152381D01*
X170245238Y-70152381D01*
X170340476Y-70200000D01*
X170388095Y-70247619D01*
X170435714Y-70342857D01*
X170435714Y-70580952D01*
X170388095Y-70676190D01*
X170340476Y-70723810D01*
X170245238Y-70771429D01*
X170054761Y-70771429D01*
X169959523Y-70723810D01*
X169911904Y-70676190D01*
X169864285Y-70580952D01*
X98742857Y-73902381D02*
X99076191Y-73426190D01*
X99314286Y-73902381D02*
X99314286Y-72902381D01*
X98933333Y-72902381D01*
X98838095Y-72950000D01*
X98790476Y-72997619D01*
X98742857Y-73092857D01*
X98742857Y-73235714D01*
X98790476Y-73330952D01*
X98838095Y-73378571D01*
X98933333Y-73426190D01*
X99314286Y-73426190D01*
X97790476Y-73902381D02*
X98361905Y-73902381D01*
X98076191Y-73902381D02*
X98076191Y-72902381D01*
X98171429Y-73045238D01*
X98266667Y-73140476D01*
X98361905Y-73188095D01*
X97171429Y-72902381D02*
X97076190Y-72902381D01*
X96980952Y-72950000D01*
X96933333Y-72997619D01*
X96885714Y-73092857D01*
X96838095Y-73283333D01*
X96838095Y-73521429D01*
X96885714Y-73711905D01*
X96933333Y-73807143D01*
X96980952Y-73854762D01*
X97076190Y-73902381D01*
X97171429Y-73902381D01*
X97266667Y-73854762D01*
X97314286Y-73807143D01*
X97361905Y-73711905D01*
X97409524Y-73521429D01*
X97409524Y-73283333D01*
X97361905Y-73092857D01*
X97314286Y-72997619D01*
X97266667Y-72950000D01*
X97171429Y-72902381D01*
X172887857Y-95072381D02*
X173221191Y-94596190D01*
X173459286Y-95072381D02*
X173459286Y-94072381D01*
X173078333Y-94072381D01*
X172983095Y-94120000D01*
X172935476Y-94167619D01*
X172887857Y-94262857D01*
X172887857Y-94405714D01*
X172935476Y-94500952D01*
X172983095Y-94548571D01*
X173078333Y-94596190D01*
X173459286Y-94596190D01*
X171935476Y-95072381D02*
X172506905Y-95072381D01*
X172221191Y-95072381D02*
X172221191Y-94072381D01*
X172316429Y-94215238D01*
X172411667Y-94310476D01*
X172506905Y-94358095D01*
X170983095Y-95072381D02*
X171554524Y-95072381D01*
X171268810Y-95072381D02*
X171268810Y-94072381D01*
X171364048Y-94215238D01*
X171459286Y-94310476D01*
X171554524Y-94358095D01*
X153952381Y-69257143D02*
X153476190Y-68923809D01*
X153952381Y-68685714D02*
X152952381Y-68685714D01*
X152952381Y-69066667D01*
X153000000Y-69161905D01*
X153047619Y-69209524D01*
X153142857Y-69257143D01*
X153285714Y-69257143D01*
X153380952Y-69209524D01*
X153428571Y-69161905D01*
X153476190Y-69066667D01*
X153476190Y-68685714D01*
X153952381Y-70209524D02*
X153952381Y-69638095D01*
X153952381Y-69923809D02*
X152952381Y-69923809D01*
X153095238Y-69828571D01*
X153190476Y-69733333D01*
X153238095Y-69638095D01*
X153047619Y-70590476D02*
X153000000Y-70638095D01*
X152952381Y-70733333D01*
X152952381Y-70971429D01*
X153000000Y-71066667D01*
X153047619Y-71114286D01*
X153142857Y-71161905D01*
X153238095Y-71161905D01*
X153380952Y-71114286D01*
X153952381Y-70542857D01*
X153952381Y-71161905D01*
X124552381Y-90907143D02*
X124076190Y-90573809D01*
X124552381Y-90335714D02*
X123552381Y-90335714D01*
X123552381Y-90716667D01*
X123600000Y-90811905D01*
X123647619Y-90859524D01*
X123742857Y-90907143D01*
X123885714Y-90907143D01*
X123980952Y-90859524D01*
X124028571Y-90811905D01*
X124076190Y-90716667D01*
X124076190Y-90335714D01*
X124552381Y-91859524D02*
X124552381Y-91288095D01*
X124552381Y-91573809D02*
X123552381Y-91573809D01*
X123695238Y-91478571D01*
X123790476Y-91383333D01*
X123838095Y-91288095D01*
X123552381Y-92192857D02*
X123552381Y-92811905D01*
X123933333Y-92478571D01*
X123933333Y-92621429D01*
X123980952Y-92716667D01*
X124028571Y-92764286D01*
X124123810Y-92811905D01*
X124361905Y-92811905D01*
X124457143Y-92764286D01*
X124504762Y-92716667D01*
X124552381Y-92621429D01*
X124552381Y-92335714D01*
X124504762Y-92240476D01*
X124457143Y-92192857D01*
X123652381Y-90907143D02*
X123176190Y-90573809D01*
X123652381Y-90335714D02*
X122652381Y-90335714D01*
X122652381Y-90716667D01*
X122700000Y-90811905D01*
X122747619Y-90859524D01*
X122842857Y-90907143D01*
X122985714Y-90907143D01*
X123080952Y-90859524D01*
X123128571Y-90811905D01*
X123176190Y-90716667D01*
X123176190Y-90335714D01*
X123652381Y-91859524D02*
X123652381Y-91288095D01*
X123652381Y-91573809D02*
X122652381Y-91573809D01*
X122795238Y-91478571D01*
X122890476Y-91383333D01*
X122938095Y-91288095D01*
X122985714Y-92716667D02*
X123652381Y-92716667D01*
X122604762Y-92478571D02*
X123319048Y-92240476D01*
X123319048Y-92859524D01*
X108004762Y-65666667D02*
X108052381Y-65809524D01*
X108052381Y-66047620D01*
X108004762Y-66142858D01*
X107957143Y-66190477D01*
X107861905Y-66238096D01*
X107766667Y-66238096D01*
X107671429Y-66190477D01*
X107623810Y-66142858D01*
X107576190Y-66047620D01*
X107528571Y-65857143D01*
X107480952Y-65761905D01*
X107433333Y-65714286D01*
X107338095Y-65666667D01*
X107242857Y-65666667D01*
X107147619Y-65714286D01*
X107100000Y-65761905D01*
X107052381Y-65857143D01*
X107052381Y-66095239D01*
X107100000Y-66238096D01*
X107052381Y-66571429D02*
X108052381Y-66809524D01*
X107338095Y-67000001D01*
X108052381Y-67190477D01*
X107052381Y-67428572D01*
X107147619Y-67761905D02*
X107100000Y-67809524D01*
X107052381Y-67904762D01*
X107052381Y-68142858D01*
X107100000Y-68238096D01*
X107147619Y-68285715D01*
X107242857Y-68333334D01*
X107338095Y-68333334D01*
X107480952Y-68285715D01*
X108052381Y-67714286D01*
X108052381Y-68333334D01*
X173577381Y-76388095D02*
X174386905Y-76388095D01*
X174482143Y-76435714D01*
X174529762Y-76483333D01*
X174577381Y-76578571D01*
X174577381Y-76769048D01*
X174529762Y-76864286D01*
X174482143Y-76911905D01*
X174386905Y-76959524D01*
X173577381Y-76959524D01*
X173910714Y-77864286D02*
X174577381Y-77864286D01*
X173529762Y-77626190D02*
X174244048Y-77388095D01*
X174244048Y-78007143D01*
X182642857Y-131607143D02*
X182690476Y-131654762D01*
X182833333Y-131702381D01*
X182928571Y-131702381D01*
X183071429Y-131654762D01*
X183166667Y-131559524D01*
X183214286Y-131464286D01*
X183261905Y-131273810D01*
X183261905Y-131130952D01*
X183214286Y-130940476D01*
X183166667Y-130845238D01*
X183071429Y-130750000D01*
X182928571Y-130702381D01*
X182833333Y-130702381D01*
X182690476Y-130750000D01*
X182642857Y-130797619D01*
X181690476Y-131702381D02*
X182261905Y-131702381D01*
X181976191Y-131702381D02*
X181976191Y-130702381D01*
X182071429Y-130845238D01*
X182166667Y-130940476D01*
X182261905Y-130988095D01*
X181357143Y-130702381D02*
X180690476Y-130702381D01*
X181119048Y-131702381D01*
X182642857Y-128607143D02*
X182690476Y-128654762D01*
X182833333Y-128702381D01*
X182928571Y-128702381D01*
X183071429Y-128654762D01*
X183166667Y-128559524D01*
X183214286Y-128464286D01*
X183261905Y-128273810D01*
X183261905Y-128130952D01*
X183214286Y-127940476D01*
X183166667Y-127845238D01*
X183071429Y-127750000D01*
X182928571Y-127702381D01*
X182833333Y-127702381D01*
X182690476Y-127750000D01*
X182642857Y-127797619D01*
X181690476Y-128702381D02*
X182261905Y-128702381D01*
X181976191Y-128702381D02*
X181976191Y-127702381D01*
X182071429Y-127845238D01*
X182166667Y-127940476D01*
X182261905Y-127988095D01*
X181119048Y-128130952D02*
X181214286Y-128083333D01*
X181261905Y-128035714D01*
X181309524Y-127940476D01*
X181309524Y-127892857D01*
X181261905Y-127797619D01*
X181214286Y-127750000D01*
X181119048Y-127702381D01*
X180928571Y-127702381D01*
X180833333Y-127750000D01*
X180785714Y-127797619D01*
X180738095Y-127892857D01*
X180738095Y-127940476D01*
X180785714Y-128035714D01*
X180833333Y-128083333D01*
X180928571Y-128130952D01*
X181119048Y-128130952D01*
X181214286Y-128178571D01*
X181261905Y-128226190D01*
X181309524Y-128321429D01*
X181309524Y-128511905D01*
X181261905Y-128607143D01*
X181214286Y-128654762D01*
X181119048Y-128702381D01*
X180928571Y-128702381D01*
X180833333Y-128654762D01*
X180785714Y-128607143D01*
X180738095Y-128511905D01*
X180738095Y-128321429D01*
X180785714Y-128226190D01*
X180833333Y-128178571D01*
X180928571Y-128130952D01*
X181352381Y-128333334D02*
X181352381Y-127857143D01*
X180352381Y-127857143D01*
X181352381Y-129190477D02*
X181352381Y-128619048D01*
X181352381Y-128904762D02*
X180352381Y-128904762D01*
X180495238Y-128809524D01*
X180590476Y-128714286D01*
X180638095Y-128619048D01*
X164993333Y-129712381D02*
X164993333Y-130426667D01*
X165040953Y-130569524D01*
X165136191Y-130664762D01*
X165279048Y-130712381D01*
X165374286Y-130712381D01*
X164564762Y-129807619D02*
X164517143Y-129760000D01*
X164421905Y-129712381D01*
X164183809Y-129712381D01*
X164088571Y-129760000D01*
X164040952Y-129807619D01*
X163993333Y-129902857D01*
X163993333Y-129998095D01*
X164040952Y-130140952D01*
X164612381Y-130712381D01*
X163993333Y-130712381D01*
X140222381Y-59216667D02*
X140936667Y-59216667D01*
X141079524Y-59169047D01*
X141174762Y-59073809D01*
X141222381Y-58930952D01*
X141222381Y-58835714D01*
X141222381Y-60216667D02*
X141222381Y-59645238D01*
X141222381Y-59930952D02*
X140222381Y-59930952D01*
X140365238Y-59835714D01*
X140460476Y-59740476D01*
X140508095Y-59645238D01*
X171807143Y-83859524D02*
X171854762Y-83811905D01*
X171902381Y-83669048D01*
X171902381Y-83573810D01*
X171854762Y-83430952D01*
X171759524Y-83335714D01*
X171664286Y-83288095D01*
X171473810Y-83240476D01*
X171330952Y-83240476D01*
X171140476Y-83288095D01*
X171045238Y-83335714D01*
X170950000Y-83430952D01*
X170902381Y-83573810D01*
X170902381Y-83669048D01*
X170950000Y-83811905D01*
X170997619Y-83859524D01*
X171902381Y-84288095D02*
X170902381Y-84288095D01*
X171902381Y-84859524D01*
X170902381Y-84859524D01*
X171902381Y-85859524D02*
X171902381Y-85288095D01*
X171902381Y-85573809D02*
X170902381Y-85573809D01*
X171045238Y-85478571D01*
X171140476Y-85383333D01*
X171188095Y-85288095D01*
X164552381Y-120937143D02*
X164076190Y-120603809D01*
X164552381Y-120365714D02*
X163552381Y-120365714D01*
X163552381Y-120746667D01*
X163600000Y-120841905D01*
X163647619Y-120889524D01*
X163742857Y-120937143D01*
X163885714Y-120937143D01*
X163980952Y-120889524D01*
X164028571Y-120841905D01*
X164076190Y-120746667D01*
X164076190Y-120365714D01*
X164552381Y-121889524D02*
X164552381Y-121318095D01*
X164552381Y-121603809D02*
X163552381Y-121603809D01*
X163695238Y-121508571D01*
X163790476Y-121413333D01*
X163838095Y-121318095D01*
X163552381Y-122794286D02*
X163552381Y-122318095D01*
X164028571Y-122270476D01*
X163980952Y-122318095D01*
X163933333Y-122413333D01*
X163933333Y-122651429D01*
X163980952Y-122746667D01*
X164028571Y-122794286D01*
X164123810Y-122841905D01*
X164361905Y-122841905D01*
X164457143Y-122794286D01*
X164504762Y-122746667D01*
X164552381Y-122651429D01*
X164552381Y-122413333D01*
X164504762Y-122318095D01*
X164457143Y-122270476D01*
X166252381Y-120937143D02*
X165776190Y-120603809D01*
X166252381Y-120365714D02*
X165252381Y-120365714D01*
X165252381Y-120746667D01*
X165300000Y-120841905D01*
X165347619Y-120889524D01*
X165442857Y-120937143D01*
X165585714Y-120937143D01*
X165680952Y-120889524D01*
X165728571Y-120841905D01*
X165776190Y-120746667D01*
X165776190Y-120365714D01*
X166252381Y-121889524D02*
X166252381Y-121318095D01*
X166252381Y-121603809D02*
X165252381Y-121603809D01*
X165395238Y-121508571D01*
X165490476Y-121413333D01*
X165538095Y-121318095D01*
X165252381Y-122746667D02*
X165252381Y-122556190D01*
X165300000Y-122460952D01*
X165347619Y-122413333D01*
X165490476Y-122318095D01*
X165680952Y-122270476D01*
X166061905Y-122270476D01*
X166157143Y-122318095D01*
X166204762Y-122365714D01*
X166252381Y-122460952D01*
X166252381Y-122651429D01*
X166204762Y-122746667D01*
X166157143Y-122794286D01*
X166061905Y-122841905D01*
X165823810Y-122841905D01*
X165728571Y-122794286D01*
X165680952Y-122746667D01*
X165633333Y-122651429D01*
X165633333Y-122460952D01*
X165680952Y-122365714D01*
X165728571Y-122318095D01*
X165823810Y-122270476D01*
X148238095Y-67202381D02*
X147666666Y-67202381D01*
X147952381Y-68202381D02*
X147952381Y-67202381D01*
X147333333Y-68202381D02*
X147333333Y-67202381D01*
X146952380Y-67202381D01*
X146857142Y-67250000D01*
X146809523Y-67297619D01*
X146761904Y-67392857D01*
X146761904Y-67535714D01*
X146809523Y-67630952D01*
X146857142Y-67678571D01*
X146952380Y-67726190D01*
X147333333Y-67726190D01*
X145809523Y-68202381D02*
X146380952Y-68202381D01*
X146095238Y-68202381D02*
X146095238Y-67202381D01*
X146190476Y-67345238D01*
X146285714Y-67440476D01*
X146380952Y-67488095D01*
X144857142Y-68202381D02*
X145428571Y-68202381D01*
X145142857Y-68202381D02*
X145142857Y-67202381D01*
X145238095Y-67345238D01*
X145333333Y-67440476D01*
X145428571Y-67488095D01*
X158452381Y-58761905D02*
X158452381Y-59333334D01*
X159452381Y-59047619D02*
X158452381Y-59047619D01*
X159452381Y-59666667D02*
X158452381Y-59666667D01*
X158452381Y-60047620D01*
X158500000Y-60142858D01*
X158547619Y-60190477D01*
X158642857Y-60238096D01*
X158785714Y-60238096D01*
X158880952Y-60190477D01*
X158928571Y-60142858D01*
X158976190Y-60047620D01*
X158976190Y-59666667D01*
X159452381Y-61190477D02*
X159452381Y-60619048D01*
X159452381Y-60904762D02*
X158452381Y-60904762D01*
X158595238Y-60809524D01*
X158690476Y-60714286D01*
X158738095Y-60619048D01*
X158547619Y-61571429D02*
X158500000Y-61619048D01*
X158452381Y-61714286D01*
X158452381Y-61952382D01*
X158500000Y-62047620D01*
X158547619Y-62095239D01*
X158642857Y-62142858D01*
X158738095Y-62142858D01*
X158880952Y-62095239D01*
X159452381Y-61523810D01*
X159452381Y-62142858D01*
X169452381Y-88261905D02*
X169452381Y-88833334D01*
X170452381Y-88547619D02*
X169452381Y-88547619D01*
X170452381Y-89166667D02*
X169452381Y-89166667D01*
X169452381Y-89547620D01*
X169500000Y-89642858D01*
X169547619Y-89690477D01*
X169642857Y-89738096D01*
X169785714Y-89738096D01*
X169880952Y-89690477D01*
X169928571Y-89642858D01*
X169976190Y-89547620D01*
X169976190Y-89166667D01*
X170452381Y-90690477D02*
X170452381Y-90119048D01*
X170452381Y-90404762D02*
X169452381Y-90404762D01*
X169595238Y-90309524D01*
X169690476Y-90214286D01*
X169738095Y-90119048D01*
X169452381Y-91023810D02*
X169452381Y-91642858D01*
X169833333Y-91309524D01*
X169833333Y-91452382D01*
X169880952Y-91547620D01*
X169928571Y-91595239D01*
X170023810Y-91642858D01*
X170261905Y-91642858D01*
X170357143Y-91595239D01*
X170404762Y-91547620D01*
X170452381Y-91452382D01*
X170452381Y-91166667D01*
X170404762Y-91071429D01*
X170357143Y-91023810D01*
X128952381Y-116261905D02*
X128952381Y-116833334D01*
X129952381Y-116547619D02*
X128952381Y-116547619D01*
X129952381Y-117166667D02*
X128952381Y-117166667D01*
X128952381Y-117547620D01*
X129000000Y-117642858D01*
X129047619Y-117690477D01*
X129142857Y-117738096D01*
X129285714Y-117738096D01*
X129380952Y-117690477D01*
X129428571Y-117642858D01*
X129476190Y-117547620D01*
X129476190Y-117166667D01*
X129952381Y-118690477D02*
X129952381Y-118119048D01*
X129952381Y-118404762D02*
X128952381Y-118404762D01*
X129095238Y-118309524D01*
X129190476Y-118214286D01*
X129238095Y-118119048D01*
X129285714Y-119547620D02*
X129952381Y-119547620D01*
X128904762Y-119309524D02*
X129619048Y-119071429D01*
X129619048Y-119690477D01*
X126952381Y-116261905D02*
X126952381Y-116833334D01*
X127952381Y-116547619D02*
X126952381Y-116547619D01*
X127952381Y-117166667D02*
X126952381Y-117166667D01*
X126952381Y-117547620D01*
X127000000Y-117642858D01*
X127047619Y-117690477D01*
X127142857Y-117738096D01*
X127285714Y-117738096D01*
X127380952Y-117690477D01*
X127428571Y-117642858D01*
X127476190Y-117547620D01*
X127476190Y-117166667D01*
X127952381Y-118690477D02*
X127952381Y-118119048D01*
X127952381Y-118404762D02*
X126952381Y-118404762D01*
X127095238Y-118309524D01*
X127190476Y-118214286D01*
X127238095Y-118119048D01*
X126952381Y-119595239D02*
X126952381Y-119119048D01*
X127428571Y-119071429D01*
X127380952Y-119119048D01*
X127333333Y-119214286D01*
X127333333Y-119452382D01*
X127380952Y-119547620D01*
X127428571Y-119595239D01*
X127523810Y-119642858D01*
X127761905Y-119642858D01*
X127857143Y-119595239D01*
X127904762Y-119547620D01*
X127952381Y-119452382D01*
X127952381Y-119214286D01*
X127904762Y-119119048D01*
X127857143Y-119071429D01*
X124952381Y-116261905D02*
X124952381Y-116833334D01*
X125952381Y-116547619D02*
X124952381Y-116547619D01*
X125952381Y-117166667D02*
X124952381Y-117166667D01*
X124952381Y-117547620D01*
X125000000Y-117642858D01*
X125047619Y-117690477D01*
X125142857Y-117738096D01*
X125285714Y-117738096D01*
X125380952Y-117690477D01*
X125428571Y-117642858D01*
X125476190Y-117547620D01*
X125476190Y-117166667D01*
X125952381Y-118690477D02*
X125952381Y-118119048D01*
X125952381Y-118404762D02*
X124952381Y-118404762D01*
X125095238Y-118309524D01*
X125190476Y-118214286D01*
X125238095Y-118119048D01*
X124952381Y-119547620D02*
X124952381Y-119357143D01*
X125000000Y-119261905D01*
X125047619Y-119214286D01*
X125190476Y-119119048D01*
X125380952Y-119071429D01*
X125761905Y-119071429D01*
X125857143Y-119119048D01*
X125904762Y-119166667D01*
X125952381Y-119261905D01*
X125952381Y-119452382D01*
X125904762Y-119547620D01*
X125857143Y-119595239D01*
X125761905Y-119642858D01*
X125523810Y-119642858D01*
X125428571Y-119595239D01*
X125380952Y-119547620D01*
X125333333Y-119452382D01*
X125333333Y-119261905D01*
X125380952Y-119166667D01*
X125428571Y-119119048D01*
X125523810Y-119071429D01*
X122952381Y-116261905D02*
X122952381Y-116833334D01*
X123952381Y-116547619D02*
X122952381Y-116547619D01*
X123952381Y-117166667D02*
X122952381Y-117166667D01*
X122952381Y-117547620D01*
X123000000Y-117642858D01*
X123047619Y-117690477D01*
X123142857Y-117738096D01*
X123285714Y-117738096D01*
X123380952Y-117690477D01*
X123428571Y-117642858D01*
X123476190Y-117547620D01*
X123476190Y-117166667D01*
X123952381Y-118690477D02*
X123952381Y-118119048D01*
X123952381Y-118404762D02*
X122952381Y-118404762D01*
X123095238Y-118309524D01*
X123190476Y-118214286D01*
X123238095Y-118119048D01*
X122952381Y-119023810D02*
X122952381Y-119690477D01*
X123952381Y-119261905D01*
X120952381Y-116261905D02*
X120952381Y-116833334D01*
X121952381Y-116547619D02*
X120952381Y-116547619D01*
X121952381Y-117166667D02*
X120952381Y-117166667D01*
X120952381Y-117547620D01*
X121000000Y-117642858D01*
X121047619Y-117690477D01*
X121142857Y-117738096D01*
X121285714Y-117738096D01*
X121380952Y-117690477D01*
X121428571Y-117642858D01*
X121476190Y-117547620D01*
X121476190Y-117166667D01*
X121952381Y-118690477D02*
X121952381Y-118119048D01*
X121952381Y-118404762D02*
X120952381Y-118404762D01*
X121095238Y-118309524D01*
X121190476Y-118214286D01*
X121238095Y-118119048D01*
X121380952Y-119261905D02*
X121333333Y-119166667D01*
X121285714Y-119119048D01*
X121190476Y-119071429D01*
X121142857Y-119071429D01*
X121047619Y-119119048D01*
X121000000Y-119166667D01*
X120952381Y-119261905D01*
X120952381Y-119452382D01*
X121000000Y-119547620D01*
X121047619Y-119595239D01*
X121142857Y-119642858D01*
X121190476Y-119642858D01*
X121285714Y-119595239D01*
X121333333Y-119547620D01*
X121380952Y-119452382D01*
X121380952Y-119261905D01*
X121428571Y-119166667D01*
X121476190Y-119119048D01*
X121571429Y-119071429D01*
X121761905Y-119071429D01*
X121857143Y-119119048D01*
X121904762Y-119166667D01*
X121952381Y-119261905D01*
X121952381Y-119452382D01*
X121904762Y-119547620D01*
X121857143Y-119595239D01*
X121761905Y-119642858D01*
X121571429Y-119642858D01*
X121476190Y-119595239D01*
X121428571Y-119547620D01*
X121380952Y-119452382D01*
X118952381Y-116261905D02*
X118952381Y-116833334D01*
X119952381Y-116547619D02*
X118952381Y-116547619D01*
X119952381Y-117166667D02*
X118952381Y-117166667D01*
X118952381Y-117547620D01*
X119000000Y-117642858D01*
X119047619Y-117690477D01*
X119142857Y-117738096D01*
X119285714Y-117738096D01*
X119380952Y-117690477D01*
X119428571Y-117642858D01*
X119476190Y-117547620D01*
X119476190Y-117166667D01*
X119952381Y-118690477D02*
X119952381Y-118119048D01*
X119952381Y-118404762D02*
X118952381Y-118404762D01*
X119095238Y-118309524D01*
X119190476Y-118214286D01*
X119238095Y-118119048D01*
X119952381Y-119166667D02*
X119952381Y-119357143D01*
X119904762Y-119452382D01*
X119857143Y-119500001D01*
X119714286Y-119595239D01*
X119523810Y-119642858D01*
X119142857Y-119642858D01*
X119047619Y-119595239D01*
X119000000Y-119547620D01*
X118952381Y-119452382D01*
X118952381Y-119261905D01*
X119000000Y-119166667D01*
X119047619Y-119119048D01*
X119142857Y-119071429D01*
X119380952Y-119071429D01*
X119476190Y-119119048D01*
X119523810Y-119166667D01*
X119571429Y-119261905D01*
X119571429Y-119452382D01*
X119523810Y-119547620D01*
X119476190Y-119595239D01*
X119380952Y-119642858D01*
X116952381Y-116261905D02*
X116952381Y-116833334D01*
X117952381Y-116547619D02*
X116952381Y-116547619D01*
X117952381Y-117166667D02*
X116952381Y-117166667D01*
X116952381Y-117547620D01*
X117000000Y-117642858D01*
X117047619Y-117690477D01*
X117142857Y-117738096D01*
X117285714Y-117738096D01*
X117380952Y-117690477D01*
X117428571Y-117642858D01*
X117476190Y-117547620D01*
X117476190Y-117166667D01*
X117047619Y-118119048D02*
X117000000Y-118166667D01*
X116952381Y-118261905D01*
X116952381Y-118500001D01*
X117000000Y-118595239D01*
X117047619Y-118642858D01*
X117142857Y-118690477D01*
X117238095Y-118690477D01*
X117380952Y-118642858D01*
X117952381Y-118071429D01*
X117952381Y-118690477D01*
X116952381Y-119309524D02*
X116952381Y-119404763D01*
X117000000Y-119500001D01*
X117047619Y-119547620D01*
X117142857Y-119595239D01*
X117333333Y-119642858D01*
X117571429Y-119642858D01*
X117761905Y-119595239D01*
X117857143Y-119547620D01*
X117904762Y-119500001D01*
X117952381Y-119404763D01*
X117952381Y-119309524D01*
X117904762Y-119214286D01*
X117857143Y-119166667D01*
X117761905Y-119119048D01*
X117571429Y-119071429D01*
X117333333Y-119071429D01*
X117142857Y-119119048D01*
X117047619Y-119166667D01*
X117000000Y-119214286D01*
X116952381Y-119309524D01*
X132202381Y-61511905D02*
X132202381Y-62083334D01*
X133202381Y-61797619D02*
X132202381Y-61797619D01*
X133202381Y-62416667D02*
X132202381Y-62416667D01*
X132202381Y-62797620D01*
X132250000Y-62892858D01*
X132297619Y-62940477D01*
X132392857Y-62988096D01*
X132535714Y-62988096D01*
X132630952Y-62940477D01*
X132678571Y-62892858D01*
X132726190Y-62797620D01*
X132726190Y-62416667D01*
X132297619Y-63369048D02*
X132250000Y-63416667D01*
X132202381Y-63511905D01*
X132202381Y-63750001D01*
X132250000Y-63845239D01*
X132297619Y-63892858D01*
X132392857Y-63940477D01*
X132488095Y-63940477D01*
X132630952Y-63892858D01*
X133202381Y-63321429D01*
X133202381Y-63940477D01*
X133202381Y-64892858D02*
X133202381Y-64321429D01*
X133202381Y-64607143D02*
X132202381Y-64607143D01*
X132345238Y-64511905D01*
X132440476Y-64416667D01*
X132488095Y-64321429D01*
X129702381Y-61511905D02*
X129702381Y-62083334D01*
X130702381Y-61797619D02*
X129702381Y-61797619D01*
X130702381Y-62416667D02*
X129702381Y-62416667D01*
X129702381Y-62797620D01*
X129750000Y-62892858D01*
X129797619Y-62940477D01*
X129892857Y-62988096D01*
X130035714Y-62988096D01*
X130130952Y-62940477D01*
X130178571Y-62892858D01*
X130226190Y-62797620D01*
X130226190Y-62416667D01*
X129797619Y-63369048D02*
X129750000Y-63416667D01*
X129702381Y-63511905D01*
X129702381Y-63750001D01*
X129750000Y-63845239D01*
X129797619Y-63892858D01*
X129892857Y-63940477D01*
X129988095Y-63940477D01*
X130130952Y-63892858D01*
X130702381Y-63321429D01*
X130702381Y-63940477D01*
X129797619Y-64321429D02*
X129750000Y-64369048D01*
X129702381Y-64464286D01*
X129702381Y-64702382D01*
X129750000Y-64797620D01*
X129797619Y-64845239D01*
X129892857Y-64892858D01*
X129988095Y-64892858D01*
X130130952Y-64845239D01*
X130702381Y-64273810D01*
X130702381Y-64892858D01*
X114738095Y-70952381D02*
X114166666Y-70952381D01*
X114452381Y-71952381D02*
X114452381Y-70952381D01*
X113833333Y-71952381D02*
X113833333Y-70952381D01*
X113452380Y-70952381D01*
X113357142Y-71000000D01*
X113309523Y-71047619D01*
X113261904Y-71142857D01*
X113261904Y-71285714D01*
X113309523Y-71380952D01*
X113357142Y-71428571D01*
X113452380Y-71476190D01*
X113833333Y-71476190D01*
X112880952Y-71047619D02*
X112833333Y-71000000D01*
X112738095Y-70952381D01*
X112499999Y-70952381D01*
X112404761Y-71000000D01*
X112357142Y-71047619D01*
X112309523Y-71142857D01*
X112309523Y-71238095D01*
X112357142Y-71380952D01*
X112928571Y-71952381D01*
X112309523Y-71952381D01*
X111976190Y-70952381D02*
X111357142Y-70952381D01*
X111690476Y-71333333D01*
X111547618Y-71333333D01*
X111452380Y-71380952D01*
X111404761Y-71428571D01*
X111357142Y-71523810D01*
X111357142Y-71761905D01*
X111404761Y-71857143D01*
X111452380Y-71904762D01*
X111547618Y-71952381D01*
X111833333Y-71952381D01*
X111928571Y-71904762D01*
X111976190Y-71857143D01*
X162452381Y-58761905D02*
X162452381Y-59333334D01*
X163452381Y-59047619D02*
X162452381Y-59047619D01*
X163452381Y-59666667D02*
X162452381Y-59666667D01*
X162452381Y-60047620D01*
X162500000Y-60142858D01*
X162547619Y-60190477D01*
X162642857Y-60238096D01*
X162785714Y-60238096D01*
X162880952Y-60190477D01*
X162928571Y-60142858D01*
X162976190Y-60047620D01*
X162976190Y-59666667D01*
X162547619Y-60619048D02*
X162500000Y-60666667D01*
X162452381Y-60761905D01*
X162452381Y-61000001D01*
X162500000Y-61095239D01*
X162547619Y-61142858D01*
X162642857Y-61190477D01*
X162738095Y-61190477D01*
X162880952Y-61142858D01*
X163452381Y-60571429D01*
X163452381Y-61190477D01*
X162785714Y-62047620D02*
X163452381Y-62047620D01*
X162404762Y-61809524D02*
X163119048Y-61571429D01*
X163119048Y-62190477D01*
X156352381Y-116261905D02*
X156352381Y-116833334D01*
X157352381Y-116547619D02*
X156352381Y-116547619D01*
X157352381Y-117166667D02*
X156352381Y-117166667D01*
X156352381Y-117547620D01*
X156400000Y-117642858D01*
X156447619Y-117690477D01*
X156542857Y-117738096D01*
X156685714Y-117738096D01*
X156780952Y-117690477D01*
X156828571Y-117642858D01*
X156876190Y-117547620D01*
X156876190Y-117166667D01*
X156447619Y-118119048D02*
X156400000Y-118166667D01*
X156352381Y-118261905D01*
X156352381Y-118500001D01*
X156400000Y-118595239D01*
X156447619Y-118642858D01*
X156542857Y-118690477D01*
X156638095Y-118690477D01*
X156780952Y-118642858D01*
X157352381Y-118071429D01*
X157352381Y-118690477D01*
X156352381Y-119595239D02*
X156352381Y-119119048D01*
X156828571Y-119071429D01*
X156780952Y-119119048D01*
X156733333Y-119214286D01*
X156733333Y-119452382D01*
X156780952Y-119547620D01*
X156828571Y-119595239D01*
X156923810Y-119642858D01*
X157161905Y-119642858D01*
X157257143Y-119595239D01*
X157304762Y-119547620D01*
X157352381Y-119452382D01*
X157352381Y-119214286D01*
X157304762Y-119119048D01*
X157257143Y-119071429D01*
X160452381Y-58761905D02*
X160452381Y-59333334D01*
X161452381Y-59047619D02*
X160452381Y-59047619D01*
X161452381Y-59666667D02*
X160452381Y-59666667D01*
X160452381Y-60047620D01*
X160500000Y-60142858D01*
X160547619Y-60190477D01*
X160642857Y-60238096D01*
X160785714Y-60238096D01*
X160880952Y-60190477D01*
X160928571Y-60142858D01*
X160976190Y-60047620D01*
X160976190Y-59666667D01*
X160547619Y-60619048D02*
X160500000Y-60666667D01*
X160452381Y-60761905D01*
X160452381Y-61000001D01*
X160500000Y-61095239D01*
X160547619Y-61142858D01*
X160642857Y-61190477D01*
X160738095Y-61190477D01*
X160880952Y-61142858D01*
X161452381Y-60571429D01*
X161452381Y-61190477D01*
X160452381Y-62047620D02*
X160452381Y-61857143D01*
X160500000Y-61761905D01*
X160547619Y-61714286D01*
X160690476Y-61619048D01*
X160880952Y-61571429D01*
X161261905Y-61571429D01*
X161357143Y-61619048D01*
X161404762Y-61666667D01*
X161452381Y-61761905D01*
X161452381Y-61952382D01*
X161404762Y-62047620D01*
X161357143Y-62095239D01*
X161261905Y-62142858D01*
X161023810Y-62142858D01*
X160928571Y-62095239D01*
X160880952Y-62047620D01*
X160833333Y-61952382D01*
X160833333Y-61761905D01*
X160880952Y-61666667D01*
X160928571Y-61619048D01*
X161023810Y-61571429D01*
X144352381Y-116261905D02*
X144352381Y-116833334D01*
X145352381Y-116547619D02*
X144352381Y-116547619D01*
X145352381Y-117166667D02*
X144352381Y-117166667D01*
X144352381Y-117547620D01*
X144400000Y-117642858D01*
X144447619Y-117690477D01*
X144542857Y-117738096D01*
X144685714Y-117738096D01*
X144780952Y-117690477D01*
X144828571Y-117642858D01*
X144876190Y-117547620D01*
X144876190Y-117166667D01*
X144447619Y-118119048D02*
X144400000Y-118166667D01*
X144352381Y-118261905D01*
X144352381Y-118500001D01*
X144400000Y-118595239D01*
X144447619Y-118642858D01*
X144542857Y-118690477D01*
X144638095Y-118690477D01*
X144780952Y-118642858D01*
X145352381Y-118071429D01*
X145352381Y-118690477D01*
X144352381Y-119023810D02*
X144352381Y-119690477D01*
X145352381Y-119261905D01*
X146352381Y-116261905D02*
X146352381Y-116833334D01*
X147352381Y-116547619D02*
X146352381Y-116547619D01*
X147352381Y-117166667D02*
X146352381Y-117166667D01*
X146352381Y-117547620D01*
X146400000Y-117642858D01*
X146447619Y-117690477D01*
X146542857Y-117738096D01*
X146685714Y-117738096D01*
X146780952Y-117690477D01*
X146828571Y-117642858D01*
X146876190Y-117547620D01*
X146876190Y-117166667D01*
X146447619Y-118119048D02*
X146400000Y-118166667D01*
X146352381Y-118261905D01*
X146352381Y-118500001D01*
X146400000Y-118595239D01*
X146447619Y-118642858D01*
X146542857Y-118690477D01*
X146638095Y-118690477D01*
X146780952Y-118642858D01*
X147352381Y-118071429D01*
X147352381Y-118690477D01*
X146780952Y-119261905D02*
X146733333Y-119166667D01*
X146685714Y-119119048D01*
X146590476Y-119071429D01*
X146542857Y-119071429D01*
X146447619Y-119119048D01*
X146400000Y-119166667D01*
X146352381Y-119261905D01*
X146352381Y-119452382D01*
X146400000Y-119547620D01*
X146447619Y-119595239D01*
X146542857Y-119642858D01*
X146590476Y-119642858D01*
X146685714Y-119595239D01*
X146733333Y-119547620D01*
X146780952Y-119452382D01*
X146780952Y-119261905D01*
X146828571Y-119166667D01*
X146876190Y-119119048D01*
X146971429Y-119071429D01*
X147161905Y-119071429D01*
X147257143Y-119119048D01*
X147304762Y-119166667D01*
X147352381Y-119261905D01*
X147352381Y-119452382D01*
X147304762Y-119547620D01*
X147257143Y-119595239D01*
X147161905Y-119642858D01*
X146971429Y-119642858D01*
X146876190Y-119595239D01*
X146828571Y-119547620D01*
X146780952Y-119452382D01*
X150352381Y-116261905D02*
X150352381Y-116833334D01*
X151352381Y-116547619D02*
X150352381Y-116547619D01*
X151352381Y-117166667D02*
X150352381Y-117166667D01*
X150352381Y-117547620D01*
X150400000Y-117642858D01*
X150447619Y-117690477D01*
X150542857Y-117738096D01*
X150685714Y-117738096D01*
X150780952Y-117690477D01*
X150828571Y-117642858D01*
X150876190Y-117547620D01*
X150876190Y-117166667D01*
X150447619Y-118119048D02*
X150400000Y-118166667D01*
X150352381Y-118261905D01*
X150352381Y-118500001D01*
X150400000Y-118595239D01*
X150447619Y-118642858D01*
X150542857Y-118690477D01*
X150638095Y-118690477D01*
X150780952Y-118642858D01*
X151352381Y-118071429D01*
X151352381Y-118690477D01*
X151352381Y-119166667D02*
X151352381Y-119357143D01*
X151304762Y-119452382D01*
X151257143Y-119500001D01*
X151114286Y-119595239D01*
X150923810Y-119642858D01*
X150542857Y-119642858D01*
X150447619Y-119595239D01*
X150400000Y-119547620D01*
X150352381Y-119452382D01*
X150352381Y-119261905D01*
X150400000Y-119166667D01*
X150447619Y-119119048D01*
X150542857Y-119071429D01*
X150780952Y-119071429D01*
X150876190Y-119119048D01*
X150923810Y-119166667D01*
X150971429Y-119261905D01*
X150971429Y-119452382D01*
X150923810Y-119547620D01*
X150876190Y-119595239D01*
X150780952Y-119642858D01*
X148352381Y-116261905D02*
X148352381Y-116833334D01*
X149352381Y-116547619D02*
X148352381Y-116547619D01*
X149352381Y-117166667D02*
X148352381Y-117166667D01*
X148352381Y-117547620D01*
X148400000Y-117642858D01*
X148447619Y-117690477D01*
X148542857Y-117738096D01*
X148685714Y-117738096D01*
X148780952Y-117690477D01*
X148828571Y-117642858D01*
X148876190Y-117547620D01*
X148876190Y-117166667D01*
X148352381Y-118071429D02*
X148352381Y-118690477D01*
X148733333Y-118357143D01*
X148733333Y-118500001D01*
X148780952Y-118595239D01*
X148828571Y-118642858D01*
X148923810Y-118690477D01*
X149161905Y-118690477D01*
X149257143Y-118642858D01*
X149304762Y-118595239D01*
X149352381Y-118500001D01*
X149352381Y-118214286D01*
X149304762Y-118119048D01*
X149257143Y-118071429D01*
X148352381Y-119309524D02*
X148352381Y-119404763D01*
X148400000Y-119500001D01*
X148447619Y-119547620D01*
X148542857Y-119595239D01*
X148733333Y-119642858D01*
X148971429Y-119642858D01*
X149161905Y-119595239D01*
X149257143Y-119547620D01*
X149304762Y-119500001D01*
X149352381Y-119404763D01*
X149352381Y-119309524D01*
X149304762Y-119214286D01*
X149257143Y-119166667D01*
X149161905Y-119119048D01*
X148971429Y-119071429D01*
X148733333Y-119071429D01*
X148542857Y-119119048D01*
X148447619Y-119166667D01*
X148400000Y-119214286D01*
X148352381Y-119309524D01*
X152352381Y-116261905D02*
X152352381Y-116833334D01*
X153352381Y-116547619D02*
X152352381Y-116547619D01*
X153352381Y-117166667D02*
X152352381Y-117166667D01*
X152352381Y-117547620D01*
X152400000Y-117642858D01*
X152447619Y-117690477D01*
X152542857Y-117738096D01*
X152685714Y-117738096D01*
X152780952Y-117690477D01*
X152828571Y-117642858D01*
X152876190Y-117547620D01*
X152876190Y-117166667D01*
X152352381Y-118071429D02*
X152352381Y-118690477D01*
X152733333Y-118357143D01*
X152733333Y-118500001D01*
X152780952Y-118595239D01*
X152828571Y-118642858D01*
X152923810Y-118690477D01*
X153161905Y-118690477D01*
X153257143Y-118642858D01*
X153304762Y-118595239D01*
X153352381Y-118500001D01*
X153352381Y-118214286D01*
X153304762Y-118119048D01*
X153257143Y-118071429D01*
X153352381Y-119642858D02*
X153352381Y-119071429D01*
X153352381Y-119357143D02*
X152352381Y-119357143D01*
X152495238Y-119261905D01*
X152590476Y-119166667D01*
X152638095Y-119071429D01*
X154352381Y-116261905D02*
X154352381Y-116833334D01*
X155352381Y-116547619D02*
X154352381Y-116547619D01*
X155352381Y-117166667D02*
X154352381Y-117166667D01*
X154352381Y-117547620D01*
X154400000Y-117642858D01*
X154447619Y-117690477D01*
X154542857Y-117738096D01*
X154685714Y-117738096D01*
X154780952Y-117690477D01*
X154828571Y-117642858D01*
X154876190Y-117547620D01*
X154876190Y-117166667D01*
X154352381Y-118071429D02*
X154352381Y-118690477D01*
X154733333Y-118357143D01*
X154733333Y-118500001D01*
X154780952Y-118595239D01*
X154828571Y-118642858D01*
X154923810Y-118690477D01*
X155161905Y-118690477D01*
X155257143Y-118642858D01*
X155304762Y-118595239D01*
X155352381Y-118500001D01*
X155352381Y-118214286D01*
X155304762Y-118119048D01*
X155257143Y-118071429D01*
X154447619Y-119071429D02*
X154400000Y-119119048D01*
X154352381Y-119214286D01*
X154352381Y-119452382D01*
X154400000Y-119547620D01*
X154447619Y-119595239D01*
X154542857Y-119642858D01*
X154638095Y-119642858D01*
X154780952Y-119595239D01*
X155352381Y-119023810D01*
X155352381Y-119642858D01*
X136352381Y-116261905D02*
X136352381Y-116833334D01*
X137352381Y-116547619D02*
X136352381Y-116547619D01*
X137352381Y-117166667D02*
X136352381Y-117166667D01*
X136352381Y-117547620D01*
X136400000Y-117642858D01*
X136447619Y-117690477D01*
X136542857Y-117738096D01*
X136685714Y-117738096D01*
X136780952Y-117690477D01*
X136828571Y-117642858D01*
X136876190Y-117547620D01*
X136876190Y-117166667D01*
X136352381Y-118071429D02*
X136352381Y-118690477D01*
X136733333Y-118357143D01*
X136733333Y-118500001D01*
X136780952Y-118595239D01*
X136828571Y-118642858D01*
X136923810Y-118690477D01*
X137161905Y-118690477D01*
X137257143Y-118642858D01*
X137304762Y-118595239D01*
X137352381Y-118500001D01*
X137352381Y-118214286D01*
X137304762Y-118119048D01*
X137257143Y-118071429D01*
X136352381Y-119023810D02*
X136352381Y-119642858D01*
X136733333Y-119309524D01*
X136733333Y-119452382D01*
X136780952Y-119547620D01*
X136828571Y-119595239D01*
X136923810Y-119642858D01*
X137161905Y-119642858D01*
X137257143Y-119595239D01*
X137304762Y-119547620D01*
X137352381Y-119452382D01*
X137352381Y-119166667D01*
X137304762Y-119071429D01*
X137257143Y-119023810D01*
X140352381Y-116261905D02*
X140352381Y-116833334D01*
X141352381Y-116547619D02*
X140352381Y-116547619D01*
X141352381Y-117166667D02*
X140352381Y-117166667D01*
X140352381Y-117547620D01*
X140400000Y-117642858D01*
X140447619Y-117690477D01*
X140542857Y-117738096D01*
X140685714Y-117738096D01*
X140780952Y-117690477D01*
X140828571Y-117642858D01*
X140876190Y-117547620D01*
X140876190Y-117166667D01*
X140352381Y-118071429D02*
X140352381Y-118690477D01*
X140733333Y-118357143D01*
X140733333Y-118500001D01*
X140780952Y-118595239D01*
X140828571Y-118642858D01*
X140923810Y-118690477D01*
X141161905Y-118690477D01*
X141257143Y-118642858D01*
X141304762Y-118595239D01*
X141352381Y-118500001D01*
X141352381Y-118214286D01*
X141304762Y-118119048D01*
X141257143Y-118071429D01*
X140685714Y-119547620D02*
X141352381Y-119547620D01*
X140304762Y-119309524D02*
X141019048Y-119071429D01*
X141019048Y-119690477D01*
X138352381Y-116261905D02*
X138352381Y-116833334D01*
X139352381Y-116547619D02*
X138352381Y-116547619D01*
X139352381Y-117166667D02*
X138352381Y-117166667D01*
X138352381Y-117547620D01*
X138400000Y-117642858D01*
X138447619Y-117690477D01*
X138542857Y-117738096D01*
X138685714Y-117738096D01*
X138780952Y-117690477D01*
X138828571Y-117642858D01*
X138876190Y-117547620D01*
X138876190Y-117166667D01*
X138352381Y-118071429D02*
X138352381Y-118690477D01*
X138733333Y-118357143D01*
X138733333Y-118500001D01*
X138780952Y-118595239D01*
X138828571Y-118642858D01*
X138923810Y-118690477D01*
X139161905Y-118690477D01*
X139257143Y-118642858D01*
X139304762Y-118595239D01*
X139352381Y-118500001D01*
X139352381Y-118214286D01*
X139304762Y-118119048D01*
X139257143Y-118071429D01*
X138352381Y-119595239D02*
X138352381Y-119119048D01*
X138828571Y-119071429D01*
X138780952Y-119119048D01*
X138733333Y-119214286D01*
X138733333Y-119452382D01*
X138780952Y-119547620D01*
X138828571Y-119595239D01*
X138923810Y-119642858D01*
X139161905Y-119642858D01*
X139257143Y-119595239D01*
X139304762Y-119547620D01*
X139352381Y-119452382D01*
X139352381Y-119214286D01*
X139304762Y-119119048D01*
X139257143Y-119071429D01*
X112952381Y-116261905D02*
X112952381Y-116833334D01*
X113952381Y-116547619D02*
X112952381Y-116547619D01*
X113952381Y-117166667D02*
X112952381Y-117166667D01*
X112952381Y-117547620D01*
X113000000Y-117642858D01*
X113047619Y-117690477D01*
X113142857Y-117738096D01*
X113285714Y-117738096D01*
X113380952Y-117690477D01*
X113428571Y-117642858D01*
X113476190Y-117547620D01*
X113476190Y-117166667D01*
X112952381Y-118071429D02*
X112952381Y-118690477D01*
X113333333Y-118357143D01*
X113333333Y-118500001D01*
X113380952Y-118595239D01*
X113428571Y-118642858D01*
X113523810Y-118690477D01*
X113761905Y-118690477D01*
X113857143Y-118642858D01*
X113904762Y-118595239D01*
X113952381Y-118500001D01*
X113952381Y-118214286D01*
X113904762Y-118119048D01*
X113857143Y-118071429D01*
X112952381Y-119547620D02*
X112952381Y-119357143D01*
X113000000Y-119261905D01*
X113047619Y-119214286D01*
X113190476Y-119119048D01*
X113380952Y-119071429D01*
X113761905Y-119071429D01*
X113857143Y-119119048D01*
X113904762Y-119166667D01*
X113952381Y-119261905D01*
X113952381Y-119452382D01*
X113904762Y-119547620D01*
X113857143Y-119595239D01*
X113761905Y-119642858D01*
X113523810Y-119642858D01*
X113428571Y-119595239D01*
X113380952Y-119547620D01*
X113333333Y-119452382D01*
X113333333Y-119261905D01*
X113380952Y-119166667D01*
X113428571Y-119119048D01*
X113523810Y-119071429D01*
X114952381Y-116261905D02*
X114952381Y-116833334D01*
X115952381Y-116547619D02*
X114952381Y-116547619D01*
X115952381Y-117166667D02*
X114952381Y-117166667D01*
X114952381Y-117547620D01*
X115000000Y-117642858D01*
X115047619Y-117690477D01*
X115142857Y-117738096D01*
X115285714Y-117738096D01*
X115380952Y-117690477D01*
X115428571Y-117642858D01*
X115476190Y-117547620D01*
X115476190Y-117166667D01*
X114952381Y-118071429D02*
X114952381Y-118690477D01*
X115333333Y-118357143D01*
X115333333Y-118500001D01*
X115380952Y-118595239D01*
X115428571Y-118642858D01*
X115523810Y-118690477D01*
X115761905Y-118690477D01*
X115857143Y-118642858D01*
X115904762Y-118595239D01*
X115952381Y-118500001D01*
X115952381Y-118214286D01*
X115904762Y-118119048D01*
X115857143Y-118071429D01*
X114952381Y-119023810D02*
X114952381Y-119690477D01*
X115952381Y-119261905D01*
X110952381Y-116261905D02*
X110952381Y-116833334D01*
X111952381Y-116547619D02*
X110952381Y-116547619D01*
X111952381Y-117166667D02*
X110952381Y-117166667D01*
X110952381Y-117547620D01*
X111000000Y-117642858D01*
X111047619Y-117690477D01*
X111142857Y-117738096D01*
X111285714Y-117738096D01*
X111380952Y-117690477D01*
X111428571Y-117642858D01*
X111476190Y-117547620D01*
X111476190Y-117166667D01*
X110952381Y-118071429D02*
X110952381Y-118690477D01*
X111333333Y-118357143D01*
X111333333Y-118500001D01*
X111380952Y-118595239D01*
X111428571Y-118642858D01*
X111523810Y-118690477D01*
X111761905Y-118690477D01*
X111857143Y-118642858D01*
X111904762Y-118595239D01*
X111952381Y-118500001D01*
X111952381Y-118214286D01*
X111904762Y-118119048D01*
X111857143Y-118071429D01*
X111380952Y-119261905D02*
X111333333Y-119166667D01*
X111285714Y-119119048D01*
X111190476Y-119071429D01*
X111142857Y-119071429D01*
X111047619Y-119119048D01*
X111000000Y-119166667D01*
X110952381Y-119261905D01*
X110952381Y-119452382D01*
X111000000Y-119547620D01*
X111047619Y-119595239D01*
X111142857Y-119642858D01*
X111190476Y-119642858D01*
X111285714Y-119595239D01*
X111333333Y-119547620D01*
X111380952Y-119452382D01*
X111380952Y-119261905D01*
X111428571Y-119166667D01*
X111476190Y-119119048D01*
X111571429Y-119071429D01*
X111761905Y-119071429D01*
X111857143Y-119119048D01*
X111904762Y-119166667D01*
X111952381Y-119261905D01*
X111952381Y-119452382D01*
X111904762Y-119547620D01*
X111857143Y-119595239D01*
X111761905Y-119642858D01*
X111571429Y-119642858D01*
X111476190Y-119595239D01*
X111428571Y-119547620D01*
X111380952Y-119452382D01*
X171452381Y-88261905D02*
X171452381Y-88833334D01*
X172452381Y-88547619D02*
X171452381Y-88547619D01*
X172452381Y-89166667D02*
X171452381Y-89166667D01*
X171452381Y-89547620D01*
X171500000Y-89642858D01*
X171547619Y-89690477D01*
X171642857Y-89738096D01*
X171785714Y-89738096D01*
X171880952Y-89690477D01*
X171928571Y-89642858D01*
X171976190Y-89547620D01*
X171976190Y-89166667D01*
X171452381Y-90071429D02*
X171452381Y-90690477D01*
X171833333Y-90357143D01*
X171833333Y-90500001D01*
X171880952Y-90595239D01*
X171928571Y-90642858D01*
X172023810Y-90690477D01*
X172261905Y-90690477D01*
X172357143Y-90642858D01*
X172404762Y-90595239D01*
X172452381Y-90500001D01*
X172452381Y-90214286D01*
X172404762Y-90119048D01*
X172357143Y-90071429D01*
X172452381Y-91166667D02*
X172452381Y-91357143D01*
X172404762Y-91452382D01*
X172357143Y-91500001D01*
X172214286Y-91595239D01*
X172023810Y-91642858D01*
X171642857Y-91642858D01*
X171547619Y-91595239D01*
X171500000Y-91547620D01*
X171452381Y-91452382D01*
X171452381Y-91261905D01*
X171500000Y-91166667D01*
X171547619Y-91119048D01*
X171642857Y-91071429D01*
X171880952Y-91071429D01*
X171976190Y-91119048D01*
X172023810Y-91166667D01*
X172071429Y-91261905D01*
X172071429Y-91452382D01*
X172023810Y-91547620D01*
X171976190Y-91595239D01*
X171880952Y-91642858D01*
X128642857Y-75902381D02*
X128976191Y-75426190D01*
X129214286Y-75902381D02*
X129214286Y-74902381D01*
X128833333Y-74902381D01*
X128738095Y-74950000D01*
X128690476Y-74997619D01*
X128642857Y-75092857D01*
X128642857Y-75235714D01*
X128690476Y-75330952D01*
X128738095Y-75378571D01*
X128833333Y-75426190D01*
X129214286Y-75426190D01*
X127690476Y-75902381D02*
X128261905Y-75902381D01*
X127976191Y-75902381D02*
X127976191Y-74902381D01*
X128071429Y-75045238D01*
X128166667Y-75140476D01*
X128261905Y-75188095D01*
X127357143Y-74902381D02*
X126690476Y-74902381D01*
X127119048Y-75902381D01*
X128642857Y-73902381D02*
X128976191Y-73426190D01*
X129214286Y-73902381D02*
X129214286Y-72902381D01*
X128833333Y-72902381D01*
X128738095Y-72950000D01*
X128690476Y-72997619D01*
X128642857Y-73092857D01*
X128642857Y-73235714D01*
X128690476Y-73330952D01*
X128738095Y-73378571D01*
X128833333Y-73426190D01*
X129214286Y-73426190D01*
X127690476Y-73902381D02*
X128261905Y-73902381D01*
X127976191Y-73902381D02*
X127976191Y-72902381D01*
X128071429Y-73045238D01*
X128166667Y-73140476D01*
X128261905Y-73188095D01*
X127119048Y-73330952D02*
X127214286Y-73283333D01*
X127261905Y-73235714D01*
X127309524Y-73140476D01*
X127309524Y-73092857D01*
X127261905Y-72997619D01*
X127214286Y-72950000D01*
X127119048Y-72902381D01*
X126928571Y-72902381D01*
X126833333Y-72950000D01*
X126785714Y-72997619D01*
X126738095Y-73092857D01*
X126738095Y-73140476D01*
X126785714Y-73235714D01*
X126833333Y-73283333D01*
X126928571Y-73330952D01*
X127119048Y-73330952D01*
X127214286Y-73378571D01*
X127261905Y-73426190D01*
X127309524Y-73521429D01*
X127309524Y-73711905D01*
X127261905Y-73807143D01*
X127214286Y-73854762D01*
X127119048Y-73902381D01*
X126928571Y-73902381D01*
X126833333Y-73854762D01*
X126785714Y-73807143D01*
X126738095Y-73711905D01*
X126738095Y-73521429D01*
X126785714Y-73426190D01*
X126833333Y-73378571D01*
X126928571Y-73330952D01*
M02*
