M48
INCH,TZ
T1C0.008
T2C0.039
%
G90
G05
T1
X38406Y-36083
X38996Y-36083
X39193Y-26043
X39390Y-26240
X39606Y-28661
X39921Y-29213
X39921Y-43071
X40151Y-43506
X40157Y-37795
X40394Y-29134
X40394Y-43377
X40591Y-28346
X40591Y-38348
X40787Y-42677
X40974Y-30551
X41260Y-43241
X41339Y-29134
X41417Y-37717
X41654Y-43780
X41875Y-43241
X41890Y-29134
X41890Y-37717
X42085Y-43072
X42126Y-36220
X42349Y-43068
X42362Y-29055
X42598Y-44016
X42801Y-42428
X42913Y-29055
X42913Y-37717
X43386Y-29134
X43386Y-36063
X43386Y-37717
X43858Y-37717
X43858Y-38976
X43937Y-29213
X44094Y-43858
X44094Y-45512
X44166Y-43611
X44331Y-29213
X44882Y-45512
X44892Y-43572
X45118Y-44331
X45276Y-39291
X45276Y-40472
X45354Y-44518
X45648Y-43763
X45669Y-45512
X46457Y-45512
X46459Y-44248
X46713Y-28366
X46713Y-34783
X47244Y-34331
X47244Y-43750
X47244Y-45512
X47795Y-39291
X47874Y-36063
X48031Y-45512
X48504Y-44167
X48700Y-30890
X48701Y-40413
X48819Y-44016
X48819Y-45512
X49528Y-29134
X49528Y-34331
X49606Y-44167
X49606Y-45512
X49764Y-39291
X49803Y-40413
X50394Y-44518
X50394Y-45512
X51181Y-31732
X51181Y-37244
X51181Y-45512
X52362Y-39291
X54092Y-44276
X54095Y-45512
X54098Y-42878
X54331Y-39291
X54331Y-40413
X54882Y-42904
X54882Y-45517
X55669Y-45517
X55669Y-43159
X56850Y-39291
X57204Y-42517
X57204Y-42517
X57243Y-45521
X57752Y-43415
X57953Y-31260
X58033Y-45515
X58204Y-43115
X58268Y-31260
X58402Y-43609
X58818Y-45518
X58819Y-39291
X58858Y-40413
X58871Y-42994
X59603Y-45518
X59663Y-43609
X60393Y-45515
X60394Y-42835
X60787Y-38976
X61176Y-45515
X61417Y-39291
X61654Y-33780
X61890Y-30787
X61891Y-32199
X61967Y-45513
X62126Y-42598
X62126Y-42598
X62126Y-42598
X62202Y-34042
X62264Y-33366
X62350Y-24875
X62402Y-27559
X62402Y-29724
X62402Y-31890
X62402Y-34685
X62402Y-40413
X62541Y-43609
X62610Y-25243
X62815Y-22701
X62948Y-43481
X63146Y-32435
X63209Y-33819
X63209Y-33524
X63228Y-30079
X63307Y-31181
X63386Y-40472
X63386Y-43481
X63406Y-27736
X63464Y-29531
X63465Y-30945
X63592Y-35525
X63622Y-32756
X63622Y-34016
X63622Y-44754
X63701Y-38976
X63701Y-41732
X63929Y-43638
X63937Y-32992
X64094Y-43858
X64173Y-32598
X64173Y-44567
X64242Y-31010
X64252Y-34016
X64301Y-33602
X64313Y-41732
X64334Y-42988
X64409Y-44409
X64486Y-31205
X64488Y-33301
X64633Y-43726
X64687Y-42787
X64862Y-26280
X64862Y-29587
X64882Y-31181
X64902Y-24545
X64953Y-29138
X65101Y-34016
X65101Y-36051
X65101Y-38324
X65156Y-43270
X65191Y-33524
X65276Y-43967
X65374Y-33327
X65485Y-35512
X65591Y-31102
X65591Y-32205
X65669Y-34016
X65807Y-35674
X65827Y-47874
X65827Y-48268
X66071Y-30677
X66555Y-47303
X66752Y-34508
X66791Y-32421
X66989Y-33280
X67037Y-32960
X67224Y-27776
X67256Y-33280
X67271Y-32856
X67402Y-47874
X67638Y-48661
X67661Y-32243
X68108Y-38974
X68110Y-39370
X68112Y-38193
X68112Y-38582
X68268Y-36181
X68307Y-30079
X68307Y-30669
X68504Y-29764
X68740Y-30276
X70630Y-46929
T2
X51504Y-23445
X52504Y-23445
X53504Y-23445
X54504Y-23445
X64327Y-49366
X64327Y-50366
X65327Y-49366
X65327Y-50366
T0
M30
