G04 #@! TF.FileFunction,Legend,Top*
%FSLAX46Y46*%
G04 Gerber Fmt 4.6, Leading zero omitted, Abs format (unit mm)*
G04 Created by KiCad (PCBNEW 4.0.7) date Thu Dec  7 16:12:30 2017*
%MOMM*%
%LPD*%
G01*
G04 APERTURE LIST*
%ADD10C,0.100000*%
%ADD11C,0.150000*%
%ADD12C,0.120000*%
G04 APERTURE END LIST*
D10*
D11*
X119650000Y-85550000D02*
X119650000Y-55550000D01*
X149650000Y-85550000D02*
X119650000Y-85550000D01*
X149650000Y-55550000D02*
X149650000Y-85550000D01*
X119650000Y-55550000D02*
X149650000Y-55550000D01*
D12*
X155000000Y-100000000D02*
X162000000Y-100000000D01*
X155000000Y-105200000D02*
X162000000Y-105200000D01*
X162000000Y-105200000D02*
X162000000Y-104200000D01*
X143500000Y-100000000D02*
X150500000Y-100000000D01*
X143500000Y-105200000D02*
X150500000Y-105200000D01*
X150500000Y-105200000D02*
X150500000Y-104200000D01*
X132000000Y-100000000D02*
X139000000Y-100000000D01*
X132000000Y-105200000D02*
X139000000Y-105200000D01*
X139000000Y-105200000D02*
X139000000Y-104200000D01*
X120500000Y-100000000D02*
X127500000Y-100000000D01*
X120500000Y-105200000D02*
X127500000Y-105200000D01*
X127500000Y-105200000D02*
X127500000Y-104200000D01*
X109000000Y-100000000D02*
X116000000Y-100000000D01*
X109000000Y-105200000D02*
X116000000Y-105200000D01*
X116000000Y-105200000D02*
X116000000Y-104200000D01*
D11*
X157761905Y-99552381D02*
X157761905Y-98552381D01*
X158000000Y-98552381D01*
X158142858Y-98600000D01*
X158238096Y-98695238D01*
X158285715Y-98790476D01*
X158333334Y-98980952D01*
X158333334Y-99123810D01*
X158285715Y-99314286D01*
X158238096Y-99409524D01*
X158142858Y-99504762D01*
X158000000Y-99552381D01*
X157761905Y-99552381D01*
X159190477Y-98885714D02*
X159190477Y-99552381D01*
X158952381Y-98504762D02*
X158714286Y-99219048D01*
X159333334Y-99219048D01*
X146261905Y-99552381D02*
X146261905Y-98552381D01*
X146500000Y-98552381D01*
X146642858Y-98600000D01*
X146738096Y-98695238D01*
X146785715Y-98790476D01*
X146833334Y-98980952D01*
X146833334Y-99123810D01*
X146785715Y-99314286D01*
X146738096Y-99409524D01*
X146642858Y-99504762D01*
X146500000Y-99552381D01*
X146261905Y-99552381D01*
X147738096Y-98552381D02*
X147261905Y-98552381D01*
X147214286Y-99028571D01*
X147261905Y-98980952D01*
X147357143Y-98933333D01*
X147595239Y-98933333D01*
X147690477Y-98980952D01*
X147738096Y-99028571D01*
X147785715Y-99123810D01*
X147785715Y-99361905D01*
X147738096Y-99457143D01*
X147690477Y-99504762D01*
X147595239Y-99552381D01*
X147357143Y-99552381D01*
X147261905Y-99504762D01*
X147214286Y-99457143D01*
X134761905Y-99552381D02*
X134761905Y-98552381D01*
X135000000Y-98552381D01*
X135142858Y-98600000D01*
X135238096Y-98695238D01*
X135285715Y-98790476D01*
X135333334Y-98980952D01*
X135333334Y-99123810D01*
X135285715Y-99314286D01*
X135238096Y-99409524D01*
X135142858Y-99504762D01*
X135000000Y-99552381D01*
X134761905Y-99552381D01*
X136190477Y-98552381D02*
X136000000Y-98552381D01*
X135904762Y-98600000D01*
X135857143Y-98647619D01*
X135761905Y-98790476D01*
X135714286Y-98980952D01*
X135714286Y-99361905D01*
X135761905Y-99457143D01*
X135809524Y-99504762D01*
X135904762Y-99552381D01*
X136095239Y-99552381D01*
X136190477Y-99504762D01*
X136238096Y-99457143D01*
X136285715Y-99361905D01*
X136285715Y-99123810D01*
X136238096Y-99028571D01*
X136190477Y-98980952D01*
X136095239Y-98933333D01*
X135904762Y-98933333D01*
X135809524Y-98980952D01*
X135761905Y-99028571D01*
X135714286Y-99123810D01*
X123261905Y-99552381D02*
X123261905Y-98552381D01*
X123500000Y-98552381D01*
X123642858Y-98600000D01*
X123738096Y-98695238D01*
X123785715Y-98790476D01*
X123833334Y-98980952D01*
X123833334Y-99123810D01*
X123785715Y-99314286D01*
X123738096Y-99409524D01*
X123642858Y-99504762D01*
X123500000Y-99552381D01*
X123261905Y-99552381D01*
X124166667Y-98552381D02*
X124833334Y-98552381D01*
X124404762Y-99552381D01*
X111761905Y-99552381D02*
X111761905Y-98552381D01*
X112000000Y-98552381D01*
X112142858Y-98600000D01*
X112238096Y-98695238D01*
X112285715Y-98790476D01*
X112333334Y-98980952D01*
X112333334Y-99123810D01*
X112285715Y-99314286D01*
X112238096Y-99409524D01*
X112142858Y-99504762D01*
X112000000Y-99552381D01*
X111761905Y-99552381D01*
X112904762Y-98980952D02*
X112809524Y-98933333D01*
X112761905Y-98885714D01*
X112714286Y-98790476D01*
X112714286Y-98742857D01*
X112761905Y-98647619D01*
X112809524Y-98600000D01*
X112904762Y-98552381D01*
X113095239Y-98552381D01*
X113190477Y-98600000D01*
X113238096Y-98647619D01*
X113285715Y-98742857D01*
X113285715Y-98790476D01*
X113238096Y-98885714D01*
X113190477Y-98933333D01*
X113095239Y-98980952D01*
X112904762Y-98980952D01*
X112809524Y-99028571D01*
X112761905Y-99076190D01*
X112714286Y-99171429D01*
X112714286Y-99361905D01*
X112761905Y-99457143D01*
X112809524Y-99504762D01*
X112904762Y-99552381D01*
X113095239Y-99552381D01*
X113190477Y-99504762D01*
X113238096Y-99457143D01*
X113285715Y-99361905D01*
X113285715Y-99171429D01*
X113238096Y-99076190D01*
X113190477Y-99028571D01*
X113095239Y-98980952D01*
X180538095Y-111752381D02*
X181109524Y-111752381D01*
X180823809Y-112752381D02*
X180823809Y-111752381D01*
X181442857Y-112752381D02*
X181442857Y-111752381D01*
X181823810Y-111752381D01*
X181919048Y-111800000D01*
X181966667Y-111847619D01*
X182014286Y-111942857D01*
X182014286Y-112085714D01*
X181966667Y-112180952D01*
X181919048Y-112228571D01*
X181823810Y-112276190D01*
X181442857Y-112276190D01*
X182966667Y-112752381D02*
X182395238Y-112752381D01*
X182680952Y-112752381D02*
X182680952Y-111752381D01*
X182585714Y-111895238D01*
X182490476Y-111990476D01*
X182395238Y-112038095D01*
X180538095Y-133952381D02*
X181109524Y-133952381D01*
X180823809Y-134952381D02*
X180823809Y-133952381D01*
X181442857Y-134952381D02*
X181442857Y-133952381D01*
X181823810Y-133952381D01*
X181919048Y-134000000D01*
X181966667Y-134047619D01*
X182014286Y-134142857D01*
X182014286Y-134285714D01*
X181966667Y-134380952D01*
X181919048Y-134428571D01*
X181823810Y-134476190D01*
X181442857Y-134476190D01*
X182395238Y-134047619D02*
X182442857Y-134000000D01*
X182538095Y-133952381D01*
X182776191Y-133952381D01*
X182871429Y-134000000D01*
X182919048Y-134047619D01*
X182966667Y-134142857D01*
X182966667Y-134238095D01*
X182919048Y-134380952D01*
X182347619Y-134952381D01*
X182966667Y-134952381D01*
X171352381Y-134061905D02*
X171352381Y-133490476D01*
X172352381Y-133776191D02*
X171352381Y-133776191D01*
X172352381Y-133157143D02*
X171352381Y-133157143D01*
X171352381Y-132776190D01*
X171400000Y-132680952D01*
X171447619Y-132633333D01*
X171542857Y-132585714D01*
X171685714Y-132585714D01*
X171780952Y-132633333D01*
X171828571Y-132680952D01*
X171876190Y-132776190D01*
X171876190Y-133157143D01*
X171352381Y-132252381D02*
X171352381Y-131633333D01*
X171733333Y-131966667D01*
X171733333Y-131823809D01*
X171780952Y-131728571D01*
X171828571Y-131680952D01*
X171923810Y-131633333D01*
X172161905Y-131633333D01*
X172257143Y-131680952D01*
X172304762Y-131728571D01*
X172352381Y-131823809D01*
X172352381Y-132109524D01*
X172304762Y-132204762D01*
X172257143Y-132252381D01*
X173352381Y-134061905D02*
X173352381Y-133490476D01*
X174352381Y-133776191D02*
X173352381Y-133776191D01*
X174352381Y-133157143D02*
X173352381Y-133157143D01*
X173352381Y-132776190D01*
X173400000Y-132680952D01*
X173447619Y-132633333D01*
X173542857Y-132585714D01*
X173685714Y-132585714D01*
X173780952Y-132633333D01*
X173828571Y-132680952D01*
X173876190Y-132776190D01*
X173876190Y-133157143D01*
X173685714Y-131728571D02*
X174352381Y-131728571D01*
X173304762Y-131966667D02*
X174019048Y-132204762D01*
X174019048Y-131585714D01*
X165752381Y-134261905D02*
X165752381Y-133690476D01*
X166752381Y-133976191D02*
X165752381Y-133976191D01*
X166752381Y-133357143D02*
X165752381Y-133357143D01*
X165752381Y-132976190D01*
X165800000Y-132880952D01*
X165847619Y-132833333D01*
X165942857Y-132785714D01*
X166085714Y-132785714D01*
X166180952Y-132833333D01*
X166228571Y-132880952D01*
X166276190Y-132976190D01*
X166276190Y-133357143D01*
X165752381Y-131880952D02*
X165752381Y-132357143D01*
X166228571Y-132404762D01*
X166180952Y-132357143D01*
X166133333Y-132261905D01*
X166133333Y-132023809D01*
X166180952Y-131928571D01*
X166228571Y-131880952D01*
X166323810Y-131833333D01*
X166561905Y-131833333D01*
X166657143Y-131880952D01*
X166704762Y-131928571D01*
X166752381Y-132023809D01*
X166752381Y-132261905D01*
X166704762Y-132357143D01*
X166657143Y-132404762D01*
X167752381Y-134261905D02*
X167752381Y-133690476D01*
X168752381Y-133976191D02*
X167752381Y-133976191D01*
X168752381Y-133357143D02*
X167752381Y-133357143D01*
X167752381Y-132976190D01*
X167800000Y-132880952D01*
X167847619Y-132833333D01*
X167942857Y-132785714D01*
X168085714Y-132785714D01*
X168180952Y-132833333D01*
X168228571Y-132880952D01*
X168276190Y-132976190D01*
X168276190Y-133357143D01*
X167752381Y-131928571D02*
X167752381Y-132119048D01*
X167800000Y-132214286D01*
X167847619Y-132261905D01*
X167990476Y-132357143D01*
X168180952Y-132404762D01*
X168561905Y-132404762D01*
X168657143Y-132357143D01*
X168704762Y-132309524D01*
X168752381Y-132214286D01*
X168752381Y-132023809D01*
X168704762Y-131928571D01*
X168657143Y-131880952D01*
X168561905Y-131833333D01*
X168323810Y-131833333D01*
X168228571Y-131880952D01*
X168180952Y-131928571D01*
X168133333Y-132023809D01*
X168133333Y-132214286D01*
X168180952Y-132309524D01*
X168228571Y-132357143D01*
X168323810Y-132404762D01*
X162752381Y-134261905D02*
X162752381Y-133690476D01*
X163752381Y-133976191D02*
X162752381Y-133976191D01*
X163752381Y-133357143D02*
X162752381Y-133357143D01*
X162752381Y-132976190D01*
X162800000Y-132880952D01*
X162847619Y-132833333D01*
X162942857Y-132785714D01*
X163085714Y-132785714D01*
X163180952Y-132833333D01*
X163228571Y-132880952D01*
X163276190Y-132976190D01*
X163276190Y-133357143D01*
X162752381Y-132452381D02*
X162752381Y-131785714D01*
X163752381Y-132214286D01*
X160952381Y-134261905D02*
X160952381Y-133690476D01*
X161952381Y-133976191D02*
X160952381Y-133976191D01*
X161952381Y-133357143D02*
X160952381Y-133357143D01*
X160952381Y-132976190D01*
X161000000Y-132880952D01*
X161047619Y-132833333D01*
X161142857Y-132785714D01*
X161285714Y-132785714D01*
X161380952Y-132833333D01*
X161428571Y-132880952D01*
X161476190Y-132976190D01*
X161476190Y-133357143D01*
X161380952Y-132214286D02*
X161333333Y-132309524D01*
X161285714Y-132357143D01*
X161190476Y-132404762D01*
X161142857Y-132404762D01*
X161047619Y-132357143D01*
X161000000Y-132309524D01*
X160952381Y-132214286D01*
X160952381Y-132023809D01*
X161000000Y-131928571D01*
X161047619Y-131880952D01*
X161142857Y-131833333D01*
X161190476Y-131833333D01*
X161285714Y-131880952D01*
X161333333Y-131928571D01*
X161380952Y-132023809D01*
X161380952Y-132214286D01*
X161428571Y-132309524D01*
X161476190Y-132357143D01*
X161571429Y-132404762D01*
X161761905Y-132404762D01*
X161857143Y-132357143D01*
X161904762Y-132309524D01*
X161952381Y-132214286D01*
X161952381Y-132023809D01*
X161904762Y-131928571D01*
X161857143Y-131880952D01*
X161761905Y-131833333D01*
X161571429Y-131833333D01*
X161476190Y-131880952D01*
X161428571Y-131928571D01*
X161380952Y-132023809D01*
X175352381Y-134061905D02*
X175352381Y-133490476D01*
X176352381Y-133776191D02*
X175352381Y-133776191D01*
X176352381Y-133157143D02*
X175352381Y-133157143D01*
X175352381Y-132776190D01*
X175400000Y-132680952D01*
X175447619Y-132633333D01*
X175542857Y-132585714D01*
X175685714Y-132585714D01*
X175780952Y-132633333D01*
X175828571Y-132680952D01*
X175876190Y-132776190D01*
X175876190Y-133157143D01*
X176352381Y-132109524D02*
X176352381Y-131919048D01*
X176304762Y-131823809D01*
X176257143Y-131776190D01*
X176114286Y-131680952D01*
X175923810Y-131633333D01*
X175542857Y-131633333D01*
X175447619Y-131680952D01*
X175400000Y-131728571D01*
X175352381Y-131823809D01*
X175352381Y-132014286D01*
X175400000Y-132109524D01*
X175447619Y-132157143D01*
X175542857Y-132204762D01*
X175780952Y-132204762D01*
X175876190Y-132157143D01*
X175923810Y-132109524D01*
X175971429Y-132014286D01*
X175971429Y-131823809D01*
X175923810Y-131728571D01*
X175876190Y-131680952D01*
X175780952Y-131633333D01*
X177352381Y-134538095D02*
X177352381Y-133966666D01*
X178352381Y-134252381D02*
X177352381Y-134252381D01*
X178352381Y-133633333D02*
X177352381Y-133633333D01*
X177352381Y-133252380D01*
X177400000Y-133157142D01*
X177447619Y-133109523D01*
X177542857Y-133061904D01*
X177685714Y-133061904D01*
X177780952Y-133109523D01*
X177828571Y-133157142D01*
X177876190Y-133252380D01*
X177876190Y-133633333D01*
X178352381Y-132109523D02*
X178352381Y-132680952D01*
X178352381Y-132395238D02*
X177352381Y-132395238D01*
X177495238Y-132490476D01*
X177590476Y-132585714D01*
X177638095Y-132680952D01*
X177352381Y-131490476D02*
X177352381Y-131395237D01*
X177400000Y-131299999D01*
X177447619Y-131252380D01*
X177542857Y-131204761D01*
X177733333Y-131157142D01*
X177971429Y-131157142D01*
X178161905Y-131204761D01*
X178257143Y-131252380D01*
X178304762Y-131299999D01*
X178352381Y-131395237D01*
X178352381Y-131490476D01*
X178304762Y-131585714D01*
X178257143Y-131633333D01*
X178161905Y-131680952D01*
X177971429Y-131728571D01*
X177733333Y-131728571D01*
X177542857Y-131680952D01*
X177447619Y-131633333D01*
X177400000Y-131585714D01*
X177352381Y-131490476D01*
M02*
