G04 #@! TF.FileFunction,Soldermask,Bot*
%FSLAX46Y46*%
G04 Gerber Fmt 4.6, Leading zero omitted, Abs format (unit mm)*
G04 Created by KiCad (PCBNEW 4.0.6) date 10/16/17 12:02:40*
%MOMM*%
%LPD*%
G01*
G04 APERTURE LIST*
%ADD10C,0.100000*%
%ADD11R,1.600000X1.150000*%
%ADD12R,1.150000X1.600000*%
%ADD13R,1.000000X1.200000*%
%ADD14R,1.600000X1.300000*%
%ADD15R,0.900000X1.200000*%
%ADD16R,1.200000X0.900000*%
%ADD17R,2.000000X2.000000*%
%ADD18R,1.050000X1.960000*%
%ADD19R,1.190000X2.340000*%
%ADD20R,1.140000X1.190000*%
%ADD21R,1.300000X1.600000*%
%ADD22R,2.580000X2.000000*%
%ADD23R,1.700000X0.650000*%
%ADD24R,0.650000X1.700000*%
%ADD25O,1.300000X2.900000*%
%ADD26O,2.900000X1.300000*%
%ADD27R,6.400000X6.400000*%
%ADD28R,2.537160X1.837160*%
%ADD29R,1.395680X3.897580*%
%ADD30R,1.398220X3.897580*%
%ADD31R,1.898600X3.798520*%
%ADD32R,1.898600X3.795980*%
%ADD33R,2.398980X0.999440*%
%ADD34R,1.300000X1.200000*%
%ADD35R,2.000000X2.580000*%
%ADD36R,0.700000X1.250000*%
%ADD37R,1.250000X0.700000*%
%ADD38R,1.700000X1.700000*%
%ADD39R,2.100000X2.100000*%
%ADD40O,2.100000X2.100000*%
%ADD41R,1.780000X0.850000*%
%ADD42R,2.500000X1.875000*%
%ADD43R,2.300000X2.775000*%
%ADD44R,2.300000X1.575000*%
G04 APERTURE END LIST*
D10*
D11*
X173700000Y-127550000D03*
X175600000Y-127550000D03*
X168600000Y-117250000D03*
X166700000Y-117250000D03*
X168600000Y-115550000D03*
X166700000Y-115550000D03*
X174600000Y-111550000D03*
X172700000Y-111550000D03*
X171600000Y-130550000D03*
X169700000Y-130550000D03*
X165700000Y-73350000D03*
X167600000Y-73350000D03*
X166100000Y-64150000D03*
X168000000Y-64150000D03*
X166100000Y-65750000D03*
X168000000Y-65750000D03*
X166100000Y-67150000D03*
X168000000Y-67150000D03*
D12*
X157250000Y-85800000D03*
X157250000Y-83900000D03*
X159950000Y-66600000D03*
X159950000Y-64700000D03*
D11*
X155000000Y-87750000D03*
X153100000Y-87750000D03*
X154800000Y-80250000D03*
X152900000Y-80250000D03*
D13*
X162000000Y-66750000D03*
X163700000Y-66750000D03*
D14*
X171555000Y-68805000D03*
X169355000Y-68805000D03*
D15*
X171100000Y-113350000D03*
X171900000Y-113350000D03*
X172700000Y-113350000D03*
X173500000Y-113350000D03*
X174300000Y-113350000D03*
X175100000Y-113350000D03*
X175900000Y-113350000D03*
X176700000Y-113350000D03*
X177500000Y-113350000D03*
X178300000Y-113350000D03*
X179100000Y-113350000D03*
X179900000Y-113350000D03*
D16*
X180700000Y-114600000D03*
X180700000Y-115400000D03*
X180700000Y-116200000D03*
X180700000Y-117000000D03*
X180700000Y-117800000D03*
X180700000Y-118600000D03*
X180700000Y-119400000D03*
X180700000Y-120200000D03*
X180700000Y-121000000D03*
X180700000Y-121800000D03*
X180700000Y-122600000D03*
X180700000Y-123400000D03*
D15*
X179900000Y-124650000D03*
X179100000Y-124650000D03*
X178300000Y-124650000D03*
X177500000Y-124650000D03*
X176700000Y-124650000D03*
X175900000Y-124650000D03*
X175100000Y-124650000D03*
X174300000Y-124650000D03*
X173500000Y-124650000D03*
X172700000Y-124650000D03*
X171900000Y-124650000D03*
X171100000Y-124650000D03*
D16*
X170300000Y-123400000D03*
X170300000Y-122600000D03*
X170300000Y-121800000D03*
X170300000Y-121000000D03*
X170300000Y-120200000D03*
X170300000Y-119400000D03*
X170300000Y-118600000D03*
X170300000Y-117800000D03*
X170300000Y-117000000D03*
X170300000Y-116200000D03*
X170300000Y-115400000D03*
X170300000Y-114600000D03*
D17*
X173000000Y-116500000D03*
X173000000Y-119000000D03*
X173000000Y-121500000D03*
X175500000Y-116500000D03*
X175500000Y-119000000D03*
X175500000Y-121500000D03*
X178000000Y-116500000D03*
X178000000Y-119000000D03*
X178000000Y-121500000D03*
D18*
X160150000Y-69240000D03*
X161100000Y-69240000D03*
X162050000Y-69240000D03*
X162050000Y-71940000D03*
X160150000Y-71940000D03*
D19*
X177525000Y-133000000D03*
X180475000Y-133000000D03*
D20*
X179000000Y-131475000D03*
D21*
X183710000Y-121410000D03*
X183710000Y-119210000D03*
X183710000Y-123020000D03*
X183710000Y-125220000D03*
X173650000Y-132650000D03*
X173650000Y-130450000D03*
D14*
X166550000Y-118850000D03*
X168750000Y-118850000D03*
X164750000Y-64350000D03*
X162550000Y-64350000D03*
D21*
X157000000Y-68800000D03*
X157000000Y-71000000D03*
D14*
X133750000Y-68350000D03*
X135950000Y-68350000D03*
X129450000Y-68350000D03*
X131650000Y-68350000D03*
D22*
X170520000Y-133010000D03*
X161340000Y-133010000D03*
D23*
X159200000Y-87300000D03*
X159200000Y-86800000D03*
X159200000Y-86300000D03*
X159200000Y-85800000D03*
X159200000Y-85300000D03*
X159200000Y-84800000D03*
X159200000Y-84300000D03*
X159200000Y-83800000D03*
X159200000Y-83300000D03*
X159200000Y-82800000D03*
X159200000Y-82300000D03*
X159200000Y-81800000D03*
D24*
X160800000Y-80200000D03*
X161300000Y-80200000D03*
X161800000Y-80200000D03*
X162300000Y-80200000D03*
X162800000Y-80200000D03*
X163300000Y-80200000D03*
X163800000Y-80200000D03*
X164300000Y-80200000D03*
X164800000Y-80200000D03*
X165300000Y-80200000D03*
X165800000Y-80200000D03*
X166300000Y-80200000D03*
D23*
X167900000Y-81800000D03*
X167900000Y-82300000D03*
X167900000Y-82800000D03*
X167900000Y-83300000D03*
X167900000Y-83800000D03*
X167900000Y-84300000D03*
X167900000Y-84800000D03*
X167900000Y-85300000D03*
X167900000Y-85800000D03*
X167900000Y-86300000D03*
X167900000Y-86800000D03*
X167900000Y-87300000D03*
D24*
X166300000Y-88900000D03*
X165800000Y-88900000D03*
X165300000Y-88900000D03*
X164800000Y-88900000D03*
X164300000Y-88900000D03*
X163800000Y-88900000D03*
X163300000Y-88900000D03*
X162800000Y-88900000D03*
X162300000Y-88900000D03*
X161800000Y-88900000D03*
X161300000Y-88900000D03*
X160800000Y-88900000D03*
D25*
X96250000Y-94000000D03*
X97520000Y-94000000D03*
X98790000Y-94000000D03*
X100060000Y-94000000D03*
X101330000Y-94000000D03*
X102600000Y-94000000D03*
X103870000Y-94000000D03*
X105140000Y-94000000D03*
X106410000Y-94000000D03*
X107680000Y-94000000D03*
X108950000Y-94000000D03*
X110220000Y-94000000D03*
X111490000Y-94000000D03*
X112760000Y-94000000D03*
D26*
X114250000Y-90715000D03*
X114250000Y-89445000D03*
X114250000Y-88175000D03*
X114250000Y-86905000D03*
X114250000Y-85635000D03*
X114250000Y-84365000D03*
X114250000Y-83095000D03*
X114250000Y-81825000D03*
X114250000Y-80555000D03*
X114250000Y-79285000D03*
D25*
X112760000Y-76000000D03*
X111490000Y-76000000D03*
X110220000Y-76000000D03*
X108950000Y-76000000D03*
X107680000Y-76000000D03*
X106410000Y-76000000D03*
X105140000Y-76000000D03*
X103870000Y-76000000D03*
X102600000Y-76000000D03*
X101330000Y-76000000D03*
X100060000Y-76000000D03*
X98790000Y-76000000D03*
X97520000Y-76000000D03*
X96250000Y-76000000D03*
D27*
X103950000Y-84700000D03*
D18*
X165730000Y-71870000D03*
X164780000Y-71870000D03*
X163830000Y-71870000D03*
X163830000Y-69170000D03*
X165730000Y-69170000D03*
D28*
X154650000Y-85700000D03*
X154650000Y-82000000D03*
D12*
X108000000Y-71950000D03*
X108000000Y-70050000D03*
X163000000Y-91050000D03*
X163000000Y-92950000D03*
D11*
X169500000Y-80600000D03*
X171400000Y-80600000D03*
D14*
X166065000Y-93170000D03*
X168265000Y-93170000D03*
D29*
X138098480Y-72401980D03*
D30*
X136096960Y-72401980D03*
D31*
X140442900Y-78150000D03*
D32*
X133750000Y-78150000D03*
D33*
X156444000Y-73045000D03*
X156444000Y-74315000D03*
X156444000Y-75585000D03*
X156444000Y-76855000D03*
X150856000Y-76855000D03*
X150856000Y-75585000D03*
X150856000Y-74315000D03*
X150856000Y-73045000D03*
D34*
X120650000Y-92600000D03*
X120650000Y-94500000D03*
X118650000Y-93550000D03*
X120650000Y-88600000D03*
X120650000Y-90500000D03*
X118650000Y-89550000D03*
D14*
X171750000Y-72150000D03*
X169550000Y-72150000D03*
X97000000Y-72000000D03*
X99200000Y-72000000D03*
X171145000Y-93170000D03*
X173345000Y-93170000D03*
D21*
X154950000Y-68800000D03*
X154950000Y-71000000D03*
X122650000Y-92650000D03*
X122650000Y-90450000D03*
X124650000Y-90450000D03*
X124650000Y-92650000D03*
D35*
X105000000Y-71590000D03*
X105000000Y-62410000D03*
D36*
X172000000Y-79100000D03*
X171500000Y-79100000D03*
X171000000Y-79100000D03*
X170500000Y-79100000D03*
X170000000Y-79100000D03*
X169500000Y-79100000D03*
D37*
X168800000Y-78400000D03*
X168800000Y-77900000D03*
X168800000Y-77400000D03*
X168800000Y-76900000D03*
X168800000Y-76400000D03*
X168800000Y-75900000D03*
D36*
X169500000Y-75200000D03*
X170000000Y-75200000D03*
X170500000Y-75200000D03*
X171000000Y-75200000D03*
X171500000Y-75200000D03*
X172000000Y-75200000D03*
D37*
X172700000Y-75900000D03*
X172700000Y-76400000D03*
X172700000Y-76900000D03*
X172700000Y-77400000D03*
X172700000Y-77900000D03*
X172700000Y-78400000D03*
D38*
X170100000Y-76500000D03*
X171400000Y-76500000D03*
X170100000Y-77800000D03*
X171400000Y-77800000D03*
D11*
X181050000Y-130000000D03*
X182950000Y-130000000D03*
X181050000Y-127000000D03*
X182950000Y-127000000D03*
D21*
X179000000Y-129600000D03*
X179000000Y-127400000D03*
D39*
X165930000Y-127930000D03*
D40*
X163390000Y-127930000D03*
X165930000Y-125390000D03*
X163390000Y-125390000D03*
D39*
X138440000Y-59550000D03*
D40*
X135900000Y-59550000D03*
X133360000Y-59550000D03*
X130820000Y-59550000D03*
D41*
X173290000Y-83250000D03*
X173290000Y-83900000D03*
X173290000Y-84550000D03*
X173290000Y-85200000D03*
X173290000Y-85850000D03*
D42*
X173650000Y-82087500D03*
X173650000Y-87012500D03*
D43*
X175950000Y-81640000D03*
X175950000Y-87460000D03*
D44*
X175950000Y-83710000D03*
X175950000Y-85390000D03*
D21*
X162650000Y-122680000D03*
X162650000Y-120480000D03*
X164350000Y-122680000D03*
X164350000Y-120480000D03*
D10*
G36*
X148700000Y-66288000D02*
X148700000Y-68212000D01*
X144300000Y-68212000D01*
X144300000Y-66288000D01*
X148700000Y-66288000D01*
X148700000Y-66288000D01*
G37*
G36*
X160462000Y-62700000D02*
X158538000Y-62700000D01*
X158538000Y-58300000D01*
X160462000Y-58300000D01*
X160462000Y-62700000D01*
X160462000Y-62700000D01*
G37*
G36*
X168538000Y-87800000D02*
X170462000Y-87800000D01*
X170462000Y-92200000D01*
X168538000Y-92200000D01*
X168538000Y-87800000D01*
X168538000Y-87800000D01*
G37*
G36*
X130962000Y-120200000D02*
X129038000Y-120200000D01*
X129038000Y-115800000D01*
X130962000Y-115800000D01*
X130962000Y-120200000D01*
X130962000Y-120200000D01*
G37*
G36*
X128962000Y-120200000D02*
X127038000Y-120200000D01*
X127038000Y-115800000D01*
X128962000Y-115800000D01*
X128962000Y-120200000D01*
X128962000Y-120200000D01*
G37*
G36*
X126962000Y-120200000D02*
X125038000Y-120200000D01*
X125038000Y-115800000D01*
X126962000Y-115800000D01*
X126962000Y-120200000D01*
X126962000Y-120200000D01*
G37*
G36*
X124962000Y-120200000D02*
X123038000Y-120200000D01*
X123038000Y-115800000D01*
X124962000Y-115800000D01*
X124962000Y-120200000D01*
X124962000Y-120200000D01*
G37*
G36*
X122962000Y-120200000D02*
X121038000Y-120200000D01*
X121038000Y-115800000D01*
X122962000Y-115800000D01*
X122962000Y-120200000D01*
X122962000Y-120200000D01*
G37*
G36*
X120962000Y-120200000D02*
X119038000Y-120200000D01*
X119038000Y-115800000D01*
X120962000Y-115800000D01*
X120962000Y-120200000D01*
X120962000Y-120200000D01*
G37*
G36*
X118962000Y-120200000D02*
X117038000Y-120200000D01*
X117038000Y-115800000D01*
X118962000Y-115800000D01*
X118962000Y-120200000D01*
X118962000Y-120200000D01*
G37*
G36*
X134212000Y-65450000D02*
X132288000Y-65450000D01*
X132288000Y-61050000D01*
X134212000Y-61050000D01*
X134212000Y-65450000D01*
X134212000Y-65450000D01*
G37*
G36*
X131712000Y-65450000D02*
X129788000Y-65450000D01*
X129788000Y-61050000D01*
X131712000Y-61050000D01*
X131712000Y-65450000D01*
X131712000Y-65450000D01*
G37*
G36*
X110800000Y-72962000D02*
X110800000Y-71038000D01*
X115200000Y-71038000D01*
X115200000Y-72962000D01*
X110800000Y-72962000D01*
X110800000Y-72962000D01*
G37*
G36*
X164462000Y-62700000D02*
X162538000Y-62700000D01*
X162538000Y-58300000D01*
X164462000Y-58300000D01*
X164462000Y-62700000D01*
X164462000Y-62700000D01*
G37*
G36*
X158362000Y-120200000D02*
X156438000Y-120200000D01*
X156438000Y-115800000D01*
X158362000Y-115800000D01*
X158362000Y-120200000D01*
X158362000Y-120200000D01*
G37*
G36*
X162462000Y-62700000D02*
X160538000Y-62700000D01*
X160538000Y-58300000D01*
X162462000Y-58300000D01*
X162462000Y-62700000D01*
X162462000Y-62700000D01*
G37*
G36*
X146362000Y-120200000D02*
X144438000Y-120200000D01*
X144438000Y-115800000D01*
X146362000Y-115800000D01*
X146362000Y-120200000D01*
X146362000Y-120200000D01*
G37*
G36*
X148362000Y-120200000D02*
X146438000Y-120200000D01*
X146438000Y-115800000D01*
X148362000Y-115800000D01*
X148362000Y-120200000D01*
X148362000Y-120200000D01*
G37*
G36*
X152362000Y-120200000D02*
X150438000Y-120200000D01*
X150438000Y-115800000D01*
X152362000Y-115800000D01*
X152362000Y-120200000D01*
X152362000Y-120200000D01*
G37*
G36*
X150362000Y-120200000D02*
X148438000Y-120200000D01*
X148438000Y-115800000D01*
X150362000Y-115800000D01*
X150362000Y-120200000D01*
X150362000Y-120200000D01*
G37*
G36*
X154362000Y-120200000D02*
X152438000Y-120200000D01*
X152438000Y-115800000D01*
X154362000Y-115800000D01*
X154362000Y-120200000D01*
X154362000Y-120200000D01*
G37*
G36*
X156362000Y-120200000D02*
X154438000Y-120200000D01*
X154438000Y-115800000D01*
X156362000Y-115800000D01*
X156362000Y-120200000D01*
X156362000Y-120200000D01*
G37*
G36*
X138362000Y-120200000D02*
X136438000Y-120200000D01*
X136438000Y-115800000D01*
X138362000Y-115800000D01*
X138362000Y-120200000D01*
X138362000Y-120200000D01*
G37*
G36*
X142362000Y-120200000D02*
X140438000Y-120200000D01*
X140438000Y-115800000D01*
X142362000Y-115800000D01*
X142362000Y-120200000D01*
X142362000Y-120200000D01*
G37*
G36*
X140362000Y-120200000D02*
X138438000Y-120200000D01*
X138438000Y-115800000D01*
X140362000Y-115800000D01*
X140362000Y-120200000D01*
X140362000Y-120200000D01*
G37*
G36*
X114962000Y-120200000D02*
X113038000Y-120200000D01*
X113038000Y-115800000D01*
X114962000Y-115800000D01*
X114962000Y-120200000D01*
X114962000Y-120200000D01*
G37*
G36*
X116962000Y-120200000D02*
X115038000Y-120200000D01*
X115038000Y-115800000D01*
X116962000Y-115800000D01*
X116962000Y-120200000D01*
X116962000Y-120200000D01*
G37*
G36*
X112962000Y-120200000D02*
X111038000Y-120200000D01*
X111038000Y-115800000D01*
X112962000Y-115800000D01*
X112962000Y-120200000D01*
X112962000Y-120200000D01*
G37*
G36*
X170538000Y-87800000D02*
X172462000Y-87800000D01*
X172462000Y-92200000D01*
X170538000Y-92200000D01*
X170538000Y-87800000D01*
X170538000Y-87800000D01*
G37*
D14*
X126900000Y-74000000D03*
X129100000Y-74000000D03*
X126900000Y-72000000D03*
X129100000Y-72000000D03*
M02*
