M48
INCH,TZ
T1C0.008
T2C0.012
T3C0.039
%
G90
G05
T1
X38406Y-36083
X38996Y-36083
X39193Y-26043
X39390Y-26240
X39606Y-28661
X39921Y-29213
X39921Y-43071
X40151Y-43506
X40157Y-37795
X40394Y-29134
X40394Y-43377
X40591Y-28346
X40591Y-38348
X40787Y-42677
X40974Y-30551
X41260Y-43241
X41339Y-29134
X41417Y-37717
X41654Y-43780
X41875Y-43241
X41890Y-29134
X41890Y-37717
X42085Y-43072
X42126Y-36220
X42349Y-43068
X42362Y-29055
X42598Y-44016
X42801Y-42428
X42913Y-29055
X42913Y-37717
X43386Y-29134
X43386Y-36063
X43386Y-37717
X43858Y-37717
X43858Y-38976
X43937Y-29213
X44094Y-43858
X44094Y-45512
X44166Y-43611
X44331Y-29213
X44882Y-45512
X44892Y-43572
X45118Y-44331
X45276Y-39291
X45276Y-40472
X45354Y-44518
X45648Y-43763
X45669Y-45512
X46457Y-45512
X46459Y-44248
X46713Y-28366
X46713Y-34783
X47244Y-34331
X47244Y-43750
X47244Y-45512
X47795Y-39291
X47874Y-36063
X48031Y-45512
X48504Y-44167
X48700Y-30890
X48701Y-40413
X48819Y-44016
X48819Y-45512
X49528Y-29134
X49528Y-34331
X49606Y-44167
X49606Y-45512
X49764Y-39291
X49803Y-40413
X50394Y-44518
X50394Y-45512
X51181Y-31732
X51181Y-37244
X51181Y-45512
X52362Y-39291
X54092Y-44276
X54095Y-45512
X54098Y-42878
X54331Y-39291
X54331Y-40413
X54882Y-42904
X54882Y-45517
X55669Y-45517
X55669Y-43159
X56850Y-39291
X57204Y-42517
X57204Y-42517
X57243Y-45521
X57752Y-43415
X57953Y-31260
X58033Y-45515
X58204Y-43115
X58268Y-31260
X58402Y-43609
X58818Y-45518
X58819Y-39291
X58858Y-40413
X58871Y-42994
X59603Y-45518
X59663Y-43609
X60393Y-45515
X60394Y-42835
X60787Y-38976
X61176Y-45515
X61417Y-39291
X61654Y-33780
X61890Y-30787
X61891Y-32199
X61967Y-45513
X62126Y-42598
X62126Y-42598
X62126Y-42598
X62202Y-34042
X62205Y-32913
X62350Y-24875
X62402Y-27559
X62402Y-29724
X62402Y-31969
X62402Y-34685
X62402Y-40413
X62541Y-43609
X62610Y-25243
X62815Y-22701
X62948Y-43481
X63146Y-32435
X63209Y-33819
X63209Y-33524
X63228Y-30079
X63307Y-31181
X63386Y-40472
X63386Y-43481
X63406Y-27736
X63464Y-29531
X63465Y-30945
X63592Y-35525
X63622Y-32756
X63622Y-34016
X63622Y-44754
X63701Y-38976
X63701Y-41732
X63929Y-43638
X63937Y-32992
X64094Y-43858
X64173Y-32598
X64173Y-44567
X64252Y-34016
X64301Y-33602
X64313Y-41732
X64334Y-42988
X64409Y-44409
X64488Y-30787
X64488Y-33301
X64518Y-31205
X64633Y-43726
X64687Y-42787
X64724Y-46890
X64862Y-26280
X64862Y-29587
X64892Y-31181
X64902Y-24545
X64953Y-29138
X65101Y-34016
X65101Y-36051
X65101Y-38324
X65156Y-43270
X65191Y-33524
X65276Y-43967
X65276Y-47244
X65374Y-33327
X65433Y-47520
X65528Y-35575
X65591Y-31102
X65591Y-32205
X65669Y-34016
X65984Y-35669
X66071Y-30677
X66339Y-49409
X66378Y-45118
X66417Y-44055
X66604Y-49055
X66752Y-34508
X66791Y-32421
X66969Y-44055
X66989Y-33280
X67037Y-32960
X67224Y-27776
X67256Y-33280
X67271Y-32856
X67661Y-32243
X68108Y-38974
X68110Y-39370
X68112Y-38193
X68112Y-38582
X68268Y-36181
X68307Y-30079
X68307Y-30669
X68504Y-29764
X68740Y-30276
X70394Y-43780
X71535Y-46063
X71535Y-45472
X71535Y-46378
X71575Y-45748
X71850Y-47008
X71890Y-44843
X72323Y-44724
X72323Y-48740
T2
X34327Y-14623
X34327Y-15623
X34327Y-16623
X34327Y-17623
X34327Y-18623
X34327Y-19623
X34327Y-20623
X34327Y-21623
X34327Y-22623
X34327Y-23623
X34327Y-44623
X34327Y-45623
X34327Y-46623
X34327Y-47623
X34327Y-48623
X34327Y-49623
X34327Y-50623
X34327Y-51623
X34327Y-52623
X35327Y-14623
X35327Y-15623
X35327Y-16623
X35327Y-17623
X35327Y-18623
X35327Y-19623
X35327Y-20623
X35327Y-21623
X35327Y-22623
X35327Y-23623
X35327Y-44623
X35327Y-45623
X35327Y-46623
X35327Y-47623
X35327Y-48623
X35327Y-49623
X35327Y-50623
X35327Y-51623
X35327Y-52623
X36327Y-14623
X36327Y-15623
X36327Y-16623
X36327Y-17623
X36327Y-18623
X36327Y-19623
X36327Y-20623
X36327Y-21623
X36327Y-22623
X36327Y-23623
X36327Y-44623
X36327Y-45623
X36327Y-46623
X36327Y-47623
X36327Y-48623
X36327Y-49623
X36327Y-50623
X36327Y-51623
X36327Y-52623
X37327Y-14623
X37327Y-15623
X37327Y-16623
X37327Y-17623
X37327Y-18623
X37327Y-19623
X37327Y-20623
X37327Y-21623
X37327Y-22623
X37327Y-23623
X37327Y-30623
X37327Y-31623
X37327Y-32623
X37327Y-33623
X37327Y-34623
X37327Y-35623
X37327Y-36623
X37327Y-37623
X37327Y-44623
X37327Y-45623
X37327Y-46623
X37327Y-47623
X37327Y-48623
X37327Y-49623
X37327Y-50623
X37327Y-51623
X37327Y-52623
X38327Y-14623
X38327Y-15623
X38327Y-16623
X38327Y-17623
X38327Y-18623
X38327Y-19623
X38327Y-20623
X38327Y-21623
X38327Y-22623
X38327Y-23623
X38327Y-27623
X38327Y-30623
X38327Y-31623
X38327Y-32623
X38327Y-33623
X38327Y-34623
X38327Y-35623
X38327Y-38623
X38327Y-39623
X38327Y-44623
X38327Y-45623
X38327Y-46623
X38327Y-47623
X38327Y-48623
X38327Y-49623
X38327Y-50623
X38327Y-51623
X38327Y-52623
X39327Y-14623
X39327Y-15623
X39327Y-16623
X39327Y-17623
X39327Y-18623
X39327Y-19623
X39327Y-20623
X39327Y-21623
X39327Y-22623
X39327Y-23623
X39327Y-25623
X39327Y-38623
X39327Y-39623
X39327Y-40623
X39327Y-41623
X39327Y-44623
X39327Y-45623
X39327Y-46623
X39327Y-47623
X39327Y-48623
X39327Y-49623
X39327Y-50623
X39327Y-51623
X39327Y-52623
X40327Y-14623
X40327Y-15623
X40327Y-16623
X40327Y-17623
X40327Y-18623
X40327Y-19623
X40327Y-20623
X40327Y-21623
X40327Y-22623
X40327Y-23623
X40327Y-24623
X40327Y-25623
X40327Y-26623
X40327Y-27623
X40327Y-44623
X40327Y-45623
X40327Y-46623
X40327Y-47623
X40327Y-48623
X40327Y-49623
X40327Y-50623
X40327Y-51623
X40327Y-52623
X41327Y-14623
X41327Y-15623
X41327Y-16623
X41327Y-17623
X41327Y-18623
X41327Y-19623
X41327Y-20623
X41327Y-21623
X41327Y-22623
X41327Y-23623
X41327Y-25623
X41327Y-26623
X41327Y-31623
X41327Y-35623
X41327Y-44623
X41327Y-45623
X41327Y-46623
X41327Y-47623
X41327Y-48623
X41327Y-49623
X41327Y-50623
X41327Y-51623
X41327Y-52623
X42327Y-14623
X42327Y-15623
X42327Y-16623
X42327Y-17623
X42327Y-18623
X42327Y-19623
X42327Y-20623
X42327Y-21623
X42327Y-22623
X42327Y-23623
X42327Y-24623
X42327Y-25623
X42327Y-26623
X42327Y-44623
X42327Y-45623
X42327Y-46623
X42327Y-47623
X42327Y-48623
X42327Y-49623
X42327Y-50623
X42327Y-51623
X42327Y-52623
X43327Y-20623
X43327Y-21623
X43327Y-22623
X43327Y-23623
X43327Y-24623
X43327Y-25623
X43327Y-26623
X43327Y-27623
X43327Y-28623
X43327Y-40623
X43327Y-41623
X43327Y-44623
X43327Y-45623
X43327Y-46623
X44327Y-20623
X44327Y-21623
X44327Y-22623
X44327Y-23623
X44327Y-24623
X44327Y-25623
X44327Y-26623
X44327Y-27623
X44327Y-32623
X44327Y-33623
X44327Y-34623
X44327Y-35623
X44327Y-44623
X44327Y-47623
X45327Y-19623
X45327Y-20623
X45327Y-21623
X45327Y-22623
X45327Y-23623
X45327Y-24623
X45327Y-25623
X45327Y-26623
X45327Y-27623
X45327Y-29623
X45327Y-30623
X45327Y-36623
X45327Y-38623
X45327Y-41623
X45327Y-47623
X46327Y-19623
X46327Y-20623
X46327Y-21623
X46327Y-22623
X46327Y-23623
X46327Y-24623
X46327Y-25623
X46327Y-26623
X46327Y-27623
X46327Y-28623
X46327Y-29623
X46327Y-30623
X46327Y-32623
X46327Y-33623
X46327Y-35623
X46327Y-36623
X46327Y-37623
X46327Y-38623
X46327Y-39623
X46327Y-41623
X46327Y-47623
X47327Y-19623
X47327Y-20623
X47327Y-21623
X47327Y-22623
X47327Y-23623
X47327Y-24623
X47327Y-25623
X47327Y-26623
X47327Y-27623
X47327Y-28623
X47327Y-29623
X47327Y-30623
X47327Y-32623
X47327Y-33623
X47327Y-47623
X47327Y-48623
X48327Y-18623
X48327Y-19623
X48327Y-20623
X48327Y-21623
X48327Y-22623
X48327Y-23623
X48327Y-24623
X48327Y-25623
X48327Y-26623
X48327Y-27623
X48327Y-28623
X48327Y-29623
X48327Y-30623
X48327Y-32623
X48327Y-33623
X48327Y-34623
X48327Y-47623
X48327Y-48623
X49327Y-18623
X49327Y-19623
X49327Y-20623
X49327Y-21623
X49327Y-22623
X49327Y-23623
X49327Y-24623
X49327Y-25623
X49327Y-26623
X49327Y-27623
X49327Y-29623
X49327Y-30623
X49327Y-32623
X49327Y-33623
X49327Y-37623
X49327Y-38623
X49327Y-39623
X49327Y-41623
X49327Y-47623
X49327Y-48623
X49327Y-49623
X50327Y-18623
X50327Y-19623
X50327Y-20623
X50327Y-21623
X50327Y-22623
X50327Y-23623
X50327Y-24623
X50327Y-25623
X50327Y-26623
X50327Y-27623
X50327Y-30623
X50327Y-32623
X50327Y-33623
X50327Y-34623
X50327Y-35623
X50327Y-36623
X50327Y-38623
X50327Y-39623
X50327Y-41623
X50327Y-47623
X50327Y-48623
X50327Y-49623
X51327Y-18623
X51327Y-19623
X51327Y-20623
X51327Y-21623
X51327Y-22623
X51327Y-28623
X51327Y-30623
X51327Y-47623
X51327Y-48623
X51327Y-49623
X52327Y-17623
X52327Y-20623
X52327Y-21623
X52327Y-27623
X52327Y-28623
X52327Y-31623
X52327Y-32623
X52327Y-33623
X52327Y-34623
X52327Y-35623
X52327Y-36623
X52327Y-38623
X52327Y-41623
X52327Y-45623
X52327Y-46623
X52327Y-47623
X52327Y-48623
X52327Y-49623
X53327Y-17623
X53327Y-20623
X53327Y-21623
X53327Y-25623
X53327Y-27623
X53327Y-30623
X53327Y-31623
X53327Y-32623
X53327Y-33623
X53327Y-34623
X53327Y-35623
X53327Y-36623
X53327Y-38623
X53327Y-39623
X53327Y-41623
X53327Y-45623
X53327Y-46623
X53327Y-47623
X53327Y-48623
X53327Y-49623
X54327Y-17623
X54327Y-18623
X54327Y-19623
X54327Y-20623
X54327Y-21623
X54327Y-25623
X54327Y-26623
X54327Y-27623
X54327Y-30623
X54327Y-31623
X54327Y-32623
X54327Y-33623
X54327Y-34623
X54327Y-35623
X54327Y-36623
X54327Y-38623
X54327Y-41623
X54327Y-47623
X54327Y-48623
X54327Y-49623
X55327Y-17623
X55327Y-18623
X55327Y-19623
X55327Y-20623
X55327Y-21623
X55327Y-23623
X55327Y-24623
X55327Y-25623
X55327Y-26623
X55327Y-27623
X55327Y-28623
X55327Y-31623
X55327Y-32623
X55327Y-33623
X55327Y-34623
X55327Y-35623
X55327Y-36623
X55327Y-38623
X55327Y-39623
X55327Y-41623
X55327Y-47623
X55327Y-48623
X55327Y-49623
X56327Y-18623
X56327Y-19623
X56327Y-20623
X56327Y-21623
X56327Y-23623
X56327Y-24623
X56327Y-25623
X56327Y-26623
X56327Y-27623
X56327Y-28623
X56327Y-30623
X56327Y-31623
X56327Y-32623
X56327Y-33623
X56327Y-34623
X56327Y-35623
X56327Y-36623
X56327Y-38623
X56327Y-39623
X56327Y-41623
X56327Y-45623
X56327Y-46623
X56327Y-47623
X56327Y-48623
X56327Y-49623
X57327Y-18623
X57327Y-19623
X57327Y-20623
X57327Y-21623
X57327Y-23623
X57327Y-24623
X57327Y-25623
X57327Y-27623
X57327Y-28623
X57327Y-30623
X57327Y-31623
X57327Y-32623
X57327Y-33623
X57327Y-34623
X57327Y-35623
X57327Y-36623
X57327Y-38623
X57327Y-41623
X57327Y-47623
X57327Y-48623
X57327Y-49623
X58327Y-18623
X58327Y-19623
X58327Y-20623
X58327Y-21623
X58327Y-23623
X58327Y-24623
X58327Y-25623
X58327Y-27623
X58327Y-28623
X58327Y-29623
X58327Y-47623
X58327Y-48623
X59327Y-19623
X59327Y-20623
X59327Y-21623
X59327Y-23623
X59327Y-24623
X59327Y-25623
X59327Y-26623
X59327Y-27623
X59327Y-31575
X59327Y-32623
X59327Y-33623
X59327Y-34623
X59327Y-35623
X59327Y-36623
X59327Y-38623
X59327Y-39623
X59327Y-41623
X59327Y-47623
X59327Y-48623
X60327Y-19623
X60327Y-20623
X60327Y-21623
X60327Y-23623
X60327Y-24623
X60327Y-25623
X60327Y-26623
X60327Y-27623
X60327Y-28623
X60327Y-35623
X60327Y-36623
X60327Y-38623
X60327Y-39623
X60327Y-41623
X60327Y-47623
X60551Y-30394
X61327Y-19623
X61327Y-20623
X61327Y-21623
X61327Y-23623
X61327Y-24623
X61327Y-25623
X61327Y-26623
X61327Y-35623
X61327Y-36623
X61327Y-38623
X61327Y-41623
X61327Y-42623
X61327Y-47623
X61417Y-28346
X61496Y-34252
X61496Y-34882
X61575Y-31575
X62047Y-32520
X62327Y-20623
X62327Y-21623
X62327Y-23623
X62327Y-41623
X62756Y-30315
X62913Y-31496
X63150Y-26693
X63327Y-14623
X63327Y-15623
X63327Y-16623
X63327Y-17623
X63327Y-18623
X63327Y-19623
X63327Y-20623
X63327Y-21623
X63327Y-22623
X63327Y-25623
X63327Y-45623
X63327Y-46623
X63465Y-28819
X63701Y-32362
X64094Y-30551
X64327Y-14623
X64327Y-15623
X64327Y-16623
X64327Y-17623
X64327Y-18623
X64327Y-19623
X64327Y-20623
X64327Y-21623
X64327Y-22623
X64327Y-29623
X64724Y-52520
X64882Y-51024
X65327Y-14623
X65327Y-15623
X65327Y-16623
X65327Y-17623
X65327Y-18623
X65327Y-19623
X65327Y-20623
X65327Y-21623
X65327Y-22623
X65327Y-23623
X65327Y-24623
X65748Y-28268
X65906Y-30157
X65984Y-35039
X66063Y-29528
X66063Y-31575
X66327Y-14623
X66327Y-15623
X66327Y-16623
X66327Y-17623
X66327Y-18623
X66327Y-19623
X66327Y-20623
X66327Y-21623
X66327Y-22623
X66327Y-23623
X66327Y-24623
X66327Y-38623
X66327Y-39623
X66327Y-40623
X66327Y-41623
X66327Y-42623
X66327Y-47623
X67165Y-28976
X67327Y-14623
X67327Y-15623
X67327Y-16623
X67327Y-17623
X67327Y-18623
X67327Y-19623
X67327Y-20623
X67327Y-21623
X67327Y-22623
X67327Y-23623
X67327Y-26623
X67327Y-38623
X67327Y-39623
X67327Y-40623
X67327Y-41623
X67480Y-34016
X67520Y-48583
X68110Y-45866
X68110Y-46850
X68110Y-47835
X68189Y-37480
X68268Y-34961
X68327Y-14623
X68327Y-15623
X68327Y-16623
X68327Y-17623
X68327Y-18623
X68327Y-19623
X68327Y-20623
X68327Y-21623
X68327Y-22623
X68327Y-23623
X68327Y-28623
X69055Y-45866
X69055Y-46850
X69134Y-52835
X69173Y-52362
X69291Y-51811
X69327Y-14623
X69327Y-15623
X69327Y-16623
X69327Y-17623
X69327Y-18623
X69327Y-19623
X69327Y-20623
X69327Y-21623
X69327Y-22623
X69327Y-23623
X69327Y-35623
X69327Y-36623
X69327Y-48623
X69327Y-49623
X69327Y-50623
X69646Y-45118
X69646Y-51457
X69961Y-50512
X69961Y-51181
X70000Y-50000
X70000Y-50000
X70079Y-45827
X70327Y-14623
X70327Y-15623
X70327Y-16623
X70327Y-17623
X70327Y-18623
X70327Y-19623
X70327Y-20623
X70327Y-21623
X70327Y-22623
X70327Y-23623
X70327Y-48623
X70512Y-45079
X71327Y-14623
X71327Y-15623
X71327Y-16623
X71327Y-17623
X71327Y-18623
X71327Y-19623
X71327Y-20623
X71327Y-21623
X71327Y-22623
X71327Y-23623
X71327Y-49623
X71327Y-50623
X71327Y-51623
X71693Y-48543
X71811Y-52205
X71811Y-52756
X72327Y-14623
X72327Y-15623
X72327Y-16623
X72327Y-17623
X72327Y-18623
X72327Y-19623
X72327Y-20623
X72327Y-21623
X72327Y-22623
X72327Y-23623
X72327Y-49623
X72327Y-50623
X72327Y-51623
T3
X51504Y-23445
X52504Y-23445
X53504Y-23445
X54504Y-23445
X64327Y-49366
X64327Y-50366
X65327Y-49366
X65327Y-50366
T0
M30
