G04 #@! TF.FileFunction,Copper,L1,Top,Signal*
%FSLAX46Y46*%
G04 Gerber Fmt 4.6, Leading zero omitted, Abs format (unit mm)*
G04 Created by KiCad (PCBNEW 4.0.6) date 10/16/17 12:02:40*
%MOMM*%
%LPD*%
G01*
G04 APERTURE LIST*
%ADD10C,0.100000*%
%ADD11R,1.600000X1.000000*%
%ADD12R,1.700000X1.700000*%
%ADD13O,1.700000X1.700000*%
%ADD14C,0.500000*%
%ADD15C,0.400000*%
%ADD16C,0.200000*%
%ADD17C,0.125000*%
%ADD18C,0.254000*%
G04 APERTURE END LIST*
D10*
D11*
X161000000Y-104200000D03*
X161000000Y-101000000D03*
X156000000Y-104200000D03*
X156000000Y-101000000D03*
X149500000Y-104200000D03*
X149500000Y-101000000D03*
X144500000Y-104200000D03*
X144500000Y-101000000D03*
X138000000Y-104200000D03*
X138000000Y-101000000D03*
X133000000Y-104200000D03*
X133000000Y-101000000D03*
X126500000Y-104200000D03*
X126500000Y-101000000D03*
X121500000Y-104200000D03*
X121500000Y-101000000D03*
X115000000Y-104200000D03*
X115000000Y-101000000D03*
X110000000Y-104200000D03*
X110000000Y-101000000D03*
D12*
X165930000Y-127930000D03*
D13*
X163390000Y-127930000D03*
X165930000Y-125390000D03*
X163390000Y-125390000D03*
D12*
X138440000Y-59550000D03*
D13*
X135900000Y-59550000D03*
X133360000Y-59550000D03*
X130820000Y-59550000D03*
D10*
G36*
X180650000Y-112312000D02*
X180650000Y-110788000D01*
X184650000Y-110788000D01*
X184650000Y-112312000D01*
X180650000Y-112312000D01*
X180650000Y-112312000D01*
G37*
G36*
X180650000Y-114312000D02*
X180650000Y-112788000D01*
X184650000Y-112788000D01*
X184650000Y-114312000D01*
X180650000Y-114312000D01*
X180650000Y-114312000D01*
G37*
G36*
X180650000Y-122312000D02*
X180650000Y-120788000D01*
X184650000Y-120788000D01*
X184650000Y-122312000D01*
X180650000Y-122312000D01*
X180650000Y-122312000D01*
G37*
G36*
X180650000Y-120312000D02*
X180650000Y-118788000D01*
X184650000Y-118788000D01*
X184650000Y-120312000D01*
X180650000Y-120312000D01*
X180650000Y-120312000D01*
G37*
G36*
X180650000Y-128312000D02*
X180650000Y-126788000D01*
X184650000Y-126788000D01*
X184650000Y-128312000D01*
X180650000Y-128312000D01*
X180650000Y-128312000D01*
G37*
G36*
X180650000Y-130312000D02*
X180650000Y-128788000D01*
X184650000Y-128788000D01*
X184650000Y-130312000D01*
X180650000Y-130312000D01*
X180650000Y-130312000D01*
G37*
G36*
X180650000Y-116312000D02*
X180650000Y-114788000D01*
X184650000Y-114788000D01*
X184650000Y-116312000D01*
X180650000Y-116312000D01*
X180650000Y-116312000D01*
G37*
G36*
X180650000Y-118312000D02*
X180650000Y-116788000D01*
X184650000Y-116788000D01*
X184650000Y-118312000D01*
X180650000Y-118312000D01*
X180650000Y-118312000D01*
G37*
G36*
X180650000Y-126312000D02*
X180650000Y-124788000D01*
X184650000Y-124788000D01*
X184650000Y-126312000D01*
X180650000Y-126312000D01*
X180650000Y-126312000D01*
G37*
G36*
X180650000Y-124312000D02*
X180650000Y-122788000D01*
X184650000Y-122788000D01*
X184650000Y-124312000D01*
X180650000Y-124312000D01*
X180650000Y-124312000D01*
G37*
D14*
X161000000Y-110441691D03*
X123697490Y-78459341D03*
X161000000Y-102800000D03*
X115000000Y-102800000D03*
X123700000Y-102650000D03*
X126500000Y-102650000D03*
X138000000Y-102650000D03*
X149500000Y-102650000D03*
X158500000Y-102650000D03*
X158368020Y-63182223D03*
X158500000Y-88100000D03*
X158150000Y-84750000D03*
X158500000Y-81000000D03*
X158500000Y-75500000D03*
X158500000Y-70000000D03*
X171859164Y-81896229D03*
X169550000Y-87650000D03*
X167820000Y-77920000D03*
X157396650Y-115602288D03*
X156600000Y-85800000D03*
X167150996Y-90611726D03*
X166331625Y-90200000D03*
X169050000Y-120150000D03*
X165584705Y-85150000D03*
X159028140Y-64116947D03*
X99050000Y-91650000D03*
X100050000Y-66650000D03*
X159550903Y-57660979D03*
X166050000Y-84650000D03*
X99550000Y-66150000D03*
X97550000Y-91650000D03*
X145297746Y-107993882D03*
X145297746Y-107993881D03*
X108714055Y-107767217D03*
X145397455Y-115622336D03*
X109000000Y-73800000D03*
X157994060Y-86466547D03*
X157800000Y-108200000D03*
X157800000Y-108200000D03*
X157800000Y-108200000D03*
X147838658Y-109512885D03*
X159888455Y-110441691D03*
X107565260Y-109392272D03*
X147404422Y-115609304D03*
X107600000Y-73800000D03*
X160550000Y-85900000D03*
X158853984Y-110766700D03*
X151544784Y-110766700D03*
X102600000Y-110178451D03*
X151392291Y-115615820D03*
X102600000Y-74000000D03*
X160550001Y-85150000D03*
X163325474Y-85348265D03*
X149533244Y-109204637D03*
X163408755Y-109188727D03*
X149398357Y-115615820D03*
X101400000Y-74200000D03*
X101400000Y-109400000D03*
X164304146Y-108678578D03*
X163800484Y-84584465D03*
X153396986Y-115608834D03*
X153400000Y-108800000D03*
X103600000Y-108400000D03*
X100600000Y-72800000D03*
X160390568Y-82385916D03*
X160600000Y-76400000D03*
X160800000Y-79200000D03*
X148341634Y-110766700D03*
X112182859Y-110771867D03*
X115945367Y-111158676D03*
X148000000Y-79400000D03*
X116000000Y-115600000D03*
X109000000Y-95800000D03*
X146689629Y-110274939D03*
X114026778Y-110672140D03*
X110200000Y-95800000D03*
X114000000Y-115600000D03*
X147200000Y-79400000D03*
X163794281Y-79261678D03*
X164167154Y-111063678D03*
X141400000Y-109624917D03*
X106363569Y-109832834D03*
X141398836Y-115612930D03*
X106400000Y-95800000D03*
X137407806Y-108910133D03*
X137393619Y-112460233D03*
X163000000Y-113200000D03*
X163173556Y-78765897D03*
X106897093Y-109403740D03*
X137402017Y-115600215D03*
X107000000Y-92000000D03*
X165495938Y-109907002D03*
X139400000Y-108974895D03*
X104800000Y-109832834D03*
X139400164Y-115612930D03*
X105200000Y-95800000D03*
X164800000Y-79200000D03*
X164981105Y-74009338D03*
X164750000Y-75150000D03*
X118006347Y-112391105D03*
X165356592Y-86400000D03*
X166800000Y-86400000D03*
X163600000Y-112800000D03*
X118000000Y-115600000D03*
X114600000Y-112600000D03*
X111600000Y-74200000D03*
X166600000Y-79000000D03*
X123200000Y-112184049D03*
X126000000Y-112184049D03*
X166600000Y-81800000D03*
X165800000Y-111675000D03*
X126000000Y-115600000D03*
X121600000Y-91600000D03*
X110200000Y-91600000D03*
X110200000Y-74000000D03*
X130000000Y-80600000D03*
X130000000Y-115600000D03*
X130000000Y-94599990D03*
X173400000Y-91900000D03*
X169650000Y-82350000D03*
X163000000Y-82800000D03*
X162800000Y-111400000D03*
X124000000Y-115600000D03*
X124000000Y-111799900D03*
X108200000Y-111800000D03*
X106400000Y-74000000D03*
X161600000Y-83200000D03*
X161600000Y-86400000D03*
X163200000Y-86400000D03*
X163354136Y-106000000D03*
X161800000Y-106000000D03*
X161600000Y-113675000D03*
X128000000Y-115600000D03*
X128000000Y-113075000D03*
X115200000Y-113075000D03*
X112600000Y-74200000D03*
X120000000Y-111124990D03*
X162400000Y-83800000D03*
X162380519Y-110841527D03*
X120000000Y-115600000D03*
X105800000Y-111200000D03*
X105000000Y-74000000D03*
X170274751Y-83717248D03*
X170151375Y-84530897D03*
X170867963Y-83454976D03*
X170831375Y-84530897D03*
X165356594Y-97342634D03*
X165356594Y-91570777D03*
X103101724Y-97402791D03*
X103100000Y-72000000D03*
X118650000Y-72050000D03*
X118650000Y-88350000D03*
X161523276Y-90232563D03*
X155386999Y-115608834D03*
X111400000Y-95800000D03*
X111400000Y-99000000D03*
X154400000Y-99000000D03*
X161800000Y-99000000D03*
X149400000Y-99800000D03*
X156000000Y-99800000D03*
X138000000Y-99800000D03*
X144400000Y-99800000D03*
X126400000Y-99800000D03*
X133000000Y-99800000D03*
X115000000Y-99800000D03*
X121400000Y-99800000D03*
X161050000Y-70450000D03*
X170750000Y-70550000D03*
X164750000Y-66750000D03*
X164850580Y-62344905D03*
X112000000Y-115600000D03*
X112000000Y-111400000D03*
X101984008Y-110505747D03*
X102000000Y-96000000D03*
X161197428Y-75008769D03*
X161200000Y-78600000D03*
X173004877Y-97009033D03*
X173500000Y-77900000D03*
X172994708Y-98994708D03*
X174000000Y-75600000D03*
X173000000Y-100000000D03*
X174600000Y-76900000D03*
X173005509Y-97999223D03*
X173500000Y-76400000D03*
X179400000Y-119200000D03*
X171800000Y-123600000D03*
X167200000Y-122600000D03*
X171200000Y-121600000D03*
X167200000Y-121600000D03*
X157202858Y-81784325D03*
X157200000Y-78200000D03*
X122000000Y-115600000D03*
X120000000Y-87200000D03*
X125800000Y-87200000D03*
X125800000Y-74000000D03*
X104075000Y-77600000D03*
D15*
X161000000Y-104200000D02*
X161000000Y-110441691D01*
X123700000Y-78461851D02*
X123697490Y-78459341D01*
X123700000Y-102650000D02*
X123700000Y-78461851D01*
X161000000Y-102800000D02*
X161000000Y-104200000D01*
X158749999Y-85049999D02*
X158500000Y-84800000D01*
X158500000Y-88100000D02*
X158749999Y-87850001D01*
X158749999Y-87850001D02*
X158749999Y-85049999D01*
X115000000Y-102800000D02*
X115000000Y-104200000D01*
X158500000Y-88100000D02*
X158500000Y-102650000D01*
X158338049Y-63212194D02*
X158368020Y-63182223D01*
X158250001Y-63300242D02*
X158338049Y-63212194D01*
X158250001Y-69750001D02*
X158250001Y-63300242D01*
X158500000Y-70000000D02*
X158250001Y-69750001D01*
X149500000Y-104200000D02*
X149500000Y-103300000D01*
X149500000Y-103300000D02*
X149500000Y-102650000D01*
X138000000Y-104200000D02*
X138000000Y-102650000D01*
X126500000Y-104200000D02*
X126500000Y-103300000D01*
X126500000Y-103300000D02*
X126500000Y-102650000D01*
X158500000Y-84800000D02*
X158500000Y-75500000D01*
X158150000Y-84750000D02*
X158200000Y-84800000D01*
X158200000Y-84800000D02*
X158500000Y-84800000D01*
X158500000Y-75500000D02*
X158500000Y-70000000D01*
X161000000Y-104200000D02*
X160700000Y-104200000D01*
X171746229Y-81896229D02*
X171859164Y-81896229D01*
X171570001Y-81720001D02*
X171746229Y-81896229D01*
X169550000Y-87650000D02*
X169074999Y-87174999D01*
X169074999Y-87174999D02*
X169074999Y-82073999D01*
X169074999Y-82073999D02*
X169428997Y-81720001D01*
X169428997Y-81720001D02*
X171570001Y-81720001D01*
X169900000Y-77920000D02*
X167820000Y-77920000D01*
X171570001Y-79590001D02*
X169900000Y-77920000D01*
X171570001Y-81720001D02*
X171570001Y-79590001D01*
D16*
X157146651Y-115352289D02*
X157396650Y-115602288D01*
X157025001Y-115230639D02*
X157146651Y-115352289D01*
X157025001Y-86225001D02*
X157025001Y-115230639D01*
X156600000Y-85800000D02*
X157025001Y-86225001D01*
X167150996Y-90965279D02*
X167150996Y-90611726D01*
X177800000Y-117200000D02*
X173899425Y-117200000D01*
X179450000Y-115550000D02*
X177800000Y-117200000D01*
X182650000Y-115550000D02*
X179450000Y-115550000D01*
X167150996Y-110451571D02*
X167150996Y-90965279D01*
X173899425Y-117200000D02*
X167150996Y-110451571D01*
X166581624Y-90449999D02*
X166331625Y-90200000D01*
X166581624Y-90713901D02*
X166581624Y-90449999D01*
X166806629Y-90938906D02*
X166581624Y-90713901D01*
X173789791Y-117550000D02*
X166806629Y-110566838D01*
X182650000Y-117550000D02*
X173789791Y-117550000D01*
X166806629Y-110566838D02*
X166806629Y-90938906D01*
X165930000Y-125390000D02*
X165930000Y-121070000D01*
X165930000Y-121070000D02*
X166850000Y-120150000D01*
X166850000Y-120150000D02*
X169050000Y-120150000D01*
X165584705Y-84796447D02*
X165584705Y-85150000D01*
X165571092Y-84782834D02*
X165584705Y-84796447D01*
X159028140Y-70436870D02*
X160416280Y-71825010D01*
X165571092Y-73030724D02*
X165571092Y-84782834D01*
X159028140Y-64116947D02*
X159028140Y-70436870D01*
X164365378Y-71825010D02*
X165571092Y-73030724D01*
X160416280Y-71825010D02*
X164365378Y-71825010D01*
X100050000Y-90650000D02*
X99050000Y-91650000D01*
X100050000Y-66650000D02*
X100050000Y-90650000D01*
X159550903Y-70500000D02*
X159550903Y-58014532D01*
X164500000Y-71500000D02*
X160550903Y-71500000D01*
X160550903Y-71500000D02*
X159550903Y-70500000D01*
X166050000Y-73050000D02*
X164500000Y-71500000D01*
X166050000Y-84650000D02*
X166050000Y-73050000D01*
X159550903Y-58014532D02*
X159550903Y-57660979D01*
X99550000Y-89650000D02*
X99550000Y-66150000D01*
X97550000Y-91650000D02*
X99550000Y-89650000D01*
X145397455Y-108093591D02*
X145297746Y-107993882D01*
X145397455Y-115622336D02*
X145397455Y-108093591D01*
X145297746Y-107993882D02*
X145297746Y-107993881D01*
X108464056Y-74335944D02*
X108464056Y-107517218D01*
X109000000Y-73800000D02*
X108464056Y-74335944D01*
X108464056Y-107517218D02*
X108714055Y-107767217D01*
X157800000Y-108200000D02*
X157800000Y-86660607D01*
X157800000Y-86660607D02*
X157994060Y-86466547D01*
X147838658Y-109866438D02*
X147838658Y-109512885D01*
X147838658Y-115175068D02*
X147838658Y-109866438D01*
X159888455Y-86561545D02*
X159888455Y-110088138D01*
X147404422Y-115609304D02*
X147838658Y-115175068D01*
X159888455Y-110088138D02*
X159888455Y-110441691D01*
X160550000Y-85900000D02*
X159888455Y-86561545D01*
X107600000Y-109357532D02*
X107565260Y-109392272D01*
X107600000Y-73800000D02*
X107600000Y-109357532D01*
X159182891Y-86517110D02*
X159182891Y-110437793D01*
X159182891Y-110437793D02*
X159103983Y-110516701D01*
X160550001Y-85150000D02*
X159182891Y-86517110D01*
X151392291Y-110919193D02*
X151544784Y-110766700D01*
X159103983Y-110516701D02*
X158853984Y-110766700D01*
X151392291Y-115615820D02*
X151392291Y-110919193D01*
X102600000Y-74000000D02*
X102600000Y-110178451D01*
X163829136Y-108768346D02*
X163829136Y-86351925D01*
X163075475Y-85598264D02*
X163325474Y-85348265D01*
X163408755Y-109188727D02*
X163829136Y-108768346D01*
X163829136Y-86351925D02*
X163075475Y-85598264D01*
X149398357Y-115615820D02*
X149398357Y-109339524D01*
X149398357Y-109339524D02*
X149533244Y-109204637D01*
X101400000Y-109400000D02*
X101400000Y-74200000D01*
X164223662Y-86213203D02*
X164223662Y-108598094D01*
X163800484Y-85790025D02*
X164223662Y-86213203D01*
X163800484Y-84584465D02*
X163800484Y-85790025D01*
X164223662Y-108598094D02*
X164304146Y-108678578D01*
X153400000Y-115605820D02*
X153396986Y-115608834D01*
X153400000Y-108800000D02*
X153400000Y-115605820D01*
X103600000Y-71796998D02*
X103600000Y-108400000D01*
X100600000Y-72800000D02*
X101875001Y-71524999D01*
X101875001Y-71524999D02*
X103328001Y-71524999D01*
X103328001Y-71524999D02*
X103600000Y-71796998D01*
X161000000Y-101000000D02*
X161026495Y-100973505D01*
X161026495Y-100973505D02*
X161026495Y-83021843D01*
X161026495Y-83021843D02*
X160640567Y-82635915D01*
X160640567Y-82635915D02*
X160390568Y-82385916D01*
X160600000Y-79000000D02*
X160600000Y-76400000D01*
X160724999Y-79124999D02*
X160600000Y-79000000D01*
X160800000Y-79200000D02*
X160724999Y-79124999D01*
X148341634Y-79741634D02*
X148341634Y-110413147D01*
X148341634Y-110413147D02*
X148341634Y-110766700D01*
X148000000Y-79400000D02*
X148341634Y-79741634D01*
X109000000Y-95800000D02*
X109000000Y-97921167D01*
X112182859Y-101104026D02*
X112182859Y-110418314D01*
X109000000Y-97921167D02*
X112182859Y-101104026D01*
X112182859Y-110418314D02*
X112182859Y-110771867D01*
X116000000Y-115600000D02*
X116000000Y-111213309D01*
X116000000Y-111213309D02*
X115945367Y-111158676D01*
X110200000Y-95800000D02*
X110200000Y-98503002D01*
X110200000Y-98503002D02*
X112579531Y-100882533D01*
X112579531Y-100882533D02*
X112579531Y-109224893D01*
X112579531Y-109224893D02*
X113776779Y-110422141D01*
X113776779Y-110422141D02*
X114026778Y-110672140D01*
X147200000Y-79400000D02*
X147200000Y-109764568D01*
X147200000Y-109764568D02*
X146939628Y-110024940D01*
X146939628Y-110024940D02*
X146689629Y-110274939D01*
X114000000Y-110698918D02*
X114026778Y-110672140D01*
X114000000Y-115600000D02*
X114000000Y-110698918D01*
X164167154Y-109978206D02*
X165104158Y-109041202D01*
X164167154Y-111063678D02*
X164167154Y-109978206D01*
X164659540Y-80126937D02*
X164044280Y-79511677D01*
X164881582Y-85951855D02*
X164659540Y-85729813D01*
X164881582Y-108093378D02*
X164881582Y-85951855D01*
X165104158Y-109041202D02*
X165104158Y-108315954D01*
X164659540Y-85729813D02*
X164659540Y-80126937D01*
X164044280Y-79511677D02*
X163794281Y-79261678D01*
X165104158Y-108315954D02*
X164881582Y-108093378D01*
X141398836Y-109626081D02*
X141400000Y-109624917D01*
X141398836Y-115612930D02*
X141398836Y-109626081D01*
X106400000Y-109796403D02*
X106363569Y-109832834D01*
X106400000Y-95800000D02*
X106400000Y-109796403D01*
X137393619Y-108924320D02*
X137407806Y-108910133D01*
X137393619Y-112460233D02*
X137393619Y-108924320D01*
X137400000Y-115598198D02*
X137393619Y-115591817D01*
X137393619Y-115591817D02*
X137393619Y-112813786D01*
X137393619Y-112813786D02*
X137393619Y-112460233D01*
X164275485Y-82675485D02*
X164275485Y-85805392D01*
X163000000Y-112696998D02*
X163000000Y-112846447D01*
X164779147Y-108450577D02*
X164779147Y-108906579D01*
X163371999Y-110313727D02*
X163371999Y-112324999D01*
X164779147Y-108906579D02*
X163371999Y-110313727D01*
X164275485Y-85805392D02*
X164556571Y-86086478D01*
X163173556Y-78765897D02*
X163173556Y-81573556D01*
X163173556Y-81573556D02*
X164275485Y-82675485D01*
X163371999Y-112324999D02*
X163000000Y-112696998D01*
X163000000Y-112846447D02*
X163000000Y-113200000D01*
X164556571Y-108228001D02*
X164779147Y-108450577D01*
X164556571Y-86086478D02*
X164556571Y-108228001D01*
X107000000Y-109300833D02*
X106897093Y-109403740D01*
X107000000Y-92000000D02*
X107000000Y-109300833D01*
X137400000Y-115400000D02*
X137402017Y-115402017D01*
X165831594Y-86607881D02*
X165531604Y-86907871D01*
X165745937Y-109657003D02*
X165495938Y-109907002D01*
X165109695Y-85450099D02*
X165831594Y-86171998D01*
X164800000Y-79200000D02*
X165109695Y-79509695D01*
X165831594Y-86171998D02*
X165831594Y-86607881D01*
X166156607Y-109246333D02*
X165745937Y-109657003D01*
X166156607Y-91208152D02*
X166156607Y-109246333D01*
X165109695Y-79509695D02*
X165109695Y-85450099D01*
X165531604Y-86907871D02*
X165531604Y-90583149D01*
X165531604Y-90583149D02*
X166156607Y-91208152D01*
X139400164Y-115612930D02*
X139400164Y-108975059D01*
X139400164Y-108975059D02*
X139400000Y-108974895D01*
X104800000Y-96200000D02*
X104800000Y-109479281D01*
X105200000Y-95800000D02*
X104800000Y-96200000D01*
X104800000Y-109479281D02*
X104800000Y-109832834D01*
X164750000Y-75150000D02*
X164750000Y-74240443D01*
X164750000Y-74240443D02*
X164981105Y-74009338D01*
X118000000Y-112397452D02*
X118006347Y-112391105D01*
X118000000Y-115600000D02*
X118000000Y-112397452D01*
X165206593Y-86549999D02*
X165356592Y-86400000D01*
X165831596Y-91362896D02*
X165206593Y-90737893D01*
X165831596Y-108773398D02*
X165831596Y-91362896D01*
X165206593Y-90737893D02*
X165206593Y-86549999D01*
X164946092Y-109658902D02*
X165831596Y-108773398D01*
X163600000Y-112800000D02*
X164946092Y-111453908D01*
X164946092Y-111453908D02*
X164946092Y-109658902D01*
X166800000Y-86400000D02*
X166800000Y-85259633D01*
X166800000Y-85259633D02*
X167075001Y-84984632D01*
X167075001Y-84984632D02*
X167075001Y-79475001D01*
X167075001Y-79475001D02*
X166849999Y-79249999D01*
X166849999Y-79249999D02*
X166600000Y-79000000D01*
X113000000Y-100843369D02*
X113000000Y-108942360D01*
X113000000Y-108942360D02*
X114600000Y-110542360D01*
X114600000Y-110542360D02*
X114600000Y-112600000D01*
X112800000Y-94800000D02*
X112800000Y-100643369D01*
X112800000Y-100643369D02*
X113000000Y-100843369D01*
X111600000Y-93600000D02*
X112800000Y-94800000D01*
X111600000Y-90400000D02*
X111600000Y-93600000D01*
X111600000Y-89800000D02*
X111600000Y-90400000D01*
X111600000Y-82200000D02*
X111600000Y-89800000D01*
X111600000Y-74200000D02*
X111600000Y-82200000D01*
X121600000Y-91600000D02*
X123200000Y-93200000D01*
X123200000Y-111830496D02*
X123200000Y-112184049D01*
X123200000Y-93200000D02*
X123200000Y-111830496D01*
X126000000Y-115600000D02*
X126000000Y-112184049D01*
X166600000Y-82153553D02*
X166600000Y-81800000D01*
X166156605Y-86762625D02*
X166156605Y-85443395D01*
X165856615Y-90448526D02*
X165856615Y-87062615D01*
X166156605Y-85443395D02*
X166600000Y-85000000D01*
X165856615Y-87062615D02*
X166156605Y-86762625D01*
X166481618Y-91073529D02*
X165856615Y-90448526D01*
X166481618Y-110993382D02*
X166481618Y-91073529D01*
X165800000Y-111675000D02*
X166481618Y-110993382D01*
X166600000Y-85000000D02*
X166600000Y-82153553D01*
X110200000Y-84200000D02*
X110200000Y-91600000D01*
X110200000Y-74000000D02*
X110200000Y-84200000D01*
X130000000Y-94599990D02*
X130000000Y-80600000D01*
X130000000Y-94599990D02*
X130000000Y-115600000D01*
X169650000Y-87046998D02*
X173400000Y-90796998D01*
X173400000Y-90796998D02*
X173400000Y-91900000D01*
X169650000Y-82350000D02*
X169650000Y-87046998D01*
X163000000Y-84970737D02*
X163000000Y-83153553D01*
X162648230Y-85322507D02*
X163000000Y-84970737D01*
X162933754Y-111266246D02*
X162933754Y-109173360D01*
X163000000Y-83153553D02*
X163000000Y-82800000D01*
X162800000Y-111400000D02*
X162933754Y-111266246D01*
X162933754Y-109173360D02*
X162648230Y-108887836D01*
X162648230Y-108887836D02*
X162648230Y-85322507D01*
X124000000Y-111799900D02*
X124000000Y-115600000D01*
X106400000Y-74000000D02*
X107075001Y-73324999D01*
X107075001Y-73324999D02*
X107828001Y-73324999D01*
X107828001Y-73324999D02*
X108075001Y-73571999D01*
X108075001Y-73571999D02*
X108075001Y-111675001D01*
X108075001Y-111675001D02*
X108200000Y-111800000D01*
X161600000Y-86400000D02*
X161600000Y-83200000D01*
X163354136Y-106000000D02*
X163354136Y-86554136D01*
X163354136Y-86554136D02*
X163200000Y-86400000D01*
X161674719Y-106191156D02*
X161674719Y-106125281D01*
X161674719Y-106125281D02*
X161800000Y-106000000D01*
X161600000Y-113675000D02*
X161600000Y-106265875D01*
X161600000Y-106265875D02*
X161674719Y-106191156D01*
X128000000Y-113075000D02*
X128000000Y-115600000D01*
X115200000Y-110682728D02*
X115200000Y-113075000D01*
X113125010Y-94665377D02*
X113125010Y-100508747D01*
X113125010Y-100508747D02*
X113325010Y-100708746D01*
X113325010Y-100708746D02*
X113325010Y-108807738D01*
X113325010Y-108807738D02*
X115200000Y-110682728D01*
X112600000Y-80800000D02*
X113125010Y-81325010D01*
X113125010Y-81325010D02*
X113125010Y-94665377D01*
X112600000Y-74200000D02*
X112600000Y-80800000D01*
X120000000Y-115600000D02*
X120000000Y-111124990D01*
X162323219Y-84230334D02*
X162400000Y-84153553D01*
X162323219Y-110430674D02*
X162323219Y-84230334D01*
X162380519Y-110487974D02*
X162323219Y-110430674D01*
X162380519Y-110841527D02*
X162380519Y-110487974D01*
X162400000Y-84153553D02*
X162400000Y-83800000D01*
X105000000Y-74000000D02*
X105800000Y-74800000D01*
X105800000Y-74800000D02*
X105800000Y-111200000D01*
D17*
X170151375Y-84530897D02*
X170151375Y-83840624D01*
X170151375Y-83840624D02*
X170274751Y-83717248D01*
X170831375Y-83491564D02*
X170867963Y-83454976D01*
X170831375Y-84530897D02*
X170831375Y-83491564D01*
D16*
X165356594Y-97342634D02*
X165356594Y-96989081D01*
X165356594Y-96989081D02*
X165356594Y-91570777D01*
X103100000Y-72000000D02*
X103100000Y-97378338D01*
X103100000Y-97378338D02*
X103113512Y-97391850D01*
X118650000Y-88350000D02*
X118650000Y-72050000D01*
X161800000Y-99000000D02*
X161523276Y-98723276D01*
X161523276Y-98723276D02*
X161523276Y-90732561D01*
X161523276Y-90732561D02*
X161523276Y-90232563D01*
X154400000Y-99000000D02*
X154816379Y-99416379D01*
X154816379Y-99416379D02*
X154816379Y-115038214D01*
X154816379Y-115038214D02*
X155137000Y-115358835D01*
X155137000Y-115358835D02*
X155386999Y-115608834D01*
X111400000Y-99000000D02*
X111400000Y-95800000D01*
X149400000Y-99800000D02*
X149400000Y-100900000D01*
X149400000Y-100900000D02*
X149500000Y-101000000D01*
X156000000Y-101000000D02*
X156000000Y-99800000D01*
X138000000Y-99800000D02*
X138000000Y-101000000D01*
X144500000Y-101000000D02*
X144500000Y-99900000D01*
X144500000Y-99900000D02*
X144400000Y-99800000D01*
X126400000Y-99800000D02*
X126400000Y-100900000D01*
X126400000Y-100900000D02*
X126500000Y-101000000D01*
X133000000Y-101000000D02*
X133000000Y-99800000D01*
X121500000Y-101000000D02*
X121500000Y-99901316D01*
X121500000Y-99901316D02*
X121400000Y-99801316D01*
X121400000Y-99801316D02*
X121400000Y-99800000D01*
X115000000Y-99800000D02*
X115000000Y-101000000D01*
X170750000Y-70550000D02*
X161150000Y-70550000D01*
X161150000Y-70550000D02*
X161050000Y-70450000D01*
X164850580Y-62344905D02*
X164850580Y-66649420D01*
X164850580Y-66649420D02*
X164750000Y-66750000D01*
X112000000Y-111400000D02*
X112000000Y-115600000D01*
X102000000Y-96000000D02*
X101984008Y-110505747D01*
X102000000Y-110503002D02*
X101986753Y-110503002D01*
X101986753Y-110503002D02*
X101984008Y-110505747D01*
X161200000Y-75011341D02*
X161197428Y-75008769D01*
X161200000Y-78600000D02*
X161200000Y-75011341D01*
X173254876Y-96759034D02*
X173004877Y-97009033D01*
X173500000Y-77900000D02*
X173875001Y-78275001D01*
X173875001Y-96138909D02*
X173254876Y-96759034D01*
X173875001Y-78275001D02*
X173875001Y-96138909D01*
X173244707Y-98744709D02*
X172994708Y-98994708D01*
X174624273Y-97365143D02*
X173244707Y-98744709D01*
X174624273Y-77861637D02*
X174624273Y-97365143D01*
X174000000Y-75600000D02*
X174000000Y-77237364D01*
X174000000Y-77237364D02*
X174624273Y-77861637D01*
X173000000Y-99661182D02*
X173000000Y-100000000D01*
X174600000Y-76900000D02*
X175000000Y-77300000D01*
X175000000Y-77300000D02*
X175000000Y-97661182D01*
X175000000Y-97661182D02*
X173000000Y-99661182D01*
X174259615Y-77956613D02*
X174259615Y-96745117D01*
X173500000Y-77196998D02*
X174259615Y-77956613D01*
X174259615Y-96745117D02*
X173255508Y-97749224D01*
X173500000Y-76400000D02*
X173500000Y-77196998D01*
X173255508Y-97749224D02*
X173005509Y-97999223D01*
X180717290Y-124717290D02*
X179400000Y-123400000D01*
X179400000Y-123400000D02*
X179400000Y-119200000D01*
X182650000Y-125550000D02*
X181817290Y-124717290D01*
X181817290Y-124717290D02*
X180717290Y-124717290D01*
X172049999Y-124649999D02*
X176950000Y-129550000D01*
X176950000Y-129550000D02*
X182650000Y-129550000D01*
X171800000Y-123600000D02*
X172049999Y-123849999D01*
X172049999Y-123849999D02*
X172049999Y-124649999D01*
X171800000Y-122800000D02*
X171800000Y-123600000D01*
X171600000Y-122600000D02*
X171800000Y-122800000D01*
X167200000Y-122600000D02*
X171600000Y-122600000D01*
X172400000Y-124200000D02*
X175750000Y-127550000D01*
X175750000Y-127550000D02*
X182650000Y-127550000D01*
X172400000Y-123740367D02*
X172400000Y-124200000D01*
X171200000Y-121600000D02*
X172275001Y-122675001D01*
X172275001Y-122675001D02*
X172275001Y-123615368D01*
X172275001Y-123615368D02*
X172400000Y-123740367D01*
X167200000Y-121600000D02*
X171200000Y-121600000D01*
X157200000Y-78200000D02*
X157200000Y-81781467D01*
X157200000Y-81781467D02*
X157202858Y-81784325D01*
X120000000Y-110200000D02*
X122000000Y-112200000D01*
X122000000Y-112200000D02*
X122000000Y-115600000D01*
X120000000Y-87200000D02*
X120000000Y-110200000D01*
X125800000Y-74000000D02*
X125800000Y-87200000D01*
D18*
G36*
X109323000Y-51221727D02*
X109324534Y-51229441D01*
X109323318Y-51237213D01*
X109338829Y-51301306D01*
X109351697Y-51365999D01*
X109356068Y-51372541D01*
X109357918Y-51380184D01*
X109396778Y-51433467D01*
X109433421Y-51488306D01*
X109439960Y-51492675D01*
X109444596Y-51499032D01*
X109500896Y-51533392D01*
X109555728Y-51570030D01*
X109563443Y-51571565D01*
X109570157Y-51575662D01*
X109635315Y-51585861D01*
X109700000Y-51598727D01*
X109707714Y-51597193D01*
X109715486Y-51598409D01*
X109779579Y-51582898D01*
X109844272Y-51570030D01*
X109850814Y-51565659D01*
X109858457Y-51563809D01*
X117444180Y-48050000D01*
X131748000Y-48050000D01*
X131968902Y-49160547D01*
X132597976Y-50102024D01*
X133539453Y-50731098D01*
X134650000Y-50952000D01*
X135760547Y-50731098D01*
X136702024Y-50102024D01*
X137331098Y-49160547D01*
X137552000Y-48050000D01*
X137331098Y-46939453D01*
X136702024Y-45997976D01*
X135760547Y-45368902D01*
X134650000Y-45148000D01*
X133539453Y-45368902D01*
X132597976Y-45997976D01*
X131968902Y-46939453D01*
X131748000Y-48050000D01*
X117444180Y-48050000D01*
X124811150Y-44637521D01*
X141201289Y-43963693D01*
X156629849Y-49623732D01*
X159490550Y-51535191D01*
X159524854Y-51549400D01*
X159555728Y-51570030D01*
X159592145Y-51577274D01*
X159626451Y-51591484D01*
X159663585Y-51591484D01*
X159700000Y-51598727D01*
X159736417Y-51591483D01*
X159773549Y-51591483D01*
X159807852Y-51577274D01*
X159844272Y-51570030D01*
X159875147Y-51549400D01*
X159909450Y-51535191D01*
X159935706Y-51508935D01*
X159966579Y-51488306D01*
X159987208Y-51457433D01*
X160013464Y-51431177D01*
X160027673Y-51396874D01*
X160048303Y-51365999D01*
X160055547Y-51329579D01*
X160069756Y-51295276D01*
X160069756Y-51258146D01*
X160077000Y-51221727D01*
X160077000Y-35877000D01*
X184323000Y-35877000D01*
X184323000Y-60123000D01*
X168978273Y-60123000D01*
X168970559Y-60124534D01*
X168962787Y-60123318D01*
X168898694Y-60138829D01*
X168834001Y-60151697D01*
X168827459Y-60156068D01*
X168819816Y-60157918D01*
X168766533Y-60196778D01*
X168711694Y-60233421D01*
X168707325Y-60239960D01*
X168700968Y-60244596D01*
X168666608Y-60300896D01*
X168629970Y-60355728D01*
X168628435Y-60363443D01*
X168624338Y-60370157D01*
X168614139Y-60435315D01*
X168601273Y-60500000D01*
X168602807Y-60507714D01*
X168601591Y-60515486D01*
X168617102Y-60579579D01*
X168629970Y-60644272D01*
X168634341Y-60650814D01*
X168636191Y-60658457D01*
X175562479Y-75611150D01*
X176236307Y-92001289D01*
X175427000Y-94207358D01*
X175427000Y-77300000D01*
X175394497Y-77136594D01*
X175301935Y-76998065D01*
X175301932Y-76998063D01*
X175177024Y-76873155D01*
X175177100Y-76785731D01*
X175089442Y-76573583D01*
X174927271Y-76411129D01*
X174715276Y-76323100D01*
X174485731Y-76322900D01*
X174427000Y-76347167D01*
X174427000Y-75989034D01*
X174488871Y-75927271D01*
X174576900Y-75715276D01*
X174577100Y-75485731D01*
X174489442Y-75273583D01*
X174327271Y-75111129D01*
X174115276Y-75023100D01*
X173885731Y-75022900D01*
X173673583Y-75110558D01*
X173511129Y-75272729D01*
X173423100Y-75484724D01*
X173422900Y-75714269D01*
X173467815Y-75822972D01*
X173385731Y-75822900D01*
X173173583Y-75910558D01*
X173011129Y-76072729D01*
X172923100Y-76284724D01*
X172922900Y-76514269D01*
X173010558Y-76726417D01*
X173073000Y-76788968D01*
X173073000Y-77196993D01*
X173072999Y-77196998D01*
X173105503Y-77360404D01*
X173152846Y-77431258D01*
X173011129Y-77572729D01*
X172923100Y-77784724D01*
X172922900Y-78014269D01*
X173010558Y-78226417D01*
X173172729Y-78388871D01*
X173384724Y-78476900D01*
X173448001Y-78476955D01*
X173448001Y-90241130D01*
X170077000Y-86870128D01*
X170077000Y-85107833D01*
X170265644Y-85107997D01*
X170477792Y-85020339D01*
X170491256Y-85006898D01*
X170504104Y-85019768D01*
X170716099Y-85107797D01*
X170945644Y-85107997D01*
X171157792Y-85020339D01*
X171320246Y-84858168D01*
X171408275Y-84646173D01*
X171408475Y-84416628D01*
X171320817Y-84204480D01*
X171220875Y-84104364D01*
X171220875Y-83917969D01*
X171356834Y-83782247D01*
X171444863Y-83570252D01*
X171445063Y-83340707D01*
X171357405Y-83128559D01*
X171195234Y-82966105D01*
X170983239Y-82878076D01*
X170753694Y-82877876D01*
X170541546Y-82965534D01*
X170379092Y-83127705D01*
X170373848Y-83140334D01*
X170160482Y-83140148D01*
X170077000Y-83174642D01*
X170077000Y-82739034D01*
X170138871Y-82677271D01*
X170226900Y-82465276D01*
X170227090Y-82247001D01*
X171351711Y-82247001D01*
X171373584Y-82268874D01*
X171500576Y-82353729D01*
X171531893Y-82385100D01*
X171743888Y-82473129D01*
X171973433Y-82473329D01*
X172185581Y-82385671D01*
X172348035Y-82223500D01*
X172436064Y-82011505D01*
X172436264Y-81781960D01*
X172348606Y-81569812D01*
X172186435Y-81407358D01*
X172097001Y-81370221D01*
X172097001Y-79590001D01*
X172084523Y-79527271D01*
X172056886Y-79388326D01*
X171942646Y-79217356D01*
X170272645Y-77547355D01*
X170101675Y-77433115D01*
X169900000Y-77393000D01*
X168055447Y-77393000D01*
X167935276Y-77343100D01*
X167705731Y-77342900D01*
X167493583Y-77430558D01*
X167331129Y-77592729D01*
X167243100Y-77804724D01*
X167242900Y-78034269D01*
X167330558Y-78246417D01*
X167492729Y-78408871D01*
X167704724Y-78496900D01*
X167934269Y-78497100D01*
X168055520Y-78447000D01*
X169681710Y-78447000D01*
X171043001Y-79808291D01*
X171043001Y-81193001D01*
X169428997Y-81193001D01*
X169227323Y-81233116D01*
X169056352Y-81347356D01*
X168702354Y-81701354D01*
X168588114Y-81872324D01*
X168578034Y-81923000D01*
X168547999Y-82073999D01*
X168547999Y-87174999D01*
X168588114Y-87376674D01*
X168702354Y-87547644D01*
X169010868Y-87856158D01*
X169060558Y-87976417D01*
X169222729Y-88138871D01*
X169434724Y-88226900D01*
X169664269Y-88227100D01*
X169876417Y-88139442D01*
X170007610Y-88008478D01*
X172973000Y-90973867D01*
X172973000Y-91510966D01*
X172911129Y-91572729D01*
X172823100Y-91784724D01*
X172822900Y-92014269D01*
X172910558Y-92226417D01*
X173072729Y-92388871D01*
X173284724Y-92476900D01*
X173448001Y-92477042D01*
X173448001Y-95962040D01*
X172978031Y-96432009D01*
X172890608Y-96431933D01*
X172678460Y-96519591D01*
X172516006Y-96681762D01*
X172427977Y-96893757D01*
X172427777Y-97123302D01*
X172515435Y-97335450D01*
X172677606Y-97497904D01*
X172692684Y-97504165D01*
X172679092Y-97509781D01*
X172516638Y-97671952D01*
X172428609Y-97883947D01*
X172428409Y-98113492D01*
X172516067Y-98325640D01*
X172678238Y-98488094D01*
X172694005Y-98494641D01*
X172668291Y-98505266D01*
X172505837Y-98667437D01*
X172417808Y-98879432D01*
X172417608Y-99108977D01*
X172505266Y-99321125D01*
X172636019Y-99452106D01*
X172605503Y-99497776D01*
X172585462Y-99598525D01*
X172511129Y-99672729D01*
X172423100Y-99884724D01*
X172422900Y-100114269D01*
X172510558Y-100326417D01*
X172672729Y-100488871D01*
X172884724Y-100576900D01*
X173090238Y-100577079D01*
X170576267Y-107429850D01*
X168664809Y-110290550D01*
X168650600Y-110324854D01*
X168629970Y-110355728D01*
X168622726Y-110392145D01*
X168608516Y-110426451D01*
X168608516Y-110463585D01*
X168601273Y-110500000D01*
X168608517Y-110536417D01*
X168608517Y-110573549D01*
X168622726Y-110607853D01*
X168629970Y-110644272D01*
X168650598Y-110675144D01*
X168664808Y-110709450D01*
X168691067Y-110735708D01*
X168711694Y-110766579D01*
X168742566Y-110787207D01*
X168768823Y-110813464D01*
X168803127Y-110827673D01*
X168834001Y-110848303D01*
X168870418Y-110855547D01*
X168904724Y-110869757D01*
X168941858Y-110869757D01*
X168978273Y-110877000D01*
X180316594Y-110877000D01*
X180316594Y-112247957D01*
X180198559Y-112323910D01*
X180053569Y-112536110D01*
X180002560Y-112788000D01*
X180002560Y-113423000D01*
X182523000Y-113423000D01*
X182523000Y-113403000D01*
X182777000Y-113403000D01*
X182777000Y-113423000D01*
X182797000Y-113423000D01*
X182797000Y-113677000D01*
X182777000Y-113677000D01*
X182777000Y-113697000D01*
X182523000Y-113697000D01*
X182523000Y-113677000D01*
X180002560Y-113677000D01*
X180002560Y-114312000D01*
X180046838Y-114547317D01*
X180185910Y-114763441D01*
X180316594Y-114852734D01*
X180316594Y-115123000D01*
X179450000Y-115123000D01*
X179286594Y-115155503D01*
X179148065Y-115248065D01*
X179148063Y-115248068D01*
X177623130Y-116773000D01*
X174076295Y-116773000D01*
X166727000Y-109423705D01*
X166727000Y-91237441D01*
X166788871Y-91175678D01*
X166876900Y-90963683D01*
X166877100Y-90734138D01*
X166789442Y-90521990D01*
X166627271Y-90359536D01*
X166415276Y-90271507D01*
X166376938Y-90271474D01*
X166377100Y-90085731D01*
X166289442Y-89873583D01*
X166127271Y-89711129D01*
X165915276Y-89623100D01*
X165751999Y-89622958D01*
X165751999Y-85690851D01*
X165876417Y-85639442D01*
X166038871Y-85477271D01*
X166126900Y-85265276D01*
X166126933Y-85227067D01*
X166164269Y-85227100D01*
X166376417Y-85139442D01*
X166538871Y-84977271D01*
X166626900Y-84765276D01*
X166627100Y-84535731D01*
X166539442Y-84323583D01*
X166477000Y-84261032D01*
X166477000Y-79573693D01*
X166484724Y-79576900D01*
X166714269Y-79577100D01*
X166926417Y-79489442D01*
X167088871Y-79327271D01*
X167176900Y-79115276D01*
X167177100Y-78885731D01*
X167089442Y-78673583D01*
X166927271Y-78511129D01*
X166715276Y-78423100D01*
X166485731Y-78422900D01*
X166477000Y-78426508D01*
X166477000Y-73050005D01*
X166477001Y-73050000D01*
X166444497Y-72886594D01*
X166351935Y-72748065D01*
X164801935Y-71198065D01*
X164663406Y-71105503D01*
X164500000Y-71072999D01*
X164499995Y-71073000D01*
X160727772Y-71073000D01*
X160219042Y-70564269D01*
X160472900Y-70564269D01*
X160560558Y-70776417D01*
X160722729Y-70938871D01*
X160934724Y-71026900D01*
X161164269Y-71027100D01*
X161285520Y-70977000D01*
X170360966Y-70977000D01*
X170422729Y-71038871D01*
X170634724Y-71126900D01*
X170864269Y-71127100D01*
X171076417Y-71039442D01*
X171238871Y-70877271D01*
X171326900Y-70665276D01*
X171327100Y-70435731D01*
X171239442Y-70223583D01*
X171077271Y-70061129D01*
X170865276Y-69973100D01*
X170635731Y-69972900D01*
X170423583Y-70060558D01*
X170361032Y-70123000D01*
X161538860Y-70123000D01*
X161377271Y-69961129D01*
X161165276Y-69873100D01*
X160935731Y-69872900D01*
X160723583Y-69960558D01*
X160561129Y-70122729D01*
X160473100Y-70334724D01*
X160472900Y-70564269D01*
X160219042Y-70564269D01*
X159977903Y-70323130D01*
X159977903Y-66864269D01*
X164172900Y-66864269D01*
X164260558Y-67076417D01*
X164422729Y-67238871D01*
X164634724Y-67326900D01*
X164864269Y-67327100D01*
X165076417Y-67239442D01*
X165238871Y-67077271D01*
X165326900Y-66865276D01*
X165327100Y-66635731D01*
X165277580Y-66515884D01*
X165277580Y-62733939D01*
X165339451Y-62672176D01*
X165427480Y-62460181D01*
X165427680Y-62230636D01*
X165340022Y-62018488D01*
X165177851Y-61856034D01*
X164965856Y-61768005D01*
X164736311Y-61767805D01*
X164524163Y-61855463D01*
X164361709Y-62017634D01*
X164273680Y-62229629D01*
X164273480Y-62459174D01*
X164361138Y-62671322D01*
X164423580Y-62733873D01*
X164423580Y-66260561D01*
X164261129Y-66422729D01*
X164173100Y-66634724D01*
X164172900Y-66864269D01*
X159977903Y-66864269D01*
X159977903Y-58050013D01*
X160039774Y-57988250D01*
X160127803Y-57776255D01*
X160128003Y-57546710D01*
X160040345Y-57334562D01*
X159878174Y-57172108D01*
X159666179Y-57084079D01*
X159436634Y-57083879D01*
X159224486Y-57171537D01*
X159062032Y-57333708D01*
X158974003Y-57545703D01*
X158973803Y-57775248D01*
X159061461Y-57987396D01*
X159123903Y-58049947D01*
X159123903Y-63540030D01*
X158913871Y-63539847D01*
X158777001Y-63596401D01*
X158777001Y-63589245D01*
X158856891Y-63509494D01*
X158944920Y-63297499D01*
X158945120Y-63067954D01*
X158857462Y-62855806D01*
X158695291Y-62693352D01*
X158483296Y-62605323D01*
X158253751Y-62605123D01*
X158041603Y-62692781D01*
X157879149Y-62854952D01*
X157802408Y-63039764D01*
X157763116Y-63098567D01*
X157729365Y-63268248D01*
X157723001Y-63300242D01*
X157723001Y-69750001D01*
X157763116Y-69951676D01*
X157877356Y-70122646D01*
X157960868Y-70206158D01*
X157973000Y-70235520D01*
X157973000Y-75264553D01*
X157923100Y-75384724D01*
X157922900Y-75614269D01*
X157973000Y-75735520D01*
X157973000Y-80764553D01*
X157923100Y-80884724D01*
X157922900Y-81114269D01*
X157973000Y-81235520D01*
X157973000Y-84198820D01*
X157823583Y-84260558D01*
X157661129Y-84422729D01*
X157573100Y-84634724D01*
X157572900Y-84864269D01*
X157660558Y-85076417D01*
X157822729Y-85238871D01*
X158034724Y-85326900D01*
X158222999Y-85327064D01*
X158222999Y-85936845D01*
X158109336Y-85889647D01*
X157879791Y-85889447D01*
X157667643Y-85977105D01*
X157505189Y-86139276D01*
X157452001Y-86267365D01*
X157452001Y-86225001D01*
X157419498Y-86061595D01*
X157326936Y-85923066D01*
X157326933Y-85923064D01*
X157177024Y-85773154D01*
X157177100Y-85685731D01*
X157089442Y-85473583D01*
X156927271Y-85311129D01*
X156715276Y-85223100D01*
X156485731Y-85222900D01*
X156273583Y-85310558D01*
X156111129Y-85472729D01*
X156023100Y-85684724D01*
X156022900Y-85914269D01*
X156110558Y-86126417D01*
X156272729Y-86288871D01*
X156484724Y-86376900D01*
X156573108Y-86376977D01*
X156598001Y-86401870D01*
X156598001Y-100166594D01*
X156449479Y-100166594D01*
X156488871Y-100127271D01*
X156576900Y-99915276D01*
X156577100Y-99685731D01*
X156489442Y-99473583D01*
X156327271Y-99311129D01*
X156115276Y-99223100D01*
X155885731Y-99222900D01*
X155673583Y-99310558D01*
X155511129Y-99472729D01*
X155423100Y-99684724D01*
X155422900Y-99914269D01*
X155510558Y-100126417D01*
X155550665Y-100166594D01*
X155243379Y-100166594D01*
X155243379Y-99416384D01*
X155243380Y-99416379D01*
X155210876Y-99252973D01*
X155198320Y-99234182D01*
X155118314Y-99114444D01*
X155118311Y-99114442D01*
X154977024Y-98973154D01*
X154977100Y-98885731D01*
X154889442Y-98673583D01*
X154727271Y-98511129D01*
X154515276Y-98423100D01*
X154285731Y-98422900D01*
X154073583Y-98510558D01*
X153911129Y-98672729D01*
X153823100Y-98884724D01*
X153822900Y-99114269D01*
X153910558Y-99326417D01*
X154072729Y-99488871D01*
X154284724Y-99576900D01*
X154373108Y-99576977D01*
X154389379Y-99593248D01*
X154389379Y-115038209D01*
X154389378Y-115038214D01*
X154421882Y-115201620D01*
X154514444Y-115340149D01*
X154809975Y-115635679D01*
X154809899Y-115723103D01*
X154897557Y-115935251D01*
X155059728Y-116097705D01*
X155271723Y-116185734D01*
X155501268Y-116185934D01*
X155713416Y-116098276D01*
X155875870Y-115936105D01*
X155963899Y-115724110D01*
X155964099Y-115494565D01*
X155876441Y-115282417D01*
X155714270Y-115119963D01*
X155502275Y-115031934D01*
X155413891Y-115031857D01*
X155243379Y-114861344D01*
X155243379Y-105335000D01*
X155714250Y-105335000D01*
X155873000Y-105176250D01*
X155873000Y-104327000D01*
X155853000Y-104327000D01*
X155853000Y-104073000D01*
X155873000Y-104073000D01*
X155873000Y-103223750D01*
X155714250Y-103065000D01*
X155243379Y-103065000D01*
X155243379Y-101833406D01*
X156598001Y-101833406D01*
X156598001Y-103065000D01*
X156285750Y-103065000D01*
X156127000Y-103223750D01*
X156127000Y-104073000D01*
X156147000Y-104073000D01*
X156147000Y-104327000D01*
X156127000Y-104327000D01*
X156127000Y-105176250D01*
X156285750Y-105335000D01*
X156598001Y-105335000D01*
X156598001Y-115230634D01*
X156598000Y-115230639D01*
X156630504Y-115394045D01*
X156723066Y-115532574D01*
X156819626Y-115629134D01*
X156819550Y-115716557D01*
X156907208Y-115928705D01*
X157069379Y-116091159D01*
X157281374Y-116179188D01*
X157510919Y-116179388D01*
X157723067Y-116091730D01*
X157885521Y-115929559D01*
X157973550Y-115717564D01*
X157973750Y-115488019D01*
X157886092Y-115275871D01*
X157723921Y-115113417D01*
X157511926Y-115025388D01*
X157452001Y-115025336D01*
X157452001Y-108668107D01*
X157472729Y-108688871D01*
X157684724Y-108776900D01*
X157914269Y-108777100D01*
X158126417Y-108689442D01*
X158288871Y-108527271D01*
X158376900Y-108315276D01*
X158377100Y-108085731D01*
X158289442Y-107873583D01*
X158227000Y-107811032D01*
X158227000Y-103161407D01*
X158384724Y-103226900D01*
X158614269Y-103227100D01*
X158826417Y-103139442D01*
X158973000Y-102993114D01*
X158973000Y-110222287D01*
X158298065Y-110897221D01*
X158205503Y-111035750D01*
X158172999Y-111199156D01*
X158173000Y-111199161D01*
X158173000Y-112410966D01*
X158111129Y-112472729D01*
X158023100Y-112684724D01*
X158022900Y-112914269D01*
X158110558Y-113126417D01*
X158272729Y-113288871D01*
X158484724Y-113376900D01*
X158714269Y-113377100D01*
X158926417Y-113289442D01*
X159088871Y-113127271D01*
X159176900Y-112915276D01*
X159177100Y-112685731D01*
X159089442Y-112473583D01*
X159027000Y-112411032D01*
X159027000Y-112046337D01*
X159027444Y-112046521D01*
X159256989Y-112046721D01*
X159469137Y-111959063D01*
X159631591Y-111796892D01*
X159719620Y-111584897D01*
X159719820Y-111355352D01*
X159657685Y-111204973D01*
X160129138Y-110733519D01*
X160129141Y-110733517D01*
X160221703Y-110594988D01*
X160254206Y-110431582D01*
X160254206Y-105033406D01*
X160473000Y-105033406D01*
X160473000Y-110364553D01*
X160423100Y-110484724D01*
X160422900Y-110714269D01*
X160510558Y-110926417D01*
X160672729Y-111088871D01*
X160884724Y-111176900D01*
X161114269Y-111177100D01*
X161326417Y-111089442D01*
X161488871Y-110927271D01*
X161576900Y-110715276D01*
X161577100Y-110485731D01*
X161527000Y-110364480D01*
X161527000Y-105033406D01*
X161800000Y-105033406D01*
X161921179Y-105010605D01*
X162032474Y-104938988D01*
X162107138Y-104829714D01*
X162133406Y-104700000D01*
X162133406Y-103700000D01*
X162110605Y-103578821D01*
X162038988Y-103467526D01*
X161929714Y-103392862D01*
X161800000Y-103366594D01*
X161527000Y-103366594D01*
X161527000Y-103035447D01*
X161576900Y-102915276D01*
X161577100Y-102685731D01*
X161489442Y-102473583D01*
X161327271Y-102311129D01*
X161115276Y-102223100D01*
X160885731Y-102222900D01*
X160673583Y-102310558D01*
X160511129Y-102472729D01*
X160423100Y-102684724D01*
X160422900Y-102914269D01*
X160473000Y-103035520D01*
X160473000Y-103366594D01*
X160254206Y-103366594D01*
X160254206Y-101833406D01*
X161800000Y-101833406D01*
X161921179Y-101810605D01*
X162032474Y-101738988D01*
X162107138Y-101629714D01*
X162133406Y-101500000D01*
X162133406Y-100500000D01*
X162110605Y-100378821D01*
X162038988Y-100267526D01*
X161929714Y-100192862D01*
X161800000Y-100166594D01*
X161477000Y-100166594D01*
X161477000Y-99490644D01*
X161684724Y-99576900D01*
X161914269Y-99577100D01*
X162126417Y-99489442D01*
X162288871Y-99327271D01*
X162376900Y-99115276D01*
X162377100Y-98885731D01*
X162289442Y-98673583D01*
X162227000Y-98611032D01*
X162227000Y-90589034D01*
X162288871Y-90527271D01*
X162376900Y-90315276D01*
X162377100Y-90085731D01*
X162289442Y-89873583D01*
X162127271Y-89711129D01*
X161915276Y-89623100D01*
X161685731Y-89622900D01*
X161477000Y-89709146D01*
X161477000Y-86476937D01*
X161523107Y-86476977D01*
X162773000Y-87726869D01*
X162773000Y-109010966D01*
X162711129Y-109072729D01*
X162623100Y-109284724D01*
X162622900Y-109514269D01*
X162710558Y-109726417D01*
X162872729Y-109888871D01*
X163084724Y-109976900D01*
X163314269Y-109977100D01*
X163526417Y-109889442D01*
X163688871Y-109727271D01*
X163776900Y-109515276D01*
X163777013Y-109385535D01*
X163841557Y-109385591D01*
X163841557Y-111382635D01*
X163805503Y-111436594D01*
X163772999Y-111600000D01*
X163773000Y-111600005D01*
X163773000Y-111810966D01*
X163711129Y-111872729D01*
X163623100Y-112084724D01*
X163622900Y-112314269D01*
X163710558Y-112526417D01*
X163872729Y-112688871D01*
X164084724Y-112776900D01*
X164314269Y-112777100D01*
X164526417Y-112689442D01*
X164688871Y-112527271D01*
X164776900Y-112315276D01*
X164777100Y-112085731D01*
X164689442Y-111873583D01*
X164627000Y-111811032D01*
X164627000Y-111748808D01*
X164663054Y-111694849D01*
X164695557Y-111531443D01*
X164695557Y-110376909D01*
X164914269Y-110377100D01*
X165126417Y-110289442D01*
X165288871Y-110127271D01*
X165376900Y-109915276D01*
X165376977Y-109826892D01*
X165435444Y-109768425D01*
X165498065Y-109862144D01*
X173603695Y-117967773D01*
X173603697Y-117967776D01*
X173718189Y-118044277D01*
X173742226Y-118060338D01*
X173905632Y-118092842D01*
X173905637Y-118092841D01*
X180316594Y-118092841D01*
X180316594Y-118312000D01*
X180339395Y-118433179D01*
X180411012Y-118544474D01*
X180417592Y-118548970D01*
X180417526Y-118549012D01*
X180342862Y-118658286D01*
X180316594Y-118788000D01*
X180316594Y-120312000D01*
X180339395Y-120433179D01*
X180411012Y-120544474D01*
X180417592Y-120548970D01*
X180417526Y-120549012D01*
X180342862Y-120658286D01*
X180316594Y-120788000D01*
X180316594Y-122312000D01*
X180339395Y-122433179D01*
X180411012Y-122544474D01*
X180417592Y-122548970D01*
X180417526Y-122549012D01*
X180342862Y-122658286D01*
X180316594Y-122788000D01*
X180316594Y-124312000D01*
X180339395Y-124433179D01*
X180411012Y-124544474D01*
X180417592Y-124548970D01*
X180417526Y-124549012D01*
X180342862Y-124658286D01*
X180316594Y-124788000D01*
X180316594Y-126312000D01*
X180339395Y-126433179D01*
X180411012Y-126544474D01*
X180417592Y-126548970D01*
X180417526Y-126549012D01*
X180342862Y-126658286D01*
X180316594Y-126788000D01*
X180316594Y-128312000D01*
X180339395Y-128433179D01*
X180411012Y-128544474D01*
X180417592Y-128548970D01*
X180417526Y-128549012D01*
X180342862Y-128658286D01*
X180316594Y-128788000D01*
X180316594Y-130312000D01*
X180339395Y-130433179D01*
X180411012Y-130544474D01*
X180520286Y-130619138D01*
X180650000Y-130645406D01*
X184323000Y-130645406D01*
X184323000Y-135123000D01*
X160077000Y-135123000D01*
X160077000Y-125746890D01*
X161948524Y-125746890D01*
X162118355Y-126156924D01*
X162508642Y-126585183D01*
X163015035Y-126822999D01*
X162916523Y-126842594D01*
X162534676Y-127097735D01*
X162279535Y-127479582D01*
X162189941Y-127930000D01*
X162279535Y-128380418D01*
X162534676Y-128762265D01*
X162916523Y-129017406D01*
X163366941Y-129107000D01*
X163413059Y-129107000D01*
X163863477Y-129017406D01*
X164245324Y-128762265D01*
X164500465Y-128380418D01*
X164590059Y-127930000D01*
X164500465Y-127479582D01*
X164245324Y-127097735D01*
X164218782Y-127080000D01*
X164746594Y-127080000D01*
X164746594Y-128780000D01*
X164769395Y-128901179D01*
X164841012Y-129012474D01*
X164950286Y-129087138D01*
X165080000Y-129113406D01*
X166780000Y-129113406D01*
X166901179Y-129090605D01*
X167012474Y-129018988D01*
X167087138Y-128909714D01*
X167113406Y-128780000D01*
X167113406Y-127080000D01*
X167090605Y-126958821D01*
X167018988Y-126847526D01*
X166909714Y-126772862D01*
X166780000Y-126746594D01*
X165080000Y-126746594D01*
X164958821Y-126769395D01*
X164847526Y-126841012D01*
X164772862Y-126950286D01*
X164746594Y-127080000D01*
X164218782Y-127080000D01*
X163863477Y-126842594D01*
X163764965Y-126822999D01*
X164271358Y-126585183D01*
X164661645Y-126156924D01*
X164810841Y-125796710D01*
X164819535Y-125840418D01*
X165074676Y-126222265D01*
X165456523Y-126477406D01*
X165906941Y-126567000D01*
X165953059Y-126567000D01*
X166403477Y-126477406D01*
X166785324Y-126222265D01*
X167040465Y-125840418D01*
X167130059Y-125390000D01*
X167040465Y-124939582D01*
X167017964Y-124905906D01*
X168551932Y-123371937D01*
X168551935Y-123371935D01*
X168644497Y-123233406D01*
X168677000Y-123070000D01*
X168677000Y-120773317D01*
X168785415Y-120664901D01*
X168934724Y-120726900D01*
X169164269Y-120727100D01*
X169376417Y-120639442D01*
X169538871Y-120477271D01*
X169626900Y-120265276D01*
X169627100Y-120035731D01*
X169539442Y-119823583D01*
X169377271Y-119661129D01*
X169165276Y-119573100D01*
X168935731Y-119572900D01*
X168723583Y-119660558D01*
X168652219Y-119731797D01*
X168533041Y-119755503D01*
X168394512Y-119848065D01*
X168394510Y-119848068D01*
X167948065Y-120294512D01*
X167855503Y-120433041D01*
X167822999Y-120596447D01*
X167823000Y-120596452D01*
X167823000Y-122893131D01*
X166409507Y-124306623D01*
X166403477Y-124302594D01*
X165953059Y-124213000D01*
X165906941Y-124213000D01*
X165456523Y-124302594D01*
X165074676Y-124557735D01*
X164819535Y-124939582D01*
X164810841Y-124983290D01*
X164661645Y-124623076D01*
X164271358Y-124194817D01*
X163746892Y-123948514D01*
X163517000Y-124069181D01*
X163517000Y-125263000D01*
X163537000Y-125263000D01*
X163537000Y-125517000D01*
X163517000Y-125517000D01*
X163517000Y-125537000D01*
X163263000Y-125537000D01*
X163263000Y-125517000D01*
X162069845Y-125517000D01*
X161948524Y-125746890D01*
X160077000Y-125746890D01*
X160077000Y-125033110D01*
X161948524Y-125033110D01*
X162069845Y-125263000D01*
X163263000Y-125263000D01*
X163263000Y-124069181D01*
X163033108Y-123948514D01*
X162508642Y-124194817D01*
X162118355Y-124623076D01*
X161948524Y-125033110D01*
X160077000Y-125033110D01*
X160077000Y-119778273D01*
X160075466Y-119770559D01*
X160076682Y-119762787D01*
X160061171Y-119698694D01*
X160048303Y-119634001D01*
X160043932Y-119627459D01*
X160042082Y-119619816D01*
X160003222Y-119566533D01*
X159966579Y-119511694D01*
X159960040Y-119507325D01*
X159955404Y-119500968D01*
X159899109Y-119466611D01*
X159844272Y-119429970D01*
X159836555Y-119428435D01*
X159829842Y-119424338D01*
X159764687Y-119414140D01*
X159700000Y-119401273D01*
X159692286Y-119402807D01*
X159684514Y-119401591D01*
X159620421Y-119417102D01*
X159555728Y-119429970D01*
X159549186Y-119434341D01*
X159541543Y-119436191D01*
X144588850Y-126362479D01*
X128198711Y-127036307D01*
X112770150Y-121376267D01*
X109909450Y-119464809D01*
X109875146Y-119450600D01*
X109844272Y-119429970D01*
X109807855Y-119422726D01*
X109773549Y-119408516D01*
X109736415Y-119408516D01*
X109700000Y-119401273D01*
X109663583Y-119408517D01*
X109626451Y-119408517D01*
X109592147Y-119422726D01*
X109555728Y-119429970D01*
X109524856Y-119450598D01*
X109490550Y-119464808D01*
X109464292Y-119491067D01*
X109433421Y-119511694D01*
X109412793Y-119542566D01*
X109386536Y-119568823D01*
X109372327Y-119603127D01*
X109351697Y-119634001D01*
X109344453Y-119670418D01*
X109330243Y-119704724D01*
X109330243Y-119741858D01*
X109323000Y-119778273D01*
X109323000Y-135123000D01*
X85077000Y-135123000D01*
X85077000Y-117171572D01*
X161290039Y-117171572D01*
X161290039Y-117328426D01*
X161333099Y-117544904D01*
X161393124Y-117689817D01*
X161515748Y-117873337D01*
X161515749Y-117873340D01*
X161571205Y-117928795D01*
X161626660Y-117984251D01*
X161626663Y-117984252D01*
X161810181Y-118106874D01*
X161810183Y-118106876D01*
X161955096Y-118166901D01*
X162171572Y-118209961D01*
X162328428Y-118209961D01*
X162544904Y-118166901D01*
X162689817Y-118106876D01*
X162873339Y-117984251D01*
X162901336Y-117956254D01*
X162934257Y-117934257D01*
X167334257Y-113534257D01*
X167356254Y-113501336D01*
X167384251Y-113473339D01*
X167506875Y-113289818D01*
X167506876Y-113289817D01*
X167566901Y-113144904D01*
X167609961Y-112928426D01*
X167609961Y-112771572D01*
X167566901Y-112555096D01*
X167506876Y-112410183D01*
X167506874Y-112410181D01*
X167384251Y-112226661D01*
X167384251Y-112226660D01*
X167328795Y-112171205D01*
X167273340Y-112115749D01*
X167273337Y-112115748D01*
X167089817Y-111993124D01*
X166944904Y-111933099D01*
X166728428Y-111890039D01*
X166571572Y-111890039D01*
X166355096Y-111933099D01*
X166210183Y-111993124D01*
X166210181Y-111993126D01*
X166026661Y-112115749D01*
X165998664Y-112143746D01*
X165965743Y-112165743D01*
X161565743Y-116565743D01*
X161543746Y-116598664D01*
X161515749Y-116626661D01*
X161393124Y-116810183D01*
X161333099Y-116955096D01*
X161290039Y-117171572D01*
X85077000Y-117171572D01*
X85077000Y-110877000D01*
X100421727Y-110877000D01*
X100429441Y-110875466D01*
X100437213Y-110876682D01*
X100501306Y-110861171D01*
X100565999Y-110848303D01*
X100572541Y-110843932D01*
X100580184Y-110842082D01*
X100633467Y-110803222D01*
X100688306Y-110766579D01*
X100692675Y-110760040D01*
X100699032Y-110755404D01*
X100733389Y-110699109D01*
X100770030Y-110644272D01*
X100771565Y-110636555D01*
X100775662Y-110629842D01*
X100785860Y-110564687D01*
X100798727Y-110500000D01*
X100797193Y-110492286D01*
X100798409Y-110484514D01*
X100782898Y-110420421D01*
X100770030Y-110355728D01*
X100765659Y-110349186D01*
X100763809Y-110341543D01*
X93837521Y-95388850D01*
X93688508Y-91764269D01*
X96972900Y-91764269D01*
X97060558Y-91976417D01*
X97222729Y-92138871D01*
X97434724Y-92226900D01*
X97664269Y-92227100D01*
X97876417Y-92139442D01*
X98038871Y-91977271D01*
X98126900Y-91765276D01*
X98126977Y-91676893D01*
X99623000Y-90180870D01*
X99623000Y-90473131D01*
X99023154Y-91072976D01*
X98935731Y-91072900D01*
X98723583Y-91160558D01*
X98561129Y-91322729D01*
X98473100Y-91534724D01*
X98472900Y-91764269D01*
X98560558Y-91976417D01*
X98722729Y-92138871D01*
X98934724Y-92226900D01*
X99164269Y-92227100D01*
X99376417Y-92139442D01*
X99538871Y-91977271D01*
X99626900Y-91765276D01*
X99626977Y-91676893D01*
X100351932Y-90951937D01*
X100351935Y-90951935D01*
X100444497Y-90813406D01*
X100451719Y-90777100D01*
X100477001Y-90650000D01*
X100477000Y-90649995D01*
X100477000Y-73373693D01*
X100484724Y-73376900D01*
X100714269Y-73377100D01*
X100926417Y-73289442D01*
X101088871Y-73127271D01*
X101176900Y-72915276D01*
X101176977Y-72826893D01*
X102051870Y-71951999D01*
X102523041Y-71951999D01*
X102522900Y-72114269D01*
X102610558Y-72326417D01*
X102673000Y-72388968D01*
X102673000Y-73423063D01*
X102485731Y-73422900D01*
X102273583Y-73510558D01*
X102111129Y-73672729D01*
X102023100Y-73884724D01*
X102022900Y-74114269D01*
X102110558Y-74326417D01*
X102173000Y-74388968D01*
X102173000Y-95447069D01*
X102115276Y-95423100D01*
X101885731Y-95422900D01*
X101827000Y-95447167D01*
X101827000Y-74589034D01*
X101888871Y-74527271D01*
X101976900Y-74315276D01*
X101977100Y-74085731D01*
X101889442Y-73873583D01*
X101727271Y-73711129D01*
X101515276Y-73623100D01*
X101285731Y-73622900D01*
X101073583Y-73710558D01*
X100911129Y-73872729D01*
X100823100Y-74084724D01*
X100822900Y-74314269D01*
X100910558Y-74526417D01*
X100973000Y-74588968D01*
X100973000Y-109010966D01*
X100911129Y-109072729D01*
X100823100Y-109284724D01*
X100822900Y-109514269D01*
X100910558Y-109726417D01*
X101072729Y-109888871D01*
X101284724Y-109976900D01*
X101514269Y-109977100D01*
X101557610Y-109959192D01*
X101557437Y-110116285D01*
X101495137Y-110178476D01*
X101407108Y-110390471D01*
X101406908Y-110620016D01*
X101494566Y-110832164D01*
X101656737Y-110994618D01*
X101868732Y-111082647D01*
X102098277Y-111082847D01*
X102310425Y-110995189D01*
X102472879Y-110833018D01*
X102505122Y-110755369D01*
X102714269Y-110755551D01*
X102926417Y-110667893D01*
X103088871Y-110505722D01*
X103176900Y-110293727D01*
X103177100Y-110064182D01*
X103128724Y-109947103D01*
X104222900Y-109947103D01*
X104310558Y-110159251D01*
X104472729Y-110321705D01*
X104684724Y-110409734D01*
X104914269Y-110409934D01*
X105126417Y-110322276D01*
X105288871Y-110160105D01*
X105376900Y-109948110D01*
X105376900Y-109947103D01*
X105786469Y-109947103D01*
X105874127Y-110159251D01*
X106036298Y-110321705D01*
X106248293Y-110409734D01*
X106477838Y-110409934D01*
X106689986Y-110322276D01*
X106852440Y-110160105D01*
X106926909Y-109980766D01*
X107011362Y-109980840D01*
X107223510Y-109893182D01*
X107236782Y-109879934D01*
X107237989Y-109881143D01*
X107449984Y-109969172D01*
X107679529Y-109969372D01*
X107891677Y-109881714D01*
X108054131Y-109719543D01*
X108142160Y-109507548D01*
X108142360Y-109278003D01*
X108054702Y-109065855D01*
X108027000Y-109038105D01*
X108027000Y-74335944D01*
X108037055Y-74335944D01*
X108037056Y-74335949D01*
X108037056Y-107517213D01*
X108037055Y-107517218D01*
X108069559Y-107680624D01*
X108137042Y-107781620D01*
X108136955Y-107881486D01*
X108224613Y-108093634D01*
X108386784Y-108256088D01*
X108598779Y-108344117D01*
X108828324Y-108344317D01*
X109040472Y-108256659D01*
X109202926Y-108094488D01*
X109290955Y-107882493D01*
X109291155Y-107652948D01*
X109203497Y-107440800D01*
X109041326Y-107278346D01*
X108891056Y-107215948D01*
X108891056Y-105259350D01*
X109073691Y-105335000D01*
X109714250Y-105335000D01*
X109873000Y-105176250D01*
X109873000Y-104327000D01*
X110127000Y-104327000D01*
X110127000Y-105176250D01*
X110285750Y-105335000D01*
X110926309Y-105335000D01*
X111159698Y-105238327D01*
X111338327Y-105059699D01*
X111435000Y-104826310D01*
X111435000Y-104485750D01*
X111276250Y-104327000D01*
X110127000Y-104327000D01*
X109873000Y-104327000D01*
X109853000Y-104327000D01*
X109853000Y-104073000D01*
X109873000Y-104073000D01*
X109873000Y-103223750D01*
X110127000Y-103223750D01*
X110127000Y-104073000D01*
X111276250Y-104073000D01*
X111435000Y-103914250D01*
X111435000Y-103573690D01*
X111338327Y-103340301D01*
X111159698Y-103161673D01*
X110926309Y-103065000D01*
X110285750Y-103065000D01*
X110127000Y-103223750D01*
X109873000Y-103223750D01*
X109714250Y-103065000D01*
X109073691Y-103065000D01*
X108891056Y-103140650D01*
X108891056Y-101623760D01*
X108961012Y-101732474D01*
X109070286Y-101807138D01*
X109200000Y-101833406D01*
X110800000Y-101833406D01*
X110921179Y-101810605D01*
X111032474Y-101738988D01*
X111107138Y-101629714D01*
X111133406Y-101500000D01*
X111133406Y-100658442D01*
X111755859Y-101280895D01*
X111755859Y-110382833D01*
X111693988Y-110444596D01*
X111605959Y-110656591D01*
X111605759Y-110886136D01*
X111632709Y-110951361D01*
X111511129Y-111072729D01*
X111423100Y-111284724D01*
X111422900Y-111514269D01*
X111510558Y-111726417D01*
X111573000Y-111788968D01*
X111573000Y-115210966D01*
X111511129Y-115272729D01*
X111423100Y-115484724D01*
X111422900Y-115714269D01*
X111510558Y-115926417D01*
X111672729Y-116088871D01*
X111884724Y-116176900D01*
X112114269Y-116177100D01*
X112326417Y-116089442D01*
X112488871Y-115927271D01*
X112576900Y-115715276D01*
X112577100Y-115485731D01*
X112489442Y-115273583D01*
X112427000Y-115211032D01*
X112427000Y-111789034D01*
X112488871Y-111727271D01*
X112576900Y-111515276D01*
X112577100Y-111285731D01*
X112550150Y-111220506D01*
X112671730Y-111099138D01*
X112759759Y-110887143D01*
X112759959Y-110657598D01*
X112672301Y-110445450D01*
X112609859Y-110382899D01*
X112609859Y-101516730D01*
X113309295Y-102216166D01*
X113309295Y-110381652D01*
X113309294Y-110381657D01*
X113341798Y-110545063D01*
X113434360Y-110683592D01*
X113449754Y-110698986D01*
X113449678Y-110786409D01*
X113537336Y-110998557D01*
X113573000Y-111034283D01*
X113573000Y-115210966D01*
X113511129Y-115272729D01*
X113423100Y-115484724D01*
X113422900Y-115714269D01*
X113510558Y-115926417D01*
X113672729Y-116088871D01*
X113884724Y-116176900D01*
X114114269Y-116177100D01*
X114326417Y-116089442D01*
X114488871Y-115927271D01*
X114576900Y-115715276D01*
X114577100Y-115485731D01*
X114489442Y-115273583D01*
X114427000Y-115211032D01*
X114427000Y-111272945D01*
X115368267Y-111272945D01*
X115455925Y-111485093D01*
X115573000Y-111602372D01*
X115573000Y-115210966D01*
X115511129Y-115272729D01*
X115423100Y-115484724D01*
X115422900Y-115714269D01*
X115510558Y-115926417D01*
X115672729Y-116088871D01*
X115884724Y-116176900D01*
X116114269Y-116177100D01*
X116326417Y-116089442D01*
X116488871Y-115927271D01*
X116576900Y-115715276D01*
X116577100Y-115485731D01*
X116489442Y-115273583D01*
X116427000Y-115211032D01*
X116427000Y-111493172D01*
X116434238Y-111485947D01*
X116522267Y-111273952D01*
X116522467Y-111044407D01*
X116434809Y-110832259D01*
X116272638Y-110669805D01*
X116060643Y-110581776D01*
X115831098Y-110581576D01*
X115618950Y-110669234D01*
X115456496Y-110831405D01*
X115368467Y-111043400D01*
X115368267Y-111272945D01*
X114427000Y-111272945D01*
X114427000Y-111087906D01*
X114515649Y-110999411D01*
X114603678Y-110787416D01*
X114603878Y-110557871D01*
X114516220Y-110345723D01*
X114354049Y-110183269D01*
X114163295Y-110104060D01*
X114163295Y-105025973D01*
X114200000Y-105033406D01*
X115800000Y-105033406D01*
X115921179Y-105010605D01*
X116032474Y-104938988D01*
X116107138Y-104829714D01*
X116133406Y-104700000D01*
X116133406Y-103700000D01*
X116110605Y-103578821D01*
X116038988Y-103467526D01*
X115929714Y-103392862D01*
X115800000Y-103366594D01*
X115527000Y-103366594D01*
X115527000Y-103035447D01*
X115576900Y-102915276D01*
X115577100Y-102685731D01*
X115489442Y-102473583D01*
X115327271Y-102311129D01*
X115115276Y-102223100D01*
X114885731Y-102222900D01*
X114673583Y-102310558D01*
X114511129Y-102472729D01*
X114423100Y-102684724D01*
X114422900Y-102914269D01*
X114473000Y-103035520D01*
X114473000Y-103366594D01*
X114200000Y-103366594D01*
X114163295Y-103373500D01*
X114163295Y-102039297D01*
X114130792Y-101875891D01*
X114087132Y-101810549D01*
X114200000Y-101833406D01*
X115800000Y-101833406D01*
X115921179Y-101810605D01*
X116032474Y-101738988D01*
X116107138Y-101629714D01*
X116133406Y-101500000D01*
X116133406Y-100500000D01*
X116110605Y-100378821D01*
X116038988Y-100267526D01*
X115929714Y-100192862D01*
X115800000Y-100166594D01*
X115449479Y-100166594D01*
X115488871Y-100127271D01*
X115576900Y-99915276D01*
X115577100Y-99685731D01*
X115489442Y-99473583D01*
X115327271Y-99311129D01*
X115115276Y-99223100D01*
X114885731Y-99222900D01*
X114673583Y-99310558D01*
X114511129Y-99472729D01*
X114423100Y-99684724D01*
X114422900Y-99914269D01*
X114510558Y-100126417D01*
X114550665Y-100166594D01*
X114200000Y-100166594D01*
X114078821Y-100189395D01*
X113967526Y-100261012D01*
X113892862Y-100370286D01*
X113866594Y-100500000D01*
X113866594Y-101500000D01*
X113881827Y-101580960D01*
X111758391Y-99457524D01*
X111888871Y-99327271D01*
X111976900Y-99115276D01*
X111977100Y-98885731D01*
X111889442Y-98673583D01*
X111827000Y-98611032D01*
X111827000Y-96189034D01*
X111888871Y-96127271D01*
X111976900Y-95915276D01*
X111977100Y-95685731D01*
X111889442Y-95473583D01*
X111727271Y-95311129D01*
X111515276Y-95223100D01*
X111285731Y-95222900D01*
X111073583Y-95310558D01*
X110911129Y-95472729D01*
X110823100Y-95684724D01*
X110822900Y-95914269D01*
X110910558Y-96126417D01*
X110973000Y-96188968D01*
X110973000Y-98610966D01*
X110942390Y-98641522D01*
X110627000Y-98326132D01*
X110627000Y-96189034D01*
X110688871Y-96127271D01*
X110776900Y-95915276D01*
X110777100Y-95685731D01*
X110689442Y-95473583D01*
X110527271Y-95311129D01*
X110315276Y-95223100D01*
X110085731Y-95222900D01*
X109873583Y-95310558D01*
X109711129Y-95472729D01*
X109623100Y-95684724D01*
X109622900Y-95914269D01*
X109710558Y-96126417D01*
X109773000Y-96188968D01*
X109773000Y-98090297D01*
X109427000Y-97744297D01*
X109427000Y-96189034D01*
X109488871Y-96127271D01*
X109576900Y-95915276D01*
X109577100Y-95685731D01*
X109489442Y-95473583D01*
X109327271Y-95311129D01*
X109115276Y-95223100D01*
X108891056Y-95222905D01*
X108891056Y-74512814D01*
X109026846Y-74377024D01*
X109114269Y-74377100D01*
X109326417Y-74289442D01*
X109488871Y-74127271D01*
X109576900Y-73915276D01*
X109577100Y-73685731D01*
X109489442Y-73473583D01*
X109327271Y-73311129D01*
X109115276Y-73223100D01*
X108885731Y-73222900D01*
X108673583Y-73310558D01*
X108511129Y-73472729D01*
X108423100Y-73684724D01*
X108423023Y-73773107D01*
X108162121Y-74034009D01*
X108069559Y-74172538D01*
X108037055Y-74335944D01*
X108027000Y-74335944D01*
X108027000Y-74189034D01*
X108088871Y-74127271D01*
X108176900Y-73915276D01*
X108177100Y-73685731D01*
X108089442Y-73473583D01*
X107927271Y-73311129D01*
X107715276Y-73223100D01*
X107485731Y-73222900D01*
X107273583Y-73310558D01*
X107111129Y-73472729D01*
X107023100Y-73684724D01*
X107022900Y-73914269D01*
X107110558Y-74126417D01*
X107173000Y-74188968D01*
X107173000Y-91447069D01*
X107115276Y-91423100D01*
X106885731Y-91422900D01*
X106673583Y-91510558D01*
X106511129Y-91672729D01*
X106423100Y-91884724D01*
X106422900Y-92114269D01*
X106510558Y-92326417D01*
X106573000Y-92388968D01*
X106573000Y-95247069D01*
X106515276Y-95223100D01*
X106285731Y-95222900D01*
X106073583Y-95310558D01*
X105911129Y-95472729D01*
X105823100Y-95684724D01*
X105822900Y-95914269D01*
X105910558Y-96126417D01*
X105973000Y-96188968D01*
X105973000Y-109407432D01*
X105874698Y-109505563D01*
X105786669Y-109717558D01*
X105786469Y-109947103D01*
X105376900Y-109947103D01*
X105377100Y-109718565D01*
X105289442Y-109506417D01*
X105227000Y-109443866D01*
X105227000Y-96377024D01*
X105314269Y-96377100D01*
X105526417Y-96289442D01*
X105688871Y-96127271D01*
X105776900Y-95915276D01*
X105777100Y-95685731D01*
X105689442Y-95473583D01*
X105527271Y-95311129D01*
X105315276Y-95223100D01*
X105085731Y-95222900D01*
X104873583Y-95310558D01*
X104711129Y-95472729D01*
X104623100Y-95684724D01*
X104623023Y-95773107D01*
X104498065Y-95898065D01*
X104405503Y-96036594D01*
X104372999Y-96200000D01*
X104373000Y-96200005D01*
X104373000Y-109443800D01*
X104311129Y-109505563D01*
X104223100Y-109717558D01*
X104222900Y-109947103D01*
X103128724Y-109947103D01*
X103089442Y-109852034D01*
X103027000Y-109789483D01*
X103027000Y-108524192D01*
X103110558Y-108726417D01*
X103272729Y-108888871D01*
X103484724Y-108976900D01*
X103714269Y-108977100D01*
X103926417Y-108889442D01*
X104088871Y-108727271D01*
X104176900Y-108515276D01*
X104177100Y-108285731D01*
X104089442Y-108073583D01*
X104027000Y-108011032D01*
X104027000Y-78176959D01*
X104189269Y-78177100D01*
X104401417Y-78089442D01*
X104563871Y-77927271D01*
X104651900Y-77715276D01*
X104652100Y-77485731D01*
X104564442Y-77273583D01*
X104402271Y-77111129D01*
X104190276Y-77023100D01*
X104027000Y-77022958D01*
X104027000Y-72164269D01*
X118072900Y-72164269D01*
X118160558Y-72376417D01*
X118223000Y-72438968D01*
X118223000Y-87960966D01*
X118161129Y-88022729D01*
X118073100Y-88234724D01*
X118072900Y-88464269D01*
X118160558Y-88676417D01*
X118322729Y-88838871D01*
X118534724Y-88926900D01*
X118764269Y-88927100D01*
X118976417Y-88839442D01*
X119138871Y-88677271D01*
X119226900Y-88465276D01*
X119227100Y-88235731D01*
X119139442Y-88023583D01*
X119077000Y-87961032D01*
X119077000Y-87314269D01*
X119422900Y-87314269D01*
X119510558Y-87526417D01*
X119573000Y-87588968D01*
X119573000Y-110199995D01*
X119572999Y-110200000D01*
X119605503Y-110363406D01*
X119698065Y-110501935D01*
X121573000Y-112376870D01*
X121573000Y-115210966D01*
X121511129Y-115272729D01*
X121423100Y-115484724D01*
X121422900Y-115714269D01*
X121510558Y-115926417D01*
X121672729Y-116088871D01*
X121884724Y-116176900D01*
X122114269Y-116177100D01*
X122326417Y-116089442D01*
X122488871Y-115927271D01*
X122576900Y-115715276D01*
X122577100Y-115485731D01*
X122489442Y-115273583D01*
X122427000Y-115211032D01*
X122427000Y-112200000D01*
X122394497Y-112036594D01*
X122301935Y-111898065D01*
X120427000Y-110023130D01*
X120427000Y-105274239D01*
X120573691Y-105335000D01*
X121214250Y-105335000D01*
X121373000Y-105176250D01*
X121373000Y-104327000D01*
X121627000Y-104327000D01*
X121627000Y-105176250D01*
X121785750Y-105335000D01*
X122426309Y-105335000D01*
X122659698Y-105238327D01*
X122838327Y-105059699D01*
X122935000Y-104826310D01*
X122935000Y-104485750D01*
X122776250Y-104327000D01*
X121627000Y-104327000D01*
X121373000Y-104327000D01*
X121353000Y-104327000D01*
X121353000Y-104073000D01*
X121373000Y-104073000D01*
X121373000Y-103223750D01*
X121627000Y-103223750D01*
X121627000Y-104073000D01*
X122776250Y-104073000D01*
X122935000Y-103914250D01*
X122935000Y-103700000D01*
X125366594Y-103700000D01*
X125366594Y-104700000D01*
X125389395Y-104821179D01*
X125461012Y-104932474D01*
X125570286Y-105007138D01*
X125700000Y-105033406D01*
X127300000Y-105033406D01*
X127421179Y-105010605D01*
X127532474Y-104938988D01*
X127607138Y-104829714D01*
X127633406Y-104700000D01*
X127633406Y-103700000D01*
X127610605Y-103578821D01*
X127538988Y-103467526D01*
X127429714Y-103392862D01*
X127300000Y-103366594D01*
X127027000Y-103366594D01*
X127027000Y-102885447D01*
X127076900Y-102765276D01*
X127077100Y-102535731D01*
X126989442Y-102323583D01*
X126827271Y-102161129D01*
X126615276Y-102073100D01*
X126385731Y-102072900D01*
X126173583Y-102160558D01*
X126011129Y-102322729D01*
X125923100Y-102534724D01*
X125922900Y-102764269D01*
X125973000Y-102885520D01*
X125973000Y-103366594D01*
X125700000Y-103366594D01*
X125578821Y-103389395D01*
X125467526Y-103461012D01*
X125392862Y-103570286D01*
X125366594Y-103700000D01*
X122935000Y-103700000D01*
X122935000Y-103573690D01*
X122838327Y-103340301D01*
X122659698Y-103161673D01*
X122426309Y-103065000D01*
X121785750Y-103065000D01*
X121627000Y-103223750D01*
X121373000Y-103223750D01*
X121214250Y-103065000D01*
X120573691Y-103065000D01*
X120427000Y-103125761D01*
X120427000Y-101679618D01*
X120461012Y-101732474D01*
X120570286Y-101807138D01*
X120700000Y-101833406D01*
X122300000Y-101833406D01*
X122421179Y-101810605D01*
X122532474Y-101738988D01*
X122607138Y-101629714D01*
X122633406Y-101500000D01*
X122633406Y-100500000D01*
X122610605Y-100378821D01*
X122538988Y-100267526D01*
X122429714Y-100192862D01*
X122300000Y-100166594D01*
X121927000Y-100166594D01*
X121927000Y-100035447D01*
X121976900Y-99915276D01*
X121977100Y-99685731D01*
X121889442Y-99473583D01*
X121727271Y-99311129D01*
X121515276Y-99223100D01*
X121285731Y-99222900D01*
X121073583Y-99310558D01*
X120911129Y-99472729D01*
X120823100Y-99684724D01*
X120822900Y-99914269D01*
X120910558Y-100126417D01*
X120950665Y-100166594D01*
X120700000Y-100166594D01*
X120578821Y-100189395D01*
X120467526Y-100261012D01*
X120427000Y-100320324D01*
X120427000Y-87589034D01*
X120488871Y-87527271D01*
X120576900Y-87315276D01*
X120577100Y-87085731D01*
X120489442Y-86873583D01*
X120327271Y-86711129D01*
X120115276Y-86623100D01*
X119885731Y-86622900D01*
X119673583Y-86710558D01*
X119511129Y-86872729D01*
X119423100Y-87084724D01*
X119422900Y-87314269D01*
X119077000Y-87314269D01*
X119077000Y-78573610D01*
X123120390Y-78573610D01*
X123173000Y-78700936D01*
X123173000Y-102414553D01*
X123123100Y-102534724D01*
X123122900Y-102764269D01*
X123210558Y-102976417D01*
X123372729Y-103138871D01*
X123584724Y-103226900D01*
X123814269Y-103227100D01*
X124026417Y-103139442D01*
X124188871Y-102977271D01*
X124276900Y-102765276D01*
X124277100Y-102535731D01*
X124227000Y-102414480D01*
X124227000Y-100500000D01*
X125366594Y-100500000D01*
X125366594Y-101500000D01*
X125389395Y-101621179D01*
X125461012Y-101732474D01*
X125570286Y-101807138D01*
X125700000Y-101833406D01*
X127300000Y-101833406D01*
X127421179Y-101810605D01*
X127532474Y-101738988D01*
X127607138Y-101629714D01*
X127633406Y-101500000D01*
X127633406Y-100500000D01*
X127610605Y-100378821D01*
X127538988Y-100267526D01*
X127429714Y-100192862D01*
X127300000Y-100166594D01*
X126849479Y-100166594D01*
X126888871Y-100127271D01*
X126976900Y-99915276D01*
X126977100Y-99685731D01*
X126889442Y-99473583D01*
X126727271Y-99311129D01*
X126515276Y-99223100D01*
X126285731Y-99222900D01*
X126073583Y-99310558D01*
X125911129Y-99472729D01*
X125823100Y-99684724D01*
X125822900Y-99914269D01*
X125910558Y-100126417D01*
X125950665Y-100166594D01*
X125700000Y-100166594D01*
X125578821Y-100189395D01*
X125467526Y-100261012D01*
X125392862Y-100370286D01*
X125366594Y-100500000D01*
X124227000Y-100500000D01*
X124227000Y-78688744D01*
X124274390Y-78574617D01*
X124274590Y-78345072D01*
X124186932Y-78132924D01*
X124024761Y-77970470D01*
X123812766Y-77882441D01*
X123583221Y-77882241D01*
X123371073Y-77969899D01*
X123208619Y-78132070D01*
X123120590Y-78344065D01*
X123120390Y-78573610D01*
X119077000Y-78573610D01*
X119077000Y-74114269D01*
X125222900Y-74114269D01*
X125310558Y-74326417D01*
X125373000Y-74388968D01*
X125373000Y-86810966D01*
X125311129Y-86872729D01*
X125223100Y-87084724D01*
X125222900Y-87314269D01*
X125310558Y-87526417D01*
X125472729Y-87688871D01*
X125684724Y-87776900D01*
X125914269Y-87777100D01*
X126126417Y-87689442D01*
X126288871Y-87527271D01*
X126376900Y-87315276D01*
X126377100Y-87085731D01*
X126289442Y-86873583D01*
X126227000Y-86811032D01*
X126227000Y-80714269D01*
X129422900Y-80714269D01*
X129510558Y-80926417D01*
X129573000Y-80988968D01*
X129573000Y-94210956D01*
X129511129Y-94272719D01*
X129423100Y-94484714D01*
X129422900Y-94714259D01*
X129510558Y-94926407D01*
X129573000Y-94988958D01*
X129573000Y-115210966D01*
X129511129Y-115272729D01*
X129423100Y-115484724D01*
X129422900Y-115714269D01*
X129510558Y-115926417D01*
X129672729Y-116088871D01*
X129884724Y-116176900D01*
X130114269Y-116177100D01*
X130326417Y-116089442D01*
X130488871Y-115927271D01*
X130576900Y-115715276D01*
X130576900Y-115714484D01*
X136824917Y-115714484D01*
X136912575Y-115926632D01*
X137074746Y-116089086D01*
X137286741Y-116177115D01*
X137516286Y-116177315D01*
X137728434Y-116089657D01*
X137890888Y-115927486D01*
X137978917Y-115715491D01*
X137979117Y-115485946D01*
X137891459Y-115273798D01*
X137834806Y-115217046D01*
X137834806Y-109363927D01*
X137896677Y-109302164D01*
X137984706Y-109090169D01*
X137984706Y-109089164D01*
X138822900Y-109089164D01*
X138910558Y-109301312D01*
X138973164Y-109364027D01*
X138973164Y-115223896D01*
X138911293Y-115285659D01*
X138823264Y-115497654D01*
X138823064Y-115727199D01*
X138910722Y-115939347D01*
X139072893Y-116101801D01*
X139284888Y-116189830D01*
X139514433Y-116190030D01*
X139726581Y-116102372D01*
X139889035Y-115940201D01*
X139977064Y-115728206D01*
X139977064Y-115727199D01*
X140821736Y-115727199D01*
X140909394Y-115939347D01*
X141071565Y-116101801D01*
X141283560Y-116189830D01*
X141513105Y-116190030D01*
X141725253Y-116102372D01*
X141887707Y-115940201D01*
X141975736Y-115728206D01*
X141975936Y-115498661D01*
X141888278Y-115286513D01*
X141825836Y-115223962D01*
X141825836Y-110015113D01*
X141888871Y-109952188D01*
X141976900Y-109740193D01*
X141977100Y-109510648D01*
X141889442Y-109298500D01*
X141727271Y-109136046D01*
X141515276Y-109048017D01*
X141285731Y-109047817D01*
X141073583Y-109135475D01*
X140911129Y-109297646D01*
X140823100Y-109509641D01*
X140822900Y-109739186D01*
X140910558Y-109951334D01*
X140971836Y-110012719D01*
X140971836Y-115223896D01*
X140909965Y-115285659D01*
X140821936Y-115497654D01*
X140821736Y-115727199D01*
X139977064Y-115727199D01*
X139977264Y-115498661D01*
X139889606Y-115286513D01*
X139827164Y-115223962D01*
X139827164Y-109363766D01*
X139888871Y-109302166D01*
X139976900Y-109090171D01*
X139977100Y-108860626D01*
X139889442Y-108648478D01*
X139727271Y-108486024D01*
X139515276Y-108397995D01*
X139285731Y-108397795D01*
X139073583Y-108485453D01*
X138911129Y-108647624D01*
X138823100Y-108859619D01*
X138822900Y-109089164D01*
X137984706Y-109089164D01*
X137984906Y-108860624D01*
X137897248Y-108648476D01*
X137735077Y-108486022D01*
X137523082Y-108397993D01*
X137293537Y-108397793D01*
X137081389Y-108485451D01*
X136918935Y-108647622D01*
X136830906Y-108859617D01*
X136830706Y-109089162D01*
X136918364Y-109301310D01*
X136980806Y-109363861D01*
X136980806Y-115205402D01*
X136913146Y-115272944D01*
X136825117Y-115484939D01*
X136824917Y-115714484D01*
X130576900Y-115714484D01*
X130577100Y-115485731D01*
X130489442Y-115273583D01*
X130427000Y-115211032D01*
X130427000Y-108108151D01*
X144720646Y-108108151D01*
X144808304Y-108320299D01*
X144970455Y-108482733D01*
X144970455Y-115233302D01*
X144908584Y-115295065D01*
X144820555Y-115507060D01*
X144820355Y-115736605D01*
X144908013Y-115948753D01*
X145070184Y-116111207D01*
X145282179Y-116199236D01*
X145511724Y-116199436D01*
X145723872Y-116111778D01*
X145886326Y-115949607D01*
X145974355Y-115737612D01*
X145974555Y-115508067D01*
X145886897Y-115295919D01*
X145824455Y-115233368D01*
X145824455Y-110389208D01*
X146112529Y-110389208D01*
X146200187Y-110601356D01*
X146362358Y-110763810D01*
X146574353Y-110851839D01*
X146803898Y-110852039D01*
X146977422Y-110780340D01*
X146977422Y-115220270D01*
X146915551Y-115282033D01*
X146827522Y-115494028D01*
X146827322Y-115723573D01*
X146914980Y-115935721D01*
X147077151Y-116098175D01*
X147289146Y-116186204D01*
X147518691Y-116186404D01*
X147730839Y-116098746D01*
X147893293Y-115936575D01*
X147979034Y-115730089D01*
X148821257Y-115730089D01*
X148908915Y-115942237D01*
X149071086Y-116104691D01*
X149283081Y-116192720D01*
X149512626Y-116192920D01*
X149724774Y-116105262D01*
X149887228Y-115943091D01*
X149975257Y-115731096D01*
X149975257Y-115730089D01*
X150815191Y-115730089D01*
X150902849Y-115942237D01*
X151065020Y-116104691D01*
X151277015Y-116192720D01*
X151506560Y-116192920D01*
X151718708Y-116105262D01*
X151881162Y-115943091D01*
X151969191Y-115731096D01*
X151969197Y-115723103D01*
X152819886Y-115723103D01*
X152907544Y-115935251D01*
X153069715Y-116097705D01*
X153281710Y-116185734D01*
X153511255Y-116185934D01*
X153723403Y-116098276D01*
X153885857Y-115936105D01*
X153973886Y-115724110D01*
X153974086Y-115494565D01*
X153886428Y-115282417D01*
X153827000Y-115222885D01*
X153827000Y-109189034D01*
X153888871Y-109127271D01*
X153976900Y-108915276D01*
X153977100Y-108685731D01*
X153889442Y-108473583D01*
X153727271Y-108311129D01*
X153515276Y-108223100D01*
X153285731Y-108222900D01*
X153073583Y-108310558D01*
X152911129Y-108472729D01*
X152823100Y-108684724D01*
X152822900Y-108914269D01*
X152910558Y-109126417D01*
X152973000Y-109188968D01*
X152973000Y-115216791D01*
X152908115Y-115281563D01*
X152820086Y-115493558D01*
X152819886Y-115723103D01*
X151969197Y-115723103D01*
X151969391Y-115501551D01*
X151881733Y-115289403D01*
X151819291Y-115226852D01*
X151819291Y-111474050D01*
X151869491Y-111453308D01*
X152031945Y-111291137D01*
X152119974Y-111079142D01*
X152120174Y-110849597D01*
X152032516Y-110637449D01*
X151870345Y-110474995D01*
X151658350Y-110386966D01*
X151428805Y-110386766D01*
X151216657Y-110474424D01*
X151054203Y-110636595D01*
X150966174Y-110848590D01*
X150965974Y-111078135D01*
X150970415Y-111088883D01*
X150965290Y-111114649D01*
X150965291Y-111114654D01*
X150965291Y-115226786D01*
X150903420Y-115288549D01*
X150815391Y-115500544D01*
X150815191Y-115730089D01*
X149975257Y-115730089D01*
X149975457Y-115501551D01*
X149887799Y-115289403D01*
X149825357Y-115226852D01*
X149825357Y-109728557D01*
X149888871Y-109665154D01*
X149976900Y-109453159D01*
X149977100Y-109223614D01*
X149889442Y-109011466D01*
X149727271Y-108849012D01*
X149515276Y-108760983D01*
X149285731Y-108760783D01*
X149073583Y-108848441D01*
X148911129Y-109010612D01*
X148823100Y-109222607D01*
X148822900Y-109452152D01*
X148910558Y-109664300D01*
X148971357Y-109725205D01*
X148971357Y-115226786D01*
X148909486Y-115288549D01*
X148821457Y-115500544D01*
X148821257Y-115730089D01*
X147979034Y-115730089D01*
X147981322Y-115724580D01*
X147981522Y-115495035D01*
X147893864Y-115282887D01*
X147831422Y-115220336D01*
X147831422Y-111590425D01*
X147849924Y-111635203D01*
X148012095Y-111797657D01*
X148224090Y-111885686D01*
X148453635Y-111885886D01*
X148665783Y-111798228D01*
X148828237Y-111636057D01*
X148916266Y-111424062D01*
X148916466Y-111194517D01*
X148828808Y-110982369D01*
X148772076Y-110925538D01*
X148772076Y-105033406D01*
X150300000Y-105033406D01*
X150421179Y-105010605D01*
X150532474Y-104938988D01*
X150607138Y-104829714D01*
X150633406Y-104700000D01*
X150633406Y-103700000D01*
X150610605Y-103578821D01*
X150538988Y-103467526D01*
X150429714Y-103392862D01*
X150300000Y-103366594D01*
X150027000Y-103366594D01*
X150027000Y-102885447D01*
X150076900Y-102765276D01*
X150077100Y-102535731D01*
X149989442Y-102323583D01*
X149827271Y-102161129D01*
X149615276Y-102073100D01*
X149385731Y-102072900D01*
X149173583Y-102160558D01*
X149011129Y-102322729D01*
X148923100Y-102534724D01*
X148922900Y-102764269D01*
X148973000Y-102885520D01*
X148973000Y-103366594D01*
X148772076Y-103366594D01*
X148772076Y-101833406D01*
X150300000Y-101833406D01*
X150421179Y-101810605D01*
X150532474Y-101738988D01*
X150607138Y-101629714D01*
X150633406Y-101500000D01*
X150633406Y-100500000D01*
X150610605Y-100378821D01*
X150538988Y-100267526D01*
X150429714Y-100192862D01*
X150300000Y-100166594D01*
X149849479Y-100166594D01*
X149888871Y-100127271D01*
X149976900Y-99915276D01*
X149977100Y-99685731D01*
X149889442Y-99473583D01*
X149727271Y-99311129D01*
X149515276Y-99223100D01*
X149285731Y-99222900D01*
X149073583Y-99310558D01*
X148911129Y-99472729D01*
X148823100Y-99684724D01*
X148822900Y-99914269D01*
X148910558Y-100126417D01*
X148950665Y-100166594D01*
X148772076Y-100166594D01*
X148772076Y-79745076D01*
X148739573Y-79581670D01*
X148647011Y-79443141D01*
X148647008Y-79443139D01*
X148577024Y-79373155D01*
X148577100Y-79285731D01*
X148489442Y-79073583D01*
X148327271Y-78911129D01*
X148115276Y-78823100D01*
X147885731Y-78822900D01*
X147673583Y-78910558D01*
X147600014Y-78983999D01*
X147527271Y-78911129D01*
X147315276Y-78823100D01*
X147085731Y-78822900D01*
X146873583Y-78910558D01*
X146711129Y-79072729D01*
X146623100Y-79284724D01*
X146622900Y-79514269D01*
X146710558Y-79726417D01*
X146773000Y-79788968D01*
X146773000Y-109587699D01*
X146662783Y-109697915D01*
X146575360Y-109697839D01*
X146363212Y-109785497D01*
X146200758Y-109947668D01*
X146112729Y-110159663D01*
X146112529Y-110389208D01*
X145824455Y-110389208D01*
X145824455Y-108230030D01*
X145874646Y-108109158D01*
X145874846Y-107879613D01*
X145874846Y-107879612D01*
X145787188Y-107667464D01*
X145625017Y-107505010D01*
X145413022Y-107416981D01*
X145183477Y-107416781D01*
X144971329Y-107504439D01*
X144808875Y-107666610D01*
X144720846Y-107878605D01*
X144720846Y-107878606D01*
X144720646Y-108108151D01*
X130427000Y-108108151D01*
X130427000Y-104485750D01*
X131565000Y-104485750D01*
X131565000Y-104826310D01*
X131661673Y-105059699D01*
X131840302Y-105238327D01*
X132073691Y-105335000D01*
X132714250Y-105335000D01*
X132873000Y-105176250D01*
X132873000Y-104327000D01*
X133127000Y-104327000D01*
X133127000Y-105176250D01*
X133285750Y-105335000D01*
X133926309Y-105335000D01*
X134159698Y-105238327D01*
X134338327Y-105059699D01*
X134435000Y-104826310D01*
X134435000Y-104485750D01*
X134276250Y-104327000D01*
X133127000Y-104327000D01*
X132873000Y-104327000D01*
X131723750Y-104327000D01*
X131565000Y-104485750D01*
X130427000Y-104485750D01*
X130427000Y-103573690D01*
X131565000Y-103573690D01*
X131565000Y-103914250D01*
X131723750Y-104073000D01*
X132873000Y-104073000D01*
X132873000Y-103223750D01*
X133127000Y-103223750D01*
X133127000Y-104073000D01*
X134276250Y-104073000D01*
X134435000Y-103914250D01*
X134435000Y-103700000D01*
X136866594Y-103700000D01*
X136866594Y-104700000D01*
X136889395Y-104821179D01*
X136961012Y-104932474D01*
X137070286Y-105007138D01*
X137200000Y-105033406D01*
X138800000Y-105033406D01*
X138921179Y-105010605D01*
X139032474Y-104938988D01*
X139107138Y-104829714D01*
X139133406Y-104700000D01*
X139133406Y-104485750D01*
X143065000Y-104485750D01*
X143065000Y-104826310D01*
X143161673Y-105059699D01*
X143340302Y-105238327D01*
X143573691Y-105335000D01*
X144214250Y-105335000D01*
X144373000Y-105176250D01*
X144373000Y-104327000D01*
X144627000Y-104327000D01*
X144627000Y-105176250D01*
X144785750Y-105335000D01*
X145426309Y-105335000D01*
X145659698Y-105238327D01*
X145838327Y-105059699D01*
X145935000Y-104826310D01*
X145935000Y-104485750D01*
X145776250Y-104327000D01*
X144627000Y-104327000D01*
X144373000Y-104327000D01*
X143223750Y-104327000D01*
X143065000Y-104485750D01*
X139133406Y-104485750D01*
X139133406Y-103700000D01*
X139110605Y-103578821D01*
X139107304Y-103573690D01*
X143065000Y-103573690D01*
X143065000Y-103914250D01*
X143223750Y-104073000D01*
X144373000Y-104073000D01*
X144373000Y-103223750D01*
X144627000Y-103223750D01*
X144627000Y-104073000D01*
X145776250Y-104073000D01*
X145935000Y-103914250D01*
X145935000Y-103573690D01*
X145838327Y-103340301D01*
X145659698Y-103161673D01*
X145426309Y-103065000D01*
X144785750Y-103065000D01*
X144627000Y-103223750D01*
X144373000Y-103223750D01*
X144214250Y-103065000D01*
X143573691Y-103065000D01*
X143340302Y-103161673D01*
X143161673Y-103340301D01*
X143065000Y-103573690D01*
X139107304Y-103573690D01*
X139038988Y-103467526D01*
X138929714Y-103392862D01*
X138800000Y-103366594D01*
X138527000Y-103366594D01*
X138527000Y-102885447D01*
X138576900Y-102765276D01*
X138577100Y-102535731D01*
X138489442Y-102323583D01*
X138327271Y-102161129D01*
X138115276Y-102073100D01*
X137885731Y-102072900D01*
X137673583Y-102160558D01*
X137511129Y-102322729D01*
X137423100Y-102534724D01*
X137422900Y-102764269D01*
X137473000Y-102885520D01*
X137473000Y-103366594D01*
X137200000Y-103366594D01*
X137078821Y-103389395D01*
X136967526Y-103461012D01*
X136892862Y-103570286D01*
X136866594Y-103700000D01*
X134435000Y-103700000D01*
X134435000Y-103573690D01*
X134338327Y-103340301D01*
X134159698Y-103161673D01*
X133926309Y-103065000D01*
X133285750Y-103065000D01*
X133127000Y-103223750D01*
X132873000Y-103223750D01*
X132714250Y-103065000D01*
X132073691Y-103065000D01*
X131840302Y-103161673D01*
X131661673Y-103340301D01*
X131565000Y-103573690D01*
X130427000Y-103573690D01*
X130427000Y-100500000D01*
X131866594Y-100500000D01*
X131866594Y-101500000D01*
X131889395Y-101621179D01*
X131961012Y-101732474D01*
X132070286Y-101807138D01*
X132200000Y-101833406D01*
X133800000Y-101833406D01*
X133921179Y-101810605D01*
X134032474Y-101738988D01*
X134107138Y-101629714D01*
X134133406Y-101500000D01*
X134133406Y-100500000D01*
X136866594Y-100500000D01*
X136866594Y-101500000D01*
X136889395Y-101621179D01*
X136961012Y-101732474D01*
X137070286Y-101807138D01*
X137200000Y-101833406D01*
X138800000Y-101833406D01*
X138921179Y-101810605D01*
X139032474Y-101738988D01*
X139107138Y-101629714D01*
X139133406Y-101500000D01*
X139133406Y-100500000D01*
X143366594Y-100500000D01*
X143366594Y-101500000D01*
X143389395Y-101621179D01*
X143461012Y-101732474D01*
X143570286Y-101807138D01*
X143700000Y-101833406D01*
X145300000Y-101833406D01*
X145421179Y-101810605D01*
X145532474Y-101738988D01*
X145607138Y-101629714D01*
X145633406Y-101500000D01*
X145633406Y-100500000D01*
X145610605Y-100378821D01*
X145538988Y-100267526D01*
X145429714Y-100192862D01*
X145300000Y-100166594D01*
X144927000Y-100166594D01*
X144927000Y-100035447D01*
X144976900Y-99915276D01*
X144977100Y-99685731D01*
X144889442Y-99473583D01*
X144727271Y-99311129D01*
X144515276Y-99223100D01*
X144285731Y-99222900D01*
X144073583Y-99310558D01*
X143911129Y-99472729D01*
X143823100Y-99684724D01*
X143822900Y-99914269D01*
X143910558Y-100126417D01*
X143950665Y-100166594D01*
X143700000Y-100166594D01*
X143578821Y-100189395D01*
X143467526Y-100261012D01*
X143392862Y-100370286D01*
X143366594Y-100500000D01*
X139133406Y-100500000D01*
X139110605Y-100378821D01*
X139038988Y-100267526D01*
X138929714Y-100192862D01*
X138800000Y-100166594D01*
X138449479Y-100166594D01*
X138488871Y-100127271D01*
X138576900Y-99915276D01*
X138577100Y-99685731D01*
X138489442Y-99473583D01*
X138327271Y-99311129D01*
X138115276Y-99223100D01*
X137885731Y-99222900D01*
X137673583Y-99310558D01*
X137511129Y-99472729D01*
X137423100Y-99684724D01*
X137422900Y-99914269D01*
X137510558Y-100126417D01*
X137550665Y-100166594D01*
X137200000Y-100166594D01*
X137078821Y-100189395D01*
X136967526Y-100261012D01*
X136892862Y-100370286D01*
X136866594Y-100500000D01*
X134133406Y-100500000D01*
X134110605Y-100378821D01*
X134038988Y-100267526D01*
X133929714Y-100192862D01*
X133800000Y-100166594D01*
X133449479Y-100166594D01*
X133488871Y-100127271D01*
X133576900Y-99915276D01*
X133577100Y-99685731D01*
X133489442Y-99473583D01*
X133327271Y-99311129D01*
X133115276Y-99223100D01*
X132885731Y-99222900D01*
X132673583Y-99310558D01*
X132511129Y-99472729D01*
X132423100Y-99684724D01*
X132422900Y-99914269D01*
X132510558Y-100126417D01*
X132550665Y-100166594D01*
X132200000Y-100166594D01*
X132078821Y-100189395D01*
X131967526Y-100261012D01*
X131892862Y-100370286D01*
X131866594Y-100500000D01*
X130427000Y-100500000D01*
X130427000Y-94989024D01*
X130488871Y-94927261D01*
X130576900Y-94715266D01*
X130577100Y-94485721D01*
X130489442Y-94273573D01*
X130427000Y-94211022D01*
X130427000Y-80989034D01*
X130488871Y-80927271D01*
X130576900Y-80715276D01*
X130577100Y-80485731D01*
X130489442Y-80273583D01*
X130327271Y-80111129D01*
X130115276Y-80023100D01*
X129885731Y-80022900D01*
X129673583Y-80110558D01*
X129511129Y-80272729D01*
X129423100Y-80484724D01*
X129422900Y-80714269D01*
X126227000Y-80714269D01*
X126227000Y-78314269D01*
X156622900Y-78314269D01*
X156710558Y-78526417D01*
X156773000Y-78588968D01*
X156773000Y-81398144D01*
X156713987Y-81457054D01*
X156625958Y-81669049D01*
X156625758Y-81898594D01*
X156713416Y-82110742D01*
X156875587Y-82273196D01*
X157087582Y-82361225D01*
X157317127Y-82361425D01*
X157529275Y-82273767D01*
X157691729Y-82111596D01*
X157779758Y-81899601D01*
X157779958Y-81670056D01*
X157692300Y-81457908D01*
X157627000Y-81392494D01*
X157627000Y-78589034D01*
X157688871Y-78527271D01*
X157776900Y-78315276D01*
X157777100Y-78085731D01*
X157689442Y-77873583D01*
X157527271Y-77711129D01*
X157315276Y-77623100D01*
X157085731Y-77622900D01*
X156873583Y-77710558D01*
X156711129Y-77872729D01*
X156623100Y-78084724D01*
X156622900Y-78314269D01*
X126227000Y-78314269D01*
X126227000Y-74389034D01*
X126288871Y-74327271D01*
X126376900Y-74115276D01*
X126377100Y-73885731D01*
X126289442Y-73673583D01*
X126127271Y-73511129D01*
X125915276Y-73423100D01*
X125685731Y-73422900D01*
X125473583Y-73510558D01*
X125311129Y-73672729D01*
X125223100Y-73884724D01*
X125222900Y-74114269D01*
X119077000Y-74114269D01*
X119077000Y-72439034D01*
X119138871Y-72377271D01*
X119226900Y-72165276D01*
X119227100Y-71935731D01*
X119139442Y-71723583D01*
X118977271Y-71561129D01*
X118765276Y-71473100D01*
X118535731Y-71472900D01*
X118323583Y-71560558D01*
X118161129Y-71722729D01*
X118073100Y-71934724D01*
X118072900Y-72164269D01*
X104027000Y-72164269D01*
X104027000Y-71797003D01*
X104027001Y-71796998D01*
X103994497Y-71633592D01*
X103987420Y-71623000D01*
X103901935Y-71495063D01*
X103901932Y-71495061D01*
X103629936Y-71223064D01*
X103491407Y-71130502D01*
X103328001Y-71097998D01*
X103327996Y-71097999D01*
X101875006Y-71097999D01*
X101875001Y-71097998D01*
X101728698Y-71127100D01*
X101711595Y-71130502D01*
X101573066Y-71223064D01*
X101573064Y-71223067D01*
X100573154Y-72222976D01*
X100485731Y-72222900D01*
X100477000Y-72226508D01*
X100477000Y-67039034D01*
X100538871Y-66977271D01*
X100626900Y-66765276D01*
X100627100Y-66535731D01*
X100539442Y-66323583D01*
X100377271Y-66161129D01*
X100165276Y-66073100D01*
X100127067Y-66073067D01*
X100127100Y-66035731D01*
X100039442Y-65823583D01*
X99877271Y-65661129D01*
X99665276Y-65573100D01*
X99435731Y-65572900D01*
X99223583Y-65660558D01*
X99061129Y-65822729D01*
X98973100Y-66034724D01*
X98972900Y-66264269D01*
X99060558Y-66476417D01*
X99123000Y-66538968D01*
X99123000Y-89473130D01*
X97523154Y-91072976D01*
X97435731Y-91072900D01*
X97223583Y-91160558D01*
X97061129Y-91322729D01*
X96973100Y-91534724D01*
X96972900Y-91764269D01*
X93688508Y-91764269D01*
X93163693Y-78998711D01*
X98823732Y-63570151D01*
X100735191Y-60709450D01*
X100749400Y-60675146D01*
X100770030Y-60644272D01*
X100777274Y-60607855D01*
X100791484Y-60573549D01*
X100791484Y-60536415D01*
X100798727Y-60500000D01*
X100791483Y-60463583D01*
X100791483Y-60426451D01*
X100777274Y-60392148D01*
X100770030Y-60355728D01*
X100749400Y-60324853D01*
X100735191Y-60290550D01*
X100708935Y-60264294D01*
X100688306Y-60233421D01*
X100657433Y-60212792D01*
X100631177Y-60186536D01*
X100596874Y-60172327D01*
X100565999Y-60151697D01*
X100529579Y-60144453D01*
X100495276Y-60130244D01*
X100458146Y-60130244D01*
X100421727Y-60123000D01*
X85077000Y-60123000D01*
X85077000Y-59526941D01*
X129643000Y-59526941D01*
X129643000Y-59573059D01*
X129732594Y-60023477D01*
X129987735Y-60405324D01*
X130369582Y-60660465D01*
X130820000Y-60750059D01*
X131270418Y-60660465D01*
X131652265Y-60405324D01*
X131907406Y-60023477D01*
X131997000Y-59573059D01*
X131997000Y-59526941D01*
X132183000Y-59526941D01*
X132183000Y-59573059D01*
X132272594Y-60023477D01*
X132527735Y-60405324D01*
X132909582Y-60660465D01*
X133360000Y-60750059D01*
X133810418Y-60660465D01*
X134192265Y-60405324D01*
X134447406Y-60023477D01*
X134537000Y-59573059D01*
X134537000Y-59526941D01*
X134723000Y-59526941D01*
X134723000Y-59573059D01*
X134812594Y-60023477D01*
X135067735Y-60405324D01*
X135449582Y-60660465D01*
X135900000Y-60750059D01*
X136350418Y-60660465D01*
X136732265Y-60405324D01*
X136955000Y-60071976D01*
X136955000Y-60526309D01*
X137051673Y-60759698D01*
X137230301Y-60938327D01*
X137463690Y-61035000D01*
X138154250Y-61035000D01*
X138313000Y-60876250D01*
X138313000Y-59677000D01*
X138567000Y-59677000D01*
X138567000Y-60876250D01*
X138725750Y-61035000D01*
X139416310Y-61035000D01*
X139649699Y-60938327D01*
X139828327Y-60759698D01*
X139925000Y-60526309D01*
X139925000Y-59835750D01*
X139766250Y-59677000D01*
X138567000Y-59677000D01*
X138313000Y-59677000D01*
X138293000Y-59677000D01*
X138293000Y-59423000D01*
X138313000Y-59423000D01*
X138313000Y-58223750D01*
X138567000Y-58223750D01*
X138567000Y-59423000D01*
X139766250Y-59423000D01*
X139925000Y-59264250D01*
X139925000Y-58573691D01*
X139828327Y-58340302D01*
X139649699Y-58161673D01*
X139416310Y-58065000D01*
X138725750Y-58065000D01*
X138567000Y-58223750D01*
X138313000Y-58223750D01*
X138154250Y-58065000D01*
X137463690Y-58065000D01*
X137230301Y-58161673D01*
X137051673Y-58340302D01*
X136955000Y-58573691D01*
X136955000Y-59028024D01*
X136732265Y-58694676D01*
X136350418Y-58439535D01*
X135900000Y-58349941D01*
X135449582Y-58439535D01*
X135067735Y-58694676D01*
X134812594Y-59076523D01*
X134723000Y-59526941D01*
X134537000Y-59526941D01*
X134447406Y-59076523D01*
X134192265Y-58694676D01*
X133810418Y-58439535D01*
X133360000Y-58349941D01*
X132909582Y-58439535D01*
X132527735Y-58694676D01*
X132272594Y-59076523D01*
X132183000Y-59526941D01*
X131997000Y-59526941D01*
X131907406Y-59076523D01*
X131652265Y-58694676D01*
X131270418Y-58439535D01*
X130820000Y-58349941D01*
X130369582Y-58439535D01*
X129987735Y-58694676D01*
X129732594Y-59076523D01*
X129643000Y-59526941D01*
X85077000Y-59526941D01*
X85077000Y-35877000D01*
X109323000Y-35877000D01*
X109323000Y-51221727D01*
X109323000Y-51221727D01*
G37*
X109323000Y-51221727D02*
X109324534Y-51229441D01*
X109323318Y-51237213D01*
X109338829Y-51301306D01*
X109351697Y-51365999D01*
X109356068Y-51372541D01*
X109357918Y-51380184D01*
X109396778Y-51433467D01*
X109433421Y-51488306D01*
X109439960Y-51492675D01*
X109444596Y-51499032D01*
X109500896Y-51533392D01*
X109555728Y-51570030D01*
X109563443Y-51571565D01*
X109570157Y-51575662D01*
X109635315Y-51585861D01*
X109700000Y-51598727D01*
X109707714Y-51597193D01*
X109715486Y-51598409D01*
X109779579Y-51582898D01*
X109844272Y-51570030D01*
X109850814Y-51565659D01*
X109858457Y-51563809D01*
X117444180Y-48050000D01*
X131748000Y-48050000D01*
X131968902Y-49160547D01*
X132597976Y-50102024D01*
X133539453Y-50731098D01*
X134650000Y-50952000D01*
X135760547Y-50731098D01*
X136702024Y-50102024D01*
X137331098Y-49160547D01*
X137552000Y-48050000D01*
X137331098Y-46939453D01*
X136702024Y-45997976D01*
X135760547Y-45368902D01*
X134650000Y-45148000D01*
X133539453Y-45368902D01*
X132597976Y-45997976D01*
X131968902Y-46939453D01*
X131748000Y-48050000D01*
X117444180Y-48050000D01*
X124811150Y-44637521D01*
X141201289Y-43963693D01*
X156629849Y-49623732D01*
X159490550Y-51535191D01*
X159524854Y-51549400D01*
X159555728Y-51570030D01*
X159592145Y-51577274D01*
X159626451Y-51591484D01*
X159663585Y-51591484D01*
X159700000Y-51598727D01*
X159736417Y-51591483D01*
X159773549Y-51591483D01*
X159807852Y-51577274D01*
X159844272Y-51570030D01*
X159875147Y-51549400D01*
X159909450Y-51535191D01*
X159935706Y-51508935D01*
X159966579Y-51488306D01*
X159987208Y-51457433D01*
X160013464Y-51431177D01*
X160027673Y-51396874D01*
X160048303Y-51365999D01*
X160055547Y-51329579D01*
X160069756Y-51295276D01*
X160069756Y-51258146D01*
X160077000Y-51221727D01*
X160077000Y-35877000D01*
X184323000Y-35877000D01*
X184323000Y-60123000D01*
X168978273Y-60123000D01*
X168970559Y-60124534D01*
X168962787Y-60123318D01*
X168898694Y-60138829D01*
X168834001Y-60151697D01*
X168827459Y-60156068D01*
X168819816Y-60157918D01*
X168766533Y-60196778D01*
X168711694Y-60233421D01*
X168707325Y-60239960D01*
X168700968Y-60244596D01*
X168666608Y-60300896D01*
X168629970Y-60355728D01*
X168628435Y-60363443D01*
X168624338Y-60370157D01*
X168614139Y-60435315D01*
X168601273Y-60500000D01*
X168602807Y-60507714D01*
X168601591Y-60515486D01*
X168617102Y-60579579D01*
X168629970Y-60644272D01*
X168634341Y-60650814D01*
X168636191Y-60658457D01*
X175562479Y-75611150D01*
X176236307Y-92001289D01*
X175427000Y-94207358D01*
X175427000Y-77300000D01*
X175394497Y-77136594D01*
X175301935Y-76998065D01*
X175301932Y-76998063D01*
X175177024Y-76873155D01*
X175177100Y-76785731D01*
X175089442Y-76573583D01*
X174927271Y-76411129D01*
X174715276Y-76323100D01*
X174485731Y-76322900D01*
X174427000Y-76347167D01*
X174427000Y-75989034D01*
X174488871Y-75927271D01*
X174576900Y-75715276D01*
X174577100Y-75485731D01*
X174489442Y-75273583D01*
X174327271Y-75111129D01*
X174115276Y-75023100D01*
X173885731Y-75022900D01*
X173673583Y-75110558D01*
X173511129Y-75272729D01*
X173423100Y-75484724D01*
X173422900Y-75714269D01*
X173467815Y-75822972D01*
X173385731Y-75822900D01*
X173173583Y-75910558D01*
X173011129Y-76072729D01*
X172923100Y-76284724D01*
X172922900Y-76514269D01*
X173010558Y-76726417D01*
X173073000Y-76788968D01*
X173073000Y-77196993D01*
X173072999Y-77196998D01*
X173105503Y-77360404D01*
X173152846Y-77431258D01*
X173011129Y-77572729D01*
X172923100Y-77784724D01*
X172922900Y-78014269D01*
X173010558Y-78226417D01*
X173172729Y-78388871D01*
X173384724Y-78476900D01*
X173448001Y-78476955D01*
X173448001Y-90241130D01*
X170077000Y-86870128D01*
X170077000Y-85107833D01*
X170265644Y-85107997D01*
X170477792Y-85020339D01*
X170491256Y-85006898D01*
X170504104Y-85019768D01*
X170716099Y-85107797D01*
X170945644Y-85107997D01*
X171157792Y-85020339D01*
X171320246Y-84858168D01*
X171408275Y-84646173D01*
X171408475Y-84416628D01*
X171320817Y-84204480D01*
X171220875Y-84104364D01*
X171220875Y-83917969D01*
X171356834Y-83782247D01*
X171444863Y-83570252D01*
X171445063Y-83340707D01*
X171357405Y-83128559D01*
X171195234Y-82966105D01*
X170983239Y-82878076D01*
X170753694Y-82877876D01*
X170541546Y-82965534D01*
X170379092Y-83127705D01*
X170373848Y-83140334D01*
X170160482Y-83140148D01*
X170077000Y-83174642D01*
X170077000Y-82739034D01*
X170138871Y-82677271D01*
X170226900Y-82465276D01*
X170227090Y-82247001D01*
X171351711Y-82247001D01*
X171373584Y-82268874D01*
X171500576Y-82353729D01*
X171531893Y-82385100D01*
X171743888Y-82473129D01*
X171973433Y-82473329D01*
X172185581Y-82385671D01*
X172348035Y-82223500D01*
X172436064Y-82011505D01*
X172436264Y-81781960D01*
X172348606Y-81569812D01*
X172186435Y-81407358D01*
X172097001Y-81370221D01*
X172097001Y-79590001D01*
X172084523Y-79527271D01*
X172056886Y-79388326D01*
X171942646Y-79217356D01*
X170272645Y-77547355D01*
X170101675Y-77433115D01*
X169900000Y-77393000D01*
X168055447Y-77393000D01*
X167935276Y-77343100D01*
X167705731Y-77342900D01*
X167493583Y-77430558D01*
X167331129Y-77592729D01*
X167243100Y-77804724D01*
X167242900Y-78034269D01*
X167330558Y-78246417D01*
X167492729Y-78408871D01*
X167704724Y-78496900D01*
X167934269Y-78497100D01*
X168055520Y-78447000D01*
X169681710Y-78447000D01*
X171043001Y-79808291D01*
X171043001Y-81193001D01*
X169428997Y-81193001D01*
X169227323Y-81233116D01*
X169056352Y-81347356D01*
X168702354Y-81701354D01*
X168588114Y-81872324D01*
X168578034Y-81923000D01*
X168547999Y-82073999D01*
X168547999Y-87174999D01*
X168588114Y-87376674D01*
X168702354Y-87547644D01*
X169010868Y-87856158D01*
X169060558Y-87976417D01*
X169222729Y-88138871D01*
X169434724Y-88226900D01*
X169664269Y-88227100D01*
X169876417Y-88139442D01*
X170007610Y-88008478D01*
X172973000Y-90973867D01*
X172973000Y-91510966D01*
X172911129Y-91572729D01*
X172823100Y-91784724D01*
X172822900Y-92014269D01*
X172910558Y-92226417D01*
X173072729Y-92388871D01*
X173284724Y-92476900D01*
X173448001Y-92477042D01*
X173448001Y-95962040D01*
X172978031Y-96432009D01*
X172890608Y-96431933D01*
X172678460Y-96519591D01*
X172516006Y-96681762D01*
X172427977Y-96893757D01*
X172427777Y-97123302D01*
X172515435Y-97335450D01*
X172677606Y-97497904D01*
X172692684Y-97504165D01*
X172679092Y-97509781D01*
X172516638Y-97671952D01*
X172428609Y-97883947D01*
X172428409Y-98113492D01*
X172516067Y-98325640D01*
X172678238Y-98488094D01*
X172694005Y-98494641D01*
X172668291Y-98505266D01*
X172505837Y-98667437D01*
X172417808Y-98879432D01*
X172417608Y-99108977D01*
X172505266Y-99321125D01*
X172636019Y-99452106D01*
X172605503Y-99497776D01*
X172585462Y-99598525D01*
X172511129Y-99672729D01*
X172423100Y-99884724D01*
X172422900Y-100114269D01*
X172510558Y-100326417D01*
X172672729Y-100488871D01*
X172884724Y-100576900D01*
X173090238Y-100577079D01*
X170576267Y-107429850D01*
X168664809Y-110290550D01*
X168650600Y-110324854D01*
X168629970Y-110355728D01*
X168622726Y-110392145D01*
X168608516Y-110426451D01*
X168608516Y-110463585D01*
X168601273Y-110500000D01*
X168608517Y-110536417D01*
X168608517Y-110573549D01*
X168622726Y-110607853D01*
X168629970Y-110644272D01*
X168650598Y-110675144D01*
X168664808Y-110709450D01*
X168691067Y-110735708D01*
X168711694Y-110766579D01*
X168742566Y-110787207D01*
X168768823Y-110813464D01*
X168803127Y-110827673D01*
X168834001Y-110848303D01*
X168870418Y-110855547D01*
X168904724Y-110869757D01*
X168941858Y-110869757D01*
X168978273Y-110877000D01*
X180316594Y-110877000D01*
X180316594Y-112247957D01*
X180198559Y-112323910D01*
X180053569Y-112536110D01*
X180002560Y-112788000D01*
X180002560Y-113423000D01*
X182523000Y-113423000D01*
X182523000Y-113403000D01*
X182777000Y-113403000D01*
X182777000Y-113423000D01*
X182797000Y-113423000D01*
X182797000Y-113677000D01*
X182777000Y-113677000D01*
X182777000Y-113697000D01*
X182523000Y-113697000D01*
X182523000Y-113677000D01*
X180002560Y-113677000D01*
X180002560Y-114312000D01*
X180046838Y-114547317D01*
X180185910Y-114763441D01*
X180316594Y-114852734D01*
X180316594Y-115123000D01*
X179450000Y-115123000D01*
X179286594Y-115155503D01*
X179148065Y-115248065D01*
X179148063Y-115248068D01*
X177623130Y-116773000D01*
X174076295Y-116773000D01*
X166727000Y-109423705D01*
X166727000Y-91237441D01*
X166788871Y-91175678D01*
X166876900Y-90963683D01*
X166877100Y-90734138D01*
X166789442Y-90521990D01*
X166627271Y-90359536D01*
X166415276Y-90271507D01*
X166376938Y-90271474D01*
X166377100Y-90085731D01*
X166289442Y-89873583D01*
X166127271Y-89711129D01*
X165915276Y-89623100D01*
X165751999Y-89622958D01*
X165751999Y-85690851D01*
X165876417Y-85639442D01*
X166038871Y-85477271D01*
X166126900Y-85265276D01*
X166126933Y-85227067D01*
X166164269Y-85227100D01*
X166376417Y-85139442D01*
X166538871Y-84977271D01*
X166626900Y-84765276D01*
X166627100Y-84535731D01*
X166539442Y-84323583D01*
X166477000Y-84261032D01*
X166477000Y-79573693D01*
X166484724Y-79576900D01*
X166714269Y-79577100D01*
X166926417Y-79489442D01*
X167088871Y-79327271D01*
X167176900Y-79115276D01*
X167177100Y-78885731D01*
X167089442Y-78673583D01*
X166927271Y-78511129D01*
X166715276Y-78423100D01*
X166485731Y-78422900D01*
X166477000Y-78426508D01*
X166477000Y-73050005D01*
X166477001Y-73050000D01*
X166444497Y-72886594D01*
X166351935Y-72748065D01*
X164801935Y-71198065D01*
X164663406Y-71105503D01*
X164500000Y-71072999D01*
X164499995Y-71073000D01*
X160727772Y-71073000D01*
X160219042Y-70564269D01*
X160472900Y-70564269D01*
X160560558Y-70776417D01*
X160722729Y-70938871D01*
X160934724Y-71026900D01*
X161164269Y-71027100D01*
X161285520Y-70977000D01*
X170360966Y-70977000D01*
X170422729Y-71038871D01*
X170634724Y-71126900D01*
X170864269Y-71127100D01*
X171076417Y-71039442D01*
X171238871Y-70877271D01*
X171326900Y-70665276D01*
X171327100Y-70435731D01*
X171239442Y-70223583D01*
X171077271Y-70061129D01*
X170865276Y-69973100D01*
X170635731Y-69972900D01*
X170423583Y-70060558D01*
X170361032Y-70123000D01*
X161538860Y-70123000D01*
X161377271Y-69961129D01*
X161165276Y-69873100D01*
X160935731Y-69872900D01*
X160723583Y-69960558D01*
X160561129Y-70122729D01*
X160473100Y-70334724D01*
X160472900Y-70564269D01*
X160219042Y-70564269D01*
X159977903Y-70323130D01*
X159977903Y-66864269D01*
X164172900Y-66864269D01*
X164260558Y-67076417D01*
X164422729Y-67238871D01*
X164634724Y-67326900D01*
X164864269Y-67327100D01*
X165076417Y-67239442D01*
X165238871Y-67077271D01*
X165326900Y-66865276D01*
X165327100Y-66635731D01*
X165277580Y-66515884D01*
X165277580Y-62733939D01*
X165339451Y-62672176D01*
X165427480Y-62460181D01*
X165427680Y-62230636D01*
X165340022Y-62018488D01*
X165177851Y-61856034D01*
X164965856Y-61768005D01*
X164736311Y-61767805D01*
X164524163Y-61855463D01*
X164361709Y-62017634D01*
X164273680Y-62229629D01*
X164273480Y-62459174D01*
X164361138Y-62671322D01*
X164423580Y-62733873D01*
X164423580Y-66260561D01*
X164261129Y-66422729D01*
X164173100Y-66634724D01*
X164172900Y-66864269D01*
X159977903Y-66864269D01*
X159977903Y-58050013D01*
X160039774Y-57988250D01*
X160127803Y-57776255D01*
X160128003Y-57546710D01*
X160040345Y-57334562D01*
X159878174Y-57172108D01*
X159666179Y-57084079D01*
X159436634Y-57083879D01*
X159224486Y-57171537D01*
X159062032Y-57333708D01*
X158974003Y-57545703D01*
X158973803Y-57775248D01*
X159061461Y-57987396D01*
X159123903Y-58049947D01*
X159123903Y-63540030D01*
X158913871Y-63539847D01*
X158777001Y-63596401D01*
X158777001Y-63589245D01*
X158856891Y-63509494D01*
X158944920Y-63297499D01*
X158945120Y-63067954D01*
X158857462Y-62855806D01*
X158695291Y-62693352D01*
X158483296Y-62605323D01*
X158253751Y-62605123D01*
X158041603Y-62692781D01*
X157879149Y-62854952D01*
X157802408Y-63039764D01*
X157763116Y-63098567D01*
X157729365Y-63268248D01*
X157723001Y-63300242D01*
X157723001Y-69750001D01*
X157763116Y-69951676D01*
X157877356Y-70122646D01*
X157960868Y-70206158D01*
X157973000Y-70235520D01*
X157973000Y-75264553D01*
X157923100Y-75384724D01*
X157922900Y-75614269D01*
X157973000Y-75735520D01*
X157973000Y-80764553D01*
X157923100Y-80884724D01*
X157922900Y-81114269D01*
X157973000Y-81235520D01*
X157973000Y-84198820D01*
X157823583Y-84260558D01*
X157661129Y-84422729D01*
X157573100Y-84634724D01*
X157572900Y-84864269D01*
X157660558Y-85076417D01*
X157822729Y-85238871D01*
X158034724Y-85326900D01*
X158222999Y-85327064D01*
X158222999Y-85936845D01*
X158109336Y-85889647D01*
X157879791Y-85889447D01*
X157667643Y-85977105D01*
X157505189Y-86139276D01*
X157452001Y-86267365D01*
X157452001Y-86225001D01*
X157419498Y-86061595D01*
X157326936Y-85923066D01*
X157326933Y-85923064D01*
X157177024Y-85773154D01*
X157177100Y-85685731D01*
X157089442Y-85473583D01*
X156927271Y-85311129D01*
X156715276Y-85223100D01*
X156485731Y-85222900D01*
X156273583Y-85310558D01*
X156111129Y-85472729D01*
X156023100Y-85684724D01*
X156022900Y-85914269D01*
X156110558Y-86126417D01*
X156272729Y-86288871D01*
X156484724Y-86376900D01*
X156573108Y-86376977D01*
X156598001Y-86401870D01*
X156598001Y-100166594D01*
X156449479Y-100166594D01*
X156488871Y-100127271D01*
X156576900Y-99915276D01*
X156577100Y-99685731D01*
X156489442Y-99473583D01*
X156327271Y-99311129D01*
X156115276Y-99223100D01*
X155885731Y-99222900D01*
X155673583Y-99310558D01*
X155511129Y-99472729D01*
X155423100Y-99684724D01*
X155422900Y-99914269D01*
X155510558Y-100126417D01*
X155550665Y-100166594D01*
X155243379Y-100166594D01*
X155243379Y-99416384D01*
X155243380Y-99416379D01*
X155210876Y-99252973D01*
X155198320Y-99234182D01*
X155118314Y-99114444D01*
X155118311Y-99114442D01*
X154977024Y-98973154D01*
X154977100Y-98885731D01*
X154889442Y-98673583D01*
X154727271Y-98511129D01*
X154515276Y-98423100D01*
X154285731Y-98422900D01*
X154073583Y-98510558D01*
X153911129Y-98672729D01*
X153823100Y-98884724D01*
X153822900Y-99114269D01*
X153910558Y-99326417D01*
X154072729Y-99488871D01*
X154284724Y-99576900D01*
X154373108Y-99576977D01*
X154389379Y-99593248D01*
X154389379Y-115038209D01*
X154389378Y-115038214D01*
X154421882Y-115201620D01*
X154514444Y-115340149D01*
X154809975Y-115635679D01*
X154809899Y-115723103D01*
X154897557Y-115935251D01*
X155059728Y-116097705D01*
X155271723Y-116185734D01*
X155501268Y-116185934D01*
X155713416Y-116098276D01*
X155875870Y-115936105D01*
X155963899Y-115724110D01*
X155964099Y-115494565D01*
X155876441Y-115282417D01*
X155714270Y-115119963D01*
X155502275Y-115031934D01*
X155413891Y-115031857D01*
X155243379Y-114861344D01*
X155243379Y-105335000D01*
X155714250Y-105335000D01*
X155873000Y-105176250D01*
X155873000Y-104327000D01*
X155853000Y-104327000D01*
X155853000Y-104073000D01*
X155873000Y-104073000D01*
X155873000Y-103223750D01*
X155714250Y-103065000D01*
X155243379Y-103065000D01*
X155243379Y-101833406D01*
X156598001Y-101833406D01*
X156598001Y-103065000D01*
X156285750Y-103065000D01*
X156127000Y-103223750D01*
X156127000Y-104073000D01*
X156147000Y-104073000D01*
X156147000Y-104327000D01*
X156127000Y-104327000D01*
X156127000Y-105176250D01*
X156285750Y-105335000D01*
X156598001Y-105335000D01*
X156598001Y-115230634D01*
X156598000Y-115230639D01*
X156630504Y-115394045D01*
X156723066Y-115532574D01*
X156819626Y-115629134D01*
X156819550Y-115716557D01*
X156907208Y-115928705D01*
X157069379Y-116091159D01*
X157281374Y-116179188D01*
X157510919Y-116179388D01*
X157723067Y-116091730D01*
X157885521Y-115929559D01*
X157973550Y-115717564D01*
X157973750Y-115488019D01*
X157886092Y-115275871D01*
X157723921Y-115113417D01*
X157511926Y-115025388D01*
X157452001Y-115025336D01*
X157452001Y-108668107D01*
X157472729Y-108688871D01*
X157684724Y-108776900D01*
X157914269Y-108777100D01*
X158126417Y-108689442D01*
X158288871Y-108527271D01*
X158376900Y-108315276D01*
X158377100Y-108085731D01*
X158289442Y-107873583D01*
X158227000Y-107811032D01*
X158227000Y-103161407D01*
X158384724Y-103226900D01*
X158614269Y-103227100D01*
X158826417Y-103139442D01*
X158973000Y-102993114D01*
X158973000Y-110222287D01*
X158298065Y-110897221D01*
X158205503Y-111035750D01*
X158172999Y-111199156D01*
X158173000Y-111199161D01*
X158173000Y-112410966D01*
X158111129Y-112472729D01*
X158023100Y-112684724D01*
X158022900Y-112914269D01*
X158110558Y-113126417D01*
X158272729Y-113288871D01*
X158484724Y-113376900D01*
X158714269Y-113377100D01*
X158926417Y-113289442D01*
X159088871Y-113127271D01*
X159176900Y-112915276D01*
X159177100Y-112685731D01*
X159089442Y-112473583D01*
X159027000Y-112411032D01*
X159027000Y-112046337D01*
X159027444Y-112046521D01*
X159256989Y-112046721D01*
X159469137Y-111959063D01*
X159631591Y-111796892D01*
X159719620Y-111584897D01*
X159719820Y-111355352D01*
X159657685Y-111204973D01*
X160129138Y-110733519D01*
X160129141Y-110733517D01*
X160221703Y-110594988D01*
X160254206Y-110431582D01*
X160254206Y-105033406D01*
X160473000Y-105033406D01*
X160473000Y-110364553D01*
X160423100Y-110484724D01*
X160422900Y-110714269D01*
X160510558Y-110926417D01*
X160672729Y-111088871D01*
X160884724Y-111176900D01*
X161114269Y-111177100D01*
X161326417Y-111089442D01*
X161488871Y-110927271D01*
X161576900Y-110715276D01*
X161577100Y-110485731D01*
X161527000Y-110364480D01*
X161527000Y-105033406D01*
X161800000Y-105033406D01*
X161921179Y-105010605D01*
X162032474Y-104938988D01*
X162107138Y-104829714D01*
X162133406Y-104700000D01*
X162133406Y-103700000D01*
X162110605Y-103578821D01*
X162038988Y-103467526D01*
X161929714Y-103392862D01*
X161800000Y-103366594D01*
X161527000Y-103366594D01*
X161527000Y-103035447D01*
X161576900Y-102915276D01*
X161577100Y-102685731D01*
X161489442Y-102473583D01*
X161327271Y-102311129D01*
X161115276Y-102223100D01*
X160885731Y-102222900D01*
X160673583Y-102310558D01*
X160511129Y-102472729D01*
X160423100Y-102684724D01*
X160422900Y-102914269D01*
X160473000Y-103035520D01*
X160473000Y-103366594D01*
X160254206Y-103366594D01*
X160254206Y-101833406D01*
X161800000Y-101833406D01*
X161921179Y-101810605D01*
X162032474Y-101738988D01*
X162107138Y-101629714D01*
X162133406Y-101500000D01*
X162133406Y-100500000D01*
X162110605Y-100378821D01*
X162038988Y-100267526D01*
X161929714Y-100192862D01*
X161800000Y-100166594D01*
X161477000Y-100166594D01*
X161477000Y-99490644D01*
X161684724Y-99576900D01*
X161914269Y-99577100D01*
X162126417Y-99489442D01*
X162288871Y-99327271D01*
X162376900Y-99115276D01*
X162377100Y-98885731D01*
X162289442Y-98673583D01*
X162227000Y-98611032D01*
X162227000Y-90589034D01*
X162288871Y-90527271D01*
X162376900Y-90315276D01*
X162377100Y-90085731D01*
X162289442Y-89873583D01*
X162127271Y-89711129D01*
X161915276Y-89623100D01*
X161685731Y-89622900D01*
X161477000Y-89709146D01*
X161477000Y-86476937D01*
X161523107Y-86476977D01*
X162773000Y-87726869D01*
X162773000Y-109010966D01*
X162711129Y-109072729D01*
X162623100Y-109284724D01*
X162622900Y-109514269D01*
X162710558Y-109726417D01*
X162872729Y-109888871D01*
X163084724Y-109976900D01*
X163314269Y-109977100D01*
X163526417Y-109889442D01*
X163688871Y-109727271D01*
X163776900Y-109515276D01*
X163777013Y-109385535D01*
X163841557Y-109385591D01*
X163841557Y-111382635D01*
X163805503Y-111436594D01*
X163772999Y-111600000D01*
X163773000Y-111600005D01*
X163773000Y-111810966D01*
X163711129Y-111872729D01*
X163623100Y-112084724D01*
X163622900Y-112314269D01*
X163710558Y-112526417D01*
X163872729Y-112688871D01*
X164084724Y-112776900D01*
X164314269Y-112777100D01*
X164526417Y-112689442D01*
X164688871Y-112527271D01*
X164776900Y-112315276D01*
X164777100Y-112085731D01*
X164689442Y-111873583D01*
X164627000Y-111811032D01*
X164627000Y-111748808D01*
X164663054Y-111694849D01*
X164695557Y-111531443D01*
X164695557Y-110376909D01*
X164914269Y-110377100D01*
X165126417Y-110289442D01*
X165288871Y-110127271D01*
X165376900Y-109915276D01*
X165376977Y-109826892D01*
X165435444Y-109768425D01*
X165498065Y-109862144D01*
X173603695Y-117967773D01*
X173603697Y-117967776D01*
X173718189Y-118044277D01*
X173742226Y-118060338D01*
X173905632Y-118092842D01*
X173905637Y-118092841D01*
X180316594Y-118092841D01*
X180316594Y-118312000D01*
X180339395Y-118433179D01*
X180411012Y-118544474D01*
X180417592Y-118548970D01*
X180417526Y-118549012D01*
X180342862Y-118658286D01*
X180316594Y-118788000D01*
X180316594Y-120312000D01*
X180339395Y-120433179D01*
X180411012Y-120544474D01*
X180417592Y-120548970D01*
X180417526Y-120549012D01*
X180342862Y-120658286D01*
X180316594Y-120788000D01*
X180316594Y-122312000D01*
X180339395Y-122433179D01*
X180411012Y-122544474D01*
X180417592Y-122548970D01*
X180417526Y-122549012D01*
X180342862Y-122658286D01*
X180316594Y-122788000D01*
X180316594Y-124312000D01*
X180339395Y-124433179D01*
X180411012Y-124544474D01*
X180417592Y-124548970D01*
X180417526Y-124549012D01*
X180342862Y-124658286D01*
X180316594Y-124788000D01*
X180316594Y-126312000D01*
X180339395Y-126433179D01*
X180411012Y-126544474D01*
X180417592Y-126548970D01*
X180417526Y-126549012D01*
X180342862Y-126658286D01*
X180316594Y-126788000D01*
X180316594Y-128312000D01*
X180339395Y-128433179D01*
X180411012Y-128544474D01*
X180417592Y-128548970D01*
X180417526Y-128549012D01*
X180342862Y-128658286D01*
X180316594Y-128788000D01*
X180316594Y-130312000D01*
X180339395Y-130433179D01*
X180411012Y-130544474D01*
X180520286Y-130619138D01*
X180650000Y-130645406D01*
X184323000Y-130645406D01*
X184323000Y-135123000D01*
X160077000Y-135123000D01*
X160077000Y-125746890D01*
X161948524Y-125746890D01*
X162118355Y-126156924D01*
X162508642Y-126585183D01*
X163015035Y-126822999D01*
X162916523Y-126842594D01*
X162534676Y-127097735D01*
X162279535Y-127479582D01*
X162189941Y-127930000D01*
X162279535Y-128380418D01*
X162534676Y-128762265D01*
X162916523Y-129017406D01*
X163366941Y-129107000D01*
X163413059Y-129107000D01*
X163863477Y-129017406D01*
X164245324Y-128762265D01*
X164500465Y-128380418D01*
X164590059Y-127930000D01*
X164500465Y-127479582D01*
X164245324Y-127097735D01*
X164218782Y-127080000D01*
X164746594Y-127080000D01*
X164746594Y-128780000D01*
X164769395Y-128901179D01*
X164841012Y-129012474D01*
X164950286Y-129087138D01*
X165080000Y-129113406D01*
X166780000Y-129113406D01*
X166901179Y-129090605D01*
X167012474Y-129018988D01*
X167087138Y-128909714D01*
X167113406Y-128780000D01*
X167113406Y-127080000D01*
X167090605Y-126958821D01*
X167018988Y-126847526D01*
X166909714Y-126772862D01*
X166780000Y-126746594D01*
X165080000Y-126746594D01*
X164958821Y-126769395D01*
X164847526Y-126841012D01*
X164772862Y-126950286D01*
X164746594Y-127080000D01*
X164218782Y-127080000D01*
X163863477Y-126842594D01*
X163764965Y-126822999D01*
X164271358Y-126585183D01*
X164661645Y-126156924D01*
X164810841Y-125796710D01*
X164819535Y-125840418D01*
X165074676Y-126222265D01*
X165456523Y-126477406D01*
X165906941Y-126567000D01*
X165953059Y-126567000D01*
X166403477Y-126477406D01*
X166785324Y-126222265D01*
X167040465Y-125840418D01*
X167130059Y-125390000D01*
X167040465Y-124939582D01*
X167017964Y-124905906D01*
X168551932Y-123371937D01*
X168551935Y-123371935D01*
X168644497Y-123233406D01*
X168677000Y-123070000D01*
X168677000Y-120773317D01*
X168785415Y-120664901D01*
X168934724Y-120726900D01*
X169164269Y-120727100D01*
X169376417Y-120639442D01*
X169538871Y-120477271D01*
X169626900Y-120265276D01*
X169627100Y-120035731D01*
X169539442Y-119823583D01*
X169377271Y-119661129D01*
X169165276Y-119573100D01*
X168935731Y-119572900D01*
X168723583Y-119660558D01*
X168652219Y-119731797D01*
X168533041Y-119755503D01*
X168394512Y-119848065D01*
X168394510Y-119848068D01*
X167948065Y-120294512D01*
X167855503Y-120433041D01*
X167822999Y-120596447D01*
X167823000Y-120596452D01*
X167823000Y-122893131D01*
X166409507Y-124306623D01*
X166403477Y-124302594D01*
X165953059Y-124213000D01*
X165906941Y-124213000D01*
X165456523Y-124302594D01*
X165074676Y-124557735D01*
X164819535Y-124939582D01*
X164810841Y-124983290D01*
X164661645Y-124623076D01*
X164271358Y-124194817D01*
X163746892Y-123948514D01*
X163517000Y-124069181D01*
X163517000Y-125263000D01*
X163537000Y-125263000D01*
X163537000Y-125517000D01*
X163517000Y-125517000D01*
X163517000Y-125537000D01*
X163263000Y-125537000D01*
X163263000Y-125517000D01*
X162069845Y-125517000D01*
X161948524Y-125746890D01*
X160077000Y-125746890D01*
X160077000Y-125033110D01*
X161948524Y-125033110D01*
X162069845Y-125263000D01*
X163263000Y-125263000D01*
X163263000Y-124069181D01*
X163033108Y-123948514D01*
X162508642Y-124194817D01*
X162118355Y-124623076D01*
X161948524Y-125033110D01*
X160077000Y-125033110D01*
X160077000Y-119778273D01*
X160075466Y-119770559D01*
X160076682Y-119762787D01*
X160061171Y-119698694D01*
X160048303Y-119634001D01*
X160043932Y-119627459D01*
X160042082Y-119619816D01*
X160003222Y-119566533D01*
X159966579Y-119511694D01*
X159960040Y-119507325D01*
X159955404Y-119500968D01*
X159899109Y-119466611D01*
X159844272Y-119429970D01*
X159836555Y-119428435D01*
X159829842Y-119424338D01*
X159764687Y-119414140D01*
X159700000Y-119401273D01*
X159692286Y-119402807D01*
X159684514Y-119401591D01*
X159620421Y-119417102D01*
X159555728Y-119429970D01*
X159549186Y-119434341D01*
X159541543Y-119436191D01*
X144588850Y-126362479D01*
X128198711Y-127036307D01*
X112770150Y-121376267D01*
X109909450Y-119464809D01*
X109875146Y-119450600D01*
X109844272Y-119429970D01*
X109807855Y-119422726D01*
X109773549Y-119408516D01*
X109736415Y-119408516D01*
X109700000Y-119401273D01*
X109663583Y-119408517D01*
X109626451Y-119408517D01*
X109592147Y-119422726D01*
X109555728Y-119429970D01*
X109524856Y-119450598D01*
X109490550Y-119464808D01*
X109464292Y-119491067D01*
X109433421Y-119511694D01*
X109412793Y-119542566D01*
X109386536Y-119568823D01*
X109372327Y-119603127D01*
X109351697Y-119634001D01*
X109344453Y-119670418D01*
X109330243Y-119704724D01*
X109330243Y-119741858D01*
X109323000Y-119778273D01*
X109323000Y-135123000D01*
X85077000Y-135123000D01*
X85077000Y-117171572D01*
X161290039Y-117171572D01*
X161290039Y-117328426D01*
X161333099Y-117544904D01*
X161393124Y-117689817D01*
X161515748Y-117873337D01*
X161515749Y-117873340D01*
X161571205Y-117928795D01*
X161626660Y-117984251D01*
X161626663Y-117984252D01*
X161810181Y-118106874D01*
X161810183Y-118106876D01*
X161955096Y-118166901D01*
X162171572Y-118209961D01*
X162328428Y-118209961D01*
X162544904Y-118166901D01*
X162689817Y-118106876D01*
X162873339Y-117984251D01*
X162901336Y-117956254D01*
X162934257Y-117934257D01*
X167334257Y-113534257D01*
X167356254Y-113501336D01*
X167384251Y-113473339D01*
X167506875Y-113289818D01*
X167506876Y-113289817D01*
X167566901Y-113144904D01*
X167609961Y-112928426D01*
X167609961Y-112771572D01*
X167566901Y-112555096D01*
X167506876Y-112410183D01*
X167506874Y-112410181D01*
X167384251Y-112226661D01*
X167384251Y-112226660D01*
X167328795Y-112171205D01*
X167273340Y-112115749D01*
X167273337Y-112115748D01*
X167089817Y-111993124D01*
X166944904Y-111933099D01*
X166728428Y-111890039D01*
X166571572Y-111890039D01*
X166355096Y-111933099D01*
X166210183Y-111993124D01*
X166210181Y-111993126D01*
X166026661Y-112115749D01*
X165998664Y-112143746D01*
X165965743Y-112165743D01*
X161565743Y-116565743D01*
X161543746Y-116598664D01*
X161515749Y-116626661D01*
X161393124Y-116810183D01*
X161333099Y-116955096D01*
X161290039Y-117171572D01*
X85077000Y-117171572D01*
X85077000Y-110877000D01*
X100421727Y-110877000D01*
X100429441Y-110875466D01*
X100437213Y-110876682D01*
X100501306Y-110861171D01*
X100565999Y-110848303D01*
X100572541Y-110843932D01*
X100580184Y-110842082D01*
X100633467Y-110803222D01*
X100688306Y-110766579D01*
X100692675Y-110760040D01*
X100699032Y-110755404D01*
X100733389Y-110699109D01*
X100770030Y-110644272D01*
X100771565Y-110636555D01*
X100775662Y-110629842D01*
X100785860Y-110564687D01*
X100798727Y-110500000D01*
X100797193Y-110492286D01*
X100798409Y-110484514D01*
X100782898Y-110420421D01*
X100770030Y-110355728D01*
X100765659Y-110349186D01*
X100763809Y-110341543D01*
X93837521Y-95388850D01*
X93688508Y-91764269D01*
X96972900Y-91764269D01*
X97060558Y-91976417D01*
X97222729Y-92138871D01*
X97434724Y-92226900D01*
X97664269Y-92227100D01*
X97876417Y-92139442D01*
X98038871Y-91977271D01*
X98126900Y-91765276D01*
X98126977Y-91676893D01*
X99623000Y-90180870D01*
X99623000Y-90473131D01*
X99023154Y-91072976D01*
X98935731Y-91072900D01*
X98723583Y-91160558D01*
X98561129Y-91322729D01*
X98473100Y-91534724D01*
X98472900Y-91764269D01*
X98560558Y-91976417D01*
X98722729Y-92138871D01*
X98934724Y-92226900D01*
X99164269Y-92227100D01*
X99376417Y-92139442D01*
X99538871Y-91977271D01*
X99626900Y-91765276D01*
X99626977Y-91676893D01*
X100351932Y-90951937D01*
X100351935Y-90951935D01*
X100444497Y-90813406D01*
X100451719Y-90777100D01*
X100477001Y-90650000D01*
X100477000Y-90649995D01*
X100477000Y-73373693D01*
X100484724Y-73376900D01*
X100714269Y-73377100D01*
X100926417Y-73289442D01*
X101088871Y-73127271D01*
X101176900Y-72915276D01*
X101176977Y-72826893D01*
X102051870Y-71951999D01*
X102523041Y-71951999D01*
X102522900Y-72114269D01*
X102610558Y-72326417D01*
X102673000Y-72388968D01*
X102673000Y-73423063D01*
X102485731Y-73422900D01*
X102273583Y-73510558D01*
X102111129Y-73672729D01*
X102023100Y-73884724D01*
X102022900Y-74114269D01*
X102110558Y-74326417D01*
X102173000Y-74388968D01*
X102173000Y-95447069D01*
X102115276Y-95423100D01*
X101885731Y-95422900D01*
X101827000Y-95447167D01*
X101827000Y-74589034D01*
X101888871Y-74527271D01*
X101976900Y-74315276D01*
X101977100Y-74085731D01*
X101889442Y-73873583D01*
X101727271Y-73711129D01*
X101515276Y-73623100D01*
X101285731Y-73622900D01*
X101073583Y-73710558D01*
X100911129Y-73872729D01*
X100823100Y-74084724D01*
X100822900Y-74314269D01*
X100910558Y-74526417D01*
X100973000Y-74588968D01*
X100973000Y-109010966D01*
X100911129Y-109072729D01*
X100823100Y-109284724D01*
X100822900Y-109514269D01*
X100910558Y-109726417D01*
X101072729Y-109888871D01*
X101284724Y-109976900D01*
X101514269Y-109977100D01*
X101557610Y-109959192D01*
X101557437Y-110116285D01*
X101495137Y-110178476D01*
X101407108Y-110390471D01*
X101406908Y-110620016D01*
X101494566Y-110832164D01*
X101656737Y-110994618D01*
X101868732Y-111082647D01*
X102098277Y-111082847D01*
X102310425Y-110995189D01*
X102472879Y-110833018D01*
X102505122Y-110755369D01*
X102714269Y-110755551D01*
X102926417Y-110667893D01*
X103088871Y-110505722D01*
X103176900Y-110293727D01*
X103177100Y-110064182D01*
X103128724Y-109947103D01*
X104222900Y-109947103D01*
X104310558Y-110159251D01*
X104472729Y-110321705D01*
X104684724Y-110409734D01*
X104914269Y-110409934D01*
X105126417Y-110322276D01*
X105288871Y-110160105D01*
X105376900Y-109948110D01*
X105376900Y-109947103D01*
X105786469Y-109947103D01*
X105874127Y-110159251D01*
X106036298Y-110321705D01*
X106248293Y-110409734D01*
X106477838Y-110409934D01*
X106689986Y-110322276D01*
X106852440Y-110160105D01*
X106926909Y-109980766D01*
X107011362Y-109980840D01*
X107223510Y-109893182D01*
X107236782Y-109879934D01*
X107237989Y-109881143D01*
X107449984Y-109969172D01*
X107679529Y-109969372D01*
X107891677Y-109881714D01*
X108054131Y-109719543D01*
X108142160Y-109507548D01*
X108142360Y-109278003D01*
X108054702Y-109065855D01*
X108027000Y-109038105D01*
X108027000Y-74335944D01*
X108037055Y-74335944D01*
X108037056Y-74335949D01*
X108037056Y-107517213D01*
X108037055Y-107517218D01*
X108069559Y-107680624D01*
X108137042Y-107781620D01*
X108136955Y-107881486D01*
X108224613Y-108093634D01*
X108386784Y-108256088D01*
X108598779Y-108344117D01*
X108828324Y-108344317D01*
X109040472Y-108256659D01*
X109202926Y-108094488D01*
X109290955Y-107882493D01*
X109291155Y-107652948D01*
X109203497Y-107440800D01*
X109041326Y-107278346D01*
X108891056Y-107215948D01*
X108891056Y-105259350D01*
X109073691Y-105335000D01*
X109714250Y-105335000D01*
X109873000Y-105176250D01*
X109873000Y-104327000D01*
X110127000Y-104327000D01*
X110127000Y-105176250D01*
X110285750Y-105335000D01*
X110926309Y-105335000D01*
X111159698Y-105238327D01*
X111338327Y-105059699D01*
X111435000Y-104826310D01*
X111435000Y-104485750D01*
X111276250Y-104327000D01*
X110127000Y-104327000D01*
X109873000Y-104327000D01*
X109853000Y-104327000D01*
X109853000Y-104073000D01*
X109873000Y-104073000D01*
X109873000Y-103223750D01*
X110127000Y-103223750D01*
X110127000Y-104073000D01*
X111276250Y-104073000D01*
X111435000Y-103914250D01*
X111435000Y-103573690D01*
X111338327Y-103340301D01*
X111159698Y-103161673D01*
X110926309Y-103065000D01*
X110285750Y-103065000D01*
X110127000Y-103223750D01*
X109873000Y-103223750D01*
X109714250Y-103065000D01*
X109073691Y-103065000D01*
X108891056Y-103140650D01*
X108891056Y-101623760D01*
X108961012Y-101732474D01*
X109070286Y-101807138D01*
X109200000Y-101833406D01*
X110800000Y-101833406D01*
X110921179Y-101810605D01*
X111032474Y-101738988D01*
X111107138Y-101629714D01*
X111133406Y-101500000D01*
X111133406Y-100658442D01*
X111755859Y-101280895D01*
X111755859Y-110382833D01*
X111693988Y-110444596D01*
X111605959Y-110656591D01*
X111605759Y-110886136D01*
X111632709Y-110951361D01*
X111511129Y-111072729D01*
X111423100Y-111284724D01*
X111422900Y-111514269D01*
X111510558Y-111726417D01*
X111573000Y-111788968D01*
X111573000Y-115210966D01*
X111511129Y-115272729D01*
X111423100Y-115484724D01*
X111422900Y-115714269D01*
X111510558Y-115926417D01*
X111672729Y-116088871D01*
X111884724Y-116176900D01*
X112114269Y-116177100D01*
X112326417Y-116089442D01*
X112488871Y-115927271D01*
X112576900Y-115715276D01*
X112577100Y-115485731D01*
X112489442Y-115273583D01*
X112427000Y-115211032D01*
X112427000Y-111789034D01*
X112488871Y-111727271D01*
X112576900Y-111515276D01*
X112577100Y-111285731D01*
X112550150Y-111220506D01*
X112671730Y-111099138D01*
X112759759Y-110887143D01*
X112759959Y-110657598D01*
X112672301Y-110445450D01*
X112609859Y-110382899D01*
X112609859Y-101516730D01*
X113309295Y-102216166D01*
X113309295Y-110381652D01*
X113309294Y-110381657D01*
X113341798Y-110545063D01*
X113434360Y-110683592D01*
X113449754Y-110698986D01*
X113449678Y-110786409D01*
X113537336Y-110998557D01*
X113573000Y-111034283D01*
X113573000Y-115210966D01*
X113511129Y-115272729D01*
X113423100Y-115484724D01*
X113422900Y-115714269D01*
X113510558Y-115926417D01*
X113672729Y-116088871D01*
X113884724Y-116176900D01*
X114114269Y-116177100D01*
X114326417Y-116089442D01*
X114488871Y-115927271D01*
X114576900Y-115715276D01*
X114577100Y-115485731D01*
X114489442Y-115273583D01*
X114427000Y-115211032D01*
X114427000Y-111272945D01*
X115368267Y-111272945D01*
X115455925Y-111485093D01*
X115573000Y-111602372D01*
X115573000Y-115210966D01*
X115511129Y-115272729D01*
X115423100Y-115484724D01*
X115422900Y-115714269D01*
X115510558Y-115926417D01*
X115672729Y-116088871D01*
X115884724Y-116176900D01*
X116114269Y-116177100D01*
X116326417Y-116089442D01*
X116488871Y-115927271D01*
X116576900Y-115715276D01*
X116577100Y-115485731D01*
X116489442Y-115273583D01*
X116427000Y-115211032D01*
X116427000Y-111493172D01*
X116434238Y-111485947D01*
X116522267Y-111273952D01*
X116522467Y-111044407D01*
X116434809Y-110832259D01*
X116272638Y-110669805D01*
X116060643Y-110581776D01*
X115831098Y-110581576D01*
X115618950Y-110669234D01*
X115456496Y-110831405D01*
X115368467Y-111043400D01*
X115368267Y-111272945D01*
X114427000Y-111272945D01*
X114427000Y-111087906D01*
X114515649Y-110999411D01*
X114603678Y-110787416D01*
X114603878Y-110557871D01*
X114516220Y-110345723D01*
X114354049Y-110183269D01*
X114163295Y-110104060D01*
X114163295Y-105025973D01*
X114200000Y-105033406D01*
X115800000Y-105033406D01*
X115921179Y-105010605D01*
X116032474Y-104938988D01*
X116107138Y-104829714D01*
X116133406Y-104700000D01*
X116133406Y-103700000D01*
X116110605Y-103578821D01*
X116038988Y-103467526D01*
X115929714Y-103392862D01*
X115800000Y-103366594D01*
X115527000Y-103366594D01*
X115527000Y-103035447D01*
X115576900Y-102915276D01*
X115577100Y-102685731D01*
X115489442Y-102473583D01*
X115327271Y-102311129D01*
X115115276Y-102223100D01*
X114885731Y-102222900D01*
X114673583Y-102310558D01*
X114511129Y-102472729D01*
X114423100Y-102684724D01*
X114422900Y-102914269D01*
X114473000Y-103035520D01*
X114473000Y-103366594D01*
X114200000Y-103366594D01*
X114163295Y-103373500D01*
X114163295Y-102039297D01*
X114130792Y-101875891D01*
X114087132Y-101810549D01*
X114200000Y-101833406D01*
X115800000Y-101833406D01*
X115921179Y-101810605D01*
X116032474Y-101738988D01*
X116107138Y-101629714D01*
X116133406Y-101500000D01*
X116133406Y-100500000D01*
X116110605Y-100378821D01*
X116038988Y-100267526D01*
X115929714Y-100192862D01*
X115800000Y-100166594D01*
X115449479Y-100166594D01*
X115488871Y-100127271D01*
X115576900Y-99915276D01*
X115577100Y-99685731D01*
X115489442Y-99473583D01*
X115327271Y-99311129D01*
X115115276Y-99223100D01*
X114885731Y-99222900D01*
X114673583Y-99310558D01*
X114511129Y-99472729D01*
X114423100Y-99684724D01*
X114422900Y-99914269D01*
X114510558Y-100126417D01*
X114550665Y-100166594D01*
X114200000Y-100166594D01*
X114078821Y-100189395D01*
X113967526Y-100261012D01*
X113892862Y-100370286D01*
X113866594Y-100500000D01*
X113866594Y-101500000D01*
X113881827Y-101580960D01*
X111758391Y-99457524D01*
X111888871Y-99327271D01*
X111976900Y-99115276D01*
X111977100Y-98885731D01*
X111889442Y-98673583D01*
X111827000Y-98611032D01*
X111827000Y-96189034D01*
X111888871Y-96127271D01*
X111976900Y-95915276D01*
X111977100Y-95685731D01*
X111889442Y-95473583D01*
X111727271Y-95311129D01*
X111515276Y-95223100D01*
X111285731Y-95222900D01*
X111073583Y-95310558D01*
X110911129Y-95472729D01*
X110823100Y-95684724D01*
X110822900Y-95914269D01*
X110910558Y-96126417D01*
X110973000Y-96188968D01*
X110973000Y-98610966D01*
X110942390Y-98641522D01*
X110627000Y-98326132D01*
X110627000Y-96189034D01*
X110688871Y-96127271D01*
X110776900Y-95915276D01*
X110777100Y-95685731D01*
X110689442Y-95473583D01*
X110527271Y-95311129D01*
X110315276Y-95223100D01*
X110085731Y-95222900D01*
X109873583Y-95310558D01*
X109711129Y-95472729D01*
X109623100Y-95684724D01*
X109622900Y-95914269D01*
X109710558Y-96126417D01*
X109773000Y-96188968D01*
X109773000Y-98090297D01*
X109427000Y-97744297D01*
X109427000Y-96189034D01*
X109488871Y-96127271D01*
X109576900Y-95915276D01*
X109577100Y-95685731D01*
X109489442Y-95473583D01*
X109327271Y-95311129D01*
X109115276Y-95223100D01*
X108891056Y-95222905D01*
X108891056Y-74512814D01*
X109026846Y-74377024D01*
X109114269Y-74377100D01*
X109326417Y-74289442D01*
X109488871Y-74127271D01*
X109576900Y-73915276D01*
X109577100Y-73685731D01*
X109489442Y-73473583D01*
X109327271Y-73311129D01*
X109115276Y-73223100D01*
X108885731Y-73222900D01*
X108673583Y-73310558D01*
X108511129Y-73472729D01*
X108423100Y-73684724D01*
X108423023Y-73773107D01*
X108162121Y-74034009D01*
X108069559Y-74172538D01*
X108037055Y-74335944D01*
X108027000Y-74335944D01*
X108027000Y-74189034D01*
X108088871Y-74127271D01*
X108176900Y-73915276D01*
X108177100Y-73685731D01*
X108089442Y-73473583D01*
X107927271Y-73311129D01*
X107715276Y-73223100D01*
X107485731Y-73222900D01*
X107273583Y-73310558D01*
X107111129Y-73472729D01*
X107023100Y-73684724D01*
X107022900Y-73914269D01*
X107110558Y-74126417D01*
X107173000Y-74188968D01*
X107173000Y-91447069D01*
X107115276Y-91423100D01*
X106885731Y-91422900D01*
X106673583Y-91510558D01*
X106511129Y-91672729D01*
X106423100Y-91884724D01*
X106422900Y-92114269D01*
X106510558Y-92326417D01*
X106573000Y-92388968D01*
X106573000Y-95247069D01*
X106515276Y-95223100D01*
X106285731Y-95222900D01*
X106073583Y-95310558D01*
X105911129Y-95472729D01*
X105823100Y-95684724D01*
X105822900Y-95914269D01*
X105910558Y-96126417D01*
X105973000Y-96188968D01*
X105973000Y-109407432D01*
X105874698Y-109505563D01*
X105786669Y-109717558D01*
X105786469Y-109947103D01*
X105376900Y-109947103D01*
X105377100Y-109718565D01*
X105289442Y-109506417D01*
X105227000Y-109443866D01*
X105227000Y-96377024D01*
X105314269Y-96377100D01*
X105526417Y-96289442D01*
X105688871Y-96127271D01*
X105776900Y-95915276D01*
X105777100Y-95685731D01*
X105689442Y-95473583D01*
X105527271Y-95311129D01*
X105315276Y-95223100D01*
X105085731Y-95222900D01*
X104873583Y-95310558D01*
X104711129Y-95472729D01*
X104623100Y-95684724D01*
X104623023Y-95773107D01*
X104498065Y-95898065D01*
X104405503Y-96036594D01*
X104372999Y-96200000D01*
X104373000Y-96200005D01*
X104373000Y-109443800D01*
X104311129Y-109505563D01*
X104223100Y-109717558D01*
X104222900Y-109947103D01*
X103128724Y-109947103D01*
X103089442Y-109852034D01*
X103027000Y-109789483D01*
X103027000Y-108524192D01*
X103110558Y-108726417D01*
X103272729Y-108888871D01*
X103484724Y-108976900D01*
X103714269Y-108977100D01*
X103926417Y-108889442D01*
X104088871Y-108727271D01*
X104176900Y-108515276D01*
X104177100Y-108285731D01*
X104089442Y-108073583D01*
X104027000Y-108011032D01*
X104027000Y-78176959D01*
X104189269Y-78177100D01*
X104401417Y-78089442D01*
X104563871Y-77927271D01*
X104651900Y-77715276D01*
X104652100Y-77485731D01*
X104564442Y-77273583D01*
X104402271Y-77111129D01*
X104190276Y-77023100D01*
X104027000Y-77022958D01*
X104027000Y-72164269D01*
X118072900Y-72164269D01*
X118160558Y-72376417D01*
X118223000Y-72438968D01*
X118223000Y-87960966D01*
X118161129Y-88022729D01*
X118073100Y-88234724D01*
X118072900Y-88464269D01*
X118160558Y-88676417D01*
X118322729Y-88838871D01*
X118534724Y-88926900D01*
X118764269Y-88927100D01*
X118976417Y-88839442D01*
X119138871Y-88677271D01*
X119226900Y-88465276D01*
X119227100Y-88235731D01*
X119139442Y-88023583D01*
X119077000Y-87961032D01*
X119077000Y-87314269D01*
X119422900Y-87314269D01*
X119510558Y-87526417D01*
X119573000Y-87588968D01*
X119573000Y-110199995D01*
X119572999Y-110200000D01*
X119605503Y-110363406D01*
X119698065Y-110501935D01*
X121573000Y-112376870D01*
X121573000Y-115210966D01*
X121511129Y-115272729D01*
X121423100Y-115484724D01*
X121422900Y-115714269D01*
X121510558Y-115926417D01*
X121672729Y-116088871D01*
X121884724Y-116176900D01*
X122114269Y-116177100D01*
X122326417Y-116089442D01*
X122488871Y-115927271D01*
X122576900Y-115715276D01*
X122577100Y-115485731D01*
X122489442Y-115273583D01*
X122427000Y-115211032D01*
X122427000Y-112200000D01*
X122394497Y-112036594D01*
X122301935Y-111898065D01*
X120427000Y-110023130D01*
X120427000Y-105274239D01*
X120573691Y-105335000D01*
X121214250Y-105335000D01*
X121373000Y-105176250D01*
X121373000Y-104327000D01*
X121627000Y-104327000D01*
X121627000Y-105176250D01*
X121785750Y-105335000D01*
X122426309Y-105335000D01*
X122659698Y-105238327D01*
X122838327Y-105059699D01*
X122935000Y-104826310D01*
X122935000Y-104485750D01*
X122776250Y-104327000D01*
X121627000Y-104327000D01*
X121373000Y-104327000D01*
X121353000Y-104327000D01*
X121353000Y-104073000D01*
X121373000Y-104073000D01*
X121373000Y-103223750D01*
X121627000Y-103223750D01*
X121627000Y-104073000D01*
X122776250Y-104073000D01*
X122935000Y-103914250D01*
X122935000Y-103700000D01*
X125366594Y-103700000D01*
X125366594Y-104700000D01*
X125389395Y-104821179D01*
X125461012Y-104932474D01*
X125570286Y-105007138D01*
X125700000Y-105033406D01*
X127300000Y-105033406D01*
X127421179Y-105010605D01*
X127532474Y-104938988D01*
X127607138Y-104829714D01*
X127633406Y-104700000D01*
X127633406Y-103700000D01*
X127610605Y-103578821D01*
X127538988Y-103467526D01*
X127429714Y-103392862D01*
X127300000Y-103366594D01*
X127027000Y-103366594D01*
X127027000Y-102885447D01*
X127076900Y-102765276D01*
X127077100Y-102535731D01*
X126989442Y-102323583D01*
X126827271Y-102161129D01*
X126615276Y-102073100D01*
X126385731Y-102072900D01*
X126173583Y-102160558D01*
X126011129Y-102322729D01*
X125923100Y-102534724D01*
X125922900Y-102764269D01*
X125973000Y-102885520D01*
X125973000Y-103366594D01*
X125700000Y-103366594D01*
X125578821Y-103389395D01*
X125467526Y-103461012D01*
X125392862Y-103570286D01*
X125366594Y-103700000D01*
X122935000Y-103700000D01*
X122935000Y-103573690D01*
X122838327Y-103340301D01*
X122659698Y-103161673D01*
X122426309Y-103065000D01*
X121785750Y-103065000D01*
X121627000Y-103223750D01*
X121373000Y-103223750D01*
X121214250Y-103065000D01*
X120573691Y-103065000D01*
X120427000Y-103125761D01*
X120427000Y-101679618D01*
X120461012Y-101732474D01*
X120570286Y-101807138D01*
X120700000Y-101833406D01*
X122300000Y-101833406D01*
X122421179Y-101810605D01*
X122532474Y-101738988D01*
X122607138Y-101629714D01*
X122633406Y-101500000D01*
X122633406Y-100500000D01*
X122610605Y-100378821D01*
X122538988Y-100267526D01*
X122429714Y-100192862D01*
X122300000Y-100166594D01*
X121927000Y-100166594D01*
X121927000Y-100035447D01*
X121976900Y-99915276D01*
X121977100Y-99685731D01*
X121889442Y-99473583D01*
X121727271Y-99311129D01*
X121515276Y-99223100D01*
X121285731Y-99222900D01*
X121073583Y-99310558D01*
X120911129Y-99472729D01*
X120823100Y-99684724D01*
X120822900Y-99914269D01*
X120910558Y-100126417D01*
X120950665Y-100166594D01*
X120700000Y-100166594D01*
X120578821Y-100189395D01*
X120467526Y-100261012D01*
X120427000Y-100320324D01*
X120427000Y-87589034D01*
X120488871Y-87527271D01*
X120576900Y-87315276D01*
X120577100Y-87085731D01*
X120489442Y-86873583D01*
X120327271Y-86711129D01*
X120115276Y-86623100D01*
X119885731Y-86622900D01*
X119673583Y-86710558D01*
X119511129Y-86872729D01*
X119423100Y-87084724D01*
X119422900Y-87314269D01*
X119077000Y-87314269D01*
X119077000Y-78573610D01*
X123120390Y-78573610D01*
X123173000Y-78700936D01*
X123173000Y-102414553D01*
X123123100Y-102534724D01*
X123122900Y-102764269D01*
X123210558Y-102976417D01*
X123372729Y-103138871D01*
X123584724Y-103226900D01*
X123814269Y-103227100D01*
X124026417Y-103139442D01*
X124188871Y-102977271D01*
X124276900Y-102765276D01*
X124277100Y-102535731D01*
X124227000Y-102414480D01*
X124227000Y-100500000D01*
X125366594Y-100500000D01*
X125366594Y-101500000D01*
X125389395Y-101621179D01*
X125461012Y-101732474D01*
X125570286Y-101807138D01*
X125700000Y-101833406D01*
X127300000Y-101833406D01*
X127421179Y-101810605D01*
X127532474Y-101738988D01*
X127607138Y-101629714D01*
X127633406Y-101500000D01*
X127633406Y-100500000D01*
X127610605Y-100378821D01*
X127538988Y-100267526D01*
X127429714Y-100192862D01*
X127300000Y-100166594D01*
X126849479Y-100166594D01*
X126888871Y-100127271D01*
X126976900Y-99915276D01*
X126977100Y-99685731D01*
X126889442Y-99473583D01*
X126727271Y-99311129D01*
X126515276Y-99223100D01*
X126285731Y-99222900D01*
X126073583Y-99310558D01*
X125911129Y-99472729D01*
X125823100Y-99684724D01*
X125822900Y-99914269D01*
X125910558Y-100126417D01*
X125950665Y-100166594D01*
X125700000Y-100166594D01*
X125578821Y-100189395D01*
X125467526Y-100261012D01*
X125392862Y-100370286D01*
X125366594Y-100500000D01*
X124227000Y-100500000D01*
X124227000Y-78688744D01*
X124274390Y-78574617D01*
X124274590Y-78345072D01*
X124186932Y-78132924D01*
X124024761Y-77970470D01*
X123812766Y-77882441D01*
X123583221Y-77882241D01*
X123371073Y-77969899D01*
X123208619Y-78132070D01*
X123120590Y-78344065D01*
X123120390Y-78573610D01*
X119077000Y-78573610D01*
X119077000Y-74114269D01*
X125222900Y-74114269D01*
X125310558Y-74326417D01*
X125373000Y-74388968D01*
X125373000Y-86810966D01*
X125311129Y-86872729D01*
X125223100Y-87084724D01*
X125222900Y-87314269D01*
X125310558Y-87526417D01*
X125472729Y-87688871D01*
X125684724Y-87776900D01*
X125914269Y-87777100D01*
X126126417Y-87689442D01*
X126288871Y-87527271D01*
X126376900Y-87315276D01*
X126377100Y-87085731D01*
X126289442Y-86873583D01*
X126227000Y-86811032D01*
X126227000Y-80714269D01*
X129422900Y-80714269D01*
X129510558Y-80926417D01*
X129573000Y-80988968D01*
X129573000Y-94210956D01*
X129511129Y-94272719D01*
X129423100Y-94484714D01*
X129422900Y-94714259D01*
X129510558Y-94926407D01*
X129573000Y-94988958D01*
X129573000Y-115210966D01*
X129511129Y-115272729D01*
X129423100Y-115484724D01*
X129422900Y-115714269D01*
X129510558Y-115926417D01*
X129672729Y-116088871D01*
X129884724Y-116176900D01*
X130114269Y-116177100D01*
X130326417Y-116089442D01*
X130488871Y-115927271D01*
X130576900Y-115715276D01*
X130576900Y-115714484D01*
X136824917Y-115714484D01*
X136912575Y-115926632D01*
X137074746Y-116089086D01*
X137286741Y-116177115D01*
X137516286Y-116177315D01*
X137728434Y-116089657D01*
X137890888Y-115927486D01*
X137978917Y-115715491D01*
X137979117Y-115485946D01*
X137891459Y-115273798D01*
X137834806Y-115217046D01*
X137834806Y-109363927D01*
X137896677Y-109302164D01*
X137984706Y-109090169D01*
X137984706Y-109089164D01*
X138822900Y-109089164D01*
X138910558Y-109301312D01*
X138973164Y-109364027D01*
X138973164Y-115223896D01*
X138911293Y-115285659D01*
X138823264Y-115497654D01*
X138823064Y-115727199D01*
X138910722Y-115939347D01*
X139072893Y-116101801D01*
X139284888Y-116189830D01*
X139514433Y-116190030D01*
X139726581Y-116102372D01*
X139889035Y-115940201D01*
X139977064Y-115728206D01*
X139977064Y-115727199D01*
X140821736Y-115727199D01*
X140909394Y-115939347D01*
X141071565Y-116101801D01*
X141283560Y-116189830D01*
X141513105Y-116190030D01*
X141725253Y-116102372D01*
X141887707Y-115940201D01*
X141975736Y-115728206D01*
X141975936Y-115498661D01*
X141888278Y-115286513D01*
X141825836Y-115223962D01*
X141825836Y-110015113D01*
X141888871Y-109952188D01*
X141976900Y-109740193D01*
X141977100Y-109510648D01*
X141889442Y-109298500D01*
X141727271Y-109136046D01*
X141515276Y-109048017D01*
X141285731Y-109047817D01*
X141073583Y-109135475D01*
X140911129Y-109297646D01*
X140823100Y-109509641D01*
X140822900Y-109739186D01*
X140910558Y-109951334D01*
X140971836Y-110012719D01*
X140971836Y-115223896D01*
X140909965Y-115285659D01*
X140821936Y-115497654D01*
X140821736Y-115727199D01*
X139977064Y-115727199D01*
X139977264Y-115498661D01*
X139889606Y-115286513D01*
X139827164Y-115223962D01*
X139827164Y-109363766D01*
X139888871Y-109302166D01*
X139976900Y-109090171D01*
X139977100Y-108860626D01*
X139889442Y-108648478D01*
X139727271Y-108486024D01*
X139515276Y-108397995D01*
X139285731Y-108397795D01*
X139073583Y-108485453D01*
X138911129Y-108647624D01*
X138823100Y-108859619D01*
X138822900Y-109089164D01*
X137984706Y-109089164D01*
X137984906Y-108860624D01*
X137897248Y-108648476D01*
X137735077Y-108486022D01*
X137523082Y-108397993D01*
X137293537Y-108397793D01*
X137081389Y-108485451D01*
X136918935Y-108647622D01*
X136830906Y-108859617D01*
X136830706Y-109089162D01*
X136918364Y-109301310D01*
X136980806Y-109363861D01*
X136980806Y-115205402D01*
X136913146Y-115272944D01*
X136825117Y-115484939D01*
X136824917Y-115714484D01*
X130576900Y-115714484D01*
X130577100Y-115485731D01*
X130489442Y-115273583D01*
X130427000Y-115211032D01*
X130427000Y-108108151D01*
X144720646Y-108108151D01*
X144808304Y-108320299D01*
X144970455Y-108482733D01*
X144970455Y-115233302D01*
X144908584Y-115295065D01*
X144820555Y-115507060D01*
X144820355Y-115736605D01*
X144908013Y-115948753D01*
X145070184Y-116111207D01*
X145282179Y-116199236D01*
X145511724Y-116199436D01*
X145723872Y-116111778D01*
X145886326Y-115949607D01*
X145974355Y-115737612D01*
X145974555Y-115508067D01*
X145886897Y-115295919D01*
X145824455Y-115233368D01*
X145824455Y-110389208D01*
X146112529Y-110389208D01*
X146200187Y-110601356D01*
X146362358Y-110763810D01*
X146574353Y-110851839D01*
X146803898Y-110852039D01*
X146977422Y-110780340D01*
X146977422Y-115220270D01*
X146915551Y-115282033D01*
X146827522Y-115494028D01*
X146827322Y-115723573D01*
X146914980Y-115935721D01*
X147077151Y-116098175D01*
X147289146Y-116186204D01*
X147518691Y-116186404D01*
X147730839Y-116098746D01*
X147893293Y-115936575D01*
X147979034Y-115730089D01*
X148821257Y-115730089D01*
X148908915Y-115942237D01*
X149071086Y-116104691D01*
X149283081Y-116192720D01*
X149512626Y-116192920D01*
X149724774Y-116105262D01*
X149887228Y-115943091D01*
X149975257Y-115731096D01*
X149975257Y-115730089D01*
X150815191Y-115730089D01*
X150902849Y-115942237D01*
X151065020Y-116104691D01*
X151277015Y-116192720D01*
X151506560Y-116192920D01*
X151718708Y-116105262D01*
X151881162Y-115943091D01*
X151969191Y-115731096D01*
X151969197Y-115723103D01*
X152819886Y-115723103D01*
X152907544Y-115935251D01*
X153069715Y-116097705D01*
X153281710Y-116185734D01*
X153511255Y-116185934D01*
X153723403Y-116098276D01*
X153885857Y-115936105D01*
X153973886Y-115724110D01*
X153974086Y-115494565D01*
X153886428Y-115282417D01*
X153827000Y-115222885D01*
X153827000Y-109189034D01*
X153888871Y-109127271D01*
X153976900Y-108915276D01*
X153977100Y-108685731D01*
X153889442Y-108473583D01*
X153727271Y-108311129D01*
X153515276Y-108223100D01*
X153285731Y-108222900D01*
X153073583Y-108310558D01*
X152911129Y-108472729D01*
X152823100Y-108684724D01*
X152822900Y-108914269D01*
X152910558Y-109126417D01*
X152973000Y-109188968D01*
X152973000Y-115216791D01*
X152908115Y-115281563D01*
X152820086Y-115493558D01*
X152819886Y-115723103D01*
X151969197Y-115723103D01*
X151969391Y-115501551D01*
X151881733Y-115289403D01*
X151819291Y-115226852D01*
X151819291Y-111474050D01*
X151869491Y-111453308D01*
X152031945Y-111291137D01*
X152119974Y-111079142D01*
X152120174Y-110849597D01*
X152032516Y-110637449D01*
X151870345Y-110474995D01*
X151658350Y-110386966D01*
X151428805Y-110386766D01*
X151216657Y-110474424D01*
X151054203Y-110636595D01*
X150966174Y-110848590D01*
X150965974Y-111078135D01*
X150970415Y-111088883D01*
X150965290Y-111114649D01*
X150965291Y-111114654D01*
X150965291Y-115226786D01*
X150903420Y-115288549D01*
X150815391Y-115500544D01*
X150815191Y-115730089D01*
X149975257Y-115730089D01*
X149975457Y-115501551D01*
X149887799Y-115289403D01*
X149825357Y-115226852D01*
X149825357Y-109728557D01*
X149888871Y-109665154D01*
X149976900Y-109453159D01*
X149977100Y-109223614D01*
X149889442Y-109011466D01*
X149727271Y-108849012D01*
X149515276Y-108760983D01*
X149285731Y-108760783D01*
X149073583Y-108848441D01*
X148911129Y-109010612D01*
X148823100Y-109222607D01*
X148822900Y-109452152D01*
X148910558Y-109664300D01*
X148971357Y-109725205D01*
X148971357Y-115226786D01*
X148909486Y-115288549D01*
X148821457Y-115500544D01*
X148821257Y-115730089D01*
X147979034Y-115730089D01*
X147981322Y-115724580D01*
X147981522Y-115495035D01*
X147893864Y-115282887D01*
X147831422Y-115220336D01*
X147831422Y-111590425D01*
X147849924Y-111635203D01*
X148012095Y-111797657D01*
X148224090Y-111885686D01*
X148453635Y-111885886D01*
X148665783Y-111798228D01*
X148828237Y-111636057D01*
X148916266Y-111424062D01*
X148916466Y-111194517D01*
X148828808Y-110982369D01*
X148772076Y-110925538D01*
X148772076Y-105033406D01*
X150300000Y-105033406D01*
X150421179Y-105010605D01*
X150532474Y-104938988D01*
X150607138Y-104829714D01*
X150633406Y-104700000D01*
X150633406Y-103700000D01*
X150610605Y-103578821D01*
X150538988Y-103467526D01*
X150429714Y-103392862D01*
X150300000Y-103366594D01*
X150027000Y-103366594D01*
X150027000Y-102885447D01*
X150076900Y-102765276D01*
X150077100Y-102535731D01*
X149989442Y-102323583D01*
X149827271Y-102161129D01*
X149615276Y-102073100D01*
X149385731Y-102072900D01*
X149173583Y-102160558D01*
X149011129Y-102322729D01*
X148923100Y-102534724D01*
X148922900Y-102764269D01*
X148973000Y-102885520D01*
X148973000Y-103366594D01*
X148772076Y-103366594D01*
X148772076Y-101833406D01*
X150300000Y-101833406D01*
X150421179Y-101810605D01*
X150532474Y-101738988D01*
X150607138Y-101629714D01*
X150633406Y-101500000D01*
X150633406Y-100500000D01*
X150610605Y-100378821D01*
X150538988Y-100267526D01*
X150429714Y-100192862D01*
X150300000Y-100166594D01*
X149849479Y-100166594D01*
X149888871Y-100127271D01*
X149976900Y-99915276D01*
X149977100Y-99685731D01*
X149889442Y-99473583D01*
X149727271Y-99311129D01*
X149515276Y-99223100D01*
X149285731Y-99222900D01*
X149073583Y-99310558D01*
X148911129Y-99472729D01*
X148823100Y-99684724D01*
X148822900Y-99914269D01*
X148910558Y-100126417D01*
X148950665Y-100166594D01*
X148772076Y-100166594D01*
X148772076Y-79745076D01*
X148739573Y-79581670D01*
X148647011Y-79443141D01*
X148647008Y-79443139D01*
X148577024Y-79373155D01*
X148577100Y-79285731D01*
X148489442Y-79073583D01*
X148327271Y-78911129D01*
X148115276Y-78823100D01*
X147885731Y-78822900D01*
X147673583Y-78910558D01*
X147600014Y-78983999D01*
X147527271Y-78911129D01*
X147315276Y-78823100D01*
X147085731Y-78822900D01*
X146873583Y-78910558D01*
X146711129Y-79072729D01*
X146623100Y-79284724D01*
X146622900Y-79514269D01*
X146710558Y-79726417D01*
X146773000Y-79788968D01*
X146773000Y-109587699D01*
X146662783Y-109697915D01*
X146575360Y-109697839D01*
X146363212Y-109785497D01*
X146200758Y-109947668D01*
X146112729Y-110159663D01*
X146112529Y-110389208D01*
X145824455Y-110389208D01*
X145824455Y-108230030D01*
X145874646Y-108109158D01*
X145874846Y-107879613D01*
X145874846Y-107879612D01*
X145787188Y-107667464D01*
X145625017Y-107505010D01*
X145413022Y-107416981D01*
X145183477Y-107416781D01*
X144971329Y-107504439D01*
X144808875Y-107666610D01*
X144720846Y-107878605D01*
X144720846Y-107878606D01*
X144720646Y-108108151D01*
X130427000Y-108108151D01*
X130427000Y-104485750D01*
X131565000Y-104485750D01*
X131565000Y-104826310D01*
X131661673Y-105059699D01*
X131840302Y-105238327D01*
X132073691Y-105335000D01*
X132714250Y-105335000D01*
X132873000Y-105176250D01*
X132873000Y-104327000D01*
X133127000Y-104327000D01*
X133127000Y-105176250D01*
X133285750Y-105335000D01*
X133926309Y-105335000D01*
X134159698Y-105238327D01*
X134338327Y-105059699D01*
X134435000Y-104826310D01*
X134435000Y-104485750D01*
X134276250Y-104327000D01*
X133127000Y-104327000D01*
X132873000Y-104327000D01*
X131723750Y-104327000D01*
X131565000Y-104485750D01*
X130427000Y-104485750D01*
X130427000Y-103573690D01*
X131565000Y-103573690D01*
X131565000Y-103914250D01*
X131723750Y-104073000D01*
X132873000Y-104073000D01*
X132873000Y-103223750D01*
X133127000Y-103223750D01*
X133127000Y-104073000D01*
X134276250Y-104073000D01*
X134435000Y-103914250D01*
X134435000Y-103700000D01*
X136866594Y-103700000D01*
X136866594Y-104700000D01*
X136889395Y-104821179D01*
X136961012Y-104932474D01*
X137070286Y-105007138D01*
X137200000Y-105033406D01*
X138800000Y-105033406D01*
X138921179Y-105010605D01*
X139032474Y-104938988D01*
X139107138Y-104829714D01*
X139133406Y-104700000D01*
X139133406Y-104485750D01*
X143065000Y-104485750D01*
X143065000Y-104826310D01*
X143161673Y-105059699D01*
X143340302Y-105238327D01*
X143573691Y-105335000D01*
X144214250Y-105335000D01*
X144373000Y-105176250D01*
X144373000Y-104327000D01*
X144627000Y-104327000D01*
X144627000Y-105176250D01*
X144785750Y-105335000D01*
X145426309Y-105335000D01*
X145659698Y-105238327D01*
X145838327Y-105059699D01*
X145935000Y-104826310D01*
X145935000Y-104485750D01*
X145776250Y-104327000D01*
X144627000Y-104327000D01*
X144373000Y-104327000D01*
X143223750Y-104327000D01*
X143065000Y-104485750D01*
X139133406Y-104485750D01*
X139133406Y-103700000D01*
X139110605Y-103578821D01*
X139107304Y-103573690D01*
X143065000Y-103573690D01*
X143065000Y-103914250D01*
X143223750Y-104073000D01*
X144373000Y-104073000D01*
X144373000Y-103223750D01*
X144627000Y-103223750D01*
X144627000Y-104073000D01*
X145776250Y-104073000D01*
X145935000Y-103914250D01*
X145935000Y-103573690D01*
X145838327Y-103340301D01*
X145659698Y-103161673D01*
X145426309Y-103065000D01*
X144785750Y-103065000D01*
X144627000Y-103223750D01*
X144373000Y-103223750D01*
X144214250Y-103065000D01*
X143573691Y-103065000D01*
X143340302Y-103161673D01*
X143161673Y-103340301D01*
X143065000Y-103573690D01*
X139107304Y-103573690D01*
X139038988Y-103467526D01*
X138929714Y-103392862D01*
X138800000Y-103366594D01*
X138527000Y-103366594D01*
X138527000Y-102885447D01*
X138576900Y-102765276D01*
X138577100Y-102535731D01*
X138489442Y-102323583D01*
X138327271Y-102161129D01*
X138115276Y-102073100D01*
X137885731Y-102072900D01*
X137673583Y-102160558D01*
X137511129Y-102322729D01*
X137423100Y-102534724D01*
X137422900Y-102764269D01*
X137473000Y-102885520D01*
X137473000Y-103366594D01*
X137200000Y-103366594D01*
X137078821Y-103389395D01*
X136967526Y-103461012D01*
X136892862Y-103570286D01*
X136866594Y-103700000D01*
X134435000Y-103700000D01*
X134435000Y-103573690D01*
X134338327Y-103340301D01*
X134159698Y-103161673D01*
X133926309Y-103065000D01*
X133285750Y-103065000D01*
X133127000Y-103223750D01*
X132873000Y-103223750D01*
X132714250Y-103065000D01*
X132073691Y-103065000D01*
X131840302Y-103161673D01*
X131661673Y-103340301D01*
X131565000Y-103573690D01*
X130427000Y-103573690D01*
X130427000Y-100500000D01*
X131866594Y-100500000D01*
X131866594Y-101500000D01*
X131889395Y-101621179D01*
X131961012Y-101732474D01*
X132070286Y-101807138D01*
X132200000Y-101833406D01*
X133800000Y-101833406D01*
X133921179Y-101810605D01*
X134032474Y-101738988D01*
X134107138Y-101629714D01*
X134133406Y-101500000D01*
X134133406Y-100500000D01*
X136866594Y-100500000D01*
X136866594Y-101500000D01*
X136889395Y-101621179D01*
X136961012Y-101732474D01*
X137070286Y-101807138D01*
X137200000Y-101833406D01*
X138800000Y-101833406D01*
X138921179Y-101810605D01*
X139032474Y-101738988D01*
X139107138Y-101629714D01*
X139133406Y-101500000D01*
X139133406Y-100500000D01*
X143366594Y-100500000D01*
X143366594Y-101500000D01*
X143389395Y-101621179D01*
X143461012Y-101732474D01*
X143570286Y-101807138D01*
X143700000Y-101833406D01*
X145300000Y-101833406D01*
X145421179Y-101810605D01*
X145532474Y-101738988D01*
X145607138Y-101629714D01*
X145633406Y-101500000D01*
X145633406Y-100500000D01*
X145610605Y-100378821D01*
X145538988Y-100267526D01*
X145429714Y-100192862D01*
X145300000Y-100166594D01*
X144927000Y-100166594D01*
X144927000Y-100035447D01*
X144976900Y-99915276D01*
X144977100Y-99685731D01*
X144889442Y-99473583D01*
X144727271Y-99311129D01*
X144515276Y-99223100D01*
X144285731Y-99222900D01*
X144073583Y-99310558D01*
X143911129Y-99472729D01*
X143823100Y-99684724D01*
X143822900Y-99914269D01*
X143910558Y-100126417D01*
X143950665Y-100166594D01*
X143700000Y-100166594D01*
X143578821Y-100189395D01*
X143467526Y-100261012D01*
X143392862Y-100370286D01*
X143366594Y-100500000D01*
X139133406Y-100500000D01*
X139110605Y-100378821D01*
X139038988Y-100267526D01*
X138929714Y-100192862D01*
X138800000Y-100166594D01*
X138449479Y-100166594D01*
X138488871Y-100127271D01*
X138576900Y-99915276D01*
X138577100Y-99685731D01*
X138489442Y-99473583D01*
X138327271Y-99311129D01*
X138115276Y-99223100D01*
X137885731Y-99222900D01*
X137673583Y-99310558D01*
X137511129Y-99472729D01*
X137423100Y-99684724D01*
X137422900Y-99914269D01*
X137510558Y-100126417D01*
X137550665Y-100166594D01*
X137200000Y-100166594D01*
X137078821Y-100189395D01*
X136967526Y-100261012D01*
X136892862Y-100370286D01*
X136866594Y-100500000D01*
X134133406Y-100500000D01*
X134110605Y-100378821D01*
X134038988Y-100267526D01*
X133929714Y-100192862D01*
X133800000Y-100166594D01*
X133449479Y-100166594D01*
X133488871Y-100127271D01*
X133576900Y-99915276D01*
X133577100Y-99685731D01*
X133489442Y-99473583D01*
X133327271Y-99311129D01*
X133115276Y-99223100D01*
X132885731Y-99222900D01*
X132673583Y-99310558D01*
X132511129Y-99472729D01*
X132423100Y-99684724D01*
X132422900Y-99914269D01*
X132510558Y-100126417D01*
X132550665Y-100166594D01*
X132200000Y-100166594D01*
X132078821Y-100189395D01*
X131967526Y-100261012D01*
X131892862Y-100370286D01*
X131866594Y-100500000D01*
X130427000Y-100500000D01*
X130427000Y-94989024D01*
X130488871Y-94927261D01*
X130576900Y-94715266D01*
X130577100Y-94485721D01*
X130489442Y-94273573D01*
X130427000Y-94211022D01*
X130427000Y-80989034D01*
X130488871Y-80927271D01*
X130576900Y-80715276D01*
X130577100Y-80485731D01*
X130489442Y-80273583D01*
X130327271Y-80111129D01*
X130115276Y-80023100D01*
X129885731Y-80022900D01*
X129673583Y-80110558D01*
X129511129Y-80272729D01*
X129423100Y-80484724D01*
X129422900Y-80714269D01*
X126227000Y-80714269D01*
X126227000Y-78314269D01*
X156622900Y-78314269D01*
X156710558Y-78526417D01*
X156773000Y-78588968D01*
X156773000Y-81398144D01*
X156713987Y-81457054D01*
X156625958Y-81669049D01*
X156625758Y-81898594D01*
X156713416Y-82110742D01*
X156875587Y-82273196D01*
X157087582Y-82361225D01*
X157317127Y-82361425D01*
X157529275Y-82273767D01*
X157691729Y-82111596D01*
X157779758Y-81899601D01*
X157779958Y-81670056D01*
X157692300Y-81457908D01*
X157627000Y-81392494D01*
X157627000Y-78589034D01*
X157688871Y-78527271D01*
X157776900Y-78315276D01*
X157777100Y-78085731D01*
X157689442Y-77873583D01*
X157527271Y-77711129D01*
X157315276Y-77623100D01*
X157085731Y-77622900D01*
X156873583Y-77710558D01*
X156711129Y-77872729D01*
X156623100Y-78084724D01*
X156622900Y-78314269D01*
X126227000Y-78314269D01*
X126227000Y-74389034D01*
X126288871Y-74327271D01*
X126376900Y-74115276D01*
X126377100Y-73885731D01*
X126289442Y-73673583D01*
X126127271Y-73511129D01*
X125915276Y-73423100D01*
X125685731Y-73422900D01*
X125473583Y-73510558D01*
X125311129Y-73672729D01*
X125223100Y-73884724D01*
X125222900Y-74114269D01*
X119077000Y-74114269D01*
X119077000Y-72439034D01*
X119138871Y-72377271D01*
X119226900Y-72165276D01*
X119227100Y-71935731D01*
X119139442Y-71723583D01*
X118977271Y-71561129D01*
X118765276Y-71473100D01*
X118535731Y-71472900D01*
X118323583Y-71560558D01*
X118161129Y-71722729D01*
X118073100Y-71934724D01*
X118072900Y-72164269D01*
X104027000Y-72164269D01*
X104027000Y-71797003D01*
X104027001Y-71796998D01*
X103994497Y-71633592D01*
X103987420Y-71623000D01*
X103901935Y-71495063D01*
X103901932Y-71495061D01*
X103629936Y-71223064D01*
X103491407Y-71130502D01*
X103328001Y-71097998D01*
X103327996Y-71097999D01*
X101875006Y-71097999D01*
X101875001Y-71097998D01*
X101728698Y-71127100D01*
X101711595Y-71130502D01*
X101573066Y-71223064D01*
X101573064Y-71223067D01*
X100573154Y-72222976D01*
X100485731Y-72222900D01*
X100477000Y-72226508D01*
X100477000Y-67039034D01*
X100538871Y-66977271D01*
X100626900Y-66765276D01*
X100627100Y-66535731D01*
X100539442Y-66323583D01*
X100377271Y-66161129D01*
X100165276Y-66073100D01*
X100127067Y-66073067D01*
X100127100Y-66035731D01*
X100039442Y-65823583D01*
X99877271Y-65661129D01*
X99665276Y-65573100D01*
X99435731Y-65572900D01*
X99223583Y-65660558D01*
X99061129Y-65822729D01*
X98973100Y-66034724D01*
X98972900Y-66264269D01*
X99060558Y-66476417D01*
X99123000Y-66538968D01*
X99123000Y-89473130D01*
X97523154Y-91072976D01*
X97435731Y-91072900D01*
X97223583Y-91160558D01*
X97061129Y-91322729D01*
X96973100Y-91534724D01*
X96972900Y-91764269D01*
X93688508Y-91764269D01*
X93163693Y-78998711D01*
X98823732Y-63570151D01*
X100735191Y-60709450D01*
X100749400Y-60675146D01*
X100770030Y-60644272D01*
X100777274Y-60607855D01*
X100791484Y-60573549D01*
X100791484Y-60536415D01*
X100798727Y-60500000D01*
X100791483Y-60463583D01*
X100791483Y-60426451D01*
X100777274Y-60392148D01*
X100770030Y-60355728D01*
X100749400Y-60324853D01*
X100735191Y-60290550D01*
X100708935Y-60264294D01*
X100688306Y-60233421D01*
X100657433Y-60212792D01*
X100631177Y-60186536D01*
X100596874Y-60172327D01*
X100565999Y-60151697D01*
X100529579Y-60144453D01*
X100495276Y-60130244D01*
X100458146Y-60130244D01*
X100421727Y-60123000D01*
X85077000Y-60123000D01*
X85077000Y-59526941D01*
X129643000Y-59526941D01*
X129643000Y-59573059D01*
X129732594Y-60023477D01*
X129987735Y-60405324D01*
X130369582Y-60660465D01*
X130820000Y-60750059D01*
X131270418Y-60660465D01*
X131652265Y-60405324D01*
X131907406Y-60023477D01*
X131997000Y-59573059D01*
X131997000Y-59526941D01*
X132183000Y-59526941D01*
X132183000Y-59573059D01*
X132272594Y-60023477D01*
X132527735Y-60405324D01*
X132909582Y-60660465D01*
X133360000Y-60750059D01*
X133810418Y-60660465D01*
X134192265Y-60405324D01*
X134447406Y-60023477D01*
X134537000Y-59573059D01*
X134537000Y-59526941D01*
X134723000Y-59526941D01*
X134723000Y-59573059D01*
X134812594Y-60023477D01*
X135067735Y-60405324D01*
X135449582Y-60660465D01*
X135900000Y-60750059D01*
X136350418Y-60660465D01*
X136732265Y-60405324D01*
X136955000Y-60071976D01*
X136955000Y-60526309D01*
X137051673Y-60759698D01*
X137230301Y-60938327D01*
X137463690Y-61035000D01*
X138154250Y-61035000D01*
X138313000Y-60876250D01*
X138313000Y-59677000D01*
X138567000Y-59677000D01*
X138567000Y-60876250D01*
X138725750Y-61035000D01*
X139416310Y-61035000D01*
X139649699Y-60938327D01*
X139828327Y-60759698D01*
X139925000Y-60526309D01*
X139925000Y-59835750D01*
X139766250Y-59677000D01*
X138567000Y-59677000D01*
X138313000Y-59677000D01*
X138293000Y-59677000D01*
X138293000Y-59423000D01*
X138313000Y-59423000D01*
X138313000Y-58223750D01*
X138567000Y-58223750D01*
X138567000Y-59423000D01*
X139766250Y-59423000D01*
X139925000Y-59264250D01*
X139925000Y-58573691D01*
X139828327Y-58340302D01*
X139649699Y-58161673D01*
X139416310Y-58065000D01*
X138725750Y-58065000D01*
X138567000Y-58223750D01*
X138313000Y-58223750D01*
X138154250Y-58065000D01*
X137463690Y-58065000D01*
X137230301Y-58161673D01*
X137051673Y-58340302D01*
X136955000Y-58573691D01*
X136955000Y-59028024D01*
X136732265Y-58694676D01*
X136350418Y-58439535D01*
X135900000Y-58349941D01*
X135449582Y-58439535D01*
X135067735Y-58694676D01*
X134812594Y-59076523D01*
X134723000Y-59526941D01*
X134537000Y-59526941D01*
X134447406Y-59076523D01*
X134192265Y-58694676D01*
X133810418Y-58439535D01*
X133360000Y-58349941D01*
X132909582Y-58439535D01*
X132527735Y-58694676D01*
X132272594Y-59076523D01*
X132183000Y-59526941D01*
X131997000Y-59526941D01*
X131907406Y-59076523D01*
X131652265Y-58694676D01*
X131270418Y-58439535D01*
X130820000Y-58349941D01*
X130369582Y-58439535D01*
X129987735Y-58694676D01*
X129732594Y-59076523D01*
X129643000Y-59526941D01*
X85077000Y-59526941D01*
X85077000Y-35877000D01*
X109323000Y-35877000D01*
X109323000Y-51221727D01*
M02*
