G04 #@! TF.FileFunction,Paste,Top*
%FSLAX46Y46*%
G04 Gerber Fmt 4.6, Leading zero omitted, Abs format (unit mm)*
G04 Created by KiCad (PCBNEW 4.0.7) date Thu Dec  7 16:12:30 2017*
%MOMM*%
%LPD*%
G01*
G04 APERTURE LIST*
%ADD10C,0.100000*%
%ADD11R,1.600000X1.000000*%
G04 APERTURE END LIST*
D10*
D11*
X161000000Y-104200000D03*
X161000000Y-101000000D03*
X156000000Y-104200000D03*
X156000000Y-101000000D03*
X149500000Y-104200000D03*
X149500000Y-101000000D03*
X144500000Y-104200000D03*
X144500000Y-101000000D03*
X138000000Y-104200000D03*
X138000000Y-101000000D03*
X133000000Y-104200000D03*
X133000000Y-101000000D03*
X126500000Y-104200000D03*
X126500000Y-101000000D03*
X121500000Y-104200000D03*
X121500000Y-101000000D03*
X115000000Y-104200000D03*
X115000000Y-101000000D03*
X110000000Y-104200000D03*
X110000000Y-101000000D03*
D10*
G36*
X179800000Y-112562000D02*
X179800000Y-111038000D01*
X183800000Y-111038000D01*
X183800000Y-112562000D01*
X179800000Y-112562000D01*
X179800000Y-112562000D01*
G37*
G36*
X179800000Y-134762000D02*
X179800000Y-133238000D01*
X183800000Y-133238000D01*
X183800000Y-134762000D01*
X179800000Y-134762000D01*
X179800000Y-134762000D01*
G37*
G36*
X172162000Y-134800000D02*
X170638000Y-134800000D01*
X170638000Y-130800000D01*
X172162000Y-130800000D01*
X172162000Y-134800000D01*
X172162000Y-134800000D01*
G37*
G36*
X174162000Y-134800000D02*
X172638000Y-134800000D01*
X172638000Y-130800000D01*
X174162000Y-130800000D01*
X174162000Y-134800000D01*
X174162000Y-134800000D01*
G37*
G36*
X166562000Y-135000000D02*
X165038000Y-135000000D01*
X165038000Y-131000000D01*
X166562000Y-131000000D01*
X166562000Y-135000000D01*
X166562000Y-135000000D01*
G37*
G36*
X168562000Y-135000000D02*
X167038000Y-135000000D01*
X167038000Y-131000000D01*
X168562000Y-131000000D01*
X168562000Y-135000000D01*
X168562000Y-135000000D01*
G37*
G36*
X163562000Y-135000000D02*
X162038000Y-135000000D01*
X162038000Y-131000000D01*
X163562000Y-131000000D01*
X163562000Y-135000000D01*
X163562000Y-135000000D01*
G37*
G36*
X161762000Y-135000000D02*
X160238000Y-135000000D01*
X160238000Y-131000000D01*
X161762000Y-131000000D01*
X161762000Y-135000000D01*
X161762000Y-135000000D01*
G37*
G36*
X176162000Y-134800000D02*
X174638000Y-134800000D01*
X174638000Y-130800000D01*
X176162000Y-130800000D01*
X176162000Y-134800000D01*
X176162000Y-134800000D01*
G37*
G36*
X178162000Y-134800000D02*
X176638000Y-134800000D01*
X176638000Y-130800000D01*
X178162000Y-130800000D01*
X178162000Y-134800000D01*
X178162000Y-134800000D01*
G37*
M02*
