G04 #@! TF.FileFunction,Profile,NP*
%FSLAX46Y46*%
G04 Gerber Fmt 4.6, Leading zero omitted, Abs format (unit mm)*
G04 Created by KiCad (PCBNEW 4.0.6) date 10/16/17 12:02:40*
%MOMM*%
%LPD*%
G01*
G04 APERTURE LIST*
%ADD10C,0.100000*%
%ADD11C,0.150000*%
G04 APERTURE END LIST*
D10*
D11*
X161850000Y-116850000D02*
G75*
G03X162650000Y-117650000I400000J-400000D01*
G01*
X167050000Y-113250000D02*
G75*
G03X166250000Y-112450000I-400000J400000D01*
G01*
X161850000Y-116850000D02*
X166250000Y-112450000D01*
X167050000Y-113250000D02*
X162650000Y-117650000D01*
X137150000Y-48050000D02*
G75*
G03X137150000Y-48050000I-2500000J0D01*
G01*
D10*
X109700000Y-35500000D02*
X109700000Y-51221727D01*
X109700000Y-119778273D02*
X109700000Y-135500000D01*
X84700000Y-110500000D02*
X100421727Y-110500000D01*
X100421727Y-60500000D02*
X84700000Y-60500000D01*
X159700000Y-51221727D02*
X159700000Y-35500000D01*
X100421727Y-110500000D02*
G75*
G02X100421727Y-60500000I34278273J25000000D01*
G01*
X84700000Y-135500000D02*
X84700000Y-110500000D01*
X184700000Y-60500000D02*
X168978273Y-60500000D01*
X109700000Y-51221727D02*
G75*
G02X159700000Y-51221727I25000000J-34278273D01*
G01*
X159700000Y-119778273D02*
G75*
G02X109700000Y-119778273I-25000000J34278273D01*
G01*
X184700000Y-35500000D02*
X184700000Y-60500000D01*
X168978273Y-60500000D02*
G75*
G02X168978273Y-110500000I-34278273J-25000000D01*
G01*
X184700000Y-110500000D02*
X184700000Y-135500000D01*
X159700000Y-35500000D02*
X184700000Y-35500000D01*
X84700000Y-35500000D02*
X109700000Y-35500000D01*
X168978273Y-110500000D02*
X184700000Y-110500000D01*
X159700000Y-135500000D02*
X159700000Y-119778273D01*
X184700000Y-135500000D02*
X159700000Y-135500000D01*
X84700000Y-60500000D02*
X84700000Y-35500000D01*
X109700000Y-135500000D02*
X84700000Y-135500000D01*
X437605244Y-21161024D02*
G75*
G02X446869752Y-21748667I4569921J-1276533D01*
G01*
X432362394Y-22115937D02*
G75*
G02X437605243Y-21161024I2802597J-517252D01*
G01*
X446869752Y-21748666D02*
G75*
G02X451442326Y-26009051I1791137J-2661626D01*
G01*
X429644566Y-24686869D02*
G75*
G02X432362394Y-22115937I3145434J-603131D01*
G01*
X487776990Y-164261991D02*
G75*
G02X485401196Y-160655437I819759J3125807D01*
G01*
X491187942Y-193420117D02*
G75*
G02X482377988Y-223062024I-7297997J-13961111D01*
G01*
X357188831Y-185292117D02*
G75*
G02X373896387Y-169487673I19555134J-3939211D01*
G01*
X463078609Y-167229895D02*
G75*
G02X488380839Y-169886147I11080721J-16286976D01*
G01*
X492815715Y-177193322D02*
G75*
G02X491187943Y-193420117I-18656385J-6323549D01*
G01*
X406126164Y-163617450D02*
G75*
G02X463078610Y-167229895I28097742J-7773217D01*
G01*
X373896388Y-169487674D02*
G75*
G02X406126165Y-163617451I17228226J-3177539D01*
G01*
X360519053Y-223053452D02*
G75*
G02X357188832Y-185292117I381866J19061193D01*
G01*
X495157224Y-174162525D02*
X493895995Y-174724389D01*
X495157224Y-174162524D02*
G75*
G02X497959710Y-175776345I813871J-1826914D01*
G01*
X491918652Y-166010466D02*
G75*
G02X492085000Y-169260000I-1078582J-1684239D01*
G01*
X487776990Y-164261991D02*
G75*
G02X491918652Y-166010466I-3018267J-12928927D01*
G01*
X499836093Y-184589045D02*
G75*
G02X497509721Y-180889451I849691J3115531D01*
G01*
X487756423Y-149336668D02*
G75*
G02X491357276Y-146909895I3114271J-736100D01*
G01*
X492815714Y-177193322D02*
G75*
G02X493895995Y-174724389I1894152J642019D01*
G01*
X514330164Y-185687229D02*
G75*
G02X511333478Y-187689236I-2996686J1241778D01*
G01*
X491357276Y-146909895D02*
G75*
G02X514330165Y-185687229I-7865500J-30853356D01*
G01*
X491069655Y-170067537D02*
G75*
G02X488380839Y-169886147I-1244930J1565295D01*
G01*
X497959711Y-175776345D02*
G75*
G02X497509721Y-180889451I-13200988J-1414573D01*
G01*
X499836094Y-184589045D02*
X511333478Y-187689236D01*
X360519054Y-223053451D02*
X482377988Y-223062024D01*
X487756424Y-149336667D02*
X485401196Y-160655437D01*
X492085000Y-169260000D02*
X491069655Y-170067537D01*
X463106771Y-9253612D02*
X386558952Y-9253612D01*
X449918119Y-30829548D02*
X430241367Y-30829548D01*
X430249875Y-30830154D02*
G75*
G02X429644566Y-24686868I-2200J3101247D01*
G01*
X386558952Y-9253612D02*
X387950614Y-67713049D01*
X451442327Y-26009050D02*
G75*
G02X449918119Y-30829548I-1561704J-2157421D01*
G01*
X461716718Y-67713048D02*
G75*
G02X387950614Y-67713049I-36883052J6069077D01*
G01*
X461716718Y-67713049D02*
X463106771Y-9253612D01*
M02*
